<svg width="297" height="137" viewBox="0 0 297 137" fill="none" xmlns="http://www.w3.org/2000/svg">
<path d="M7.27 78.46C7.27 77.42 7.27 76.51 7.27 75.6C7.27 58.89 7.14 42.19 7.32 25.48C7.4 18.29 9.62 11.68 14.51 6.19C14.88 5.78 15.64 5.53 16.22 5.53C42.13 5.5 68.04 5.5 93.96 5.5C120.41 5.5 146.87 5.42 173.32 5.55C181.03 5.59 188.51 7.31 195.73 10.1C202.5 12.72 208.64 16.37 214.16 21.05C219.56 25.63 224.9 30.3 230.29 34.9C235.59 39.42 240.9 43.93 246.25 48.39C249.2 50.86 252.13 53.38 255.27 55.59C259.29 58.43 263.84 60.27 268.42 62.04C272.4 63.58 276.5 64.86 280.14 67.2C284.33 69.89 287.05 73.62 288.41 78.45H7.27V78.46ZM171.5 63.51V25.75H164.28C121.66 25.75 79.03 25.75 36.41 25.76C34.59 25.76 32.76 25.86 30.94 26.01C28.04 26.24 25.62 28.61 25.45 31.45C25.26 34.58 25.17 37.71 25.06 40.84C25.02 42.05 25.17 43.27 25.03 44.46C24.73 46.94 26.14 48.67 27.61 50.23C31.44 54.31 35.47 58.21 39.33 62.27C40.2 63.19 41.05 63.51 42.25 63.51C84.83 63.49 127.41 63.49 170 63.49H171.52L171.5 63.51ZM182.98 63.49H245.07C244.64 62.91 244.43 62.56 244.16 62.29C242.3 60.4 240.47 58.47 238.53 56.66C235.41 53.73 232.28 50.81 229.05 48.02C225.3 44.77 221.46 41.62 217.6 38.5C214.26 35.81 210.85 33.2 207.43 30.6C205.67 29.26 203.89 27.9 201.52 27.76C195.93 27.43 190.34 27.06 184.75 26.75C183.07 26.66 182.9 26.89 182.9 28.6C182.9 39.76 182.9 50.92 182.9 62.08C182.9 62.52 182.94 62.97 182.97 63.49H182.98Z" fill="black"/>
<path d="M232.01 86.66C222.85 93.64 219.5 102.62 221.61 113.83H83.38C85.52 102.64 82.13 93.64 73 86.66H232.01Z" fill="black"/>
<path d="M79.91 107.81C79.58 120.33 69.57 128.8 58.7 128.63C46.22 128.43 37.7 118.36 37.88 107.45C38.09 94.94 48.14 86.45 59.06 86.63C71.57 86.83 79.93 96.89 79.91 107.82V107.81ZM70.01 107.64C70.01 101.58 65 96.51 59.02 96.5C52.79 96.5 47.76 101.46 47.76 107.62C47.76 113.73 52.78 118.76 58.88 118.76C64.99 118.76 70.02 113.75 70.02 107.65L70.01 107.64Z" fill="black"/>
<path d="M225.09 107.67C225.22 96.15 234.12 86.67 246.09 86.63C257.67 86.58 267.09 95.69 267.13 107.59C267.18 119.1 258.15 128.59 246.17 128.64C234.57 128.68 225.3 119.56 225.09 107.68V107.67ZM257.26 107.66C257.26 101.59 252.26 96.51 246.28 96.5C240.04 96.5 235 101.45 235 107.6C235 113.72 240.01 118.75 246.1 118.75C252.22 118.75 257.25 113.75 257.25 107.65L257.26 107.66Z" fill="black"/>
<path d="M44.86 86.58C35.6 93.63 32.26 102.62 34.35 113.76C32.42 113.76 30.46 113.76 28.51 113.76C23.64 113.76 18.76 113.76 13.89 113.76C12.98 113.76 12.05 114.01 11.16 113.9C8.56001 113.57 7.31001 111.93 7.28001 109.41C7.22001 102.33 7.28001 95.25 7.26001 88.17C7.26001 87.01 7.55001 86.53 8.88001 86.54C20.38 86.6 31.87 86.58 43.37 86.58H44.86Z" fill="black"/>
<path d="M260.14 86.58H261.74C270.65 86.58 279.57 86.58 288.48 86.58C290.24 86.58 290.3 86.58 290.48 88.28C290.71 90.42 290.89 92.57 290.97 94.72C291.06 97.22 290.82 99.73 291.05 102.21C291.26 104.45 290.38 105.97 288.83 107.4C284.96 110.96 280.45 113.03 275.21 113.5C273.69 113.63 272.17 113.74 270.63 113.86C272.73 102.63 269.39 93.64 260.13 86.58H260.14Z" fill="black"/>
<path d="M34.01 34.09H164.37V55H163.11C123.46 55 83.8 55 44.15 55.02C43.23 55.02 42.56 54.75 41.97 54.09C39.83 51.69 37.85 49.12 35.47 46.98C34.04 45.7 34 44.38 34.01 42.8C34.03 39.93 34.01 37.07 34.01 34.09Z" fill="black"/>
</svg>
