<svg width="255" height="101" viewBox="0 0 255 101" fill="none" xmlns="http://www.w3.org/2000/svg">
<path d="M6.02 63.76C5.93 62.91 5.77 62.15 5.77 61.38C5.75 56.17 5.63 50.95 5.81 45.75C5.93 42.39 7.03 39.31 9.22 36.6C11.8 33.4 15.39 31.61 18.72 29.54C24.79 25.77 31.08 22.34 37.33 18.86C41.41 16.58 45.54 14.37 49.72 12.28C57.45 8.44 65.53 5.61 74.07 4.23C77.4 3.69 80.76 3.35 84.11 2.99C88.29 2.54 92.47 2.12 96.65 1.76C99.33 1.53 102.01 1.42 104.69 1.24C105.63 1.18 106.58 1.01 107.52 1C115.15 0.970002 122.62 2.2 129.95 4.24C139.07 6.79 148.06 9.81 156.74 13.57C163.19 16.37 169.42 19.69 175.7 22.9C179.08 24.63 182.19 27 185.7 28.35C189.84 29.94 194.27 30.78 198.6 31.88C205.32 33.58 212.07 35.12 218.77 36.91C223.98 38.3 229.14 39.86 234.27 41.52C238.12 42.77 241.84 44.48 244.47 47.65C246.46 50.05 247.99 52.84 249.66 55.49C250.23 56.4 250.62 57.42 251.12 58.38C252.1 60.29 252.26 61.31 251.86 63.76C251.48 63.76 251.07 63.76 250.66 63.76C239.12 63.76 227.57 63.76 216.03 63.77C215.28 63.77 214.8 63.57 214.25 62.97C210.23 58.54 205.35 55.71 199.33 54.92C192.6 54.04 186.45 55.4 181.01 59.52C179.57 60.62 178.36 62.02 176.98 63.21C176.6 63.54 175.98 63.73 175.48 63.73C160.27 63.76 145.06 63.75 129.85 63.75C125.56 63.75 121.27 63.75 116.97 63.75C116.52 63.75 116.07 63.75 115.57 63.75V36.58C116.02 36.56 116.42 36.52 116.83 36.52C119.91 36.52 123 36.53 126.08 36.52C139.73 36.44 153.39 36.37 167.04 36.26C167.96 36.26 168.92 36.05 169.8 35.77C170.78 35.46 171.26 34.67 171.4 33.62C171.54 32.53 171.07 32.02 170.11 31.56C163.74 28.47 157.4 25.31 151.04 22.18C141.5 17.49 131.42 14.43 121.04 12.31C117.99 11.69 114.87 11.2 111.76 11.08C107.21 10.9 102.65 11.1 98.1 11.17C85.22 11.36 72.88 14.3 60.82 18.62C55.15 20.65 49.65 23.04 44.7 26.53C42.75 27.9 41.82 30.02 40.98 32.16C40.13 34.34 39.68 36.55 39.73 38.93C39.84 44.43 39.75 49.94 39.78 55.44C39.78 56.26 39.56 56.65 38.79 57.03C35.7 58.54 33 60.59 30.73 63.2C30.48 63.49 29.99 63.74 29.61 63.75C21.82 63.78 14.03 63.77 5.99 63.77L6.02 63.76Z" fill="black"/>
<path d="M108.15 36.61V63.75H106.7C94.49 63.75 82.28 63.75 70.07 63.77C69.14 63.77 68.55 63.54 67.87 62.8C63.85 58.45 58.99 55.58 53.01 54.93C51.29 54.74 49.56 54.68 47.78 54.56V36.61H108.16H108.15Z" fill="black"/>
<path d="M171.36 74.85C170.92 79.28 170.91 83.63 172.59 87.92H72.71C74.34 83.7 74.38 79.33 73.92 74.85H171.36Z" fill="black"/>
<path d="M215.99 79.32C215.59 90.71 207.13 99.44 195.77 99.43C184.37 99.43 175.65 90.65 175.65 79.32C175.65 68.02 184.35 59.17 195.77 59.17C207.18 59.17 215.59 68.01 215.98 79.32H215.99ZM195.72 89.76C202.04 89.76 206.4 85.13 206.2 78.27C206.07 73.82 201.82 68.4 194.91 68.85C190.48 69.14 184.83 73.14 185.32 80.26C185.66 85.19 190.27 89.96 195.72 89.76Z" fill="black"/>
<path d="M69.71 79.39C69.24 91.04 60.52 99.51 49.43 99.43C37.73 99.34 29.3 90.31 29.37 79.24C29.45 67.7 38.35 59.12 49.56 59.17C61.22 59.23 69.37 68.33 69.7 79.39H69.71ZM49.51 89.76C54.41 90.13 60.51 85.35 59.98 78.44C59.63 73.97 55.57 68.4 48.67 68.85C44.17 69.14 38.57 73.2 39.04 80.22C39.37 85.23 43.99 89.96 49.51 89.76Z" fill="black"/>
<path d="M218.93 88.02C220.64 83.67 220.61 79.3 220.19 74.84H252.31C251.83 75.85 251.56 76.78 251.03 77.52C247.04 83.01 241.61 86.29 234.97 87.44C232.25 87.91 229.45 87.91 226.68 88C224.15 88.09 221.62 88.02 218.92 88.02H218.93Z" fill="black"/>
<path d="M26.33 88.02C23.32 88.02 20.58 88.15 17.86 87.99C14.83 87.81 11.76 87.55 8.81 86.91C7.89 86.71 7.17 85.19 6.54 84.16C5.48 82.41 5.81 80.39 5.73 78.46C5.69 77.3 5.73 76.14 5.73 74.89H25.08C24.69 79.2 24.67 83.53 26.34 88.04L26.33 88.02Z" fill="black"/>
</svg>
