<svg width="285" height="149" viewBox="0 0 285 149" fill="none" xmlns="http://www.w3.org/2000/svg">
<path d="M93.58 33.29C93.38 36.4 93.03 39.48 93.02 42.56C92.96 57.23 92.99 71.89 92.99 86.56V88.15H17.31C17.21 86.42 17.02 84.66 17.01 82.89C16.97 77.64 16.98 72.39 17.01 67.14C17.04 60.58 17.8 54.11 19.12 47.67C20.01 43.32 20.72 38.94 22.55 34.88C23.8 32.12 25.4 29.52 26.74 26.8C27.35 25.55 28.39 25.35 29.54 25.25C33.54 24.9 37.53 24.56 41.53 24.25C43.31 24.11 45.09 24.05 46.87 23.99C50.44 23.88 54.01 23.81 57.58 23.7C62.64 23.54 67.7 23.36 72.76 23.2C75.71 23.11 78.66 22.97 81.6 22.96C106.34 22.87 131.08 22.8 155.81 22.75C159.13 22.75 162.45 22.81 165.76 23.01C169.32 23.23 172.87 23.75 176.43 23.96C183.97 24.41 190.11 28.05 195.96 32.35C200.28 35.53 204.58 38.76 208.79 42.09C211.94 44.58 214.95 47.26 218.01 49.88C223.89 54.92 230.37 58.94 237.6 61.77C242.83 63.82 248.05 65.94 253.16 68.28C258.62 70.79 261.86 75.35 263.72 80.94C264.5 83.27 265.12 85.66 265.86 88.15H162.83V55.86H208.42L208.55 55.47C206.93 54 205.35 52.49 203.69 51.07C200.66 48.48 197.64 45.88 194.53 43.4C188.51 38.59 181.91 35.15 174.1 34.16C167.78 33.36 161.45 33.1 155.1 33.21C154.94 33.21 154.78 33.25 154.55 33.28V88.13H101.34V55.73H102.82C116.28 55.73 129.74 55.71 143.19 55.76C144.48 55.76 144.78 55.38 144.78 54.13C144.78 48.68 144.91 43.23 144.95 37.78C144.96 36.3 144.81 34.81 144.73 33.26H93.57L93.58 33.29ZM55.75 56C64.62 56 73.49 56 82.36 56C83.85 56 83.99 55.85 83.99 54.34C83.99 47.63 83.99 40.93 83.99 34.22C83.99 32.62 83.87 32.49 82.3 32.49C66.35 32.49 50.4 32.5 34.45 32.47C33.27 32.47 32.78 32.93 32.46 34C31.47 37.27 30.38 40.51 29.37 43.77C29.02 44.89 28.71 46.04 28.51 47.2C28.12 49.5 27.84 51.81 27.5 54.11C27.29 55.52 27.69 56.01 29.14 56.01C38.01 56.01 46.88 56.01 55.75 56.01V56Z" fill="black"/>
<path d="M91.48 121.08C92.57 116.69 92.59 112.3 91.41 107.95C90.24 103.63 87.97 99.92 84.75 96.59H198.21C191.68 103.53 189.42 111.61 191.49 121.08H91.49H91.48Z" fill="black"/>
<path d="M88.16 114.61C88.01 126.24 79 135.62 67.14 135.63C55.43 135.65 46.14 126.42 46.12 114.64C46.11 103 55.24 93.63 67.1 93.62C78.8 93.6 87.97 102.8 88.15 114.61H88.16ZM78.25 114.67C78.25 108.6 73.26 103.51 67.29 103.5C61.05 103.5 55.99 108.45 55.99 114.59C55.99 120.71 60.99 125.76 67.08 125.76C73.21 125.76 78.25 120.76 78.25 114.68V114.67Z" fill="black"/>
<path d="M236.92 114.58C236.8 126.07 227.93 135.58 215.93 135.64C204.35 135.69 194.93 126.59 194.88 114.68C194.83 103.19 203.84 93.68 215.84 93.63C227.39 93.58 236.71 102.66 236.93 114.59L236.92 114.58ZM227.01 114.56C227.01 108.53 221.97 103.5 215.94 103.5C209.8 103.5 204.76 108.49 204.75 114.58C204.75 120.78 209.73 125.76 215.95 125.76C222.03 125.76 227.01 120.72 227.01 114.57V114.56Z" fill="black"/>
<path d="M267.41 96.56C268.72 101.55 268.41 106.47 266.99 111.36C266.58 112.77 265.69 113.81 264.39 114.52C259.49 117.2 254.3 119.08 248.79 119.97C246.11 120.4 243.38 120.49 240.4 120.76C242.23 111.38 240.03 103.4 233.51 96.56H267.42H267.41Z" fill="black"/>
<path d="M42.45 119.9C40.5 119.58 38.7 119.38 36.94 118.98C33.97 118.3 30.95 117.72 28.1 116.7C22.04 114.54 17.52 108.55 17.48 102.2C17.47 100.35 17.28 98.49 17.17 96.57H49.48C43.25 103.14 40.89 110.8 42.45 119.9Z" fill="black"/>
</svg>
