<svg width="245" height="111" viewBox="0 0 245 111" fill="none" xmlns="http://www.w3.org/2000/svg">
<path d="M92.34 1.23999C92.93 1.23999 93.42 1.23999 93.92 1.23999C108.13 1.23999 122.34 1.23999 136.54 1.23999C144.93 1.23999 152.95 2.89999 160.22 7.16999C163.7 9.20999 166.98 11.62 170.17 14.1C175.21 18.02 180.03 22.21 185.09 26.1C186.13 26.9 187.79 26.97 189.19 27.23C196.32 28.58 203.46 29.9 210.6 31.21C216.66 32.32 222.72 33.37 228.77 34.53C232.03 35.16 235.17 36.13 237.55 38.68C239.72 41 240.55 43.93 241.22 46.91C241.81 49.51 242.4 52.11 242.85 54.73C243.15 56.5 243.2 58.32 243.36 60.2H92.34V1.23999ZM150.86 30.26C156.82 30.26 162.77 30.26 168.73 30.26C170.3 30.26 170.92 29.3 170.22 27.91C169.96 27.4 169.69 26.85 169.29 26.45C167.5 24.68 165.83 22.7 163.8 21.25C154.69 14.78 144.91 10.17 133.3 11.23C131.99 11.35 131.25 12.02 131.25 13.3C131.25 18.34 131.25 23.39 131.25 28.43C131.25 29.81 131.7 30.25 133.12 30.25C139.04 30.25 144.95 30.25 150.87 30.25L150.86 30.26ZM111.62 10.99C108.71 10.99 105.79 10.99 102.88 10.99C101.9 10.99 101.26 11.41 101.26 12.42C101.24 18.04 101.26 23.66 101.25 29.29C101.25 30.1 101.64 30.54 102.44 30.55C103.13 30.56 103.82 30.51 104.52 30.51C109.89 30.51 115.26 30.51 120.63 30.51C122.11 30.51 122.51 30.09 122.51 28.59C122.51 23.47 122.51 18.35 122.51 13.22C122.51 11.7 121.81 11 120.24 11C117.37 11 114.5 11 111.62 11V10.99Z" fill="black"/>
<path d="M2.21 60.18C2.21 57.18 2.24 54.27 2.21 51.35C2.19 49.36 1.94 47.36 2.03 45.38C2.26 40.3 2.89 35.29 5.69 30.75C6.09 30.75 6.54 30.75 7 30.75C32.2 30.75 57.41 30.75 82.61 30.75C83.71 30.75 84.26 31.28 84.26 32.34C84.26 41.18 84.26 50.01 84.26 58.85V60.18H2.21Z" fill="black"/>
<path d="M184.43 68.35C179.68 72.46 176.73 77.37 175.62 83.32C175.35 84.78 175.28 86.28 175.27 87.77C175.27 88.72 174.91 89 174.04 89.02C170.56 89.09 167.07 89.27 163.59 89.27C135.68 89.29 107.77 89.29 79.86 89.27C77.21 89.27 74.57 89.05 71.78 88.92C71.98 80.71 68.87 73.88 62.56 68.35H184.42H184.43Z" fill="black"/>
<path d="M46.62 108.98C34.86 108.78 25.62 99.66 25.61 87.93C25.61 76.24 34.78 66.91 46.6 66.91C58.35 66.91 67.6 76.15 67.61 87.92C67.62 99.6 58.43 108.78 46.62 108.99V108.98ZM57.74 88C57.74 81.92 52.75 76.8 46.81 76.79C40.56 76.78 35.49 81.73 35.48 87.85C35.48 93.99 40.47 99.05 46.53 99.06C52.68 99.06 57.73 94.08 57.73 88H57.74Z" fill="black"/>
<path d="M221.41 87.92C221.23 99.67 212.12 108.94 200.36 108.93C188.51 108.92 179.36 99.56 179.37 87.9C179.38 76.15 188.63 66.88 200.38 66.89C212.22 66.89 221.25 76.24 221.41 87.91V87.92ZM211.5 87.92C211.5 81.86 206.49 76.79 200.5 76.78C194.33 76.78 189.26 81.75 189.25 87.79C189.25 94.02 194.21 99.04 200.38 99.04C206.49 99.04 211.51 94.03 211.51 87.91L211.5 87.92Z" fill="black"/>
<path d="M2.09 68.33H30.66C24.47 73.82 21.26 80.55 21.46 88.84C19.69 88.56 17.99 88.26 16.29 88.02C12.91 87.53 9.55 86.81 6.67 84.94C5.24 84.02 4.07 82.56 3.1 81.12C2.62 80.4 2.82 79.2 2.75 78.22C2.52 74.97 2.31 71.72 2.08 68.32L2.09 68.33Z" fill="black"/>
<path d="M225.33 84.33C224.29 78.06 221.43 72.88 216.5 68.51H243.22C243.14 71.51 243.93 74.82 241.7 77.5C240.46 78.99 238.89 80.27 237.26 81.33C235.71 82.33 233.92 82.98 232.19 83.66C231.51 83.93 230.71 83.88 229.96 83.94C228.44 84.08 226.92 84.19 225.33 84.32V84.33Z" fill="black"/>
</svg>
