<svg width="246" height="148" viewBox="0 0 246 148" fill="none" xmlns="http://www.w3.org/2000/svg">
<path d="M240.89 91.22H3.35001V4.34H240.89V91.22Z" fill="black"/>
<path d="M33.69 99.66C45.43 99.64 54.62 109.41 54.6 120.66C54.57 132.34 44.83 141.69 33.49 141.6C21.8 141.51 12.57 131.73 12.64 120.52C12.72 108.94 22.28 99.52 33.69 99.66ZM44.75 120.71C44.84 114.5 39.66 109.61 33.89 109.48C27.56 109.34 22.58 114.56 22.48 120.41C22.37 126.63 27.54 131.69 33.48 131.76C39.67 131.83 44.78 126.67 44.75 120.7V120.71Z" fill="black"/>
<path d="M104.32 120.69C104.44 132.17 94.86 141.64 83.34 141.61C71.51 141.58 62.32 131.77 62.4 120.5C62.48 108.85 72.17 99.57 83.47 99.65C95.23 99.72 104.53 109.49 104.32 120.7V120.69ZM83.39 131.76C89.43 131.84 94.38 126.71 94.53 120.93C94.69 114.67 89.47 109.53 83.5 109.48C77.35 109.43 72.23 114.55 72.25 120.58C72.27 126.78 77.22 131.76 83.4 131.76H83.39Z" fill="black"/>
<path d="M202.18 140.2H187.08C189.96 138.99 191.07 136.99 191.04 134.05C190.95 122.98 191.01 111.91 191.01 100.84V99.32H198.25V100.77C198.25 112.01 198.28 123.24 198.23 134.48C198.22 137.27 199.49 139.03 202.18 140.2Z" fill="black"/>
<path d="M114.91 115.95H108.15C106.7 108.95 103.01 103.46 96.88 99.32H114.91V115.95Z" fill="black"/>
<path d="M20.07 99.34C14.02 103.44 10.32 108.88 8.85001 115.91H3.35001V99.34H20.07Z" fill="black"/>
<path d="M58.5 115.86C56.93 108.91 53.24 103.46 47.17 99.35H69.79C63.78 103.44 60.05 108.9 58.49 115.86H58.5Z" fill="black"/>
</svg>
