<svg width="100" height="100" viewBox="0 0 100 100" fill="none" xmlns="http://www.w3.org/2000/svg">
<g clip-path="url(#clip0_1_655)">
<path d="M99.93 63.98C96.54 65.49 94.2 68.14 91.91 70.96C87.45 76.46 82.82 82.2 74.64 80.84C70.59 80.16 66.68 78.43 62.83 76.89C58.97 75.34 55.03 74.84 50.92 74.95C45.24 75.09 41.49 78.49 41.02 84.17C40.61 89.07 40.25 93.97 39.87 98.87C39.68 99.24 39.36 99.41 38.95 99.41C38.55 99.41 38.2 99.28 37.89 99.03C34.39 96.58 35.96 92.89 36.28 89.94C36.5 87.91 36.91 85.8 37.02 83.69C37.34 77.39 43.95 71.29 50.14 70.92C57.34 70.48 63.95 72.48 70.42 75.09C77.93 78.12 79.3 77.81 85.12 72.46C88.22 69.61 90.2 65.74 93.89 63.43C95.72 62.28 95.38 60.45 93.7 59.35C87.76 55.46 83.21 49.68 76.49 46.84C74.6 46.04 73.62 44.04 73.06 42.23C71.8 38.15 68.96 35.99 65.17 34.71C64.26 34.4 63.35 34.1 62.42 33.88C55.23 32.21 50.01 29.39 51.8 20.28C52.4 17.23 50.6 13.72 50.02 10.4C49.82 9.28 49.23 8.47 48.33 8.19C46.87 7.75 46.98 9.31 46.59 10.04C44.34 14.34 42.21 18.68 38.57 22.1C37.47 23.14 36.34 24.92 36.42 26.3C36.73 31.36 32.99 33.23 29.85 35.75C20.76 43.02 12 50.69 3.7 58.86C2.68 59.86 1.91 61.38 0.0600014 61.01V57.02C6.75 51.66 11.99 44.75 18.9 39.6C21.11 37.95 22.72 35.56 25.28 34.28C30.47 31.69 31.4 26.16 34.19 21.84C38.21 15.63 42.74 9.74 45.57 2.85C46.37 0.91 47.67 1.21 48.99 0.93C51.86 2.87 52.9 6.18 53.76 9.07C54.72 12.29 55.52 11.06 56.8 9.75C58.75 7.75 59.8 3.14 62.88 4.43C66.21 5.83 65.5 10.58 65.86 13.93C66.31 18.12 66.59 22.6 64.67 26.48C63.38 29.1 64.36 30.16 66.34 30.83C71.58 32.61 75.17 35.89 77.02 41.16C77.5 42.53 78.71 43.4 80.13 44.1C87.06 47.5 91.34 54.44 98.27 57.88C99.18 58.33 98.58 59.93 99.93 60.02V64.01V63.98Z" fill="black"/>
<path d="M66.01 43.03C68.07 42.63 69.27 43.2 69.02 45.82C68.83 47.84 69.13 50 66.18 49.98C63.67 49.97 62.2 48.65 62 46.13C61.78 43.31 63.59 42.86 66.01 43.03Z" fill="black"/>
</g>
<defs>
<clipPath id="clip0_1_655">
<rect width="100" height="100" fill="white"/>
</clipPath>
</defs>
</svg>
