<svg width="100" height="100" viewBox="0 0 100 100" fill="none" xmlns="http://www.w3.org/2000/svg">
<path fill-rule="evenodd" clip-rule="evenodd" d="M4.06 77.6C3.56 70.65 5.75 64.11 8.74 57.75C9.51 56.13 10.09 54.55 10.11 52.65C10.17 45.21 14.56 39.66 21.88 38.11C24.13 37.63 24.8 36.88 25.1 34.69C26.24 26.21 29.53 23.23 38.26 22.01C41.33 21.58 44.2 20.96 44.78 16.84C45.59 11.01 50.61 9.27999 55.16 9.27999C61.2083 9.27999 66.6006 7.60835 72.1632 5.88389L72.1642 5.88359L72.1856 5.87695C72.4832 5.78469 72.7813 5.69229 73.08 5.59999C77.46 4.24999 82.4 4.25999 86.79 5.56999C94.28 7.79999 97.07 14.5 94.64 22.83C92.02 31.8 86.88 39.33 81.02 46.44C73.2139 55.9017 64.3923 64.3848 55.5841 72.8549L55.5809 72.8579L55.5796 72.8592L55.5782 72.8605C54.1202 74.2626 52.6626 75.6643 51.21 77.07C43.92 84.12 35.83 90.19 26.3 94.37C13.17 100.13 2.8 90.54 4.05 79.82C4.10164 79.394 4.08661 78.9638 4.06947 78.473C4.06005 78.2034 4.05 77.9155 4.05 77.6H4.06ZM49.07 16.53L49.0771 16.5212C54.9633 16.7119 60.5208 17.1663 65.65 20.16C68.66 21.91 69.79 24.48 68.69 27.42C67.46 30.72 64.23 30.43 61.45 29.76C58.6582 29.0836 55.9025 28.2467 53.1459 27.4096L53.1455 27.4094C52.0712 27.0832 50.9968 26.7569 49.92 26.44C44.18 24.75 38.46 24.33 33.1 27.53C31.97 28.2 30.1 29.32 30.5 30.82C30.9365 32.4237 32.7958 32.1814 34.198 31.9987C34.2734 31.9888 34.3475 31.9792 34.42 31.97C40.59 31.18 45.89 33.55 50.97 36.54C53.49 38.03 56.25 40.15 54.67 43.42C53.13 46.62 49.89 47.7 46.28 46.67C43.6565 45.9247 41.0366 45.1685 38.4164 44.4122C34.8845 43.3928 31.3522 42.3732 27.81 41.38C23.63 40.21 17.97 42.56 16 46.07C14.5 48.75 14.45 50.33 18.25 50.02C23.22 49.62 27.8 51.24 32.31 53.04C34.7 54 36.83 55.27 36.01 58.46C35.25 61.43 32.94 61.93 30.35 61.99C25.6003 62.0952 20.9812 61.0254 16.432 59.9718L16.432 59.9718C15.79 59.8231 15.1494 59.6747 14.51 59.53C12.3945 59.0508 12.1016 59.7405 11.6733 60.7491C11.6278 60.8562 11.5808 60.9668 11.53 61.08C8.62 67.56 7.19 74.25 8.03 81.44C9.25 91.86 14.44 93.67 23.22 91.2C33.4837 88.3147 41.119 81.2829 48.6597 74.3383L48.6605 74.3376C49.7962 73.2916 50.9299 72.2476 52.07 71.22C60.66 63.48 68.87 55.24 76.17 46.22C76.5202 45.7875 76.8715 45.3552 77.223 44.9228C82.5516 38.3669 87.9185 31.7637 90.17 23.33C90.34 22.6927 90.5511 22.0592 90.7629 21.4241L90.763 21.4238C91.4484 19.3682 92.1399 17.2941 91.46 15.01C89.94 9.9 83.28 6.87 77.18 8.39C74.9675 8.94165 72.7981 9.68329 70.6277 10.4253C65.4801 12.1851 60.3269 13.9467 54.58 13.18C52.5631 12.9104 50.616 14.6048 49.0771 16.5212L49.04 16.52L49.07 16.53ZM51.72 43.16C43.12 42.4 36.02 40.21 28.06 36.62C39.33 34.68 46.78 36.65 51.72 43.16ZM48.5804 21.5217L48.5809 21.5217C54.3995 20.9793 60.3046 20.4288 66.28 25.58C61.0602 26.2893 56.9824 24.8043 53.1086 23.3936C51.1937 22.6962 49.3286 22.017 47.4 21.63C47.7931 21.5951 48.1865 21.5584 48.5804 21.5217ZM20.062 56.6707C23.3947 57.5513 26.7034 58.4256 30.81 56.98C24.09 53.63 19.04 53.16 14.26 55.59C16.2996 55.6765 18.1846 56.1746 20.062 56.6707Z" fill="black"/>
</svg>
