<svg width="64" height="64" viewBox="0 0 64 64" fill="none" xmlns="http://www.w3.org/2000/svg">
<path d="M44.72 62.97H19.13C18.92 61.87 18.77 60.76 18.47 59.7C18.35 59.28 17.93 58.86 17.54 58.62C17.05 58.33 16.45 58.25 15.9 58.06C12.1 56.77 11.07 55.42 11.01 51.41C10.96 48.25 10.99 45.08 10.99 41.91C10.99 34.29 10.99 26.66 11.01 19.04C11.01 18.05 11.11 17.04 11.29 16.07C11.57 14.55 12.45 13.41 13.85 12.74C14.93 12.22 16.02 11.7 17.15 11.29C17.82 11.05 18.01 10.71 18.01 10.03C17.97 7.08 17.99 4.12 17.99 1.08H46C46 3.72 46.09 6.38 45.96 9.02C45.89 10.45 46.26 11.3 47.71 11.55C47.79 11.56 47.85 11.64 47.93 11.66C51.75 12.86 53.1 15.49 53.05 19.42C52.9 29.75 53 40.08 53 50.41C53 50.58 53 50.74 53 50.91C52.99 55.56 51.83 57.18 47.35 58.15C45.89 58.46 45.37 59.12 45.24 60.46C45.16 61.28 44.91 62.08 44.73 62.96L44.72 62.97ZM13 35.07C13 35.9 13 36.74 13 37.57C13 42.44 12.95 47.32 13 52.19C13.03 54.8 14.59 56.24 17.17 56.3C19.25 56.35 21.33 56.41 23.41 56.41C30.28 56.42 37.16 56.42 44.03 56.41C45.11 56.41 46.19 56.35 47.27 56.26C49.6 56.07 50.98 54.3 50.99 51.5C50.99 40.92 50.99 30.34 50.99 19.76C50.99 18.81 50.89 17.85 50.76 16.9C50.54 15.3 49.62 14.31 48.09 14.03C47.23 13.87 46.36 13.78 45.49 13.77C38.12 13.75 30.74 13.74 23.37 13.76C21.16 13.76 18.94 13.69 16.76 13.92C13.95 14.21 13.03 15.35 13.02 18.2C12.99 23.82 13.02 29.45 13.02 35.07H13ZM21.77 11.95C22.28 10.33 22.81 8.76 23.25 7.17C23.49 6.32 23.88 6 24.81 6.02C29.43 6.07 34.05 6.04 38.67 6.04C40.45 6.04 40.9 6.49 40.99 8.3C41.02 8.84 41 9.39 41.11 9.91C41.4 11.24 42.19 11.74 43.67 11.57V2.97C43.38 2.92 43.14 2.85 42.9 2.85C35.7 2.85 28.5 2.85 21.3 2.83C20.51 2.83 20.31 3.14 20.32 3.86C20.35 6.07 20.38 8.27 20.31 10.48C20.28 11.48 20.62 11.94 21.76 11.95H21.77ZM42.93 60.84C42.57 58.97 41.63 58.1 39.75 58.09C36.59 58.08 33.43 57.75 30.28 57.79C28.06 57.82 25.82 58.16 23.62 58.52C22.38 58.73 21.42 59.52 20.79 60.83H42.92L42.93 60.84ZM39.36 8.05H24.52C24.95 9.27 25.37 10.46 25.8 11.66C27.99 10.89 29.51 8.94 31.97 8.97C34.44 9 36.01 10.95 38.26 11.66C38.62 10.48 38.98 9.31 39.36 8.05Z" fill="black"/>
<path d="M33.04 24.38C35.47 27.93 38.03 31.32 40.21 34.93C42.15 38.15 41.94 41.58 39.63 44.62C37.14 47.91 33.71 49.15 29.7 48.18C26.05 47.3 23.66 44.91 22.87 41.2C22.45 39.24 22.66 37.23 23.5 35.35C25.53 30.84 28.56 27.2 33.03 24.38H33.04ZM36.75 40.44C36.59 38.33 34.23 37.15 32.34 35.6C31.36 36.19 30.38 36.78 29.4 37.38C29.22 37.49 29.06 37.62 28.91 37.76C27.22 39.3 26.73 41.53 27.7 43.27C28.65 44.98 31.14 46.18 32.86 45.76C35.24 45.18 36.76 43.42 36.75 40.44ZM31.98 32.65C34.49 34.98 36.88 37.21 39.43 39.58C38.66 34.21 35.44 30.64 31.94 27.08C28.66 30.73 25.24 34.13 24.66 39.61C27.23 37.17 29.56 34.95 31.97 32.66L31.98 32.65Z" fill="black"/>
</svg>
