<svg width="100" height="100" viewBox="0 0 100 100" fill="none" xmlns="http://www.w3.org/2000/svg">
<path d="M1 36.87C1.01 37.23 1.02 37.6 1.03 37.96C0.72 38.29 0.39 38.3 0.0600004 37.99V36.99C0.38 36.99 0.69 36.96 1 36.87Z" fill="#232323"/>
<path d="M0.0699997 37.99C0.39 37.99 0.72 37.98 1.04 37.96C0.72 38.3 0.39 38.65 0.0699997 38.99C0.0699997 38.66 0.0699997 38.32 0.0699997 37.99Z" fill="#111111"/>
<path fill-rule="evenodd" clip-rule="evenodd" d="M1 36.87C4.93427 35.5123 5.9223 31.8664 6.81568 28.5697L6.84 28.48C8.12 23.74 10.49 20.58 15.55 20.06C16.6874 19.9454 17.3025 19.2953 17.9268 18.6354L17.9268 18.6353C18.0655 18.4888 18.2046 18.3417 18.35 18.2C20.2 16.4 22.71 16.22 24.09 17.8C26.1057 20.1062 28.408 20.0647 30.7993 20.0217C31.1247 20.0159 31.4518 20.01 31.78 20.01C47.41 20.02 63.04 20.02 78.67 20.01C78.9753 20.01 79.283 20.02 79.591 20.03C81.0787 20.0784 82.5742 20.127 83.85 19.05C85.66 17.52 87.46 18.02 89.26 19.05C89.4306 19.1475 89.6003 19.2663 89.7701 19.3853C90.1579 19.6568 90.5467 19.9291 90.95 19.95C91.3845 19.9708 91.8363 19.9724 92.2914 19.974C94.8948 19.983 97.6072 19.9924 97.82 23.61C97.852 24.145 97.8975 24.6891 97.9434 25.237L97.9434 25.2372C98.2851 29.3187 98.6446 33.6137 93.54 35.95C92.18 36.57 90.47 37.47 90.34 39.18C89.96 43.92 86.97 44.16 83.22 44.03C79.7947 43.913 76.3662 43.9326 72.9381 43.9521H72.938C70.2112 43.9676 67.4846 43.9832 64.76 43.93C62.66 43.89 62.06 44.43 61.87 46.64C61.56 50.44 60.89 54.09 58.23 57.39C54.44 62.08 49.61 62.08 44.44 61.97C38.2 61.84 38.1 61.94 38.04 68.16C37.9958 72.7841 37.1386 77.291 36.284 81.7843C36.172 82.373 36.0601 82.9615 35.95 83.55C35.08 88.2 30.13 91.88 25.39 91.88H13.42C6.91 91.88 2.5 87.27 2 80.69C1.36 72.15 3.65 64.34 7.12 56.76C7.64953 55.5995 8.0426 54.3946 8.43151 53.2025C8.73297 52.2785 9.03193 51.3621 9.39 50.48C11 46.52 8.83 44.89 5.95 44.1C4.43718 43.6874 3.22459 42.9103 2.01729 42.1365C1.38111 41.7288 0.746395 41.322 0.0699997 40.97V38.97C0.44 38.63 0.61 38.2 0.61 37.7C0.63 37.36 0.76 37.08 1.01 36.85L1 36.87ZM58.2033 40.2009H58.2033H58.2032C54.7344 40.1234 51.048 40.0411 47.33 40.76C37.59 42.64 35.53 48.12 35.13 56.48C34.72 65.12 33.91 73.65 32.04 82.09C31.15 86.12 29.18 88.39 24.6 87.97C22.2358 87.748 19.8418 87.7989 17.4486 87.8498H17.4484C16.1772 87.8768 14.9062 87.9039 13.64 87.89C9.25 87.85 6.44 84.8 6.03 80.18C5.34 72.48 7.55 65.49 10.73 58.64C12.6 54.62 14.13 50.4 13.43 45.86C13.02 43.2 12.01 40.86 8.5 40.91C6.99 40.93 4.96 39.72 6.61 38.17C8.54708 36.3498 9.11144 34.072 9.67279 31.8063C10.0243 30.3877 10.3746 28.9738 11.06 27.68L11.0938 27.6165C12.3002 25.3516 13.3895 23.3063 16.55 23.98C17.69 24.22 18.85 24.04 19.65 22.92C20.3 22.01 21.64 21.53 22.28 22.12C25.1588 24.7694 28.4594 24.4449 31.7074 24.1255C32.8483 24.0133 33.9826 23.9018 35.09 23.92C43.8729 24.0669 52.6593 24.0515 61.4472 24.0362H61.4473H61.4475C67.6179 24.0254 73.7889 24.0146 79.96 24.06C81.1519 24.0703 82.3437 23.8942 83.5356 23.7181C85.8137 23.3815 88.0919 23.0449 90.37 24.01C90.7731 24.1808 91.2998 24.0996 91.8223 24.019C92.8294 23.8637 93.8207 23.7108 93.88 25.37C93.8968 25.8274 93.9523 26.3024 94.0085 26.7832C94.2202 28.5943 94.4417 30.4888 92.64 31.84C92.2112 32.1629 91.7719 32.4713 91.3343 32.7786C89.1698 34.2984 87.0472 35.7889 86.44 38.85C86.1953 40.0988 84.8185 40.0447 83.6134 39.9973L83.6132 39.9973C83.3902 39.9885 83.173 39.98 82.97 39.98H65.86L65.84 39.99C63.4859 40.3188 60.9109 40.2613 58.2033 40.2009ZM39.6464 53.8688L39.56 53.83H39.55C39.2367 56.2833 39.3467 57.6433 39.88 57.91C45.89 60.92 55.1 56.84 57.22 50.25C59.1 44.4 58.8 44.05 53.05 43.94C50.62 43.89 48.51 44.56 46.27 45.42C46.7204 46.4017 47.7415 47.0776 48.7397 47.7383C50.5782 48.9552 52.3387 50.1204 50.31 53.05C47.343 57.3268 43.3618 55.5381 39.6464 53.8688Z" fill="black"/>
</svg>
