<svg width="100" height="100" viewBox="0 0 100 100" fill="none" xmlns="http://www.w3.org/2000/svg">
<path fill-rule="evenodd" clip-rule="evenodd" d="M58.94 38.9C58.4132 39.3841 57.865 39.8506 57.3177 40.3164C54.6649 42.5739 52.0312 44.8152 51.94 48.96C51.89 51.29 52.38 52.14 54.91 52.06C58.267 51.9616 61.6267 51.9785 64.9863 51.9955H64.9866C68.1119 52.0113 71.2371 52.0271 74.36 51.95C78.35 51.85 80.23 53.42 79.98 57.48C79.86 59.47 79.81 61.49 80.01 63.46C80.15 64.92 79.57 66.8 78.89 67.01C74.1433 68.5238 73.7868 72.1031 73.4314 75.6708C73.2328 77.6651 73.0345 79.6557 72.07 81.28C71.6697 81.9492 71.5907 82.8148 71.5087 83.7124C71.4535 84.3171 71.397 84.9364 71.24 85.52L71.156 85.835C68.4709 95.9106 68.4631 95.94 58.1 95.94C55.8188 95.94 53.5384 95.934 51.2584 95.9281H51.2573C45.7218 95.9136 40.1884 95.8992 34.65 95.97C31.1 96.02 29.42 94.92 28.9 90.99C28.03 84.47 26.47 78.02 24.81 71.65C24.7482 71.4114 24.7035 71.1351 24.656 70.8415C24.4268 69.425 24.1327 67.6072 21.54 67.69C20.244 67.7299 20.1108 65.8516 20.0109 64.443L20.01 64.43C19.4633 56.13 23.3267 51.98 31.6 51.98C32.9204 51.98 34.2416 51.967 35.563 51.9541H35.5633C38.7351 51.9229 41.9075 51.8918 45.07 52.04C47.59 52.16 48.14 51.28 48.04 48.93C47.59 38.22 41.85 30.79 33.39 25.1C31.0227 23.5074 28.5533 22.0661 26.0841 20.6249L26.0841 20.6249C24.5376 19.7223 22.9912 18.8197 21.47 17.88C20.25 17.13 19.44 15.81 20.25 14.53C20.91 13.5 22.57 13.68 23.46 14.23C24.7643 15.0368 26.0854 15.8214 27.4071 16.6064L27.4071 16.6065C33.5229 20.239 39.6509 23.8788 44.19 29.75C47.63 17.71 42.84 10.8 30.94 8.86C26.4761 8.13297 22.2658 8.78551 18.0557 9.43803C16.4749 9.68303 14.8942 9.92803 13.3 10.1C11.39 10.31 9.84001 10.88 10.84 14.14C13.15 21.67 16.71 28.2 22.82 33.15C25.05 34.95 27.68 36.24 30.85 36.03C33.1254 35.8778 35.4103 35.9122 37.7809 35.9479H37.781C38.8381 35.9638 39.9122 35.98 41.01 35.98C40.44 39.11 38.72 39.78 36.1 40.04C20.09 41.59 13.95 31.94 8.20001 19.1C8.04958 18.7645 7.89002 18.4204 7.72721 18.0692C6.38554 15.1754 4.8229 11.805 6.33001 8.88C7.53585 6.54009 10.076 6.36396 12.6082 6.18838C13.6039 6.11934 14.5984 6.05039 15.51 5.85C23.49 4.11 31.23 3.92 39.12 6.9C45.87 9.46 51.7 20.47 48.98 28.03C47.42 32.36 48.8 36.12 50.63 40.01C53.15 39.17 53.84 37.45 54.07 34.82C55.19 21.88 63.91 15.41 76.3 16.87C77.6203 17.0255 78.9422 17.125 80.2623 17.2244C83.6115 17.4767 86.9492 17.728 90.22 18.89C92.16 19.58 92.87 20.33 92.95 22.28C93.54 36.99 74.45 50.64 61.11 44.9C60.9596 44.8348 60.7853 44.7661 60.5984 44.6923C59.0075 44.0648 56.4981 43.075 59.97 40.82C61.9396 39.8159 63.9215 40.1458 65.908 40.4764C67.0077 40.6595 68.1089 40.8428 69.21 40.8C76.79 40.5 84.81 34.07 86.48 26.66C86.94 24.6 86.33 23.32 84.33 22.99C83.9657 22.9316 83.6013 22.8723 83.2366 22.8129C78.0463 21.9681 72.8244 21.1181 67.62 22.8C64.3 23.87 61.81 25.9 60.89 30.24C62.9436 29.6417 64.7619 28.7761 66.5266 27.9361C68.0358 27.2176 69.5057 26.5179 71.05 26.02C71.588 25.8457 72.1131 25.6384 72.6378 25.4313L72.6379 25.4312C73.498 25.0917 74.357 24.7525 75.27 24.56C77.09 24.17 78.65 24.54 79.36 26.41C80.09 28.35 79.04 29.84 77.37 30.39C73.7001 31.5906 70.2901 33.3461 66.8819 35.1007L66.8818 35.1007C64.2721 36.4442 61.6634 37.7872 58.94 38.88V38.9ZM49.77 67.98C51.82 67.98 53.87 67.9811 55.92 67.9822C60.02 67.9845 64.12 67.9867 68.22 67.98C68.2818 67.98 68.344 67.9798 68.4067 67.9797C69.9057 67.9758 71.5991 67.9714 70.86 70.16C69.5839 73.9007 68.8635 77.7587 68.1431 81.6166L68.143 81.6167L68.143 81.6168C67.7117 83.9263 67.2805 86.2358 66.73 88.52C66.18 90.81 65.28 92.23 62.18 92.09C53.88 91.72 45.55 91.72 37.25 92.08C33.53 92.24 32.6 90.48 32.01 87.54C31.7827 86.3991 31.5617 85.2561 31.3407 84.1129C30.4925 79.7249 29.6438 75.3339 28.43 71.05C27.63 68.24 28.49 67.95 30.81 67.97C35.2704 68.0194 39.7258 68.009 44.1832 67.9986H44.1843C46.0423 67.9943 47.9007 67.99 49.76 67.99L49.77 67.98ZM57.0242 56.0257C54.8397 56.0079 52.6548 55.99 50.47 55.99L50.46 55.98C48.1828 55.98 45.9039 55.9979 43.6243 56.0157C38.0856 56.0591 32.5428 56.1025 27.01 55.89C23.8798 55.7728 23.9508 57.3298 24.0279 59.0191C24.0429 59.3482 24.0581 59.6823 24.05 60.01C24.0446 60.2395 24.0333 60.4677 24.0223 60.6921C23.9317 62.5308 23.8538 64.1146 27.08 64.07C42.39 63.85 57.7 63.85 73 64.07C76.1241 64.1119 76.0563 62.6035 75.9813 60.9313C75.9667 60.607 75.9519 60.2765 75.96 59.95C75.9655 59.717 75.9774 59.4839 75.989 59.254C76.0826 57.4116 76.1661 55.7667 72.93 55.9C67.6319 56.1125 62.3288 56.0691 57.0242 56.0257Z" fill="black"/>
</svg>
