<svg width="100" height="100" viewBox="0 0 100 100" fill="none" xmlns="http://www.w3.org/2000/svg">
<path d="M12.07 53C11.48 50.07 12.84 47.32 15.35 45.23C26.21 36.2 31.51 24.37 33.02 10.59C33.26 8.37 34.61 7.85 36.47 8.08C39.38 8.44 36.95 10.21 36.88 10.88C35.62 22.51 32.09 33.31 24.17 42.23C22.56 44.04 20.36 45.32 18.58 47C15.6 49.82 15.38 53.37 16.62 56.98C17.81 60.45 20.52 61.79 24.18 62.07C30.32 62.55 35.67 64.8 40.07 69.46C45.99 75.72 52.85 75.71 58.81 69.58C63.46 64.81 68.88 62.25 75.53 61.97C79.56 61.8 82.26 59.28 83.49 55.69C84.58 52.54 83.3 49.51 80.78 47.43C69.75 38.36 64.83 26.05 62.19 12.56C61.9 11.08 60.76 8.77 63.44 8.12C66.46 7.39 65.6 9.79 66.03 11.45C68.4 20.63 70.27 29.98 76.69 37.59C78.29 39.49 79.8 41.19 81.86 42.6C86.12 45.52 88.89 50.91 86.92 58.06C85.73 62.38 80.82 65.48 75.15 66.07C71.33 66.47 67.46 66.84 64.47 69.96C53.85 81.02 46.01 80.79 35.22 70.57C31.85 67.38 27.98 66.33 23.7 66.03C17.05 65.56 12 60.23 12.05 53.02L12.07 53Z" fill="#010101"/>
<path d="M28.03 84.12C26.27 83.9 24.4 86.19 23.22 83.56C22.28 81.47 23.99 80.6 25.08 79.46C28.83 75.54 35.08 76.98 36.62 82.12C37.06 83.59 35.14 84.53 34.93 84.5C30.96 84.01 32.19 86.84 32.01 88.82C31.89 90.1 32.84 91.9 30.21 92.01C27.3 92.13 28.12 90.16 28.05 88.67C27.98 87.19 28.03 85.7 28.03 84.13V84.12Z" fill="black"/>
<path d="M65.74 84.76C63.96 85.12 63.12 84.06 62.95 82.47C62.78 80.92 68.39 75.53 69.74 76.05C72.76 77.22 74.47 80.06 76.58 82.31C77.21 82.98 75.43 84.28 75.08 84.25C71.04 83.94 72.06 86.78 71.96 88.97C71.9 90.33 72.54 92 69.99 92.02C67.46 92.04 68.04 90.41 67.97 89.02C67.8233 86.0533 67.08 84.6333 65.74 84.76Z" fill="black"/>
</svg>
