<svg width="100" height="100" viewBox="0 0 100 100" fill="none" xmlns="http://www.w3.org/2000/svg">
<path d="M8.03 28.03C8.03 22.88 8.01 17.73 8.03 12.58C8.05 9.66 9.58 8.06 12.42 8.05C22.89 8.02 33.36 8.02 43.82 8.05C46.29 8.05 47.97 9.79 47.98 12.31C48.01 22.78 48.01 33.25 47.98 43.71C47.98 46.25 46.31 47.98 43.85 47.99C33.22 48.03 22.58 48.03 11.95 47.99C9.78 47.99 8.06 46.19 8.04 43.99C8 38.67 8.03 33.36 8.03 28.04V28.03Z" fill="black"/>
<path fill-rule="evenodd" clip-rule="evenodd" d="M48 72.23C48 73.775 48.0027 75.3201 48.0054 76.8651C48.0117 80.4701 48.018 84.075 47.99 87.68C47.97 90.22 46.31 91.95 43.85 91.95C33.22 91.99 22.58 91.99 11.95 91.95C9.79 91.95 8.06 90.14 8.05 87.94C8.02 77.31 8.02 66.67 8.05 56.04C8.05 53.84 9.79 52.03 11.94 52.02C22.57 51.98 33.21 51.98 43.84 52.02C46.31 52.02 47.97 53.76 47.99 56.28C48.0246 59.9627 48.0161 63.6406 48.0076 67.3203C48.0038 68.9563 48 70.5927 48 72.23ZM24.02 63.86C24.07 65.99 22.35 67.88 20.28 67.99C17.89 68.11 15.98 66.26 16.03 63.88C16.07 61.82 17.94 60 20.02 60C22.11 60 23.98 61.8 24.02 63.87V63.86ZM40.01 64C40.01 61.91 38.21 60.04 36.15 59.99L36.14 59.98C34.01 59.93 32.12 61.65 32.01 63.72C31.89 66.11 33.74 68.02 36.12 67.98C38.19 67.95 40.01 66.08 40.01 64ZM24.02 79.97C24.02 82.06 22.22 83.93 20.16 83.98C17.77 84.04 15.92 82.14 16.03 79.75C16.12 77.68 18.02 75.95 20.14 75.99C22.2 76.03 24.03 77.9 24.03 79.97H24.02ZM36.38 83.98C38.42 83.82 40.11 81.85 40.01 79.74V79.75C39.92 77.68 38.02 75.95 35.9 75.99C33.84 76.03 32.02 77.9 32.02 79.98C32.02 82.29 34.06 84.16 36.38 83.98Z" fill="black"/>
<path fill-rule="evenodd" clip-rule="evenodd" d="M72.07 92C70.3533 92 68.6367 92.0022 66.92 92.0044C63.4867 92.0089 60.0533 92.0133 56.62 92C53.68 91.98 52.08 90.47 52.07 87.63C52.04 77.16 52.04 66.69 52.07 56.23C52.07 53.76 53.8 52.06 56.3 52.05C66.77 52.02 77.24 52.02 87.7 52.05C90.26 52.05 91.99 53.71 92 56.16C92.04 66.79 92.03 77.43 92 88.06C92 90.24 90.22 91.97 88.02 91.99C84.298 92.018 80.5808 92.0117 76.8617 92.0054H76.8606H76.8595H76.8585H76.8574H76.8563C75.2614 92.0027 73.6662 92 72.07 92ZM55.8615 78.7004C55.8642 78.5481 55.8657 78.4657 55.8947 78.3947C55.9288 78.3111 56.0011 78.2431 56.1583 78.0951L56.1584 78.0951C56.1943 78.0613 56.2347 78.0233 56.28 77.98C60.7596 73.6594 66.2467 68.1485 71.2477 63.1258L71.2485 63.1251L71.2578 63.1157L71.2602 63.1133L71.2605 63.113C73.1766 61.1886 75.0211 59.3361 76.71 57.65C78.328 56.032 80.9502 56.0557 83.3278 56.0772H83.328H83.3283H83.3285H83.3288H83.329C83.7282 56.0808 84.1205 56.0843 84.5 56.08C85.07 56.08 84.73 56.73 84.4 57.07C81.5063 59.957 78.617 62.8485 75.7293 65.7385L75.6987 65.7691L75.6976 65.7702L75.6965 65.7713L75.6953 65.7725L75.6942 65.7736C74.2626 67.2063 72.8313 68.6387 71.4 70.07C70.2727 71.1973 68.8252 72.6807 67.2739 74.2705C62.5364 79.1255 56.8298 84.9737 56.31 84.71C55.7322 84.4254 55.8163 80.772 55.8504 79.2907L55.8504 79.2899L55.8505 79.2881V79.2879V79.2877V79.2876C55.8559 79.0527 55.86 78.8728 55.86 78.77V78.78L55.8615 78.7004ZM87.658 65.9248C87.8466 65.7455 87.998 65.6015 87.99 65.33C87.99 65.1468 87.9908 64.8704 87.9918 64.5411V64.5399V64.5393C87.9956 63.2071 88.0019 61.0113 87.97 60.62C87.9559 60.4542 87.9567 60.2099 87.9575 59.9641C87.9591 59.5132 87.9606 59.0571 87.87 59.07C87.63 59.1 86.71 59.8 86.33 60.18C77.52 68.94 68.74 77.73 59.98 86.54C59.9292 86.5908 59.8471 86.6636 59.7496 86.7498C59.2522 87.1904 58.3571 87.9833 59.21 88C60.4305 88.0252 61.6391 88.0107 62.8259 87.9966L62.8276 87.9966C63.5266 87.9882 64.2181 87.98 64.9 87.98C65.7117 87.98 66.1308 87.5113 66.5453 87.0478L66.5454 87.0476C66.6517 86.9287 66.7577 86.8102 66.87 86.7L68.0748 85.5029C74.2034 79.4135 81.6216 72.0428 87.51 66.07C87.5603 66.0177 87.6102 65.9702 87.6578 65.925L87.658 65.9248ZM69.4613 55.6586L69.462 55.6586H69.4622H69.4624H69.4624C71.0562 55.6291 73.16 55.5903 73.16 55.68C73.16 55.98 71.7 57.74 71.09 58.36C67.2237 62.2847 63.3226 66.1746 59.4216 70.0645L59.4209 70.0652L59.4197 70.0665C58.6397 70.8442 57.8597 71.622 57.08 72.4C56.88 72.6 56.24 73.16 56 73.32C55.988 73.1281 55.994 72.7347 55.9986 72.4354V72.4353V72.4351V72.4348C56.0016 72.2355 56.004 72.078 56 72.05C56 71.5339 56.0257 70.2168 56.048 69.0766C56.065 68.2065 56.08 67.4394 56.08 67.21C56.08 66.3651 56.2282 66.2118 56.5148 65.9154L56.52 65.91C57.1138 65.2961 57.9751 64.4195 58.9478 63.4297L58.9489 63.4286L58.9491 63.4284C61.3508 60.9843 64.431 57.8498 65.84 56.27L65.8814 56.2236L65.9252 56.1742C66.3563 55.6878 66.3715 55.6706 67.85 55.68H67.86C68.1327 55.6831 68.7455 55.6718 69.4613 55.6586ZM79.4114 86.0408C82.3404 83.2921 87.8122 78.1569 87.89 77.55H87.88C87.88 77.4134 87.8822 77.1763 87.885 76.8711V76.871V76.8708V76.8707C87.9013 75.1199 87.9384 71.1292 87.7 71.01C87.51 70.93 86.98 71.52 86.98 71.52C82.38 76.03 70.77 87.79 70.59 88.02L71.1776 88.0193C72.7671 88.0172 76.9769 88.0117 77.21 88.02C77.29 88.03 77.35 88.01 77.71 87.65C77.9474 87.4148 78.5759 86.825 79.4112 86.041L79.4114 86.0408ZM55.99 56.27C55.99 56.27 58.02 56.27 60.95 56.29C61.1453 56.29 61.2399 56.29 61.2505 56.3198C61.2604 56.3478 61.1962 56.4021 61.0717 56.5074C60.9895 56.577 60.8809 56.6688 60.75 56.79C60.3052 57.2062 59.6789 57.7824 59.0198 58.3885C58.0639 59.2678 57.0393 60.2103 56.4 60.82C56.3446 60.8735 56.2954 60.9226 56.2521 60.9658L56.2519 60.966C56.0685 61.1491 55.99 61.2275 55.99 61.09V56.27ZM83.0702 87.4548C82.8801 87.6724 82.69 87.89 82.6 87.99C82.86 88 87.99 88 87.99 88C87.9921 87.7902 88.0001 87.4079 88.0099 86.9371C88.0463 85.1868 88.1082 82.2139 87.99 82.34C87.765 82.585 86.765 83.6075 85.765 84.63C84.765 85.6525 83.765 86.675 83.54 86.92C83.45 87.02 83.2601 87.2374 83.0702 87.4548Z" fill="black"/>
<path fill-rule="evenodd" clip-rule="evenodd" d="M66.7285 48.0067C68.3896 48.0033 70.0504 48 71.71 48H71.72C73.4367 48 75.1533 48.0033 76.87 48.0067C80.3033 48.0133 83.7367 48.02 87.17 48C90.48 47.98 91.96 46.57 91.96 43.37C91.99 33.06 91.99 22.76 91.96 12.46C91.95 9.60999 90.35 8.03999 87.46 8.03999C77.15 8.01999 66.85 8.01999 56.55 8.03999C53.63 8.04999 52.01 9.57999 52.01 12.42C51.98 22.73 51.98 33.03 52.01 43.33C52.02 46.59 53.45 47.98 56.76 48C60.0804 48.02 63.4052 48.0133 66.7285 48.0067ZM68.226 43.9975C69.3902 43.9987 70.5548 44 71.72 44H71.71C72.9146 44 74.1198 43.9994 75.3253 43.9987C78.9435 43.9969 82.5646 43.995 86.18 44.01L86.207 44.0102C87.2725 44.0202 88.0099 44.0271 88 42.5C87.9364 33.7296 87.9554 24.9674 87.9744 16.1984C87.9763 15.319 87.9782 14.4396 87.98 13.56C87.99 12.63 87.91 12.01 86.72 12.01C76.91 12.04 67.09 12.04 57.28 12.01C56.13 12.01 55.98 12.55 55.98 13.53C56.01 23.18 56.03 32.82 55.96 42.47C55.95 43.94 56.62 44.02 57.75 44.02C61.2448 43.99 64.734 43.9937 68.226 43.9975Z" fill="black"/>
</svg>
