<svg width="100" height="100" viewBox="0 0 100 100" fill="none" xmlns="http://www.w3.org/2000/svg">
<g clip-path="url(#clip0_1_320)">
<path d="M88 100H11.97C11.97 69.64 12.02 39.27 11.91 8.91C11.9 5.13 12.6 2.05 15.97 0H83.99C87.35 2.06 88.07 5.13 88.05 8.92C87.94 39.28 87.99 69.64 87.99 100H88ZM83.54 95.78C83.76 95.08 83.93 94.78 83.93 94.47C83.96 65.66 83.93 36.85 84.06 8.04C84.08 3.99 81.85 3.97 78.93 3.97C59.77 4.02 40.61 4.13 21.46 3.9C16.95 3.85 15.86 5.33 15.89 9.62C16.06 36.93 15.97 64.24 15.99 91.56C15.99 92.98 16.18 94.41 16.27 95.74H54.09V72.38H76.15V95.78H83.55H83.54ZM58.23 76.19V95.71H71.67V76.19H58.23Z" fill="black"/>
<path d="M45.77 12.25V27.66H24.28V12.25H45.77ZM41.76 16.27H28.3V23.65H41.76V16.27Z" fill="black"/>
<path d="M75.57 27.89H54.37V12.33H75.57V27.89ZM71.81 16.4H58.25V23.69H71.81V16.4Z" fill="black"/>
<path d="M24.09 47.58V32.38H45.65V47.58H24.09ZM28.06 43.62H41.63V36.39H28.06V43.62Z" fill="black"/>
<path d="M54.24 47.71V32.38H75.66V47.71H54.24ZM58.22 43.73H71.68V36.35H58.22V43.73Z" fill="black"/>
<path d="M45.75 52.28V67.64H24.31V52.28H45.75ZM28.2 63.74H41.67V56.35H28.2V63.74Z" fill="black"/>
<path d="M54.35 52.21H75.72V67.59H54.35V52.21ZM71.65 63.77V56.37H58.23V63.77H71.65Z" fill="black"/>
<path d="M24.2 87.64V72.26H45.58V87.64H24.2ZM41.76 76.26H28.3V83.64H41.76V76.26Z" fill="black"/>
</g>
<defs>
<clipPath id="clip0_1_320">
<rect width="100" height="100" fill="white"/>
</clipPath>
</defs>
</svg>
