<svg width="96" height="96" viewBox="0 0 96 96" fill="none" xmlns="http://www.w3.org/2000/svg">
<path d="M32.31 59.96C28.92 59.96 25.43 60.03 21.94 59.94C15.5 59.78 12.12 56.41 12.03 49.94C11.93 42.78 11.96 35.61 12.02 28.44C12.08 21.33 15.37 17.99 22.42 17.94C32.76 17.87 43.1 17.92 53.44 17.92C62.17 17.92 64.12 19.34 66.7 27.65C70.98 25.76 75.22 23.85 79.5 22.02C83.93 20.13 85.52 20.98 85.58 25.59C85.71 34.59 85.71 43.59 85.57 52.58C85.5 56.71 83.93 57.64 80.13 56.07C75.67 54.23 71.29 52.22 66.5 50.12C66.25 51.17 66.1 52.07 65.82 52.92C64.33 57.51 61.48 59.74 56.61 59.9C52.95 60.02 49.29 59.92 45.85 59.92C43.19 63.53 41.76 67.08 41.8 71.48C41.84 75.56 38.65 78.79 34.51 79.09C28.21 79.54 21.86 79.41 15.53 79.39C13.75 79.39 12.12 78.55 12.15 76.47C12.18 74.06 14.04 73.57 16.01 73.55C20.68 73.5 25.35 73.56 30.02 73.5C32.14 73.47 34.98 73.97 35.57 71.37C36.08 69.16 35.49 66.58 34.91 64.29C34.53 62.79 33.29 61.5 32.3 59.92L32.31 59.96ZM39.03 53.96C44.52 53.96 50.01 54.03 55.5 53.94C59.13 53.88 60 53.08 60.05 49.57C60.15 42.59 60.14 35.6 60.05 28.62C60 24.76 59.23 23.99 55.28 23.96C44.46 23.89 33.65 23.89 22.83 23.96C18.87 23.98 18.08 24.76 18.03 28.58C17.94 35.4 17.95 42.21 18.03 49.03C18.07 53.16 18.84 53.89 23.05 53.95C28.37 54.02 33.7 53.97 39.03 53.96ZM79.16 49.06V28.83C74.42 30.92 70.25 32.76 66.35 34.47V43.46C70.6 45.32 74.66 47.09 79.16 49.06Z" fill="black"/>
</svg>
