<svg width="64" height="64" viewBox="0 0 64 64" fill="none" xmlns="http://www.w3.org/2000/svg">
<path d="M56.35 18.6C56 32.7 51.66 44.15 42.48 53.62C39.66 56.53 36.36 58.86 32.75 60.73C32.01 61.12 31.45 60.99 30.79 60.61C19.46 54.08 12.57 44.23 9.26 31.74C7.55 25.28 7.38 18.7 8.11 12.08C8.23 10.95 8.68 10.27 9.84 9.85001C16.92 7.26001 23.97 4.57001 31.04 1.96001C31.57 1.76001 32.29 1.74001 32.81 1.93001C39.92 4.55001 47.01 7.23001 54.12 9.85001C55.05 10.19 55.53 10.6 55.61 11.67C55.8 14.32 56.15 16.95 56.33 18.61L56.35 18.6ZM11.73 19.46C11.87 29.99 14.61 38.77 20.36 46.53C23.31 50.52 26.87 53.88 31.39 56.07C31.84 56.29 32.65 56.28 33.05 56.01C35.07 54.64 37.22 53.35 38.95 51.65C49.57 41.24 53.86 28.66 51.48 13.91C51.4 13.41 50.92 12.74 50.47 12.57C45.32 10.61 40.17 8.64001 34.95 6.91001C33.45 6.41001 31.56 6.22001 30.1 6.68001C24.39 8.52001 18.77 10.66 13.14 12.74C12.77 12.88 12.35 13.39 12.3 13.77C12.03 15.95 11.86 18.15 11.74 19.45L11.73 19.46Z" fill="black"/>
<path d="M32.23 49.61C31.4 36.94 31.85 24.27 31.85 11.3C33.86 11.79 35.85 12.13 37.74 12.76C40.64 13.73 43.49 14.88 46.33 16.02C46.72 16.18 47.13 16.72 47.22 17.15C48.25 22.05 47.47 26.83 45.99 31.5C44.32 36.78 41.81 41.62 38.03 45.75C36.42 47.51 33.97 49.25 32.21 49.61H32.23Z" fill="black"/>
</svg>
