<svg width="96" height="96" viewBox="0 0 96 96" fill="none" xmlns="http://www.w3.org/2000/svg">
<path d="M28.65 88.29C28.05 89.59 27.52 90.74 27.01 91.86H4.36C4.36 64.31 4.17 37.03 4.74 9.77C4.78 7.78 10.27 4.3 13.27 4.24C36.44 3.77 59.63 3.73 82.8 4.28C85.9 4.35 91.5 8.42 91.55 10.75C92.17 37.56 91.95 64.4 91.95 91.68H69.13C68.73 90.91 68.1 89.68 67.38 88.29H28.65ZM24.18 24.43H72.11V87.86H88.06C88.06 62.57 88.17 37.57 87.79 12.57C87.77 11.01 83.89 8.22 81.78 8.19C59.27 7.87 36.76 7.9 14.25 8.15C12.18 8.17 8.37 10.39 8.35 11.62C8 37.07 8.09 62.52 8.09 87.87H24.18V24.43ZM45.7 83.91V28.42H28.28V83.9H45.7V83.91ZM67.74 84.02V28.41H50.47V84.02H67.74Z" fill="black"/>
<path d="M38.07 20.84C35.56 18.18 33.63 16.13 30.47 12.79H45.5C42.51 16.04 40.61 18.09 38.07 20.84Z" fill="black"/>
<path d="M49.45 19.12C53.56 15.63 55.71 13.81 58.18 11.71C60.43 13.71 62.54 15.58 66.53 19.12H49.45Z" fill="black"/>
<path d="M80.01 49.74C78.16 47.08 76.13 45.4 76.39 44.22C76.74 42.65 78.86 41.46 80.21 40.11C81.48 41.38 83.74 42.65 83.75 43.94C83.77 45.48 81.86 47.05 80.01 49.74Z" fill="black"/>
<path d="M79.79 50.41C81.79 52.92 83.93 54.47 83.75 55.66C83.51 57.26 81.68 59.28 80.12 59.76C79.22 60.04 76.48 57.73 76.39 56.45C76.28 54.9 78.09 53.22 79.78 50.41H79.79Z" fill="black"/>
</svg>
