<svg width="96" height="96" viewBox="0 0 96 96" fill="none" xmlns="http://www.w3.org/2000/svg">
<path d="M19.09 79.28C24.92 83.52 31.95 84.49 38.93 84.84C48.42 85.32 57.93 85.07 67.31 83.02C70.49 82.33 75.42 80.97 75.42 79.23C75.42 76.29 70.95 76.35 68.15 75.57C66.3 75.06 64.42 74.61 62.65 73.9C60.99 73.23 60.83 71.69 61.1 70.11C61.42 68.3 62.9 69.02 63.88 69C69.89 68.85 75.5 70.48 80.2 74.12C83.8 76.91 83.41 80.87 79.47 84.07C74.46 88.14 68.33 89 62.31 89.89C55.81 90.85 49.23 90.89 42.64 91.01C34.67 91.15 27.15 89.39 19.82 86.75C16.58 85.58 13.23 83.61 13.07 79.31C12.9 74.71 16.26 72.52 19.76 71.24C23.34 69.93 27.06 68.53 31.1 68.93C32.6 69.08 34.44 68.86 34.73 70.61C35.03 72.44 33.43 73.45 31.8 73.97C27.99 75.18 23.91 75.55 20.43 77.77C19.91 78.1 19.12 78.04 19.08 79.29L19.09 79.28Z" fill="black"/>
<path fill-rule="evenodd" clip-rule="evenodd" d="M46.24 5.22C30.67 5.08 16.7 18.79 16.99 33.27H16.98C16.81 45.5 20.13 54.08 27.62 59.54C28.4369 60.1334 29.2575 60.7128 30.0731 61.2887C35.607 65.1963 40.9119 68.9422 43.3 75.81C43.5132 76.4207 43.8591 76.9849 44.2059 77.5505C44.461 77.9666 44.7165 78.3834 44.92 78.82C46.44 82.12 48.31 81.28 50.18 79.23C50.93 78.41 51.59 77.44 52.03 76.42C54.93 69.78 58.94 64.54 65.63 60.8C75.52 55.26 79.49 45.16 78.64 34.65C77.07 15.2 64.23 5.38 46.24 5.22ZM46.01 11.23C31.8 11.88 22.84 23.6 22.98 35.64V35.65C23.01 44.99 26.68 52.54 34.84 57.23C39.59 59.96 43.99 62.55 46.03 68.02C47.1 70.87 48.65 70.52 49.7 67.85C51.68 62.81 55.22 59.69 60.11 57.2C68.66 52.84 73.1 44.9 72.77 35.63C72.23 20.46 60.31 10.58 46.01 11.23Z" fill="black"/>
<path fill-rule="evenodd" clip-rule="evenodd" d="M32.94 37.11C33.57 44.71 39.72 51.06 47.53 50.99H47.52C55.77 50.69 62.97 44.73 62.77 35.94C62.58 27.13 56.49 21.35 46.8 21.15C39.48 20.99 32.18 27.98 32.94 37.11ZM47.68 27.04C42.88 26.9 39.05 30.83 39.03 35.92C39.01 41.27 42.43 44.97 47.38 44.97C52.18 44.96 57.01 40.42 56.96 35.95C56.92 31.9 51.99 27.17 47.68 27.04Z" fill="black"/>
</svg>
