<svg width="64" height="64" viewBox="0 0 64 64" fill="none" xmlns="http://www.w3.org/2000/svg">
<path d="M4 31.93C4 26.18 3.94 20.43 4.02 14.68C4.07 10.73 5.26 7.2 9.08 5.38C10.79 4.57 12.81 4.08 14.7 4.06C26.24 3.94 37.78 3.98 49.32 4.01C55.82 4.03 59.96 8.11 59.98 14.61C60.03 26.19 60.03 37.77 59.98 49.35C59.95 55.8 55.93 59.92 49.45 59.97C37.74 60.06 26.04 60.06 14.33 59.97C8.03 59.92 4.06 55.77 4.01 49.43C3.96 43.6 4 37.77 4 31.93ZM56 31.91C56 26.16 56 20.42 56 14.67C56 10.29 53.68 8 49.27 8C37.78 8 26.28 8 14.79 8C10.28 8 8.01 10.26 8.01 14.74C8.01 26.19 8.01 37.65 8.01 49.1C8.01 53.69 10.31 55.99 14.93 56C26.34 56 37.75 56 49.16 56C53.68 56 56 53.68 56.01 49.16C56.01 43.41 56.01 37.67 56.01 31.92L56 31.91Z" fill="black"/>
<path d="M26 36.01C26 39.59 26 43.04 26 46.49C26 49.13 25.81 49.59 23.96 51.66C22.72 50.26 21.99 48.78 22 46.79C22.07 36.42 22 26.04 22 15.67C22 12.91 22.92 11.96 25.65 12C29.1 12.05 32.58 11.92 36 12.3C41.65 12.92 46.02 18.24 46.01 24.04C45.99 29.78 41.63 34.96 36.04 35.73C34.28 35.97 32.47 35.95 30.69 36C29.19 36.04 27.7 36 26.01 36L26 36.01ZM26.28 31.92C28.16 32 29.98 32.11 31.8 32.15C32.67 32.17 33.55 32.15 34.41 32.05C38.48 31.61 40.86 29.44 41.4 25.39C41.93 21.42 40.29 17.61 36.48 16.32C33.11 15.18 29.69 16.14 26.28 16.12V31.91V31.92Z" fill="black"/>
</svg>
