<svg width="100" height="79" viewBox="0 0 100 79" fill="none" xmlns="http://www.w3.org/2000/svg">
<path fill-rule="evenodd" clip-rule="evenodd" d="M14.89 54.09C8.81 56.3 2.81 59.29 0 65.92H0.01V70.92C0.65 71.44 1.32 71.9 2.15 72.08C3.39204 72.5115 4.75235 72.3756 6.11259 72.2397C8.37735 72.0134 10.6419 71.7872 12.36 74.18C13.25 77.14 15.36 78.38 18.35 78.4C39.28 78.52 60.2 78.58 81.12 78.36C83.36 78.34 85.54 77.71 86.67 75.62C88.2 72.8 90.65 72.49 93.42 72.44C93.5852 72.4373 93.7512 72.4355 93.9174 72.4338C96.2356 72.4089 98.611 72.3834 100.02 69.92V65.92C99.7434 65.5207 99.47 65.1182 99.1965 64.7156C97.1073 61.6397 95.0147 58.5589 91.46 56.87C90.5553 56.4404 89.6442 56.0225 88.7329 55.6045C86.8442 54.7381 84.9548 53.8714 83.12 52.9C79.3 50.88 79.01 48.77 81.27 45.08C81.9483 43.9732 82.4434 42.745 82.9366 41.5215L82.9366 41.5214L82.9367 41.5213C83.5486 40.0033 84.1576 38.4925 85.11 37.23C86.4162 35.4943 86.1299 33.7793 85.84 32.0423C85.6371 30.8272 85.4325 29.6013 85.77 28.35C86.78 24.61 85.42 20.71 83.17 17.08C82.3701 15.7928 81.1774 15.5578 80.0898 15.3436C79.1242 15.1533 78.2415 14.9794 77.79 14.1C75.47 9.55 72.2 10.38 68.53 11.84C67.2 12.37 65.65 11.92 65.19 10.54C64.1729 7.51284 61.7287 6.58396 59.2829 5.6545C58.6989 5.43256 58.1148 5.21058 57.55 4.96C57.3773 4.88181 57.1675 4.86731 56.9586 4.85286C56.5262 4.82296 56.0976 4.79332 56.01 4.2C55.3167 -0.389409 51.6867 0.437027 49.1327 1.01847L48.95 1.06C43.17 2.37 37.58 4.51 34.37 10.11C34.2862 10.2569 34.2119 10.3939 34.1433 10.5206L34.1432 10.5206L34.1431 10.5208C33.5809 11.5578 33.3981 11.8951 31.5 11.2C26.44 9.35 18.77 13.59 15.84 18.52C13.5027 22.4568 13.7698 26.5854 14.0365 30.7083C14.1782 32.9004 14.3199 35.0909 14.07 37.25C14.02 37.68 14.79 38.31 15.3 38.69C17.2528 40.1567 17.878 42.4663 18.4413 44.5473C18.5502 44.9493 18.6567 45.3428 18.77 45.72C19.73 48.92 19.66 52.35 14.89 54.09ZM29.26 61C24.05 62.98 19.95 66.12 17.69 72V72.02C22.2036 72.02 26.6961 72.0214 31.172 72.0228H31.1964H31.2207C47.6125 72.0278 63.7832 72.0328 79.96 71.97C81.83 71.96 81.16 70.18 80.77 69.36C78.3246 64.2237 73.5486 62.3931 68.7336 60.5475C68.252 60.3629 67.7701 60.1782 67.29 59.99C58.46 56.52 51.44 50.97 58.98 40.15C59.8 38.98 60.23 37.6 60.02 36.08L60.0073 35.9897C59.8973 35.2105 59.7557 34.2076 60.67 33.89C63.85 32.78 63.75 29.71 62.79 28.03C61.7492 26.2127 62.3324 24.7843 62.8373 23.5476L62.8374 23.5475C62.9437 23.2871 63.0465 23.0352 63.13 22.79C65.03 17.24 63.61 12.86 59.51 9.02C58.6889 8.24623 57.5248 8.09586 56.3619 7.94564C54.579 7.71533 52.7986 7.48535 52.26 5.01C44.95 2.9 36.33 9.5 35.91 17.12C35.82 18.7742 36.0859 20.4215 36.3516 22.0669C36.7942 24.808 37.236 27.5442 36.03 30.3C35.87 30.67 35.97 31.51 36.22 31.66C37.9558 32.679 38.565 34.3649 39.1725 36.046C39.5904 37.2024 40.0075 38.3567 40.79 39.29C43.504 42.5177 43.242 46.2952 42.985 50.0012L42.985 50.0015C42.9418 50.624 42.8988 51.2445 42.87 51.86C42.8 53.33 41.93 55.06 40.2 56.04C36.69 58.02 33.01 59.57 29.26 61ZM95.25 66H84.46C84.3691 66 84.2744 66.0067 84.1787 66.0135C83.7796 66.0419 83.362 66.0717 83.12 65.62C80.4259 60.628 75.6975 58.9197 70.9697 57.2117C69.7309 56.7641 68.4921 56.3166 67.29 55.81C61.42 53.34 59.44 50.68 60.02 45.51C60.2221 43.6985 61.3465 42.2802 62.4326 40.9101C62.9054 40.3137 63.3709 39.7265 63.75 39.12C66.6115 34.5502 66.9156 29.6305 67.222 24.6743C67.4178 21.5071 67.6145 18.3251 68.48 15.21C71.0271 13.9331 73.313 15.0808 75.6148 16.2366C76.6839 16.7734 77.7563 17.3119 78.86 17.61C81.87 18.43 83.01 24.62 81.5 28.9C81.4657 28.9969 81.4311 29.0925 81.397 29.1867C81.0225 30.2203 80.7044 31.0986 81.52 31.96C82.21 32.69 82.27 33.95 81.95 34.2C80.2076 35.5736 79.6298 37.489 79.0569 39.3883C78.7289 40.4757 78.4025 41.5579 77.86 42.53C74.59 48.4 75.69 52.93 81.42 55.94C82.6907 56.6077 84.0286 57.097 85.3713 57.588L85.3715 57.588C87.3466 58.3102 89.3322 59.0363 91.13 60.34C93.07 61.74 94.29 63.15 95.26 65.99L95.25 66ZM9.17 60.32C6.66 61.42 5.18 63.09 5 65.87H4.99C6.9401 65.87 8.68231 65.9022 10.4333 65.9345C12.2021 65.9672 13.9799 66 15.99 66C19.5221 60.5047 25.1666 58.251 30.7692 56.014C31.559 55.6987 32.3479 55.3837 33.13 55.06C36.76 53.56 39.52 52.12 39.09 47.34C38.6918 42.887 36.4913 39.2285 34.3719 35.7048C34.1497 35.3353 33.9283 34.9673 33.71 34.6C32.19 32.04 31.42 29.69 32.29 27.4C32.9927 25.5386 32.5818 23.8124 32.1733 22.0964C31.8203 20.6135 31.4691 19.1383 31.84 17.59C32.01 16.9 30.45 15.41 29.15 15.03C24.77 13.75 18.21 18.05 18.05 22.54C17.82 28.83 18.12 35.03 21.26 40.84C25.36 48.42 23.72 53.33 16.28 57C13.93 58.15 11.56 59.27 9.17 60.32Z" fill="black"/>
</svg>
