<svg width="93" height="93" viewBox="0 0 93 93" fill="none" xmlns="http://www.w3.org/2000/svg">
<path fill-rule="evenodd" clip-rule="evenodd" d="M74.0415 1.07112C72.3804 1.07556 70.7196 1.08001 69.06 1.08001L69.05 1.07001C67.6477 1.07001 66.2445 1.08729 64.8412 1.10457C61.5912 1.14459 58.3407 1.18461 55.1 1.01001C51.18 0.800007 48.31 2.12001 45.55 4.92001C36.2919 14.3208 26.9461 23.6431 17.6003 32.9654C13.1871 37.3675 8.77393 41.7697 4.37 46.18C-0.190002 50.75 -0.180001 54.22 4.38 58.8C14.58 69.04 24.8 79.25 35.03 89.46C39.7 94.11 42.32 94.12 46.96 89.48C51.2686 85.1744 55.5717 80.8642 59.8745 76.5541C69.6527 66.7595 79.43 56.9658 89.27 47.23C91.78 44.75 92.93 42.01 92.93 38.59C92.9171 34.4629 92.9208 30.334 92.9245 26.2048C92.9294 20.6991 92.9343 15.1929 92.9 9.69001C92.86 3.83001 90.03 1.13001 84.01 1.08001C80.6896 1.05334 77.3648 1.06223 74.0415 1.07112ZM73.6591 5.08081C72.2122 5.07541 70.7656 5.07001 69.32 5.07001V5.08001C67.8922 5.08001 66.4635 5.08703 65.0345 5.09405C61.6394 5.11073 58.2422 5.12743 54.85 5.05001C52.59 4.99001 50.88 5.56001 49.2 7.26001C35.28 21.32 21.3 35.34 7.22 49.24C4.8 51.63 4.56 53.14 7.13 55.65C17.61 65.87 28 76.18 38.15 86.72C40.76 89.43 42.5 88.85 44.55 86.7C46.1588 85.0166 47.7383 83.3039 49.3179 81.5913C51.5479 79.1734 53.7778 76.7556 56.09 74.42C66.15 64.25 76.28 54.16 86.43 44.08C88.01 42.5 89.01 40.94 88.98 38.52C88.84 29.04 88.88 19.56 88.95 10.08C88.98 6.49001 87.29 4.99001 83.79 5.05001C80.4156 5.10602 77.0364 5.09341 73.6591 5.08081Z" fill="#010101"/>
</svg>
