<svg width="76" height="66" viewBox="0 0 76 66" fill="none" xmlns="http://www.w3.org/2000/svg">
<path d="M22.091 0H54.4073L75.7482 32.9999H0.75L22.091 0Z" fill="#FA9F19"/>
<path d="M54.409 66L22.0927 66L0.75177 33.0001L75.75 33.0001L54.409 66Z" fill="#FA9F19"/>
<path d="M51.4571 33.7071C51.8476 33.3166 51.8476 32.6834 51.4571 32.2929L45.0931 25.9289C44.7026 25.5384 44.0695 25.5384 43.6789 25.9289C43.2884 26.3195 43.2884 26.9526 43.6789 27.3431L49.3358 33L43.6789 38.6569C43.2884 39.0474 43.2884 39.6805 43.6789 40.0711C44.0695 40.4616 44.7026 40.4616 45.0931 40.0711L51.4571 33.7071ZM26.75 34H50.75V32L26.75 32V34Z" fill="#FFF7E9"/>
</svg>
