<svg width="175" height="163" viewBox="0 0 175 163" fill="none" xmlns="http://www.w3.org/2000/svg">
<path d="M161.594 121.356L87.75 161.295L13.9058 121.356L13.9058 41.6441L87.75 1.70531L161.594 41.644L161.594 121.356Z" fill="#FABA19" stroke="#7A6D49" stroke-width="3"/>
<path d="M115.831 81.0557L89.6851 54.9288C89.4968 54.7402 89.2732 54.5905 89.027 54.4884C88.7809 54.3863 88.517 54.3337 88.2505 54.3337C87.984 54.3337 87.7201 54.3863 87.4739 54.4884C87.2278 54.5905 87.0042 54.7402 86.8159 54.9288L60.6699 81.0557C59.9082 81.8175 59.4766 82.8521 59.4766 83.9312C59.4766 86.1719 61.2983 87.9937 63.5391 87.9937H66.2939V106.637C66.2939 107.76 67.2017 108.668 68.3252 108.668H84.188V94.4493H91.2974V108.668H108.176C109.299 108.668 110.207 107.76 110.207 106.637V87.9937H112.962C114.041 87.9937 115.076 87.5684 115.837 86.8004C117.418 85.2134 117.418 82.6426 115.831 81.0557Z" fill="#FFF7E9"/>
</svg>
