<svg width="24" height="25" viewBox="0 0 24 25" fill="none" xmlns="http://www.w3.org/2000/svg">
<path d="M2.57227 9.17764L11.7043 13.9271C11.7959 13.9747 11.8976 13.9996 12.0008 13.9996C12.1041 13.9996 12.2058 13.9747 12.2974 13.9271L21.4294 9.1785V17.4285C21.4295 18.14 21.1572 18.8246 20.6685 19.3418C20.1799 19.859 19.5118 20.1696 18.8014 20.2099L18.6437 20.2142H5.35798C4.64643 20.2143 3.96184 19.942 3.44464 19.4534C2.92744 18.9647 2.61684 18.2966 2.57655 17.5862L2.57227 17.4285V9.17764ZM5.35798 4.78564H18.6437C19.3552 4.7856 20.0398 5.05783 20.557 5.54651C21.0742 6.03518 21.3848 6.70324 21.4251 7.41364L21.4294 7.57136V7.72907L12.0008 12.6319L2.57227 7.72907V7.57136C2.57222 6.85981 2.84445 6.17522 3.33313 5.65802C3.8218 5.14082 4.48986 4.83021 5.20027 4.78993L5.35798 4.78564Z" fill="#FABA19"/>
</svg>
