<svg width="24" height="25" viewBox="0 0 24 25" fill="none" xmlns="http://www.w3.org/2000/svg">
<g clip-path="url(#clip0_372_699)">
<path fill-rule="evenodd" clip-rule="evenodd" d="M16.553 22.633C15.113 22.58 11.032 22.016 6.75798 17.743C2.48498 13.469 1.92198 9.38897 1.86798 7.94797C1.78798 5.75197 3.46998 3.61897 5.41298 2.78597C5.64695 2.68494 5.90318 2.64647 6.15651 2.67435C6.40984 2.70222 6.65157 2.79548 6.85798 2.94497C8.45798 4.11097 9.56198 5.87497 10.51 7.26197C10.7186 7.5667 10.8077 7.93752 10.7605 8.30377C10.7133 8.67002 10.533 9.0061 10.254 9.24797L8.30298 10.697C8.20872 10.765 8.14237 10.865 8.11625 10.9783C8.09014 11.0916 8.10603 11.2105 8.16098 11.313C8.60298 12.116 9.38898 13.312 10.289 14.212C11.19 15.112 12.442 15.95 13.301 16.442C13.4087 16.5024 13.5355 16.5193 13.6552 16.4892C13.775 16.4591 13.8787 16.3842 13.945 16.28L15.215 14.347C15.4485 14.0368 15.7929 13.829 16.1762 13.7672C16.5594 13.7053 16.9517 13.7941 17.271 14.015C18.678 14.989 20.32 16.074 21.522 17.613C21.6836 17.8209 21.7864 18.0684 21.8197 18.3296C21.8529 18.5908 21.8154 18.8562 21.711 19.098C20.874 21.051 18.756 22.714 16.553 22.633Z" fill="#FABA19"/>
</g>
<defs>
<clipPath id="clip0_372_699">
<rect width="24" height="24" fill="white" transform="translate(0 0.5)"/>
</clipPath>
</defs>
</svg>
