<svg width="106" height="100" viewBox="0 0 106 100" fill="none" xmlns="http://www.w3.org/2000/svg">
<path d="M52.875 0.140625L98.6661 24.9258V74.4961L52.875 99.2812L7.08391 74.4961V24.9258L52.875 0.140625Z" fill="#FA9F19"/>
<g clip-path="url(#clip0_237_3380)">
<path d="M48.8698 53.0873C51.5952 55.852 54.8927 57.9865 58.5309 59.3409L63.4529 55.4243C63.5988 55.3238 63.7718 55.27 63.949 55.27C64.1262 55.27 64.2992 55.3238 64.4451 55.4243L73.584 61.3123C73.931 61.5209 74.2247 61.8073 74.4419 62.1489C74.6591 62.4905 74.794 62.8779 74.8358 63.2806C74.8775 63.6833 74.8251 64.0901 74.6827 64.4691C74.5402 64.848 74.3116 65.1886 74.0148 65.464L69.7326 69.694C69.1194 70.2999 68.3656 70.7446 67.5387 70.9884C66.7117 71.2321 65.8373 71.2674 64.9934 71.0909C56.5755 69.3523 48.8165 65.2806 42.6032 59.3409C36.5277 53.3422 32.3236 45.7094 30.5007 37.3684C30.3206 36.5376 30.3582 35.6744 30.6098 34.8624C30.8614 34.0504 31.3185 33.3171 31.9368 32.7337L36.3757 28.4515C36.6504 28.1692 36.9853 27.9527 37.3556 27.8183C37.7258 27.6838 38.1216 27.6348 38.5134 27.675C38.9052 27.7152 39.2829 27.8435 39.6181 28.0503C39.9533 28.2571 40.2373 28.5371 40.449 28.8693L46.5329 37.8907C46.6378 38.0323 46.6945 38.2039 46.6945 38.3802C46.6945 38.5565 46.6378 38.7282 46.5329 38.8698L42.5248 43.6873C43.916 47.2527 46.0834 50.4637 48.8698 53.0873Z" fill="#221D12"/>
<path d="M48.8698 53.0873C51.5952 55.852 54.8927 57.9865 58.5309 59.3409L63.4529 55.4243C63.5988 55.3238 63.7718 55.27 63.949 55.27C64.1262 55.27 64.2992 55.3238 64.4451 55.4243L73.584 61.3123C73.931 61.5209 74.2247 61.8073 74.4419 62.1489C74.6591 62.4905 74.794 62.8779 74.8358 63.2806C74.8775 63.6833 74.8251 64.0901 74.6827 64.4691C74.5402 64.848 74.3116 65.1886 74.0148 65.464L69.7326 69.694C69.1194 70.2999 68.3656 70.7446 67.5387 70.9884C66.7117 71.2321 65.8373 71.2674 64.9934 71.0909C56.5755 69.3523 48.8165 65.2806 42.6032 59.3409C36.5277 53.3422 32.3236 45.7094 30.5007 37.3684C30.3206 36.5376 30.3582 35.6744 30.6098 34.8624C30.8614 34.0504 31.3185 33.3171 31.9368 32.7337L36.3757 28.4515C36.6504 28.1692 36.9853 27.9527 37.3556 27.8183C37.7258 27.6838 38.1216 27.6348 38.5134 27.675C38.9052 27.7152 39.2829 27.8435 39.6181 28.0503C39.9533 28.2571 40.2373 28.5371 40.449 28.8693L46.5329 37.8907C46.6378 38.0323 46.6945 38.2039 46.6945 38.3802C46.6945 38.5565 46.6378 38.7282 46.5329 38.8698L42.5248 43.6873C43.916 47.2527 46.0834 50.4637 48.8698 53.0873Z" fill="black" fill-opacity="0.2"/>
</g>
<defs>
<clipPath id="clip0_237_3380">
<rect width="47" height="47" fill="white" transform="translate(29 26.1406)"/>
</clipPath>
</defs>
</svg>
