<svg width="106" height="101" viewBox="0 0 106 101" fill="none" xmlns="http://www.w3.org/2000/svg">
<path d="M53 0.929688L98.7911 25.7148V75.2852L53 100.07L7.20891 75.2852V25.7148L53 0.929688Z" fill="#FA9F19"/>
<g clip-path="url(#clip0_372_733)">
<path d="M48.9968 53.8764C51.7221 56.6411 55.0197 58.7756 58.6579 60.13L63.5798 56.2133C63.7258 56.1128 63.8988 56.059 64.076 56.059C64.2531 56.059 64.4261 56.1128 64.5721 56.2133L73.711 62.1014C74.0579 62.31 74.3516 62.5964 74.5688 62.938C74.7861 63.2796 74.9209 63.667 74.9627 64.0697C75.0045 64.4723 74.9521 64.8792 74.8096 65.2581C74.6671 65.6371 74.4385 65.9777 74.1418 66.253L69.8596 70.4831C69.2463 71.089 68.4926 71.5337 67.6656 71.7774C66.8387 72.0212 65.9643 72.0564 65.1204 71.88C56.7025 70.1414 48.9434 66.0696 42.7301 60.13C36.6547 54.1313 32.4505 46.4985 30.6276 38.1575C30.4475 37.3267 30.4851 36.4635 30.7367 35.6514C30.9883 34.8394 31.4454 34.1062 32.0637 33.5228L36.5026 29.2405C36.7773 28.9583 37.1123 28.7418 37.4825 28.6073C37.8527 28.4729 38.2485 28.4239 38.6404 28.4641C39.0322 28.5043 39.4098 28.6326 39.745 28.8394C40.0802 29.0462 40.3643 29.3262 40.576 29.6583L46.6598 38.6797C46.7648 38.8214 46.8214 38.993 46.8214 39.1693C46.8214 39.3456 46.7648 39.5172 46.6598 39.6589L42.6518 44.4764C44.043 48.0418 46.2104 51.2528 48.9968 53.8764Z" fill="#FFF7E9"/>
</g>
<defs>
<clipPath id="clip0_372_733">
<rect width="47" height="47" fill="white" transform="translate(29.125 26.9297)"/>
</clipPath>
</defs>
</svg>
