<svg width="142" height="144" viewBox="0 0 142 144" fill="none" xmlns="http://www.w3.org/2000/svg">
<path fill-rule="evenodd" clip-rule="evenodd" d="M79.57 0.0700073H77.57V0.0800073C76.19 0.769983 74.6927 1.1296 73.1956 1.48917C71.4814 1.90089 69.7673 2.31255 68.23 3.22001C60.325 7.89001 52.3625 12.465 44.4 17.04C36.4375 21.615 28.475 26.19 20.57 30.86C17.78 32.52 15.85 34.45 16.17 37.91V106.21C15.94 109.8 17.63 112.03 20.75 113.74C22.1797 114.524 23.5933 115.353 25.007 116.181C26.7477 117.202 28.4886 118.222 30.26 119.16C35.5561 121.962 40.679 125.088 45.8016 128.214C55.652 134.226 65.5014 140.236 76.58 143.94H79.58C81.0505 143.218 82.6054 142.758 84.1672 142.296C86.0466 141.74 87.9359 141.181 89.7 140.16C93.992 137.68 98.2832 135.198 102.574 132.717C113.87 126.186 125.165 119.655 136.47 113.14C139.34 111.49 140.94 109.35 140.98 106.07V37.85C140.99 35.52 140.21 33.52 138.14 32.39C131.478 28.7369 124.968 24.8063 118.458 20.8756C105.864 13.2715 93.2688 5.66686 79.57 0.0700073ZM36.6766 66.6076C36.6533 68.5285 36.63 70.4498 36.63 72.37H36.64C36.64 74.4317 36.6525 76.4935 36.6649 78.5549C36.6927 83.1525 36.7205 87.7486 36.61 92.34C36.34 103.98 48.37 115.17 59.27 115C71.74 114.8 84.22 114.72 96.69 115.02C110.05 115.34 121.06 103.7 121.44 90.4C121.78 78.43 121.96 66.42 121.39 54.46C120.72 40.47 110.99 30.77 96.98 30.15C84.69 29.61 72.36 29.78 60.06 30.11C47.32 30.45 35.97 41 36.58 53.9C36.7796 58.126 36.7281 62.3662 36.6766 66.6076Z" fill="#FA9F19"/>
<path fill-rule="evenodd" clip-rule="evenodd" d="M117.59 91.1C116.73 101.91 109.88 109 97.56 111.81C84.56 111.24 71.55 111.27 58.55 111.79C48.25 109.58 42.01 103.31 39.8 93.02C40.34 79.34 40.34 65.67 39.8 51.99C41.89 41.69 48.2 35.77 58.47 33.95C71.86 33.29 85.25 33.27 98.64 33.96C109.46 35.98 115.58 42.1 117.58 52.91C118.27 65.64 118.26 78.37 117.58 91.09L117.59 91.1ZM98.52 49.18C98.61 46.37 100.22 46 102.27 46.01C104.58 46.01 105.71 47.08 105.48 49.36C105.28 51.41 103.98 52.96 102.02 52.89C99.86 52.81 98.56 51.21 98.51 49.18H98.52ZM57.6 72.47C56.81 61.77 66.19 51.65 78.92 51.82C90.31 51.97 99.71 61.17 99.72 72.7C99.74 83.77 89.24 94.21 78.45 94.15C67.86 94.09 56.59 83.75 57.59 72.47H57.6ZM96.53 72.57C95.12 83.42 89.23 89.72 78.69 90.81C69.9 91.72 60.42 81.47 60.6 72.34C60.78 63.01 68.89 55.13 78.42 55.02C88.04 54.91 96.61 63.22 96.53 72.57Z" fill="#FA9F19"/>
</svg>
