<svg width="126" height="144" viewBox="0 0 126 144" fill="none" xmlns="http://www.w3.org/2000/svg">
<g clip-path="url(#clip0_1_669)">
<path fill-rule="evenodd" clip-rule="evenodd" d="M64 0.0699997H62C60.62 0.759975 59.1227 1.11959 57.6256 1.47916C55.9113 1.89088 54.1973 2.30254 52.66 3.21C44.6786 7.9302 36.6385 12.551 28.599 17.1715C20.7135 21.7035 12.8286 26.2352 4.99999 30.86C2.20999 32.52 0.279989 34.45 0.599989 37.91V106.21C0.369989 109.8 2.05999 112.03 5.17999 113.74C6.60967 114.524 8.02328 115.353 9.43702 116.181C11.1777 117.202 12.9186 118.222 14.69 119.16C19.9861 121.962 25.109 125.088 30.2316 128.214C40.082 134.226 49.9314 140.236 61.01 143.94H64.01C65.4805 143.218 67.0354 142.758 68.5972 142.296C70.4766 141.74 72.3659 141.181 74.13 140.16C78.4184 137.682 82.706 135.202 86.9934 132.723C98.2927 126.19 109.591 119.657 120.9 113.14C123.77 111.49 125.37 109.35 125.41 106.07V37.85C125.42 35.52 124.64 33.52 122.57 32.39C115.908 28.7369 109.398 24.8063 102.888 20.8756C90.2937 13.2715 77.6988 5.66685 64 0.0699997ZM99.0293 59.7131C99.3051 57.3985 99.5724 55.1564 99.853 53.0214L99.843 53.0414C99.843 44.6314 98.673 43.8014 91.663 46.1114C90.733 46.4114 89.823 46.7514 88.923 47.1214C84.9951 48.7472 81.0591 50.3543 77.1231 51.9615C67.2105 56.009 57.2977 60.0566 47.513 64.4014C45.4035 65.3375 43.257 66.1921 41.1102 67.0469C36.7437 68.7854 32.3755 70.5246 28.313 72.9514C28.1672 73.0401 28.0216 73.1249 27.8786 73.2081C26.8447 73.8101 25.9415 74.3359 26.003 75.7414C26.073 77.3614 27.293 77.9214 28.603 78.3314C29.6447 78.6572 30.6845 78.997 31.725 79.3372C34.0707 80.1039 36.42 80.8718 38.803 81.4814C43.223 82.6114 47.233 82.4414 51.343 79.4514C57.0363 75.2981 62.934 71.4292 68.8318 67.5604C71.7807 65.6259 74.7296 63.6915 77.653 61.7214C77.9218 61.54 78.1916 61.3093 78.4633 61.0771C79.4046 60.2726 80.3687 59.4485 81.393 60.5814C82.7214 62.0471 81.4568 63.1601 80.3568 64.1282C80.1733 64.2897 79.9945 64.4471 79.833 64.6014C78.2831 66.0839 76.7448 67.5784 75.2066 69.0726C70.8099 73.344 66.4154 77.6132 61.763 81.5914C57.643 85.1114 57.933 88.9314 62.583 91.9914C68.9727 96.2012 75.3924 100.371 81.8121 104.541L81.813 104.541C87.893 108.481 89.723 107.851 91.923 101.001C93.6541 95.6172 94.5165 90.0483 95.3781 84.4851C95.7358 82.175 96.0934 79.8659 96.513 77.5714C97.6217 71.5233 98.3515 65.3994 99.0293 59.7131Z" fill="#FA9F19"/>
</g>
<defs>
<clipPath id="clip0_1_669">
<rect width="126" height="144" fill="white"/>
</clipPath>
</defs>
</svg>
