<svg width="126" height="144" viewBox="0 0 126 144" fill="none" xmlns="http://www.w3.org/2000/svg">
<g clip-path="url(#clip0_1_676)">
<path fill-rule="evenodd" clip-rule="evenodd" d="M62.01 143.93H64.01H64.03C65.4995 143.002 67.1418 142.608 68.7965 142.211C70.351 141.839 71.9165 141.463 73.36 140.64C80.7723 136.401 88.1568 132.108 95.5412 127.816C104.096 122.843 112.652 117.87 121.25 112.98C124.22 111.3 125.44 108.87 125.44 105.66C125.447 90.6996 125.444 75.7348 125.442 60.7715C125.441 53.2904 125.44 45.8096 125.44 38.33C125.44 34.87 123.97 32.43 120.81 30.75C119.089 29.8333 117.405 28.8421 115.72 27.8506C113.967 26.8195 112.214 25.7882 110.42 24.84C105.135 22.0477 100.027 18.9206 94.9191 15.7932C85.0444 9.74785 75.1679 3.70141 64.01 0.0699997H62.01C60.6125 0.766405 59.1036 1.13077 57.5956 1.49491C55.8772 1.90987 54.1599 2.32456 52.61 3.23C44.684 7.85097 36.7324 12.4258 28.7798 17.0012C21.0198 21.4658 13.2589 25.931 5.52 30.44C1.7 32.67 0.46 35.48 0.5 39.79C0.595 48.945 0.5775 58.1 0.56 67.255C0.5425 76.41 0.525 85.565 0.62 94.72C0.721518 104.278 -0.0916183 107.82 1.21862 110.186C2.48967 112.481 5.75897 113.669 13.8 118.17C18.4686 120.785 23.0302 123.606 27.5929 126.428C38.5593 133.21 49.5316 139.997 62.01 143.93ZM34.8826 105.721C36.1946 106.089 37.5355 106.466 38.22 107.94L38.23 107.93C38.7176 110.674 38.6294 113.445 38.5413 116.215C38.4396 119.41 38.338 122.605 39.12 125.76C41.32 126.38 42.91 125.45 44.42 123.91C45.7673 122.529 47.1538 121.186 48.5397 119.843C50.8569 117.599 53.1724 115.355 55.3 112.94C57.39 110.55 59.61 109.74 62.66 109.92C70.42 110.37 78.12 109.75 85.71 107.96C95.64 105.62 102.87 100.43 106.4 90.26C110.71 77.87 110.54 65.35 108.91 52.67C107.11 38.66 99.86 29.22 85.76 25.76C72.63 22.55 59.32 21.72 46.06 24.32C36.03 26.29 26.81 30.22 21.32 39.79C18.3638 44.9325 17.6393 50.5991 16.905 56.3431C16.8668 56.6419 16.8286 56.9409 16.79 57.24C15.26 69.19 15.39 80.94 20.16 92.21C22.78 98.39 27.27 102.82 33.62 105.32C34.0214 105.479 34.4505 105.599 34.8826 105.721Z" fill="#FA9F19"/>
<path fill-rule="evenodd" clip-rule="evenodd" d="M42.07 105.92C41.34 103.52 39.19 102.64 37.21 102.09C29 99.8 24.57 93.85 22.37 86.26C19.77 77.32 19.24 68.17 20.86 58.86C21.1062 57.4505 21.2836 56.0329 21.4608 54.6168L21.4608 54.6168L21.4608 54.6168L21.4608 54.6167C21.9095 51.0299 22.357 47.4527 23.92 44.04C28.4 34.26 37.03 30.68 46.59 28.49C59.1 25.63 71.59 26.91 83.89 29.57C96.03 32.19 102.86 40.17 104.72 52.5C106.29 62.88 106.32 73.17 104.03 83.46C100.52 99.23 92.23 102.81 78.81 104.9C78.1776 104.999 77.5186 105.13 76.8541 105.262L76.854 105.262L76.8539 105.262L76.8537 105.262C74.9757 105.634 73.0546 106.015 71.57 105.72C58.75 103.22 50.67 110.18 43.24 118.85C42.2906 116.645 42.4095 114.343 42.5284 112.04C42.635 109.977 42.7416 107.914 42.08 105.92H42.07ZM42.65 43.03C44.0891 42.7809 45.1026 43.6636 46.1539 44.5791L46.1549 44.58L46.1578 44.5826C46.2449 44.6584 46.3322 44.7344 46.42 44.81C48.2407 46.3749 49.5633 48.3191 50.8861 50.2635C51.3214 50.9035 51.7568 51.5435 52.21 52.17C54.32 55.09 54.77 57.71 51.46 60.27C47.84 63.07 48.42 66.61 50.59 69.97C53.41 74.35 57.13 77.72 61.77 80.32C64.98 82.12 67.27 81.83 69.42 79.23C72.3 75.75 75.43 76.41 78.67 78.46C79.5536 79.0223 80.3845 79.6603 81.2156 80.2984C81.833 80.7725 82.4506 81.2467 83.09 81.69C86.41 83.99 88.4 86.61 86.06 90.81C83.71 95.05 78.64 97.64 74.68 95.98C55.51 87.9 41.55 74.65 34.56 54.72C32.63 49.21 37.03 42.96 42.65 43.03ZM89.16 66.74C92.71 52.57 79.06 37.12 65.85 39.08C65.4298 39.0799 64.9792 39.0741 64.507 39.068C63.3404 39.0529 62.0427 39.0361 60.75 39.1C59.6 39.15 58.98 39.89 58.98 41.07C58.97 42.27 59.59 42.93 60.77 42.96C62.09 42.99 63.43 42.98 64.75 42.89C72.64 42.36 78.34 45.98 82.68 52.27C85.1427 55.8355 85.0683 59.7929 84.9938 63.7545V63.755V63.7555C84.9785 64.5713 84.9632 65.3872 84.97 66.2C84.98 67.59 85.12 69.37 86.44 69.51C87.65 69.64 88.69 68.61 89.16 66.74ZM82.96 62.14C82.96 62.417 82.9633 62.6941 82.9667 62.9707V62.9709C82.9733 63.5231 82.98 64.0738 82.96 64.62C82.89 66.19 82.07 67.14 80.47 67.05C78.81 66.96 78.88 65.58 78.96 64.45C79.21 61.22 78.39 58.16 76.7 55.56C74.12 51.6 70.5 49.29 65.42 49.96C63.5 50.21 60.98 50.33 61.15 47.37C61.2809 45.1072 63.2654 45.0651 65.0024 45.0283L65.003 45.0283C65.1234 45.0258 65.2427 45.0232 65.36 45.02C74.49 44.79 82.93 52.99 82.95 62.13L82.96 62.14ZM76.0649 62.7258C76.064 62.475 76.0632 62.2306 76.09 62.01C76.09 57.11 70.94 52.07 66.12 52.01C64.84 51.99 63.59 52.28 63.26 53.49C62.8 55.15 64.06 55.67 65.48 56.05C69.03 57 71.82 58.72 72.09 62.94C72.17 64.22 73.15 65.04 74.5 64.91C76.0717 64.7512 76.0681 63.6914 76.0649 62.7258Z" fill="#FA9F19"/>
</g>
<defs>
<clipPath id="clip0_1_676">
<rect width="126" height="144" fill="white"/>
</clipPath>
</defs>
</svg>
