<svg width="174" height="163" viewBox="0 0 174 163" fill="none" xmlns="http://www.w3.org/2000/svg">
<path d="M160.844 121.356L87 161.295L13.1558 121.356L13.1558 41.6441L87 1.70531L160.844 41.644L160.844 121.356Z" fill="#FABA19" stroke="#7A6D49" stroke-width="3"/>
<path d="M115.081 81.0557L88.9351 54.9288C88.7468 54.7402 88.5232 54.5905 88.277 54.4884C88.0309 54.3863 87.767 54.3337 87.5005 54.3337C87.234 54.3337 86.9701 54.3863 86.7239 54.4884C86.4778 54.5905 86.2542 54.7402 86.0659 54.9288L59.9199 81.0557C59.1582 81.8175 58.7266 82.8521 58.7266 83.9312C58.7266 86.1719 60.5483 87.9937 62.7891 87.9937H65.5439V106.637C65.5439 107.76 66.4517 108.668 67.5752 108.668H83.438V94.4493H90.5474V108.668H107.426C108.549 108.668 109.457 107.76 109.457 106.637V87.9937H112.212C113.291 87.9937 114.326 87.5684 115.087 86.8004C116.668 85.2134 116.668 82.6426 115.081 81.0557Z" fill="#221D12"/>
<path d="M115.081 81.0557L88.9351 54.9288C88.7468 54.7402 88.5232 54.5905 88.277 54.4884C88.0309 54.3863 87.767 54.3337 87.5005 54.3337C87.234 54.3337 86.9701 54.3863 86.7239 54.4884C86.4778 54.5905 86.2542 54.7402 86.0659 54.9288L59.9199 81.0557C59.1582 81.8175 58.7266 82.8521 58.7266 83.9312C58.7266 86.1719 60.5483 87.9937 62.7891 87.9937H65.5439V106.637C65.5439 107.76 66.4517 108.668 67.5752 108.668H83.438V94.4493H90.5474V108.668H107.426C108.549 108.668 109.457 107.76 109.457 106.637V87.9937H112.212C113.291 87.9937 114.326 87.5684 115.087 86.8004C116.668 85.2134 116.668 82.6426 115.081 81.0557Z" fill="black" fill-opacity="0.2"/>
</svg>
