<svg width="384" height="384" viewBox="0 0 384 384" fill="none" xmlns="http://www.w3.org/2000/svg">
<path d="M71.45 104.65C67.42 97.38 63.63 90.54 59.75 83.55C58.37 84.22 57.29 84.78 56.18 85.28C51.09 87.6 45.6 86.23 42.75 81.47C39.23 75.59 35.89 69.59 32.82 63.47C29.99 57.81 32.11 52.55 38.23 49.14C56.96 38.72 75.71 28.33 94.45 17.92C97.94 15.98 101.39 13.99 104.91 12.11C111.45 8.61 116.96 10.23 120.67 16.75C123.38 21.52 126.04 26.31 128.67 31.13C132.57 38.28 131.22 43.33 124.34 47.57C123.82 47.89 123.32 48.23 122.44 48.79C126.21 55.58 129.92 62.28 133.78 69.24C138.63 66.85 143.17 64.68 146.11 59.88C151.83 50.52 157.91 41.38 163.84 32.15C170.94 21.1 180.99 15.51 194.18 15.52C237.48 15.55 280.77 15.51 324.07 15.54C340.59 15.55 351.58 26.44 351.59 42.95C351.63 143.78 351.63 244.61 351.59 345.43C351.59 361.93 340.54 372.81 324.05 372.82C244.57 372.83 165.09 372.82 85.61 372.82C68.98 372.82 58 362.16 57.98 345.59C57.91 272.59 57.96 199.59 57.93 126.59C57.93 116.65 62.23 109.39 71.44 104.64L71.45 104.65ZM341.25 194.16C341.25 143.76 341.26 93.36 341.25 42.96C341.25 32.27 334.93 25.93 324.29 25.93C281.13 25.91 237.97 25.98 194.82 25.88C184.79 25.86 177.4 29.95 172.13 38.4C166.52 47.39 160.62 56.19 155.01 65.18C152.15 69.75 148.44 73.17 143.73 75.8C121.35 88.32 99.1 101.09 76.66 113.5C70.7 116.79 68.2 121.21 68.21 127.95C68.32 200.06 68.27 272.16 68.28 344.27C68.28 356.44 74.26 362.48 86.36 362.48C165.32 362.48 244.27 362.48 323.23 362.48C335.3 362.48 341.27 356.43 341.27 344.24C341.27 294.21 341.27 244.19 341.27 194.16H341.25ZM51.43 75.93C74.68 63.06 97.48 50.45 120.4 37.77C117.18 31.91 114.15 26.39 111.02 20.71C87.86 33.51 65.03 46.13 41.98 58.87C45.22 64.73 48.22 70.15 51.43 75.93ZM80.24 99.06C95.2 90.79 109.88 82.69 124.81 74.44C120.92 67.44 117.19 60.72 113.35 53.8C98.4 62.1 83.65 70.28 68.82 78.51C72.74 85.56 76.41 92.18 80.24 99.07V99.06Z" fill="black"/>
<path d="M138.49 168.43C140.36 169.59 142.26 170.16 143.13 171.43C147.96 178.46 154.71 179.24 162.63 179.14C193.32 178.76 224.02 178.95 254.71 179.04C257.55 179.04 259.71 178.42 261.56 176.2C263.24 174.2 265.17 172.4 267.12 170.66C269.39 168.63 271.86 168.53 274.2 170.56C276.37 172.45 276.39 175.46 274.39 177.95C274.16 178.24 273.92 178.56 273.61 178.76C266.52 183.45 265.67 190.22 265.78 198.19C266.19 227.88 265.99 257.59 265.88 287.29C265.87 290.43 266.62 292.79 269.04 294.8C270.95 296.39 272.68 298.22 274.33 300.09C276.33 302.35 276.47 304.86 274.49 307.2C272.58 309.46 269.67 309.47 267.13 307.41C266.84 307.17 266.53 306.93 266.33 306.63C261.63 299.53 254.84 298.71 246.87 298.82C216.43 299.22 185.98 299.03 155.54 298.91C152.12 298.9 149.57 299.74 147.41 302.38C145.92 304.21 144.16 305.84 142.37 307.39C139.88 309.54 136.93 309.48 135.03 307.22C133.07 304.89 133.24 302.43 135.15 300.09C135.39 299.8 135.63 299.49 135.93 299.29C142.86 294.69 143.84 288.09 143.73 280.24C143.33 250.3 143.53 220.34 143.63 190.39C143.63 187.52 142.9 185.41 140.75 183.55C138.68 181.76 136.51 179.91 135.06 177.65C134.13 176.2 133.81 173.76 134.35 172.15C134.83 170.72 136.87 169.8 138.48 168.44L138.49 168.43ZM255.39 280.64V197.56C249.79 201.7 247.7 202.23 245.43 199.77C241.73 195.76 245.02 192.83 247.78 189.59H162.18C166.01 195.41 166.51 197.75 164.13 199.79C160.2 203.16 157.35 200.22 154.19 197.27V280.81C157.24 277.95 160.12 274.91 163.8 278.18C168.02 281.93 164.29 285.18 162.06 288.43H247.38C243.49 282.41 243.16 280.41 245.59 278.21C248 276.03 250.33 276.55 255.4 280.65L255.39 280.64Z" fill="black"/>
<path d="M234.55 94.49C217.09 94.49 199.63 94.41 182.18 94.53C176.67 94.57 172.01 93.21 169.13 88.22C166.18 83.12 167.22 78.26 170.16 73.42C175.07 65.33 179.88 57.17 184.55 48.93C187.5 43.72 191.82 41.32 197.7 41.32C233.24 41.34 268.78 41.26 304.31 41.37C316.21 41.4 321.87 51.56 315.92 61.83C311.05 70.24 306.03 78.56 301.2 86.99C298.25 92.15 294.01 94.55 288.04 94.51C270.21 94.4 252.38 94.47 234.55 94.47V94.49ZM251.25 51.7C251.25 51.7 251.25 51.67 251.25 51.66C233.68 51.66 216.11 51.7 198.54 51.61C195.98 51.6 194.43 52.44 193.15 54.67C188.52 62.78 183.71 70.79 179.01 78.85C176.7 82.81 177.51 84.24 182.13 84.24C217.15 84.26 252.17 84.23 287.19 84.3C289.94 84.3 291.47 83.26 292.79 80.94C297.27 73.03 301.96 65.24 306.54 57.39C309.12 52.97 308.38 51.7 303.22 51.69C285.9 51.68 268.58 51.69 251.25 51.69V51.7Z" fill="black"/>
</svg>
