<svg width="25" height="25" viewBox="0 0 25 25" fill="none" xmlns="http://www.w3.org/2000/svg">
<path d="M12.125 2C9.93773 2.00248 7.84075 2.87247 6.29411 4.41911C4.74747 5.96575 3.87748 8.06273 3.875 10.25C3.875 17.3094 11.375 22.6409 11.6947 22.8641C11.8208 22.9524 11.971 22.9998 12.125 22.9998C12.279 22.9998 12.4292 22.9524 12.5553 22.8641C12.875 22.6409 20.375 17.3094 20.375 10.25C20.3725 8.06273 19.5025 5.96575 17.9559 4.41911C16.4093 2.87247 14.3123 2.00248 12.125 2ZM12.125 7.25C12.7183 7.25 13.2984 7.42595 13.7917 7.75559C14.2851 8.08524 14.6696 8.55377 14.8966 9.10195C15.1237 9.65013 15.1831 10.2533 15.0674 10.8353C14.9516 11.4172 14.6659 11.9518 14.2463 12.3713C13.8268 12.7909 13.2922 13.0766 12.7103 13.1924C12.1283 13.3081 11.5251 13.2487 10.9769 13.0216C10.4288 12.7946 9.96024 12.4101 9.63059 11.9167C9.30095 11.4234 9.125 10.8433 9.125 10.25C9.125 9.45435 9.44107 8.69129 10.0037 8.12868C10.5663 7.56607 11.3294 7.25 12.125 7.25Z" fill="#FABA19"/>
</svg>
