<svg width="140" height="116" viewBox="0 0 140 116" fill="none" xmlns="http://www.w3.org/2000/svg">
<path d="M43.63 74.91H62.19C66.41 67.75 73.04 65.53 81.29 67.87C82.69 64.48 82.41 61.31 81.77 58.28C81.22 55.67 79.22 53.86 76.55 53.49C71.29 52.76 66.01 52.85 60.28 53.53C60.07 57.56 59.88 61.28 59.66 65.35C53.84 65.92 48.45 65.81 42.75 65.45C41.97 61.41 41.26 57.7 40.58 54.15C36.76 52.85 27.86 52.67 22.29 53.77C20.81 56.93 19.24 60.3 17.74 63.5C15.54 63.2 15.19 62.23 15.69 60.92C16.92 57.65 18.22 54.41 19.55 51.02C20.91 50.47 22.25 49.93 23.49 49.43C24.63 38.73 26.66 26.59 24.07 21.97C27.73 20.28 31.56 21.31 35.23 21.13C38.89 20.95 42.56 20.99 46.22 21.11C49.97 21.24 53.8 20.49 57.86 21.82C55.78 25.8 56.89 29.65 57.5 33.54C58.33 38.78 59.02 44.04 59.83 49.71C67.21 50.09 74.25 50.45 81.74 50.83C82.76 48.15 82.01 44.83 82.15 41.6C82.28 38.44 82.18 35.27 82.18 32.1C82.18 28.78 82.18 25.47 82.18 22.13C85.86 20.43 89.28 21.16 92.91 21.41C93.17 22.43 93.61 23.35 93.61 24.27C93.65 42.77 93.65 61.26 93.64 79.76C93.64 80.24 93.48 80.73 93.34 81.51C92.14 82.05 90.83 82.64 89.51 83.23C85.79 91.75 80.42 95.57 73.43 94.67C66.18 93.73 62.47 89.14 60.7 78.45C55.29 77.78 49.76 78.03 43.86 78.36C43.21 84.39 40.81 89.21 35.82 92.34C32.78 94.24 29.35 95.05 25.77 94.7C18.12 93.96 12.12 87.98 11.32 80.41C10.53 72.96 15.46 65.47 22.49 63.44C31.19 60.92 37.95 64.48 43.64 74.92L43.63 74.91ZM56.39 52.23C57.07 48.56 54.31 29 52.48 24.56C47.9 23.59 43.54 23.67 39.42 24.93C38.94 33.01 38.99 41.23 39.35 49.14C41.13 50 42.3 50.56 43.34 51.06C44.13 55.01 44.88 58.7 45.58 62.18H56.86C57.82 57.35 53.05 55.61 51.26 52.75C49.74 52.67 48.49 52.61 47.18 52.55C46.91 49.56 49.21 48.6 50.63 47.14C51.18 46.58 52.27 46.55 53.21 46.25C53.3433 49.09 54.4067 51.0833 56.4 52.23H56.39ZM40.23 78.85C40.31 71.6 34.63 65.76 27.45 65.72C20.27 65.68 14.38 71.4 14.19 78.59C14.01 85.28 20.35 91.76 27.21 91.9C34.21 92.04 40.15 86.08 40.23 78.85ZM86.18 81.19C86.36 75.3 81.67 70.13 75.9 69.84C69.88 69.54 64.58 74.35 64.24 80.44C63.92 86.08 69.35 91.77 75.17 91.91C80.81 92.04 86.01 86.98 86.18 81.2V81.19ZM85.5 23.98C85.26 25.64 85 26.6 85 27.56C84.97 40.86 85 54.17 84.95 67.47C84.94 71.5 87.64 74.06 89.99 76.91V24.43C88.49 24.28 87.25 24.16 85.5 23.99V23.98ZM36.12 49.78C36.15 40.86 36.62 32.64 35.82 24.24H29.63C28.05 28.38 26.81 45.91 27.84 49.78H36.12Z" fill="black"/>
<path d="M126.7 81.44C125.79 81.84 125.06 82.43 124.33 82.43C115.38 82.49 106.43 82.47 97.39 82.47C97 81.08 96.53 80.16 96.51 79.24C96.43 74.76 96.45 70.27 96.51 65.79C96.53 64.45 96.68 63.03 99.08 63.26C100.75 68.07 99.08 73.28 100.25 78.75C101.58 78.89 103 79.16 104.41 79.17C110.57 79.22 116.72 79.17 122.88 79.22C124.26 79.23 126.01 78.73 126.71 81.44H126.7Z" fill="black"/>
<path d="M27.19 71.1C31.74 71.08 34.96 74.35 34.9 78.94C34.84 83.17 31.59 86.4 27.3 86.49C23.17 86.57 19.3 82.67 19.42 78.54C19.54 74.44 23 71.12 27.19 71.1Z" fill="black"/>
<path d="M75.22 75.19C78.45 75.19 80.84 77.58 80.8 80.8C80.76 83.98 78.25 86.51 75.16 86.49C72.3 86.47 69.45 83.59 69.45 80.72C69.45 77.67 72.03 75.2 75.23 75.19H75.22Z" fill="black"/>
</svg>
