<svg width="140" height="116" viewBox="0 0 140 116" fill="none" xmlns="http://www.w3.org/2000/svg">
<path d="M38.5217 78.2899H60.5932C65.6116 69.7543 73.496 67.1077 83.3068 69.8973C84.9717 65.856 84.6387 62.0769 83.8776 58.4647C83.2236 55.3533 80.8452 53.1955 77.67 52.7544C71.4149 51.8841 65.1359 51.9914 58.3218 52.8021C58.0721 57.6064 57.8461 62.0411 57.5845 66.8931C50.6634 67.5726 44.2536 67.4415 37.4752 67.0123C36.5476 62.1961 35.7033 57.7733 34.8947 53.5412C30.3519 51.9914 19.7681 51.7768 13.1443 53.0882C11.3843 56.8553 9.51721 60.8728 7.73342 64.6877C5.11719 64.33 4.70097 63.1737 5.29557 61.612C6.75828 57.7137 8.30423 53.8512 9.88586 49.8098C11.5032 49.1542 13.0967 48.5104 14.5713 47.9143C15.927 35.1585 18.341 20.686 15.261 15.1783C19.6135 13.1636 24.1681 14.3915 28.5325 14.1769C32.8849 13.9623 37.2493 14.01 41.6017 14.1531C46.0612 14.308 50.6158 13.4139 55.444 14.9995C52.9704 19.7442 54.2904 24.3339 55.0159 28.9713C56.0029 35.2181 56.8234 41.4887 57.7867 48.2481C66.5629 48.7011 74.9349 49.1303 83.842 49.5833C85.0549 46.3884 84.163 42.4305 84.3295 38.5799C84.4841 34.8128 84.3652 31.0337 84.3652 27.2546C84.3652 23.2967 84.3652 19.3508 84.3652 15.369C88.7414 13.3424 92.8085 14.2127 97.1253 14.5107C97.4345 15.7267 97.9577 16.8234 97.9577 17.9202C98.0053 39.9747 98.0053 62.0173 97.9934 84.0718C97.9934 84.644 97.8031 85.2282 97.6366 86.158C96.2096 86.8018 94.6518 87.5052 93.082 88.2085C88.6582 98.3655 82.2722 102.919 73.9597 101.847C65.3381 100.726 60.9262 95.254 58.8213 82.5101C52.3877 81.7114 45.8115 82.0094 38.7952 82.4028C38.0222 89.5914 35.1682 95.3375 29.2341 99.0689C25.6189 101.334 21.54 102.3 17.2827 101.882C8.18531 101 1.05014 93.8712 0.0987797 84.8467C-0.840685 75.9653 5.02205 67.0362 13.3821 64.6161C23.7281 61.612 31.7671 65.856 38.5336 78.3019L38.5217 78.2899ZM53.6958 51.2523C54.5045 46.8772 51.2223 23.559 49.0461 18.2659C43.5996 17.1095 38.4147 17.2049 33.5152 18.707C32.9444 28.3395 33.0038 38.1388 33.4319 47.5686C35.5487 48.5938 36.9401 49.2614 38.1768 49.8575C39.1163 54.5664 40.0082 58.9654 40.8406 63.1141H54.2548C55.3964 57.356 49.7239 55.2817 47.5953 51.8722C45.7877 51.7768 44.3012 51.7053 42.7433 51.6338C42.4223 48.0693 45.1574 46.9249 46.8461 45.1843C47.5001 44.5167 48.7964 44.481 49.9142 44.1233C50.0727 47.509 51.3373 49.8853 53.7077 51.2523H53.6958ZM34.4784 82.987C34.5736 74.344 27.8189 67.3819 19.2805 67.3342C10.7421 67.2865 3.73772 74.1055 3.51177 82.677C3.29772 90.6524 10.8372 98.3774 18.9951 98.5443C27.3195 98.7112 34.3833 91.6061 34.4784 82.987ZM89.122 85.7766C89.336 78.7549 83.7587 72.5915 76.8971 72.2458C69.7381 71.8882 63.4354 77.6224 63.031 84.8825C62.6505 91.6061 69.1078 98.3893 76.0289 98.5562C82.736 98.7112 88.9198 92.679 89.122 85.7885V85.7766ZM88.3133 17.5745C88.0279 19.5534 87.7187 20.6979 87.7187 21.8423C87.6831 37.6977 87.7187 53.5651 87.6593 69.4205C87.6474 74.2248 90.8582 77.2766 93.6528 80.6742V18.1109C91.869 17.9321 90.3944 17.7891 88.3133 17.5864V17.5745ZM29.5908 48.3316C29.6265 37.6977 30.1854 27.8984 29.2341 17.8844H21.873C19.994 22.8199 18.5194 43.718 19.7443 48.3316H29.5908Z" fill="black"/>
<path d="M137.988 85.7647C136.905 86.243 136.037 86.9483 135.168 86.9483C124.518 87.0201 113.867 86.9962 103.11 86.9962C102.646 85.3343 102.087 84.2344 102.063 83.1345C101.968 77.7784 101.991 72.4104 102.063 67.0543C102.087 65.4522 102.265 63.7545 105.121 64.0295C107.108 69.7801 105.121 76.009 106.513 82.5487C108.096 82.7161 109.786 83.0389 111.464 83.0508C118.794 83.1106 126.112 83.0508 133.442 83.1106C135.085 83.1226 137.167 82.5248 138 85.7647H137.988Z" fill="black"/>
<path d="M19.036 74.0001C24.3255 73.9767 28.0688 77.801 27.999 83.1689C27.9293 88.1159 24.1511 91.8933 19.1639 91.9986C14.3626 92.0921 9.86366 87.5311 10.0032 82.7011C10.1427 77.9062 14.165 74.0235 19.036 74.0001Z" fill="black"/>
<path d="M76.6085 79C80.3079 79 83.0452 81.7495 82.9994 85.4539C82.9536 89.1123 80.0789 92.0229 76.5398 91.9999C73.2642 91.9769 70 88.6636 70 85.3619C70 81.8531 72.9549 79.0115 76.62 79H76.6085Z" fill="black"/>
</svg>
