<?xml version="1.0" encoding="UTF-8"?>
<svg id="Layer_1" data-name="Layer 1" xmlns="http://www.w3.org/2000/svg" viewBox="0 0 726.6 533.56">
  <defs>
    <style>
      .cls-1 {
        fill: #141114;
      }

      .cls-2 {
        fill: #fe9e02;
      }
    </style>
  </defs>
  <path class="cls-1" d="m443.44,338.28c0,12.43,0,24.85,0,37.28,0,.67-.07,1.34.01,2,.22,1.81-.73,2.94-2.13,3.82-1.21.76-2.44,1.5-3.69,2.22-6.6,3.78-13.21,7.54-19.81,11.33-6.41,3.68-12.79,7.4-19.19,11.09-5.06,2.92-10.15,5.8-15.21,8.72-3.25,1.87-6.5,3.74-9.72,5.66-1.77,1.06-3.49,1.18-5.31.13-3.91-2.26-7.86-4.46-11.78-6.72-5.07-2.91-10.12-5.84-15.18-8.77-5.06-2.93-10.11-5.86-15.17-8.78-4.97-2.86-9.95-5.7-14.92-8.57-3.53-2.04-7.05-4.11-10.57-6.18-.57-.33-1.14-.68-1.62-1.12-.58-.52-1-1.17-.97-2.03.03-.78,0-1.55,0-2.33,0-25.18,0-50.37,0-75.55,0-.33.03-.67,0-1-.2-2.26.78-3.66,2.78-4.78,7.5-4.2,14.93-8.52,22.37-12.84,7.54-4.37,15.04-8.8,22.58-13.16,6.58-3.81,13.2-7.55,19.81-11.32.86-.49,1.72-.99,2.57-1.5,1.66-.99,3.28-1.08,5-.06,3.41,2.02,6.88,3.96,10.31,5.94,3.82,2.2,7.63,4.43,11.45,6.63,6.21,3.58,12.42,7.15,18.63,10.73,3.92,2.25,7.84,4.5,11.76,6.76,5.06,2.92,10.12,5.85,15.17,8.78.57.33,1.15.66,1.67,1.07.72.56,1.2,1.29,1.18,2.27-.02.89,0,1.77,0,2.66,0,12.54,0,25.07,0,37.61Z"/>
  <path class="cls-1" d="m517.43,211.05c0,12.65,0,25.3,0,37.94,0,3.6-.14,3.74-3.18,5.47-5.17,2.95-10.32,5.93-15.48,8.91-4.87,2.81-9.74,5.62-14.62,8.42-4.97,2.86-9.95,5.7-14.91,8.57-4.87,2.81-9.73,5.64-14.6,8.45-2.58,1.49-5.17,2.95-7.74,4.46-1.26.74-2.48.81-3.76.09-2.79-1.57-5.59-3.1-8.36-4.69-5.26-3.01-10.51-6.05-15.76-9.09-4.96-2.87-9.91-5.77-14.87-8.64-4.77-2.76-9.54-5.53-14.32-8.27-4.88-2.79-9.78-5.55-14.66-8.34-.48-.27-.89-.67-1.36-.95-1.17-.69-1.59-1.76-1.63-3.04-.02-.78,0-1.55,0-2.33,0-24.96,0-49.93,0-74.89,0-.44.05-.89,0-1.33-.28-2.19.85-3.51,2.65-4.52,2.21-1.24,4.35-2.61,6.55-3.87,8.22-4.71,16.48-9.38,24.69-14.12,7.54-4.35,15.04-8.79,22.57-13.16,4.58-2.66,9.18-5.26,13.78-7.88.48-.27.96-.61,1.48-.73,1.09-.25,2.09-.15,3.15.49,4.43,2.69,8.92,5.28,13.4,7.88,3.43,1.99,6.9,3.92,10.33,5.91,5.06,2.92,10.1,5.88,15.16,8.8,5.15,2.98,10.31,5.95,15.47,8.93,4.49,2.59,8.94,5.24,13.48,7.73,1.89,1.04,2.61,2.39,2.6,4.52-.06,12.65-.03,25.3-.03,37.94,0,.44,0,.89,0,1.33Zm-72.06-36.54c-11.22,0-22.44,0-33.65,0-.89,0-1.78-.02-2.67.01-1.7.06-2.86,1.22-2.87,2.95-.02,5.44,0,10.88-.02,16.31,0,.71.2,1.29.65,1.82.9,1.07,1.92,1.65,3.43,1.62,5.77-.09,11.55-.03,17.33-.03.89,0,1.78-.01,2.67,0,1.67.02,1.74.09,1.75,1.62,0,.78,0,1.55,0,2.33,0,13.76,0,27.52,0,41.28,0,.89-.02,1.78.01,2.66.06,1.53,1.2,2.7,2.74,2.71,7.11.02,14.22.01,21.32,0,.42,0,.93-.04,1.26-.27,1.21-.84,2.25-1.8,2.05-3.51-.09-.77-.01-1.55-.01-2.33,0-13.54,0-27.08,0-40.62,0-.78,0-1.55,0-2.33.02-1.51.04-1.54,1.46-1.54,5.44,0,10.88,0,16.33,0,1.44,0,2.89.03,4.33-.01,1.54-.05,3.21-1.7,3.21-3.22.03-5.55.03-11.1,0-16.65,0-1.55-1.16-2.72-2.67-2.79-.89-.04-1.78-.02-2.67-.02-11.33,0-22.66,0-33.99,0Z"/>
  <path class="cls-1" d="m369.29,210.74c0,12.87-.04,25.74.04,38.61.01,2.14-.75,3.54-2.57,4.57-3.84,2.17-7.64,4.41-11.45,6.62-5.06,2.93-10.11,5.87-15.17,8.8-4.77,2.76-9.55,5.52-14.32,8.27-5.25,3.03-10.5,6.07-15.76,9.09-3.54,2.03-7.08,4.05-10.62,6.07-.29.16-.6.28-.87.46-1.48.98-2.91.73-4.36-.1-3.25-1.87-6.52-3.7-9.76-5.58-4.87-2.81-9.73-5.65-14.59-8.48-8.29-4.82-16.58-9.67-24.89-14.47-5.92-3.42-11.87-6.79-17.8-10.18-.48-.27-.98-.52-1.43-.82-1.08-.71-1.79-1.63-1.69-3.02.06-.77,0-1.55,0-2.33,0-25.07,0-50.15,0-75.22,0-.22,0-.44,0-.67-.03-4.22-.09-3.55,3.1-5.5,4.89-2.99,9.95-5.7,14.91-8.56,4.97-2.86,9.9-5.78,14.87-8.64,4.96-2.86,9.96-5.67,14.92-8.53,4.97-2.86,9.91-5.76,14.87-8.64,2.67-1.55,5.35-3.09,8.01-4.65,1.15-.67,2.29-.69,3.44-.03,5.83,3.36,11.65,6.72,17.48,10.08,3.92,2.26,7.84,4.51,11.76,6.76,4.97,2.86,9.93,5.72,14.9,8.58,5.06,2.92,10.12,5.84,15.18,8.76,3.15,1.81,6.33,3.59,9.47,5.42.56.33,1.04.83,1.51,1.29.57.56.89,1.22.83,2.07-.06.88,0,1.77,0,2.66,0,12.43,0,24.85,0,37.28Zm-111.14-.37s0,0,0,0c0,3.22.05,6.43-.02,9.65-.03,1.57.3,3.06.72,4.53,1.52,5.38,3.9,10.27,8.26,13.97,2.69,2.28,5.55,4.26,8.95,5.43,2.59.89,5.13,1.86,7.87,2.17,1.05.7,2.34.4,3.5.85,1.07.42,2.41.2,3.63.2,4.88,0,9.77-.04,14.65-.06.55,0,1.14.06,1.66-.09,3.76-1.14,7.68-1.69,11.33-3.18,5.01-2.04,9.15-5.2,12.29-9.66,3.39-4.82,5.1-10.15,5.15-16.01.04-4.44.02-8.87,0-13.31,0-2.53-.13-5.02-.6-7.55-.89-4.8-3.02-8.88-6.22-12.47-2.15-2.42-4.85-4.12-7.62-5.73-2.87-1.67-6.03-2.57-9.14-3.6-2.5-.82-5.16-.9-7.71-1.52-7.05.02-14.09-.63-21.09,1.13-4.07,1.02-8.03,2.19-11.66,4.23-3.66,2.06-7.01,4.57-9.33,8.22-1.19,1.86-2.15,3.83-2.98,5.86-.36.89-.36,1.93-.48,2.91-.13,1.01-1.12,1.65-1.09,2.72.01.55-.05,1.11-.05,1.66,0,3.22,0,6.43,0,9.65Z"/>
  <path class="cls-1" d="m443.44,83.16c0,12.76-.06,25.52.05,38.28.02,2.53-.78,4.08-3,5.32-7.7,4.31-15.3,8.78-22.94,13.2-9.06,5.25-18.11,10.54-27.18,15.78-5.63,3.26-11.29,6.47-16.93,9.71-1.56.9-3.16.99-4.74.15-1.94-1.04-3.85-2.15-5.76-3.25-4.96-2.87-9.91-5.77-14.88-8.65-3.63-2.1-7.27-4.17-10.9-6.27-6.3-3.64-12.6-7.28-18.91-10.91-3.82-2.2-7.66-4.37-11.48-6.58-2.2-1.27-4.34-2.64-6.56-3.86-1.56-.85-2.09-2.07-2.07-3.8.06-5.77.02-11.54.02-17.31,0-19.53,0-39.05,0-58.58,0-.55.05-1.12,0-1.66-.28-2.53.85-4.07,3.05-5.3,7.41-4.14,14.74-8.41,22.09-12.67,9.07-5.25,18.11-10.53,27.17-15.78,5.82-3.37,11.65-6.71,17.46-10.09,1.89-1.1,3.71-1.19,5.62-.05,3.32,1.97,6.67,3.88,10.01,5.82,3.82,2.21,7.63,4.43,11.45,6.63,5.25,3.03,10.49,6.08,15.75,9.09,4.97,2.85,9.96,5.67,14.93,8.53,4.78,2.74,9.55,5.51,14.32,8.28.76.44,1.52.91,2.22,1.44.73.55,1.21,1.28,1.19,2.26-.01.89.01,1.77.01,2.66,0,12.54,0,25.07,0,37.61Zm-109.34,12.86c0,.44,0,.88,0,1.32q-.03,1.28-1.51,1.5c-.21.03-.45-.02-.65.04-.9.25-1.47,1.9-.94,2.75.1.16.33.31.52.33.54.06,1.1.08,1.64.07.71-.01.86-.19.98-1,.03-.22.02-.44.02-.66,0-.67.32-.98.99-.98.55,0,1.1,0,1.65-.07.18-.02.46-.2.5-.35.21-.85.35-1.77-.05-2.55-.35-.67-1.19-.33-1.82-.38-.44-.04-.88-.02-1.32-.03.02-.55.06-1.11.04-1.66-.03-.74-.19-.86-1.02-.98-.53-.07-1.22.22-1.52-.34-.23-.44-.22-1.05-.22-1.58-.01-1.99,0-3.99.03-5.98,0-.56.42-.71.9-.73,1.15-.03,1.75.44,1.77,1.46.03,1.11,0,2.22.01,3.32.01.85.17.98,1.23,1.11q1.38.18,1.55,1.47c.03.22-.03.45.02.66.24.92,1.91,1.55,2.76,1.03.16-.1.33-.33.35-.52.07-.66.06-1.33.13-1.98.02-.19.21-.5.34-.51.64-.05,1.32-.14,1.93,0,.46.11.4.72.4,1.15,0,1,.01,2,0,2.99-.01.86-.13.95-1.24,1.08-.22.03-.44.02-.66.03-.52.02-.84.27-.85.79-.02,1.44-.03,2.88-.02,4.32,0,.49.25.85.78.85,2.33.02,4.66.03,6.99.02.82,0,1.01-.28,1.03-1.31.02-1.15-.19-1.4-1.27-1.42-1.11-.02-2.22-.02-3.33-.02-.55,0-.8-.32-.82-.81-.03-.55,0-1.1.02-1.65,0-.4.31-.65.61-.65,2.44-.03,4.88-.02,7.32.01.33,0,.57.27.61.65.08.75-.08,1.68.31,2.22.56.79,1.65.24,2.5.34.55.07,1.11,0,1.66.02.84.03,1.05.3,1.03,1.3-.02.97-.23,1.21-1.11,1.23-.89.02-1.77,0-2.66,0-1.61.02-1.67.09-1.67,1.67,0,1.59.08,1.68,1.65,1.7,1,.01,2,.01,2.99.03.55,0,.77.35.78.84.01,1.22.01,2.44,0,3.66,0,.51-.25.79-.79.84-.54.04-1.17-.02-1.59.24-.67.4-.34,1.2-.37,1.83-.04,1-.01,1.99,0,2.99.02.68.28.93,1.05.93,3.33.01,6.66.02,9.98,0,1.09,0,2.19-.11,3.28-.17.73-1.12.17-2.36.34-3.54.05-.33,0-.67.05-.99.03-.2.14-.46.3-.55.61-.32,1.31-.27,1.92-.07.45.14.46.68.46,1.13,0,2.11-.02,4.21,0,6.32,0,.84.31,1.11,1.25,1.12,2.33.01,4.66,0,6.99,0,.74,0,1.02-.27,1.03-.97.03-1.44.02-2.88.08-4.32.01-.31.29-.55.67-.58,1.05-.1,1.35.25,1.38.93.02.43-.03.93.16,1.28.3.57.97.36,1.5.44,1.32.18,1.43.3,1.62,1.63.03.22,0,.45.02.66.11.75.3.92,1.07.94.67.02,1.33,0,2,0,.44,0,.89,0,1.33.02.74.03.91.2,1.03.97.08.53-.22,1.22.34,1.53.44.25,1.05.26,1.58.28,1.11.05,2.22,0,3.33.05.31.01.6.25.62.64.03.55.05,1.11.09,1.66.04.51.33.79.85.8,2.22.03,2.5.32,2.45-2.24,0-.33-.01-.66-.02-1l-.07.07c2.01-.01,4.02-.03,6.04-.04-.04.66-.12,1.32-.1,1.98.03,1.03.29,1.23,1.47,1.24.33,0,.66,0,1-.02.5-.02.83-.26.85-.79.11-2.26.24-2.49-2.23-2.43-.33,0-.66.01-1,.02-.02-2.94-.33-2.75,2.58-2.75.67,0,1.33,0,2-.02.55-.02.74-.39.78-.86.15-1.58.09-1.66-1.54-2.46-.18-.09-.42-.28-.44-.44-.06-.54-.14-1.13,0-1.64.12-.47.67-.47,1.11-.49.49-.01.85-.21.87-.75.02-.55.02-1.11,0-1.66-.01-.48-.22-.84-.76-.87-.55-.02-1.11-.02-1.66-.02-.55,0-1.11,0-1.66,0-1.13-.03-1.33-.25-1.28-1.38.04-.97.24-1.2,1.13-1.22.89-.02,1.77,0,2.66,0,1.53-.02,1.63-.16,1.61-1.73,0-.86-.42-1.17-1.21-1.14-.54.02-.79-.31-.86-.79-.05-.33-.02-.66-.05-.99-.11-1.36-.11-1.44-1.57-1.47-1.57-.02-1.73-.14-1.72-1.65,0-1.11,0-2.22-.02-3.32-.01-.68-.25-.89-1.05-.95-.44-.03-.89,0-1.33-.03-.48-.03-.82-.21-.86-.77-.05-.76.17-1.21.7-1.26.55-.05,1.11-.05,1.66-.07.51-.02.84-.28.85-.79.02-.77.01-1.55-.02-2.32-.02-.36-.28-.59-.63-.63-.44-.05-.89-.02-1.33-.05-1.08-.08-1.08-.09-1.25-1.44-.14-1.15-.14-1.16-1.34-1.33-.43-.06-1.01.05-1.16-.42-.16-.5-.15-1.09-.07-1.62.08-.53.59-.53,1.03-.58,1.4-.18,1.4-.19,1.54-1.46.01-.11,0-.22.01-.33.1-.77.25-.91,1.02-.98.22-.02.44,0,.67,0,1.49-.1,1.56-.16,1.58-1.45.02-2.1,0-4.21.03-6.31,0-.64.35-.92,1.05-.94,1.41-.05,1.62.12,1.65,1.36.01.55,0,1.11,0,1.66,0,.55-.01,1.11,0,1.66.03,1.22.29,1.42,1.67,1.35.47-.03.92-.14.93-.7.03-3.65.04-7.31.04-10.96,0-.73-.52-.87-1.13-.87-.69,0-.96-.4-.95-1.04,0-.22,0-.44-.02-.66-.05-.47-.21-.86-.77-.88-.55-.02-1.11-.06-1.66-.03-.65.03-1.27.58-1.37,1.22-.05.32-.02.66,0,1,.03.46.15.88.71.93.44.04.89.03,1.33.06,1.11.08,1.26.27,1.23,1.43-.03,1.05-.19,1.27-1.05,1.28-1.66.02-3.33,0-4.99,0,0-.75.04-1.51.02-2.26-.02-.82-.27-1.02-1.27-1.01-.41,0-.89-.13-1.19.29-.37.51-.39,2.3-.02,2.76.11.14.35.26.53.27.64.02,1.29-.02,1.93-.03-.01.44-.02.88-.04,1.33,0,.22,0,.45-.05.66-.06.35-.27.57-.65.62-.54.07-1.14.02-1.6.26-.57.29-.33.98-.37,1.52q-.11,1.38-1.47,1.55c-1.33.16-1.45.27-1.77,1.51-.05.21,0,.45-.06.66-.14.52-.58.69-1.34.58-.53-.08-.74-.4-.74-.89,0-1.33,0-2.66-.02-3.99-.01-.89-.26-1.12-1.21-1.15-.55-.02-1.11.02-1.67,0-1.98-.08-3.98.21-5.95-.19-.68-1.93-.18-3.92-.32-5.88-.03-.44,0-.89-.01-1.33-.03-.77-.28-1.19-1.21-1.18-2.22.02-4.44,0-6.66-.02-.5,0-.82-.26-.82-.81,0-1.44,0-2.88.01-4.33,0-.52.3-.79.82-.8.44-.01.89-.03,1.33-.01.72.03.94.26.99,1.02.03.33-.01.67.01,1,.08,1.12.26,1.27,1.44,1.25,1.01-.02,1.22-.18,1.29-1.06.03-.44,0-.89.04-1.33.06-.66.33-.87,1.11-.88,1.34-.02,1.49.1,1.58,1.45,0,.11,0,.22,0,.33.1,1.4.21,1.51,1.53,1.49.89-.01,1.16-.28,1.2-1.16.11-2.54-.27-5.09.24-7.61.05-.24.08-.37-.25-.4-.33-.04-.67-.02-1-.05-1.01-.11-1.2-.29-1.21-1.15-.01-1,0-2,0-3-.02-1.12-.12-1.21-1.39-1.31-.33-.03-.67-.02-1-.02-.56,0-.77-.34-.81-.83-.03-.33-.02-.66,0-1,.02-.49.23-.84.78-.85,1.22-.02,2.44-.02,3.66-.05.62-.01.95-.38.97-1.07.02-.44,0-.89-.03-1.33-.04-.49-.27-.82-.82-.82-3.11,0-6.22-.02-9.33-.02-1.13,0-1.33.2-1.74,1.54-.35,1.13-.35,1.15-1.18,1.15-2.22.02-4.44.01-6.66.04-.47,0-.84.23-.86.79-.02.55-.02,1.11-.07,1.66-.05.57-.47.82-1.2.77-.49-.04-.85-.22-.86-.77-.03-1.44-.04-2.88-.06-4.33,0-.53-.31-.8-.81-.83-.44-.03-.89-.01-1.33-.04-.74-.04-1.17.21-1.16,1.21,0,1.33,0,2.66,0,4,0,.89,0,1.78-.02,2.66,0,.52-.26.84-.78.85-1.33.02-2.66.01-3.99-.02-.17,0-.48-.25-.49-.38-.03-1.54-.02-3.08.02-4.62,0-.13.3-.31.49-.37.42-.12.89-.09,1.27-.27.72-.34.96-1.18.74-2.34-.14-.72-.75-.7-1.29-.71-1.11-.01-2.22-.02-3.33,0-1.11.01-1.13.05-1.31,1.38q-.16,1.15-1.37,1.33c-.11.02-.22,0-.33.02-.76.13-.94.31-.96,1.05-.01.44,0,.89,0,1.33,0,.71.41.95,1.05.94.11,0,.22,0,.33,0q1.17.17,1.27,1.42c.02.22-.01.45,0,.67.08.92.19,1.01,1.22,1.14q1.38.17,1.56,1.45c.01.11.01.22.02.33.05.48.22.85.78.86,1.33.01,2.67.01,4,.04.74.01,1.08.29,1.09.91,0,3.22,0,6.44,0,9.65,0,.54-.29.8-.8.83-.33.02-.67.03-1,.01-.49-.02-.86-.2-.87-.76-.02-2.22-.01-4.44-.03-6.66,0-.97-.25-1.25-1.09-1.26-1.33-.02-2.67-.02-4,0-1.12.02-1.2.07-1.33,1.35-.07.73-.18,1.2-1.07,1.33-1.14.16-1.15.25-1.16,1.16-.02,2.22-.02,4.44-.02,6.66,0,.56-.34.76-.82.82-1.21.14-1.34.04-1.9-1.41-.33-.86-.8-1.18-1.75-1.2-.33,0-.67-.01-1,0-.76.03-.92.19-1.07.97-.31,1.65-.31,1.65-1.68,1.67-.89.01-1.78,0-2.67.01-.86.02-1.08.28-1.12,1.26,0,.22,0,.44,0,.67,0,1.2.09,1.3,1.25,1.44.22.03.44.02.67.02.54,0,.83.31.84.8.02,1.44.02,2.88-.01,4.32-.01.56-.47.66-.93.69-1.42.08-1.63-.07-1.73-1.29-.03-.44,0-.89-.06-1.33-.05-.33-.27-.57-.65-.61-.54-.06-1.18,0-1.59-.26-.64-.41-.32-1.21-.35-1.85-.05-1-.01-2-.04-2.99-.02-.49-.25-.83-.8-.85-.55-.02-1.11-.04-1.66-.06-.54-.03-.72-.37-.77-.86-.05-.53.19-1.22-.38-1.52-.45-.23-1.05-.21-1.59-.23-.89-.03-1.78,0-2.66.02-.55.01-.77.38-.79.85-.1,2.31-.11,2.36,1.99,2.34.78-.01,1.56-.01,2.33,0,.83.02,1.01.26,1.02,1.31.02,1.21-.13,1.38-1.27,1.4-1,.02-2,0-3,.01-.81.01-1.08.22-1.08.9-.02,2.44-.03,4.88,0,7.32,0,.29.19.63.39.85.24.27,1.68.24,1.88-.03.18-.24.33-.58.34-.88.04-1.22,0-2.44.02-3.66.02-1.18.32-1.4,1.7-1.31.73.05.88.21,1.01,1.01.08.52-.23,1.22.33,1.53.44.24,1.04.2,1.58.25,1.23.11,1.38.23,1.33,1.35-.03.54-.45,1.22-.24,1.57.35.6,1.19.22,1.8.36.1.02.2.07.29.12.44.3.35.75.36,1.19.01.42-.27.63-.55.73-.3.11-.66.06-.99.06-2,0-4-.01-6,0-3.8.04-3.23-.51-3.28,3.41-.02,2-.04,4,0,5.99.04,1.65-.21,3.31.18,4.94,1.7.65,3.45.31,5.19.26Zm78.7-44.96h0c0-2.99,0-5.98,0-8.97,0-1.2-.16-1.35-1.31-1.36-5.88,0-11.75,0-17.63,0-.74,0-1.16.23-1.16,1.2,0,6.09,0,12.19,0,18.28,0,.11.02.22.03.33.04.49.26.83.8.83,6.1,0,12.2.01,18.3,0,.74,0,.97-.23.97-1.01.01-3.1,0-6.2,0-9.31Zm-84.08-.25c0,3.1,0,6.21,0,9.31,0,1.04.19,1.26,1.06,1.26,5.99,0,11.98,0,17.97,0,.87,0,1.08-.25,1.08-1.26,0-6.09,0-12.19,0-18.28,0-.83-.31-1.1-1.25-1.11-5.88,0-11.76,0-17.63,0-.95,0-1.22.25-1.23,1.11-.01,2.99,0,5.98,0,8.98Zm10.05,74.54s0,.05,0,.08c2.66,0,5.32,0,7.98,0,1.87,0,2.13.16,2.09-1.93-.03-1.88,0-3.76,0-5.65,0-3.88,0-7.75,0-11.63,0-1.19-.25-1.47-1.59-1.46-5.76.03-11.52,0-17.29.01-.92,0-1.23.26-1.23,1.12-.02,3.21-.06,6.42,0,9.63.06,3.19-.27,6.39.2,9.57.01.09.14.24.21.24,3.21.01,6.42.01,9.63.01Zm53.92-61.25v.02c-.77,0-1.55-.01-2.32,0-.63.02-.9.35-.92,1.08-.01.33-.01.66,0,.99.02.76.22,1,.9,1.09.33.04.66.03.99.05.48.03.82.21.87.76.05.54-.01,1.15.24,1.58.39.67,1.18.41,1.82.43.88.03,1.77.02,2.66,0,.33,0,.66-.02.99-.07.52-.07.78-.42.72-.91-.1-.8.45-1.8-.61-2.32-.28-.14-.65-.08-.98-.09-.63-.01-1.03-.23-1.05-.94-.01-.43.04-.93-.15-1.28-.3-.57-.96-.4-1.49-.42-.55-.02-1.11,0-1.66,0Zm-10.36,58.54c-2.11,0-4.22-.01-6.32,0-1.07,0-1.27.26-1.25,1.44.02,1.16.17,1.34,1.35,1.34,3.99.01,7.99,0,11.98,0,.22,0,.44,0,.66-.03.54-.06.7-.43.73-.91.07-1.45,0-1.89-1.49-1.85-1.88.05-3.77.01-5.66.01Zm-27.28-3.26v.03c-.88,0-1.76-.02-2.63.01-.46.02-.83.22-.83.79,0,1.42,0,2.85,0,4.27,0,.54.33.79.78.88.43.08.87.07,1.31.06.71,0,.94-.22,1.05-.93.09-.52-.15-1.12.33-1.54.46-.4,1.04-.18,1.57-.22,1.25-.11,1.34-.2,1.37-1.32.05-1.98.04-1.99-1.95-2.02-.33,0-.66,0-.99,0Zm8.36,2.05c.02.37,0,.97.25,1.41.3.55.99.3,1.51.33.67.04.97.36.99,1.01,0,.22.02.44.02.66,0,.63.27,1.03.96,1.04.44,0,.88,0,1.32-.01.48-.02.84-.2.87-.74.02-.44.04-.88.04-1.31,0-.88-.16-1.02-1.17-1.16-1.43-.19-1.45-.18-1.49-1.49,0-.22.01-.44,0-.66-.07-.96-.2-1.08-1.22-1.11-.33-.01-.66,0-.99,0-.75.02-1.05.27-1.08.9-.02.33-.02.66,0,1.14Zm45.75-36.75c-.56,0-.78,0-1,0-1.16.03-1.43.38-1.31,1.66.07.82.61,1.42,1.39,1.5.43.04.88.08,1.3-.01.3-.06.59-.3.81-.53.6-.64.34-1.43.25-2.16-.02-.15-.3-.34-.48-.37-.42-.08-.86-.08-.95-.09Zm3.64,7.32h-.02c0-.33.06-.67-.02-.98-.07-.29-.22-.62-.44-.81-.29-.25-1.65-.11-1.87.11-.08.08-.21.16-.21.24-.01.98-.02,1.96.02,2.93,0,.13.31.34.49.36,1.63.19,2,.09,2.05-1.2,0-.22,0-.44,0-.66Zm-.02,5.9h.02c0-.22,0-.44,0-.67-.03-1.04-.31-1.27-1.46-1.21-.96.05-1.18.25-1.21,1.16,0,.22.01.44,0,.67-.1,1.44.35,1.61,1.83,1.52.51-.03.82-.26.83-.8,0-.22,0-.44,0-.66Z"/>
  <path class="cls-1" d="m220.79,211.01c0,12.65,0,25.3,0,37.95,0,3.65-.12,3.78-3.14,5.5-5.17,2.94-10.34,5.91-15.48,8.91-1.9,1.11-3.99,1.92-5.63,3.46-2.15.62-3.91,2.01-5.82,3.09-4.22,2.39-8.37,4.91-12.56,7.36-3.22,1.88-6.46,3.74-9.69,5.61-3.7,2.15-7.39,4.33-11.11,6.46-2.38,1.37-4.8,2.67-7.2,4-1.37.76-2.73.74-4.09-.04-1.62-.93-3.25-1.85-4.86-2.79-3.22-1.87-6.43-3.77-9.65-5.64-2-1.16-4.01-2.29-6.01-3.44-4.38-2.54-8.75-5.09-13.13-7.62-4.96-2.87-9.93-5.74-14.89-8.61-5.06-2.92-10.12-5.84-15.18-8.77-1.62-.94-3.23-1.9-4.87-2.82-1.4-.78-2.02-1.96-1.97-3.54.03-.78,0-1.55,0-2.33,0-24.85,0-49.71,0-74.56,0-.55.06-1.12-.01-1.66-.24-1.94.81-3.16,2.31-4.07,2.36-1.42,4.76-2.77,7.15-4.14,6.6-3.79,13.21-7.54,19.8-11.36,9.06-5.25,18.1-10.55,27.16-15.81,4.67-2.71,9.36-5.39,14.07-8.04.75-.42,1.53-.9,2.5-.74.54.09,1.06.13,1.57.43,8.36,4.92,16.72,9.85,25.12,14.71,6.68,3.87,13.41,7.63,20.1,11.49,7.64,4.4,15.23,8.9,22.91,13.25,1.86,1.06,2.65,2.35,2.64,4.49-.07,11.09-.03,22.19-.03,33.29,0,2,0,3.99,0,5.99Zm-3.31-.08v-29.29c0-3.22-.03-6.43.02-9.65.01-.89-.32-1.48-1.05-1.9-4.57-2.62-9.14-5.24-13.71-7.85-2-1.14-4.02-2.26-6.01-3.42-3.41-1.99-6.8-4.04-10.22-6.01-3.81-2.18-7.67-4.27-11.47-6.45-3.33-1.91-6.62-3.9-9.94-5.83-5.41-3.15-10.82-6.28-16.23-9.43-.3-.17-.53-.28-.86-.08-.37.23-.8.36-1.19.58-3.62,2.07-7.24,4.15-10.85,6.22-1.52.87-3.05,1.74-4.57,2.61-3.61,2.08-7.22,4.17-10.83,6.26-2.19,1.26-4.38,2.52-6.56,3.78-3.61,2.08-7.22,4.17-10.84,6.24-2.09,1.2-4.23,2.34-6.28,3.6-5.15,3.16-10.43,6.07-15.68,9.06-2.79,1.59-2.35.93-2.36,4.08,0,24.19,0,48.37,0,72.56,0,1.55.05,3.1.07,4.65,1.32.77,2.64,1.53,3.96,2.3,1.14.67,2.26,1.35,3.41,2.01,3.43,1.95,6.88,3.88,10.3,5.84,3.81,2.19,7.59,4.42,11.38,6.62,2.09,1.21,4.19,2.4,6.28,3.61,3.9,2.26,7.78,4.53,11.68,6.77,2.28,1.31,4.6,2.55,6.88,3.86,4.85,2.8,9.68,5.62,14.51,8.45.53.31.96.43,1.52.11,2.47-1.42,4.97-2.8,7.44-4.23,3.23-1.86,6.43-3.79,9.68-5.62,5.06-2.86,10.11-5.75,15.12-8.7,6.81-4,13.71-7.85,20.54-11.83,5.03-2.93,10.08-5.8,15.15-8.67.45-.25.68-.54.7-1,.04-.89.03-1.77.03-2.66,0-12.2,0-24.41,0-36.61Z"/>
  <path class="cls-1" d="m520.68,210.57c0-12.65,0-25.31,0-37.96,0-4.31-.29-3.7,3.49-5.93,8.36-4.93,16.77-9.77,25.19-14.61,8.22-4.73,16.48-9.4,24.7-14.12,5.74-3.3,11.45-6.64,17.15-10,1.28-.75,2.47-.79,3.74-.06,1.34.77,2.7,1.49,4.04,2.26,7.16,4.15,14.31,8.31,21.47,12.46,6.39,3.71,12.78,7.43,19.18,11.12,4.97,2.86,9.96,5.69,14.94,8.53,2.97,1.7,5.94,3.38,8.89,5.12.65.39,1.22.95,1.77,1.49.47.47.79,1.04.71,1.78-.06.55,0,1.11,0,1.66,0,25.53-.03,51.06.05,76.59,0,2.55-.87,4.1-3.07,5.3-3.59,1.95-7.05,4.13-10.58,6.17-5.15,2.99-10.33,5.94-15.49,8.92-4.87,2.81-9.74,5.63-14.61,8.45-5.16,2.98-10.32,5.95-15.49,8.93-3.63,2.09-7.27,4.18-10.91,6.26-.19.11-.41.17-.6.29-1.47.97-2.9.78-4.36-.07-3.34-1.94-6.71-3.83-10.04-5.77-5.63-3.27-11.15-6.74-16.89-9.8-5.13-2.73-10.09-5.77-15.16-8.59-4.88-2.72-9.65-5.65-14.5-8.43-3.82-2.19-7.51-4.59-11.38-6.69-.48-.26-.94-.58-1.35-.94-.51-.45-.84-1.02-.84-1.74,0-.89-.03-1.78-.03-2.66,0-12.65,0-25.31,0-37.96Zm3.36.34c0,12.21,0,24.42,0,36.63,0,.89,0,1.78.02,2.66.01.46.22.76.68,1.01,4.12,2.28,8.24,4.57,12.33,6.91,4,2.3,7.95,4.67,11.94,6.99,1.9,1.1,3.83,2.14,5.73,3.24,3.32,1.93,6.62,3.9,9.94,5.83,3.13,1.82,6.28,3.62,9.41,5.43,3.71,2.14,7.41,4.28,11.11,6.44,2.28,1.33,4.56,2.64,6.81,4.02.75.46,1.37.53,2.13.07,2.45-1.46,4.92-2.89,7.4-4.31,5.15-2.94,10.32-5.83,15.46-8.79,5.61-3.24,11.19-6.54,16.79-9.8,1.9-1.1,3.83-2.14,5.73-3.24,3.52-2.03,7.02-4.1,10.53-6.14,3.42-1.98,6.87-3.91,10.26-5.94,2.39-1.42,2.36-1.48,2.36-4.11,0-24.75,0-49.5,0-74.25q0-2.78-2.31-4.15c-.47-.28-.98-.5-1.46-.77-2.21-1.22-4.44-2.41-6.62-3.67-3.33-1.92-6.59-3.95-9.95-5.82-5.08-2.84-10.04-5.89-15.14-8.68-4.91-2.69-9.64-5.69-14.49-8.49-5.71-3.29-11.46-6.5-17.1-9.92-.82-.5-1.76-1.11-2.64-1.11-.75,0-1.5.83-2.25,1.28-.47.28-.96.53-1.44.8-3.44,1.94-6.89,3.87-10.31,5.84-3.9,2.25-7.77,4.54-11.66,6.81-2.18,1.28-4.35,2.57-6.54,3.82-3.43,1.96-6.88,3.9-10.31,5.85-3.63,2.06-7.25,4.12-10.87,6.21-3.8,2.2-7.59,4.42-11.39,6.63-1.14.66-2.28,1.33-3.4,2.03-.48.3-.79.75-.77,1.37.03.78,0,1.55,0,2.33,0,12.32,0,24.64,0,36.96Z"/>
  <path class="cls-1" d="m150.04,338.32c0-12.65,0-25.3,0-37.94,0-4.28-.24-3.59,3.29-5.72,5.94-3.59,12.03-6.94,18.06-10.38,8.52-4.86,17.06-9.7,25.53-14.64,7.91-4.61,15.89-9.1,23.72-13.83,1.14-.69,2.27-.78,3.44-.14.58.32,1.16.64,1.73.97,3.44,1.98,6.88,3.96,10.31,5.95,5.06,2.93,10.11,5.87,15.17,8.78,4.97,2.86,9.95,5.69,14.91,8.56,5.06,2.92,10.1,5.88,15.16,8.8,3.62,2.1,7.26,4.18,10.89,6.27.48.27.99.5,1.42.84,1.08.86,1.67,1.89,1.65,3.4-.08,6.54-.03,13.09-.03,19.64,0,18.97,0,37.94,0,56.92,0,.44-.05.89,0,1.33.29,2.29-.78,3.69-2.75,4.78-3.66,2.03-7.22,4.26-10.85,6.36-5.15,2.99-10.32,5.95-15.48,8.91-4.97,2.86-9.95,5.7-14.91,8.57-5.06,2.92-10.11,5.87-15.17,8.8-3.72,2.15-7.46,4.28-11.17,6.45-1.7.99-3.31.96-4.99-.03-6.27-3.69-12.55-7.38-18.85-11.03-6.59-3.81-13.21-7.55-19.8-11.35-7.55-4.35-15.07-8.74-22.61-13.1-2-1.16-4.02-2.3-6.03-3.45-.48-.27-.98-.52-1.41-.85-.73-.55-1.24-1.25-1.22-2.24.01-.89-.02-1.77-.02-2.66,0-12.65,0-25.3,0-37.94Zm3.36.27h0c0,12.32,0,24.64,0,36.96,0,.89-.02,1.78.06,2.66.02.28.24.64.48.78,2.75,1.61,5.51,3.19,8.27,4.77,2.19,1.25,4.4,2.47,6.58,3.75,3.42,1.99,6.8,4.04,10.23,6.01,3.81,2.18,7.73,4.18,11.47,6.48,6.56,4.02,13.35,7.63,19.94,11.59,3.67,2.21,7.4,4.3,11.1,6.46.64.37,1.21.45,1.85.06,1.22-.74,2.44-1.49,3.68-2.19,3.82-2.16,7.72-4.18,11.47-6.47,4.87-2.98,9.88-5.72,14.81-8.61,3.5-2.06,7.07-4,10.58-6.04,3.23-1.87,6.41-3.83,9.64-5.69,3.9-2.25,7.83-4.44,11.74-6.68,2-1.15,3.98-2.32,5.95-3.52.48-.29.82-.74.8-1.36-.01-.67,0-1.33,0-2,0-24.64,0-49.28,0-73.92,0-.67,0-1.33,0-2,0-.45-.06-.84-.52-1.11-.67-.39-1.26-.9-1.93-1.28-3.34-1.9-6.69-3.78-10.03-5.67-3.53-2-7.07-4-10.59-6.03-3.81-2.19-7.59-4.42-11.39-6.62-2-1.15-4.02-2.26-6.01-3.42-3.41-1.99-6.8-4.03-10.22-6.02-3.79-2.22-7.58-4.44-11.39-6.62-2.28-1.31-4.62-2.54-6.91-3.84-.43-.24-.71-.28-1.16,0-2.07,1.24-4.17,2.43-6.26,3.64-3.32,1.93-6.58,3.98-9.98,5.78-3.87,2.05-7.46,4.6-11.43,6.48-1.68.79-3.17,1.97-4.79,2.9-5.15,2.94-10.35,5.78-15.46,8.78-5.68,3.34-11.35,6.69-17.1,9.91-.96.54-1.89,1.11-2.81,1.72-.36.24-.66.58-.66,1.09,0,.78,0,1.55,0,2.33,0,12.32,0,24.64,0,36.96Z"/>
  <path class="cls-1" d="m591.42,83.37c0,12.76-.05,25.52.04,38.28.02,2.4-.79,3.89-2.88,5.06-7.79,4.37-15.52,8.85-23.25,13.32-9.07,5.25-18.1,10.56-27.16,15.81-5.53,3.21-11.1,6.36-16.64,9.55-1.66.95-3.33,1.07-5.03.11-2.4-1.36-4.8-2.7-7.19-4.08-5.06-2.92-10.11-5.86-15.18-8.78-4.97-2.87-9.94-5.72-14.91-8.58-5.06-2.92-10.12-5.84-15.19-8.76-4.87-2.81-9.75-5.61-14.62-8.42-.57-.33-1.16-.65-1.69-1.04-1.03-.76-1.71-1.71-1.59-3.09.06-.66,0-1.33,0-2,0-25.07,0-50.15,0-75.22,0-.67-.03-1.33,0-2,.07-1.53.65-2.7,2.08-3.49,2.9-1.6,5.73-3.3,8.6-4.96,8.01-4.64,16.02-9.29,24.04-13.92,4.96-2.86,9.96-5.67,14.92-8.53,4.97-2.86,9.91-5.77,14.87-8.64,1.91-1.1,3.85-2.15,5.74-3.27,1.58-.93,3.09-.96,4.69-.03,3.43,1.99,6.89,3.93,10.33,5.91,3.92,2.26,7.82,4.55,11.73,6.81,6.11,3.52,12.23,7.03,18.34,10.55,3.92,2.26,7.83,4.53,11.74,6.79,5.15,2.98,10.31,5.96,15.46,8.94.48.28.97.53,1.41.86.83.63,1.34,1.45,1.3,2.55-.03.89,0,1.77,0,2.66,0,12.54,0,25.07,0,37.61Zm-3.31-.31c0-11.76,0-23.53,0-35.29,0-1.54-.11-3.08-.17-4.62-1.31-.8-2.61-1.6-3.92-2.39-.38-.23-.77-.43-1.15-.65-2.3-1.29-4.6-2.56-6.88-3.88-3.52-2.03-7.01-4.1-10.53-6.13-2.19-1.26-4.41-2.45-6.6-3.71-3.8-2.19-7.59-4.42-11.38-6.63-2.18-1.27-4.36-2.55-6.55-3.81-3.42-1.97-6.87-3.91-10.28-5.89-3.51-2.04-7.02-4.09-10.5-6.18-.74-.45-1.36-.56-2.14-.11-2.38,1.37-4.8,2.67-7.17,4.03-3.81,2.19-7.59,4.42-11.39,6.62-1.99,1.15-4.02,2.26-6.01,3.42-3.41,1.99-6.8,4.04-10.22,6.01-3.81,2.18-7.73,4.18-11.47,6.47-6.46,3.96-13.11,7.6-19.68,11.37-1.84,1.06-2.64,2.2-2.63,4.39.08,24.75.05,49.49.05,74.24,0,.67,0,1.33,0,2,0,.47.17.78.62,1.04,2.18,1.28,4.31,2.64,6.5,3.91,2.28,1.33,4.61,2.55,6.89,3.87,4.94,2.86,9.86,5.77,14.8,8.62,3.42,1.98,6.88,3.88,10.31,5.84,3.81,2.19,7.59,4.41,11.38,6.63,2.27,1.33,4.5,2.74,6.82,3.99,3.29,1.77,6.46,3.75,9.69,5.61.84.49,1.75,1.06,2.66,1.13.62.05,1.3-.73,1.96-1.12,2.84-1.67,5.67-3.36,8.53-4.99,3.81-2.17,7.73-4.17,11.47-6.47,6.55-4.03,13.34-7.65,19.94-11.59,3.29-1.97,6.75-3.68,10.02-5.69,4.03-2.47,8.14-4.79,12.25-7.12,1.34-.76,2.67-1.52,3.99-2.3.49-.29.83-.71.82-1.34-.02-.67,0-1.33,0-2,0-12.43,0-24.86,0-37.29Z"/>
  <path class="cls-1" d="m284.42,456.37c.07.43.2.86.2,1.29.01,20.53,0,41.06,0,61.6,0,.33.02.67-.02,1-.05.34-.25.6-.62.65-.33.04-.66.07-.99.07-2.44.04-2.25,0-2.25-2.08,0-8.55,0-17.09,0-25.64,0-9.77,0-19.53,0-29.3,0-1,0-2-.03-3,0-.12-.23-.26-.38-.33-.05-.03-.23.07-.27.15-.65,1.27-1.3,2.54-1.92,3.83-2.61,5.45-4.87,11.07-7.52,16.52-1.82,3.74-3.49,7.59-5.19,11.4-1.74,3.91-3.42,7.85-5.39,11.67-.75,1.46-1.36,2.99-1.93,4.53-.44,1.19-1.13,1.86-2.46,1.67-.22-.03-.44,0-.67,0-2.32,0-2.28-.02-3.33-2.2-2.48-5.15-4.76-10.39-7.22-15.55-2.47-5.16-4.72-10.42-6.95-15.68-.32-.75-.88-1.24-1.19-1.92-.27-.59-.3-1.29-.57-1.88-1.84-4.01-3.71-7.99-5.56-11.99-.12-.26-.15-.65-.55-.47-.13.06-.19.38-.2.59-.03,1-.03,2-.03,3,0,17.65,0,35.29,0,52.94,0,1,0,2-.03,3,0,.19-.14.49-.28.54-1.06.37-2.16.3-3.23.05-.15-.03-.31-.33-.33-.51-.05-.55-.04-1.11-.04-1.66,0-19.98,0-39.95,0-59.93,0-.55,0-1.11.03-1.66.03-.52.36-.77.85-.79.55-.02,1.11-.03,1.66-.03,4.17-.03,4.25-.06,5.77,3.82.68,1.74,1.49,3.42,2.26,5.11,2.53,5.6,5.04,11.21,7.57,16.81,1.32,2.91,2.66,5.8,4.01,8.7,2.14,4.59,4.29,9.18,6.45,13.76.18.39.48.72.74,1.07.19.25.37.22.54-.04.18-.28.43-.52.57-.81,2.26-4.9,4.59-9.76,6.74-14.71,2.28-5.24,4.98-10.3,6.94-15.68.93-1,1.25-2.32,1.8-3.51,2.02-4.38,4-8.77,5.98-13.17.22-.49.32-1.07.92-1.28,2.04.03,4.08.06,6.12.08Z"/>
  <path class="cls-1" d="m719.81,456.31c.06,1.1.17,2.2.18,3.3.01,18.31,0,36.61.01,54.92,0,3.41-.38,3.01,2.99,3.03.33,0,.67,0,1,0,2.94-.02,2.6-.07,2.6,2.77,0,4.1,0,8.21-.03,12.31,0,.27-.26.77-.42.78-.98.07-1.98.05-2.97,0-.13,0-.34-.31-.36-.49-.06-.66-.07-1.33-.07-1.99,0-3,0-5.99-.02-8.99,0-.72-.25-.93-1.02-.96-.55-.02-1.11-.01-1.67-.01-14.21,0-28.43,0-42.64,0-.56,0-1.11,0-1.67.01-.76.03-.99.24-1,.98-.02,1.33-.01,2.66-.01,3.99,0,1.55,0,3.11,0,4.66,0,3.38.26,2.95-3.09,2.88-.55-.01-.74-.39-.75-.88,0-4.66-.01-9.32,0-13.98,0-.72.31-1.05.95-1.08.55-.02,1.11-.06,1.66,0,1.11.11,1.89-.19,2.36-1.3.82-1.92,1.74-3.8,2.59-5.7.13-.29.09-.64.16-.96.25-1.18.49-2.37.76-3.55.61-2.67,1.08-5.34,1.32-8.08.55-6.4.57-12.82.97-19.22.41-6.64.18-13.27.34-19.91.02-.88.13-1.76.19-2.63,1.22.02,2.44.06,3.66.06,11.32.02,22.64.03,33.96.04Zm-3.7,32.3c0-8.55,0-17.09,0-25.64,0-.89,0-1.78-.05-2.66-.02-.35-.29-.59-.64-.61-.55-.04-1.11-.04-1.66-.04-8.66,0-17.33,0-25.99,0-.44,0-.89,0-1.33.02-.69.03-.92.3-.95,1.05-.01.33,0,.67,0,1,0,2.11,0,4.22,0,6.33,0,2.11.02,4.22,0,6.33-.03,2.11.18,4.26-.22,6.3-.41,2.1-.17,4.17-.33,6.24-.18,2.18-.18,4.36-.58,6.55-.39,2.16-.06,4.45-.4,6.63-.3,1.94-.36,3.95-1.06,5.83-.42,1.13-.73,2.29-.82,3.51-.03.43-.08.92-.3,1.27-1.19,1.89-1.06,4.25-2.2,6.16-.2.34.2.6.52.65.44.06.89.04,1.33.04,10.89,0,21.77,0,32.66,0,.44,0,.89.01,1.33-.04.34-.04.63-.25.64-.62.05-.89.07-1.77.07-2.66,0-8.55,0-17.09,0-25.64Z"/>
  <path class="cls-1" d="m95.32,497.47c.47,2.16.8,4.31.79,6.55,0,3.1-1.09,5.8-2.56,8.4-1.83,3.22-4.76,5.17-8.1,6.52-.99.4-2.05.74-3.15.94-.99.18-1.81,1.03-2.97.97-1.1-.05-2.22.11-3.33.11-6.99.01-13.98.01-20.98,0-.77,0-1.02-.24-1.03-.94-.02-.78-.01-1.55-.01-2.33,0-19.41,0-38.81,0-58.22,0-1.1-.21-2.22.22-3.29,7.25.02,14.5.05,21.75.07.35.04.69.09,1.04.13-.02.39.25.49.55.49.59.01,1.18,0,1.78-.01,3.12.58,5.88,2.02,8.17,4.11,2.76,2.51,4.54,5.67,4.66,9.53.05,1.66.1,3.33-.01,4.98-.29,4.3-2.07,7.82-5.68,10.32-.18.13-.35.28-.52.41-.73.57-.74,1.08.05,1.41,2.28.95,4.28,2.27,5.96,4.09,1.44,1.57,2.55,3.31,3.2,5.34-.06.06-.12.12-.19.18.12.07.25.15.37.22Zm-7.76-18.66c.22.09.36.02.37-.21,0-.05-.12-.12-.18-.17.3-1.39.77-2.78.85-4.18.14-2.18-.01-4.3-1.03-6.41-1.79-3.74-4.57-6.19-8.47-7.31-1.77-.51-3.61-.91-5.52-.88-4.88.07-9.76.01-14.63.02-1.25,0-1.42.15-1.42,1.26,0,7.87,0,15.73,0,23.6,0,1.07.2,1.26,1.44,1.26,6.1,0,12.2.02,18.29-.01.99,0,1.98-.18,2.97-.28.43.06.91.27,1.07-.4,3.02-1.16,5.06-3.29,6.27-6.26Zm-12.66,38.63c1.35,0,2.7.02,4.05,0,.11,0,.21-.28.31-.42,1.78-.14,3.42-.86,5.03-1.51,2.5-1.03,4.46-2.86,5.88-5.17,2.33-3.8,2.63-7.89,1.26-12.07-1.04-3.17-3.1-5.67-6.17-7-2.17-.94-4.53-1.62-6.93-1.65-6.54-.08-13.07-.05-19.61-.05-.92,0-1.18.27-1.18,1.17,0,8.52,0,17.05,0,25.57,0,.99.23,1.25,1.09,1.25,5.43-.03,10.85-.07,16.28-.11Z"/>
  <path class="cls-1" d="m180,456.2c.07.54.2,1.09.2,1.63.01,20.41,0,40.83,0,61.24,0,.44.01.89-.06,1.33-.03.18-.25.45-.39.46-.87.05-1.75.05-2.62.01-.14,0-.37-.3-.39-.47-.05-.77-.05-1.55-.05-2.33,0-17.64,0-35.28,0-52.92,0-1,0-2-.05-2.99,0-.15-.24-.37-.41-.43-.17-.06-.5-.03-.59.09-.71.98-1.45,1.95-2.06,2.99-2.56,4.37-5.05,8.79-7.63,13.15-4.04,6.84-8.14,13.64-12.18,20.47-3.43,5.79-6.81,11.6-10.22,17.39-.61,1.04-1.39,2.02-1.82,3.14-.69,1.77-1.89,2.28-3.64,2.03-.65-.09-1.33,0-2-.05-.51-.03-.74-.37-.74-.88,0-.33-.01-.67-.01-1,0-20.41,0-40.83,0-61.24,0-.54.13-1.09.2-1.63h3.12c.4,1.08.2,2.2.2,3.3.01,17.52,0,35.03.01,52.55,0,1,0,2,.05,2.99,0,.14.27.34.45.38.17.03.47-.06.56-.19.72-1.11,1.42-2.23,2.09-3.37,4.69-7.97,9.39-15.94,14.05-23.94,3.43-5.89,6.87-11.77,10.25-17.69,2.61-4.57,5.44-9.01,8.11-13.55.1-.17.34-.27.52-.4l5.04-.07Z"/>
  <path class="cls-1" d="m621.06,499.74c.17-.52.35-1.05.52-1.57.3,0,.41-.12.24-.4.42-1.82,1.54-3.39,1.91-5.24.17-.85.34-1.73.68-2.51.3-.69.83-1.25,1.07-2.03.67-2.18,1.22-4.42,2.42-6.4.25-2.23,1.53-4.07,2.29-6.1.13-.07.25-.13.38-.2l-.17-.19c.17-.52.34-1.04.52-1.57.3,0,.4-.12.24-.4.53-1.18.53-2.5,1.3-3.68.75-1.14,1.14-2.59,1.23-4.04,1.01-1.09,1.42-2.51,1.72-3.88.36-1.63,1.15-3.03,1.81-4.51.25-.55.69-.82,1.32-.8,1.54.06,3.07.11,4.61.17,1.18,1.1,1.36,2.72,2.11,4.04.37.64.61,1.35.76,2.12.23,1.16.66,2.33,1.25,3.37.39.69.52,1.4.78,2.1.45,1.22.6,2.58,1.47,3.64.68.82.31,1.94.82,2.81-.19.3-.03.39.24.41.17.52.34,1.04.51,1.56-.06.06-.12.12-.18.19.13.07.26.14.39.21.64,1.49,1.51,2.94,1.87,4.5.38,1.64,1.22,3.04,1.83,4.55.4,1,.64,2.09.88,3.12.28,1.22,1.33,1.99,1.44,3.28.1,1.18.54,2.35.94,3.49.4,1.14.94,2.23,1.41,3.34-.2.3-.04.39.24.41.17.52.34,1.04.52,1.56-.06.06-.12.12-.18.18.13.07.26.14.39.2.35.99.71,1.97,1.06,2.96-.24.32-.04.39.23.41.17.52.35,1.05.52,1.57-.06.06-.19.12-.18.18.02.23.16.3.38.2.58,1.29.97,2.65,1.73,3.9.65,1.07.48,2.66,1.16,3.7.89,1.34.95,2.9,1.62,4.26.24.47.23,1.07.35,1.6.1.45-.25.65-.52.68-.66.09-1.33.07-1.99.06-1.13-.02-1.49-.18-1.51-1.26-.02-1.27-.87-2.23-.96-3.47-.05-.67-.71-1.3-1.1-1.95-.27-.46-.61-.9-.81-1.39-.51-1.2-.53-2.55-1.21-3.71-.59-1.03-1.06-2.09-1.3-3.31-.29-1.49-.91-2.93-1.45-4.36-.24-.65-.72-1.1-1.5-1.09-.22,0-.44,0-.67,0-9.42,0-18.84,0-28.27,0-1.17,0-1.74.25-1.93,1.34-.42,2.51-2.24,4.5-2.44,7.09-.05.69-.85,1.3-1.03,2.01-.29,1.17-1.1,2.2-.92,3.49-.84.92-1.18,2.1-1.56,3.24-.21.62-.28,1.28-.45,1.92-.22.85-.81,1.43-1.57,1.43-.99.01-1.99-.05-2.98-.1-.33-.02-.4-.16-.24-.38.13-.18.22-.38.32-.58.35-.68.79-1.34,1.04-2.05.39-1.13.05-2.5.81-3.46.73-.92,1.05-2.02,1.27-3.02.55-2.57,2.2-4.72,2.57-7.37.19-1.35,1.13-2.59,1.73-3.87.13-.07.25-.13.38-.2-.06-.06-.12-.12-.18-.18Zm19.02-2.75h0c4.11.01,8.22-.01,12.33.02,1.99.02,2.1-.43,1.66-2.15-.16-.63-.5-1.22-.79-1.82-.33-.69-.9-1.33-.98-2.04-.19-1.57-.68-3.02-1.45-4.35-.79-1.36-.89-2.9-1.42-4.32-.31-.84-1.01-1.38-1.22-2.3-.6-2.66-1.12-5.37-2.7-7.69,0-1.09-1.13-1.75-1.21-2.66-.25-2.9-2.51-5.15-2.45-8.13,0-.48-.44-.99-.73-1.45-.1-.16-.36-.29-.55-.3-.16,0-.47.15-.49.27-.26,1.54-1.42,2.7-1.74,4.22-.31,1.49-.92,2.89-1.57,4.28-.5,1.07-.47,2.43-1.07,3.41-.77,1.25-1.42,2.57-1.61,3.94-.22,1.6-1.52,2.67-1.7,4.24-.1.86-.23,1.82-.69,2.5-.84,1.22-1.4,2.57-1.62,3.94-.25,1.59-1.52,2.67-1.69,4.24-.06.54-.4,1.05-.44,1.58-.04.6-.33,1.01-.59,1.49-.37.66-.61,1.4-.87,2.12-.28.77-.17.96.59.96,4.33,0,8.66,0,13,0Z"/>
  <path class="cls-1" d="m331.26,456.25c.06,1.1.18,2.2.18,3.3.02,7.75,0,15.5,0,23.25,0,.77-.02,1.55.05,2.32.03.29.25.6.67.6.44,0,.88.05,1.33.05,10.97,0,21.94,0,32.91,0,.44,0,.89,0,1.32-.09.17-.03.41-.29.43-.46.06-.77.07-1.55.07-2.32,0-8.08,0-16.17.01-24.25,0-.76-.17-1.55.2-2.29,1.16-.04,2.32-.08,3.49-.12.06.55.18,1.09.18,1.64,0,20.43,0,40.85,0,61.28,0,.44.02.89-.06,1.33-.03.17-.3.4-.46.41-.88.04-1.77.02-2.66.01-.4,0-.64-.29-.66-.61-.06-.77-.03-1.55-.04-2.33,0-8.33,0-16.65,0-24.98,0-.89-.01-1.78-.04-2.66-.02-.55-.39-.74-.88-.76-.55-.02-1.11-.03-1.67-.03-10.55,0-21.11,0-31.66,0-.55,0-1.11,0-1.66.03-.5.02-.83.27-.84.8-.02.89-.03,1.78-.03,2.66,0,8.33,0,16.65,0,24.98,0,.78.02,1.56-.04,2.33-.03.33-.3.58-.67.58-.67.02-1.33.04-2,0-.5-.03-.77-.34-.77-.86,0-.44-.02-.89-.02-1.33,0-20.2,0-40.41,0-60.61,0-.65.14-1.31.22-1.96,1.03.02,2.05.05,3.07.07Z"/>
  <path class="cls-1" d="m556.61,517.73c2.72-.89,3.8-3.22,4.75-5.59.53-1.32.96-2.71,1.18-4.1.5-3.14,1.66-6.17,1.5-9.41.87-4.48.42-9.03.79-13.53.77-9.29.35-18.59.57-27.88,0-.33.12-.65.18-.97,12.1,0,24.2.02,36.29.02.06.66.18,1.31.18,1.97,0,20.18,0,40.36,0,60.54,0,.55.01,1.11-.05,1.66-.02.17-.27.45-.42.45-.99.04-1.99.03-2.98-.02-.15,0-.4-.29-.41-.46-.05-.77-.05-1.55-.05-2.33,0-18.07,0-36.14,0-54.22,0-.78,0-1.55,0-2.33-.02-1.87-.02-1.89-1.78-1.89-6.44,0-12.87,0-19.31,0-2.33,0-4.66-.01-6.99,0-.91,0-1.17.28-1.18,1.18-.02,2.88-.02,5.76-.04,8.65-.02,3.88-.08,7.76-.08,11.64,0,2.19-.64,4.32-.52,6.54.12,2.21.11,4.46-.21,6.64-.31,2.07-.25,4.17-.61,6.2-.35,1.95-.53,3.9-.71,5.86-.03.33-.04.68-.17.97-.58,1.3-.87,2.68-1.2,4.06-.33,1.36-.85,2.68-1.31,4.01-1.33,3.86-5.31,6.38-8.56,6.21-.99-.05-1.99-.08-2.97-.2-.63-.07-1.13-.75-1.16-1.41-.02-.44,0-.89,0-1.33,0-.44,0-.92.54-1.03.31-.06.66.05.99.09.14.14.27.4.41.41.97.04,1.95.03,2.92,0,.14,0,.27-.27.4-.42Z"/>
  <path class="cls-1" d="m505.29,456.22c.38,1.08.19,2.2.19,3.3.02,7.88,0,15.75.02,23.63,0,.63-.28,1.44.4,1.83.81.45,1.43-.11,2.04-.65,4.98-4.4,10.06-8.69,14.77-13.4,3.33-2.21,5.71-5.51,8.97-7.82,1.08-.76,1.92-1.84,2.92-2.72,1.4-1.25,2.83-2.45,4.25-3.67.45-.38.97-.5,1.54-.5,1,0,2,0,3,.05.19,0,.54.2.53.29-.02.3-.09.66-.28.86-.3.31-.76.45-1.08.74-3.2,2.89-6.37,5.82-9.57,8.7-.9.81-1.89,1.5-2.8,2.29-3.34,2.91-6.65,5.85-9.98,8.77-2.99,2.63-5.99,5.26-8.98,7.89-.38.33-.37.74.05,1.09.42.36.87.68,1.28,1.06,4.86,4.54,9.62,9.2,14.6,13.6,2.81,2.48,5.45,5.16,8.39,7.51,2.5,2,4.53,4.58,7,6.64,1.79,1.49,3.45,3.09,5.1,4.71.26.25.24.4-.1.41-1.55.04-3.1.1-4.64.04-.37-.01-.78-.39-1.08-.7-2.75-2.73-5.89-5.02-8.55-7.84-1.36-1.44-2.86-2.73-4.45-3.95-1.92-1.47-3.42-3.44-5.21-5.08-4.98-4.57-9.89-9.23-14.83-13.85-.48-.45-1.01-.85-1.53-1.26-.44-.34-.93-.71-1.48-.32-.41.28-.27.81-.28,1.24-.01.78,0,1.55,0,2.33,0,9.1,0,18.19-.02,27.29,0,.72.43,1.76-.45,2.09-.77.29-1.73.07-2.6.03-.14,0-.36-.28-.39-.46-.07-.43-.06-.88-.06-1.33,0-20.41,0-40.83,0-61.24,0-.54.13-1.09.2-1.63,1.03,0,2.06.01,3.1.02Z"/>
  <path class="cls-1" d="m457.97,455.8c.74-.1,1.49-.2,2.23-.3,2.81.01,5.61.02,8.42.03.74.1,1.48.2,2.22.3.22.6.69.42,1.12.36,5.3,1.26,9.78,3.93,13.39,8,.79.89,1.39,1.97,2,3.01.39.66.23,1.32-.3,1.78-.42.36-.85.71-1.3,1.04-.48.35-1.16.27-1.47-.18-.37-.54-.74-1.09-1.08-1.65-2.25-3.61-5.52-5.94-9.46-7.31-.92-.32-1.37-1.58-2.58-1.18-3.69-.92-7.38-1.16-11.11-.23-.74.19-1.56.05-2.31.22-1.17.27-2.44.47-3.43,1.08-2.43,1.49-4.9,2.89-6.96,4.99-2.69,2.74-4.46,5.99-6.13,9.36-.19.38-.26.82-.33,1.24-.18,1.09-.38,2.16-.7,3.23-.47,1.57-.77,3.19-.71,4.87.06,1.77-.05,3.55-.03,5.32.02,2-.18,4.05.22,5.97.57,2.67,1.43,5.3,2.48,7.82,2.49,5.97,6.74,10.29,12.79,12.74,1.51.61,2.97,1.44,4.69,1.35-.04.28.07.46.32.46,2.75.01,5.49.02,8.24,0,.14,0,.28-.27.41-.41.33-.03.66-.05.99-.1,1.74-.29,3.28-1.17,5-1.57,1.25-.29,2.41-1.07,3.52-1.77,1.21-.77,2.36-1.64,3.45-2.57.74-.64,1.33-1.46,1.98-2.22.65-.76,1.27-1.54,1.92-2.29.25-.29.63-.24.9-.07.56.35,1.05.84,1.64,1.13.58.29.45.56.22.99-1.68,3.23-4.25,5.62-7.21,7.63-1,.68-2.14,1.16-3.11,1.87-1.28.94-2.67,1.42-4.23,1.58-.96.09-1.98.03-2.7.97-.18.24-.82.13-1.25.17-3.1.26-6.2.26-9.31.12-1.44-.07-2.84-.22-4.16-.84-.2-.09-.4-.27-.6-.28-3.29-.15-5.72-2.18-8.14-3.98-4.05-3.01-7.14-6.9-9.04-11.64-.24-.61-.44-1.26-.5-1.9-.06-.57-.29-1.03-.53-1.53-.43-.88-.92-1.76-1.14-2.69-.22-.95-.05-1.96-.62-2.88-.2-.32-.05-.86-.06-1.29,0-3.65,0-7.31-.03-10.96-.01-1.22.13-2.38.55-3.53.79-2.16,1.28-4.4,1.89-6.61.47-1.72,1.25-3.24,2.17-4.73,1.39-2.27,2.94-4.38,4.89-6.22,2.77-2.61,5.87-4.61,9.58-5.59.74-.2,1.45-.5,2.18-.75.44.1.9.28,1.12-.34Z"/>
  <path class="cls-1" d="m41.26,456.28c.06.77.15,1.53.17,2.3.02.75-.26,1.04-.92,1.06-.78.02-1.55.02-2.33.02-4.32,0-8.65,0-12.97,0-.55,0-1.11,0-1.66.02-.51.01-.83.25-.85.78-.02,1-.04,1.99-.04,2.99,0,18.06,0,36.12,0,54.18,0,.89.02,1.77-.03,2.66-.02.32-.25.6-.64.62-.66.03-1.33.07-1.99.06-.99,0-1.2-.21-1.22-1.11-.01-.89,0-1.77,0-2.66,0-17.95,0-35.9,0-53.85,0-1,0-1.99-.04-2.99-.01-.36-.26-.63-.6-.65-.77-.06-1.55-.06-2.32-.06-4.88,0-9.76,0-14.64,0-.9,0-1.18-.27-1.17-1.17.01-.76.14-1.53.22-2.29,1.1.03,2.2.09,3.3.09,12.58,0,25.16,0,37.74,0Z"/>
  <path class="cls-1" d="m308.09,488.6c0,10.08,0,20.16,0,30.24,0,.44-.01.89-.02,1.33,0,.56-.35.76-.84.79-.66.03-1.33.04-1.99.03-.73-.01-1.03-.29-1.06-.94-.01-.33-.01-.66-.01-1,0-20.27,0-40.54,0-60.81,0-.44-.04-.9.05-1.32.06-.3.23-.62.65-.62.77,0,1.55-.04,2.32-.03.49,0,.84.26.86.78.04.88.03,1.77.03,2.66,0,9.64,0,19.27,0,28.91Z"/>
  <path class="cls-1" d="m395.32,456.21c.07.65.2,1.31.2,1.96.01,20.19,0,40.38,0,60.57,0,.55,0,1.11-.06,1.66-.02.17-.24.45-.39.46-.87.05-1.75.06-2.62.02-.14,0-.36-.29-.39-.47-.07-.43-.05-.88-.05-1.33,0-20.41,0-40.82,0-61.23,0-.54.12-1.09.19-1.63,1.03,0,2.07,0,3.1-.01Z"/>
  <path class="cls-1" d="m115.28,456.25c.06.66.18,1.31.18,1.97,0,20.18,0,40.36,0,60.55,0,.55.01,1.11-.05,1.66-.02.18-.26.47-.4.47-.87.02-1.75-.01-2.62-.08-.14-.01-.34-.3-.36-.47-.06-.55-.05-1.11-.05-1.66,0-20.07,0-40.14,0-60.21,0-.76.14-1.53.22-2.29,1.03.02,2.05.05,3.08.07Z"/>
  <path class="cls-1" d="m155.32,446.87c1.1.06,2.21.23,3.3.15,3.65-.29,6.37-2.04,8.05-5.35.46-.91.11-1.93.66-2.85.54-.91.45-1.03,1.4-1.03.66,0,1.33,0,1.98.08.31.04.6.25.54.68-.52,3.73-2.01,6.9-5.08,9.24-1.45,1.11-3.18,1.61-4.87,1.86-3.17.48-6.38.48-9.47-.64-2.96-1.07-4.95-3.2-6.27-5.97-.37-.78-.63-1.66-.73-2.52-.34-2.84-.32-2.82,2.46-2.72.37.01.62.21.72.54.12.42.15.87.25,1.29.8,3.31,2.69,5.67,5.94,6.87.2.62.67.44,1.11.37Z"/>
  <path class="cls-2" d="m445.37,174.51c11.33,0,22.66,0,33.99,0,.89,0,1.78-.02,2.67.02,1.51.07,2.66,1.24,2.67,2.79.03,5.55.02,11.1,0,16.65,0,1.52-1.68,3.17-3.21,3.22-1.44.05-2.89.01-4.33.01-5.44,0-10.88,0-16.33,0-1.42,0-1.44.04-1.46,1.54-.01.78,0,1.55,0,2.33,0,13.54,0,27.08,0,40.62,0,.78-.08,1.56.01,2.33.21,1.71-.84,2.67-2.05,3.51-.33.23-.83.27-1.26.27-7.11.02-14.22.02-21.32,0-1.54,0-2.68-1.18-2.74-2.71-.03-.89-.01-1.78-.01-2.66,0-13.76,0-27.52,0-41.28,0-.78,0-1.55,0-2.33-.02-1.53-.08-1.59-1.75-1.62-.89-.01-1.78,0-2.67,0-5.78,0-11.55-.05-17.33.03-1.51.02-2.54-.55-3.43-1.62-.44-.53-.65-1.11-.65-1.82.02-5.44,0-10.88.02-16.31,0-1.73,1.17-2.88,2.87-2.95.89-.03,1.78-.01,2.67-.01,11.22,0,22.44,0,33.65,0Zm.24,3.39c-6.1,0-12.21,0-18.31,0-4.88,0-9.77,0-14.65,0-2.83,0-2.58-.15-2.59,2.42,0,3.55,0,7.1,0,10.65,0,.55,0,1.11.04,1.66.03.35.28.61.63.63.77.05,1.55.04,2.33.04,5.44,0,10.88,0,16.31,0,.67,0,1.33.02,2,0,1.06-.05,1.9.49,2.71,1.04.6.41.49,1.21.78,1.75.63,1.16.5,2.36.5,3.56,0,13.75,0,27.5,0,41.25,0,.89,0,1.77.02,2.66.02.66.32.93,1.07.93,5.33,0,10.65.02,15.98,0,3.36,0,3.06.42,3.06-2.96,0-13.97,0-27.94,0-41.92,0-1.32.03-2.6.55-3.88.66-1.64,1.4-2.39,3.09-2.41,2.89-.03,5.77-.01,8.66-.01,2.11,0,4.22.02,6.33,0,2.1-.02,4.19-.08,6.29-.12.88-2.13.24-4.34.36-6.51.12-2.1.03-4.21.02-6.32,0-.55,0-1.11-.03-1.66-.02-.55-.38-.75-.87-.76-.89-.02-1.78-.02-2.66-.02-10.54,0-21.09,0-31.63,0Z"/>
  <path class="cls-2" d="m258.15,210.37c0-3.22,0-6.43,0-9.65,0-.55.07-1.11.05-1.66-.03-1.07.96-1.72,1.09-2.72.13-.98.12-2.02.48-2.91.83-2.03,1.8-3.99,2.98-5.86,2.33-3.65,5.67-6.16,9.33-8.22,3.63-2.04,7.6-3.21,11.66-4.23,7-1.76,14.05-1.11,21.09-1.13,2.55.62,5.21.7,7.71,1.52,3.11,1.02,6.27,1.93,9.14,3.6,2.77,1.61,5.47,3.31,7.62,5.73,3.19,3.59,5.33,7.67,6.22,12.47.47,2.53.59,5.02.6,7.55.01,4.44.03,8.87,0,13.31-.05,5.87-1.76,11.19-5.15,16.01-3.14,4.46-7.28,7.61-12.29,9.66-3.65,1.49-7.57,2.04-11.33,3.18-.52.16-1.1.09-1.66.09-4.88.03-9.77.06-14.65.06-1.22,0-2.56.22-3.63-.2-1.16-.45-2.45-.15-3.5-.85-2.74-.32-5.29-1.28-7.87-2.17-3.39-1.17-6.26-3.15-8.95-5.43-4.36-3.69-6.74-8.59-8.26-13.97-.42-1.47-.75-2.96-.72-4.53.07-3.22.02-6.43.02-9.65,0,0,0,0,0,0Zm74.55.14h0c0-2.22,0-4.44,0-6.66,0-1.98.02-3.95-.58-5.89-.65-2.08-1.05-4.26-2.14-6.15-1.83-3.2-4.33-5.83-7.37-7.95-2.85-1.99-5.66-3.38-11.06-4.83-5.72-1.54-6.74-1.67-11.66-1.71-.67,0-1.33-.03-2-.04-5.76-.1-7.07.1-13.4,1.33-4.57.89-8.46,2.57-11.02,4.03-2.99,1.7-5.51,3.94-7.51,6.83-3.11,4.5-4.48,9.45-4.47,14.85,0,4.55.06,9.1-.03,13.65-.04,2.02.39,3.94.93,5.82.36,1.25.47,2.57,1.12,3.77,1.52,2.82,3.26,5.43,5.5,7.77,3.09,3.22,7.03,4.8,10.97,6.48.19.08.44.07.66.06,1.02-.04,1.93.32,2.88.63,2.73.88,5.58,1.1,8.41,1.27,3.43.2,6.88.05,10.33.05.66,0,1.43.17,1.97-.11.96-.48,1.94-.54,2.91-.46,1.07.09,1.86-.65,2.86-.72,3.45-.25,6.55-1.6,9.59-3.1.88-.44,1.83-.81,2.59-1.4,2.8-2.16,5.21-4.68,7.16-7.65.86-1.31,1.48-2.73,1.85-4.17.29-1.16.57-2.34.97-3.45.47-1.3.52-2.58.52-3.9,0-2.77,0-5.55,0-8.32Z"/>
  <path class="cls-2" d="m404.1,70.04c1.66,0,3.33.01,4.99,0,.86,0,1.02-.24,1.05-1.28.03-1.17-.12-1.35-1.23-1.43-.44-.03-.89-.02-1.33-.06-.56-.05-.68-.47-.71-.93-.02-.33-.05-.67,0-1,.1-.64.71-1.19,1.37-1.22.55-.02,1.11.01,1.66.03.56.02.72.42.77.88.03.22.03.44.02.66-.01.65.25,1.04.95,1.04.61,0,1.13.14,1.13.87,0,3.65,0,7.31-.04,10.96,0,.55-.46.67-.93.7-1.38.08-1.64-.12-1.67-1.35-.01-.55,0-1.11,0-1.66,0-.55.01-1.11,0-1.66-.03-1.23-.24-1.4-1.65-1.36-.7.02-1.05.31-1.05.94-.02,2.1,0,4.21-.03,6.31-.01,1.29-.09,1.35-1.58,1.45-.22.02-.44,0-.67,0-.78.06-.92.2-1.02.98-.01.11,0,.22-.01.33-.14,1.27-.14,1.28-1.54,1.46-.44.06-.96.05-1.03.58-.08.53-.09,1.12.07,1.62.15.47.73.36,1.16.42,1.2.16,1.2.17,1.34,1.33.17,1.34.17,1.35,1.25,1.44.44.03.89,0,1.33.05.35.04.61.27.63.63.03.77.05,1.55.02,2.32-.02.51-.34.77-.85.79-.55.02-1.11.02-1.66.07-.54.05-.75.5-.7,1.26.04.56.38.74.86.77.44.03.89,0,1.33.03.8.06,1.04.27,1.05.95.02,1.11.02,2.22.02,3.32,0,1.51.15,1.63,1.72,1.65,1.46.02,1.46.1,1.57,1.47.03.33,0,.67.05.99.07.48.32.81.86.79.8-.03,1.2.28,1.21,1.14.02,1.57-.08,1.71-1.61,1.73-.89.01-1.77,0-2.66,0-.89.02-1.09.24-1.13,1.22-.04,1.13.16,1.35,1.28,1.38.55.01,1.11,0,1.66,0,.55,0,1.11,0,1.66.02.54.02.75.38.76.87.02.55.01,1.11,0,1.66-.02.55-.38.74-.87.75-.45.01-.99.02-1.11.49-.13.51-.05,1.1,0,1.64.02.16.26.35.44.44,1.62.8,1.69.89,1.54,2.46-.04.47-.24.85-.78.86-.66.02-1.33.02-2,.02-2.91,0-2.6-.19-2.58,2.75h0c-2.01,0-4.02.02-6.04.04,0-.67-.02-1.33,0-2,.04-1.11.06-1.11,1.38-1.32q1.12-.17,1.27-1.42c.01-.11.01-.22,0-.33,0-.66.31-1.01.99-1.01.33,0,.67.01,1-.01,1.18-.09,1.27-.2,1.26-1.41-.01-.86-.17-1.08-.82-1.16-.22-.02-.44-.02-.66-.03q-1.62-.12-1.77-1.92c0-.11,0-.22,0-.33-.09-.86-.28-1-1.35-.99-.96.01-1.14.18-1.21,1.13-.02.33.01.67-.01,1-.06.91-.16.98-1.23,1.12q-1.4.17-1.57,1.45c-.03.22.04.48-.06.66-.5.87-1.37.48-2.1.54-.45.03-.89-.1-.99-.64-.06-.32-.02-.67-.06-.99-.11-.83-.25-.96-.98-1.01-1.54-.09-1.7.05-1.72,1.61,0,.44,0,.89,0,1.33.01,2.46-.22,2.44,2.26,2.42.89,0,1.78-.01,2.66.01.7.02.92.26.98,1.03.03.44,0,.89.04,1.33.06.69.27.86,1.1.89.55.02,1.11,0,1.67-.02,0,.33.01.66.02,1,.05,2.56-.23,2.27-2.45,2.24-.52,0-.81-.28-.85-.8-.04-.55-.06-1.1-.09-1.66-.02-.4-.31-.63-.62-.64-1.11-.05-2.22,0-3.33-.05-.54-.02-1.14-.03-1.58-.28-.55-.31-.25-1-.34-1.53-.12-.77-.29-.94-1.03-.97-.44-.02-.89-.01-1.33-.02-.67,0-1.33,0-2,0-.78-.02-.96-.18-1.07-.94-.03-.22,0-.45-.02-.66-.19-1.33-.31-1.45-1.62-1.63-.53-.07-1.19.14-1.5-.44-.19-.36-.14-.85-.16-1.28-.03-.68-.33-1.03-1.38-.93-.38.04-.66.27-.67.58-.06,1.44-.04,2.88-.08,4.32-.02.7-.29.97-1.03.97-2.33.01-4.66.02-6.99,0-.94,0-1.24-.28-1.25-1.12-.01-2.11,0-4.21,0-6.32,0-.45,0-.99-.46-1.13-.61-.19-1.31-.25-1.92.07-.16.08-.27.35-.3.55-.06.32,0,.67-.05.99-.17,1.17.39,2.42-.34,3.54-1.09.06-2.19.16-3.28.17-3.33.02-6.66,0-9.98,0-.77,0-1.04-.25-1.05-.93-.02-1-.05-2,0-2.99.02-.63-.3-1.43.37-1.83.43-.26,1.05-.19,1.59-.24.53-.04.79-.33.79-.84,0-1.22.01-2.44,0-3.66,0-.49-.23-.84-.78-.84-1-.01-2-.01-2.99-.03-1.57-.02-1.65-.11-1.65-1.7,0-1.58.07-1.65,1.67-1.67.89-.01,1.77,0,2.66,0,.88-.02,1.09-.26,1.11-1.23.02-1-.19-1.28-1.03-1.3-.55-.02-1.12.05-1.66-.02-.85-.1-1.94.45-2.5-.34-.38-.54-.23-1.46-.31-2.22-.04-.38-.28-.65-.61-.65-2.44-.03-4.88-.04-7.32-.01-.3,0-.61.25-.61.65-.01.55-.05,1.1-.02,1.65.02.49.27.81.82.81,1.11,0,2.22,0,3.33.02,1.08.02,1.29.27,1.27,1.42-.02,1.04-.21,1.31-1.03,1.31-2.33.01-4.66,0-6.99-.02-.53,0-.78-.36-.78-.85,0-1.44,0-2.88.02-4.32,0-.52.33-.78.85-.79.22,0,.44,0,.66-.03,1.11-.13,1.23-.22,1.24-1.08.02-1,0-1.99,0-2.99,0-.44.06-1.04-.4-1.15-.61-.15-1.29-.06-1.93,0-.13.01-.32.32-.34.51-.07.66-.06,1.33-.13,1.98-.02.19-.18.42-.35.52-.85.53-2.52-.1-2.76-1.03-.05-.21,0-.44-.02-.66q-.16-1.3-1.55-1.47c-1.06-.14-1.22-.27-1.23-1.11-.02-1.11.02-2.22-.01-3.32-.03-1.02-.63-1.49-1.77-1.46-.47.01-.89.17-.9.73-.03,1.99-.04,3.99-.03,5.98,0,.53-.01,1.14.22,1.58.3.56,1,.27,1.52.34.82.12.98.24,1.02.98.02.55-.02,1.11-.04,1.66,0,0,0,0,0,0-1.74.05-3.49.39-5.19-.26-.39-1.63-.14-3.29-.18-4.94-.04-2-.03-4,0-5.99.04-3.92-.53-3.37,3.28-3.41,2-.02,4,0,6,0,.33,0,.69.05.99-.06.28-.1.57-.31.55-.73-.02-.44.07-.89-.36-1.19-.09-.06-.19-.1-.29-.12-.61-.14-1.45.23-1.8-.36-.21-.36.21-1.03.24-1.57.05-1.12-.1-1.23-1.33-1.35-.53-.05-1.14-.01-1.58-.25-.56-.31-.24-1.01-.33-1.53-.13-.8-.28-.96-1.01-1.01-1.38-.09-1.68.13-1.7,1.31-.02,1.22.02,2.44-.02,3.66,0,.3-.16.63-.34.88-.2.27-1.64.3-1.88.03-.2-.22-.39-.56-.39-.85-.03-2.44-.02-4.88,0-7.32,0-.68.27-.89,1.08-.9,1-.01,2,0,3-.01,1.14-.02,1.29-.19,1.27-1.4-.01-1.04-.19-1.29-1.02-1.31-.78-.02-1.55-.02-2.33,0-2.1.03-2.08-.03-1.99-2.34.02-.48.24-.84.79-.85.89-.02,1.78-.04,2.66-.02.54.02,1.14,0,1.59.23.57.29.33.99.38,1.52.05.5.23.84.77.86.55.03,1.11.04,1.66.06.55.02.78.36.8.85.03,1,0,2,.04,2.99.03.64-.29,1.44.35,1.85.41.27,1.05.2,1.59.26.38.04.6.28.65.61.06.44.02.89.06,1.33.09,1.22.31,1.37,1.73,1.29.47-.03.92-.13.93-.69.03-1.44.04-2.88.01-4.32,0-.49-.3-.8-.84-.8-.22,0-.45,0-.67-.02-1.16-.14-1.24-.24-1.25-1.44,0-.22,0-.44,0-.67.04-.98.26-1.24,1.12-1.26.89-.02,1.78,0,2.67-.01,1.37-.02,1.37-.02,1.68-1.67.15-.78.31-.94,1.07-.97.33-.02.67-.01,1,0,.95.02,1.41.35,1.75,1.2.57,1.46.69,1.55,1.9,1.41.48-.06.82-.26.82-.82,0-2.22,0-4.44.02-6.66,0-.91.01-1,1.16-1.16.89-.13,1-.6,1.07-1.33.13-1.28.21-1.34,1.33-1.35,1.33-.02,2.67-.02,4,0,.84.01,1.08.29,1.09,1.26.02,2.22.02,4.44.03,6.66,0,.56.38.74.87.76.33.01.67,0,1-.01.51-.03.8-.29.8-.83,0-3.22,0-6.44,0-9.65,0-.62-.35-.9-1.09-.91-1.33-.02-2.66-.02-4-.04-.57,0-.73-.38-.78-.86-.01-.11,0-.22-.02-.33q-.18-1.28-1.56-1.45c-1.03-.13-1.14-.22-1.22-1.14-.02-.22,0-.44,0-.67q-.09-1.25-1.27-1.42c-.11-.02-.22,0-.33,0-.64,0-1.05-.24-1.05-.94,0-.44-.02-.89,0-1.33.02-.74.19-.92.96-1.05.11-.02.22,0,.33-.02q1.21-.18,1.37-1.33c.18-1.33.2-1.36,1.31-1.38,1.11-.01,2.22-.01,3.33,0,.55,0,1.15-.01,1.29.71.22,1.16-.02,2.01-.74,2.34-.38.18-.86.15-1.27.27-.19.05-.49.24-.49.37-.04,1.54-.05,3.08-.02,4.62,0,.14.31.38.49.38,1.33.04,2.66.04,3.99.02.52,0,.78-.33.78-.85,0-.89.01-1.78.02-2.66,0-1.33,0-2.66,0-4,0-1,.42-1.24,1.16-1.21.44.02.89,0,1.33.04.5.04.8.3.81.83.02,1.44.03,2.88.06,4.33.01.55.37.74.86.77.73.05,1.15-.2,1.2-.77.04-.55.05-1.11.07-1.66.02-.56.39-.78.86-.79,2.22-.03,4.44-.02,6.66-.04.83,0,.83-.03,1.18-1.15.41-1.34.61-1.54,1.74-1.54,3.11,0,6.22,0,9.33.02.54,0,.78.33.82.82.03.44.04.89.03,1.33-.03.69-.36,1.05-.97,1.07-1.22.03-2.44.03-3.66.05-.55,0-.76.35-.78.85-.01.33-.02.67,0,1,.04.49.25.83.81.83.33,0,.67,0,1,.02,1.28.1,1.38.19,1.39,1.31.01,1,0,2,0,3,.01.86.2,1.03,1.21,1.15.33.04.67.02,1,.05.33.03.3.16.25.4-.5,2.52-.13,5.07-.24,7.61-.04.88-.31,1.14-1.2,1.16-1.32.02-1.43-.09-1.53-1.49,0-.11,0-.22,0-.33-.1-1.34-.24-1.47-1.58-1.45-.78.01-1.06.22-1.11.88-.04.44,0,.89-.04,1.33-.07.88-.28,1.04-1.29,1.06-1.18.02-1.36-.13-1.44-1.25-.02-.33.02-.67-.01-1-.06-.76-.28-.99-.99-1.02-.44-.02-.89,0-1.33.01-.52.01-.82.28-.82.8-.01,1.44-.01,2.88-.01,4.33,0,.55.32.8.82.81,2.22.02,4.44.04,6.66.02.92,0,1.18.41,1.21,1.18.01.44-.02.89.01,1.33.15,1.96-.36,3.95.32,5.88,1.97.4,3.97.11,5.95.19.55.02,1.11,0,1.67,0,.96.03,1.2.26,1.21,1.15.02,1.33.01,2.66.02,3.99,0,.49.22.81.74.89.76.11,1.2-.06,1.34-.58.06-.21,0-.45.06-.66.31-1.25.44-1.35,1.77-1.51q1.36-.17,1.47-1.55c.04-.53-.2-1.22.37-1.52.45-.24,1.06-.19,1.6-.26.37-.05.58-.26.65-.62.04-.22.04-.44.05-.66.02-.44.03-.88.04-1.33h0Zm-40.63,32.01c-.33,0-.66.02-.99,0-1.65-.09-1.88.09-1.77,1.87.03.51.28.8.81.82.33.01.66.02.99,0,.48-.03.84-.23.86-.78.02-.66.02-1.32.04-1.98.64-.02,1.28-.04,1.93-.05.52,0,.76-.31.81-.78.15-1.35-.04-1.85-1.45-1.76-.43.03-.86,0-1.28-.01v-3.39c.34.02.67.05,1,.04,1.75-.02,1.76-.02,1.77-1.54.02-1.99,0-3.98,0-5.97,0-.89.13-1.01,1.19-1.16.22-.03.44-.02.66-.03.55-.01.76-.37.79-.85.08-1.37.06-1.8-1.57-1.75-.88.03-1.77.01-2.66,0-.94-.02-1.19-.25-1.2-1.13-.01-2.65,0-5.31,0-7.96,0-.66,0-1.33-.03-1.99-.02-.48-.23-.83-.79-.84-1.33,0-2.66-.03-3.98-.02-.84,0-1.06.3-1.04,1.29.02,1.35.3,1.66,1.7,1.88,1.41.23,1.41.23,1.43,1.61,0,.88.02,1.77,0,2.65-.03,1.1-.3,1.39-1.54,1.73-1.13.31-1.18.38-1.13,1.53.04.91.16,1.05,1.16,1.19.33.05.67.02.98.11.19.05.39.23.48.41.43.93-.14,2.05-1.09,2.21-1.53.25-1.54.26-1.53,1.48,0,.92,0,1.01,1.12,1.2,1.05.18,1.57.67,1.56,1.73,0,.22,0,.44.02.66.03.48.22.8.76.87.63.09,1.48-.26,1.82.43.27.55.14,1.29.18,1.95,0,.11.01.22.02.33-1.52.03-3.04.06-4.56.07-.53,0-.82.3-.85.77-.18,2.4-.12,2.44,2.15,2.4,1.09-.02,2.17,0,3.26,0,0,.92,0,1.83,0,2.75Zm-14.73-17.39c.33,0,.66,0,.99,0,.33,0,.66.02.99,0,1.15-.03,1.31-.2,1.31-1.36,0-1.15-.19-1.34-1.3-1.37-.22,0-.44,0-.66,0-.95.04-1.17.23-1.22,1.13-.03.55-.02,1.1-.03,1.65-.65,0-1.3.01-1.95.02-.52,0-.77.3-.8.79-.1,1.4,0,1.89,1.45,1.8.43-.03.87-.02,1.3-.02.01.55.04,1.1.03,1.65-.03,1.49-.04,1.49-1.65,1.68-.98.12-1.14.27-1.16,1.16,0,.22,0,.44.01.66.01.49.22.86.74.87,1.54.01,3.07,0,4.61-.04.35,0,.57-.29.6-.64.04-.44,0-.88.04-1.32.08-.99.15-1.09,1.13-1.21.22-.03.44,0,.66-.04.47-.06.83-.25.85-.79.02-.66.04-1.32.06-1.97.43,0,.87,0,1.3.02,1.42.08,1.52-.39,1.42-1.81-.03-.5-.29-.78-.81-.78-.32,0-.65-.02-.97,0-.66.04-.9.29-.92,1.02-.01.54.03,1.08.05,1.62-2.02,0-4.05,0-6.07,0,0-.91,0-1.82,0-2.74Zm25.99-11.92c0-1.52.03-3.04.02-4.56,0-.58-.42-.89-1.08-.86-.72.04-.98.27-.99.96-.02,1.09-.03,2.17-.01,3.26.01.86.24,1.07,1.17,1.14.32.02.65,0,.98,0,.01.55-.01,1.1.04,1.65.13,1.21-.24,1.91-1.61,1.79-.25-.02-.57.29-.55.7.01.33.01.67-.04.99-.14.94-.53,1.34-1.45,1.47-.33.05-.66,0-.99.04-.61.07-.85.44-.83,1.14.02.48.16.87.68.94.55.06,1.1.02,1.65.06.71.06.88.25.93,1.06.03.44,0,.88.03,1.32.05.63.28.8,1.13.85.33.02.66,0,.99-.01.01.55,0,1.11.04,1.66.05.78.23.95.99,1.02.44.03.89,0,1.33.03.72.06.95.3.95,1.04.01,1.99,0,3.99.01,5.98.01,1.58.16,1.72,1.68,1.63.79-.04.92-.16,1.03-.96.03-.22,0-.44.02-.66.09-.78.32-1,.99-1.03.33-.01.67-.01,1,0,.9.03,1.05.18,1.2,1.17q.2,1.33,1.52,1.49c.11.01.22.01.33.02.48.03.86.19.89.75.03.55.04,1.11.07,1.66.02.51.27.81.8.82.55.01,1.11.06,1.66.01,1.07-.1,2.2.36,3.21-.34.08-.98.16-1.96.24-2.94l-.03.03c.77-.03,1.61.12,2.29-.14.72-.27.34-1.17.47-1.79.08-.36.27-.58.62-.66.21-.05.44-.04.66-.07,1.35-.2,1.4-.26,1.36-1.64-.02-.77-.18-.96-.91-1.07-.22-.03-.44-.02-.66-.02-.63,0-1.06-.22-1.08-.93,0-.44,0-.89-.03-1.33-.06-.76-.26-.96-1.01-.97-2.22-.02-4.43,0-6.65-.03-.72,0-1-.28-1.01-.98-.02-2.1-.02-4.21-.04-6.31,0-.53-.33-.78-.83-.79-1.11-.02-2.21-.03-3.32-.02-.94,0-1.07.15-1.21,1.12-.2,1.39-.2,1.48-1.47,1.53-.99.04-1.2.45-1.37,1.37-.26,1.37-.86,1.48-1.82,1.43-.66-.03-1.33,0-1.99,0,.03-.88.05-1.76.1-2.64.02-.36.29-.59.63-.63.66-.07,1.32-.05,1.98-.13.34-.04.53-.31.58-.67.07-.54,0-1.17.26-1.58.41-.62,1.22-.26,1.85-.37.52-.09.72-.41.73-.9,0-.22.02-.44.01-.66-.02-.75-.22-1.01-.88-1.09-.33-.04-.66,0-.99-.05-.73-.09-.93-.29-.94-1.04-.02-.77,0-1.54.02-2.31.88.02,1.76.03,2.65.08.36.02.59.28.63.63.06.44.03.88.09,1.32.08.63.43.85,1.15.81.5-.03.88-.26.89-.74.03-2.21.02-4.41.02-6.62,0-.52-.31-.79-.82-.8-1.1-.02-2.21-.03-3.31-.02-.98.01-1.2.22-1.21,1.12-.02,1.43,0,2.87,0,4.3-1.13,0-2.27,0-3.4,0Zm-2.6,29.31c-1.32,0-2.64-.01-3.97,0-1.31.01-1.47.19-1.45,1.54.01.89.16,1.04,1.15,1.18.22.03.44.02.66.03.52.02.79.31.82.81.03.55.04,1.1.06,1.65.02.55.37.74.86.76.44.02.88,0,1.32.03.88.06.93.13,1.08,1.26.15,1.09.14,1.12,1.28,1.38.46.11.84.22.87.77.03.55.04,1.1.06,1.65.02.53.32.78.82.81.44.02.88.04,1.32.02.76-.02.94-.21,1.02-.97.06-.64-.08-1.42.23-1.91.47-.74,1.42-.32,2.15-.36.99-.04,1.98,0,2.97.04.35.01.6.27.63.62.05.55.03,1.1.07,1.65.06.74.22.88,1.06.92.55.03,1.1.02,1.65.02.03.55-.01,1.12.12,1.64.14.55.57.91,1.18,1.01.79.13,1.29-.23,1.34-1,.01-.22,0-.44,0-.66-.03-.46-.15-.88-.72-.9-.66-.02-1.33-.01-1.99-.01.02-1.66.05-3.32.05-4.97,0-.66-.29-.9-1.04-.96-.33-.03-.67.02-1-.01-1.01-.09-1.2-.26-1.22-1.14-.02-.88-.03-1.77,0-2.65.02-.65-.1-1.41.2-1.91.45-.76,1.4-.34,2.14-.44.11-.01.23.01.33-.02.48-.19.61-.58.58-1.05-.03-.45-.12-.94-.66-.96-1.32-.05-2.65,0-3.98-.03-.44,0-.61.31-.68.59-.1.42-.06.88-.07,1.32-.02,1.99-.01,3.98-.04,5.97,0,.51-.32.78-.84.79-.44,0-.89.02-1.33,0-.73-.02-1.05-.28-1.12-.91-.07-.65.08-1.42-.22-1.91-.46-.75-1.41-.34-2.15-.4-.55-.04-1.11,0-1.66-.01-1.5-.04-1.83-.38-1.93-2-.03-.44-.03-.88-.04-1.33,1.65-.01,3.31-.02,4.96-.05.84-.01,1.02-.26,1.01-1.3,0-.96-.15-1.12-1.09-1.23-.22-.02-.44.02-.66-.02-1.01-.15-1.34-.44-1.5-1.41-.05-.32,0-.66-.05-.99-.06-.46-.23-.85-.79-.85-1.21,0-2.43,0-3.64,0-.52,0-.82.27-.88.76-.05.44-.06.88-.05,1.32.01.73.23.98.92,1.06.33.04.66,0,.99.05.68.09.88.3.9,1.08.01.55-.04,1.1-.06,1.65Zm-3.3-30.19h.02c0-1.11,0-2.22,0-3.33,0-1,0-2-.03-3,0-.5-.26-.83-.79-.84-1.22-.01-2.44-.02-3.66,0-.48,0-.85.18-.89.73-.02.33-.02.67-.06,1-.05.47-.21.87-.77.87-1.44,0-2.89,0-4.33,0-.54,0-.79-.34-.8-.84-.03-.78-.03-1.55-.03-2.33,0-1.66,0-3.33,0-4.99,0-.8-.48-1.13-1.33-1.01-.96.14-1.37.57-1.38,1.54-.02,2.11,0,4.22-.01,6.33,0,1.1-.07,1.2-1.37,1.31-1.14.1-1.28.22-1.28,1.41,0,1.16.15,1.33,1.34,1.33,3.55.01,7.11,0,10.66,0,.67,0,1.33,0,1.99.07.34.03.57.3.59.67.02.44.03.89.03,1.33,0,1.89,0,3.77.02,5.66,0,.74.25.95,1.01.97.71.02,1.09-.27,1.09-.89.01-2,0-3.99,0-5.99Zm29.38,34.75c-.07-1.36-.15-2.78-.23-4.21-1.46-.72-3.02-.25-4.53-.33-1.2-.06-2.4.09-3.61.14-.72,1.23-.27,2.57-.32,3.86-.05,1.42.09,2.84.14,4.26,1.46.75,3.01.26,4.52.34,1.19.06,2.4-.09,3.6-.15.78-1.22.12-2.58.42-3.92Zm-47.75-33.82v.02c-1.21,0-2.43-.01-3.64.01-.19,0-.41.14-.56.27-.36.31-.34,1.92.04,2.15.26.16.59.23.89.27,1.87.25,1.88.24,2.09,2.16.1.9.16.94,1.26,1.08q1.36.17,1.55,1.46c.02.11.01.22.02.33.03.49.22.85.77.85,1.32,0,2.65.02,3.97-.02.32-.01.56-.29.59-.66.03-.33.03-.66.03-.99,0-.77.01-1.54,0-2.31-.02-1.22-.03-1.22-1.29-1.36-1.41-.17-1.48-.17-1.48-1.5,0-1.68-.11-1.78-1.92-1.75-.77.01-1.54,0-2.32,0Zm31.83-17.42s0,.02,0,.03c1.11,0,2.22,0,3.33,0,.11,0,.22-.02.33-.02.54-.01.78-.33.8-.83.02-.33.02-.66,0-1-.02-.49-.23-.84-.78-.85-.44-.01-.89,0-1.33-.04-.96-.07-1-.11-1.15-1.21-.19-1.43-.19-1.43-1.56-1.45-1-.01-2-.01-3-.02-.51,0-.83-.24-.88-.76-.04-.55-.06-1.11-.07-1.66-.01-.57-.39-.75-.87-.76-2.38-.08-2.31-.09-2.3,2.01,0,1,0,2,.03,2.99.01.53.34.77.85.79.44.02.89,0,1.33.03.78.05.96.22,1.05.94.04.33.03.66.04,1,.02.53.3.8.81.81,1.11.01,2.22,0,3.33,0Zm-37.73,20.68c-.83-.01-1.15.25-1.17.93-.02,1.11,0,2.21-.02,3.32-.03,1.08-.42,1.48-1.61,1.65-.43.06-.94-.04-1.29.16-.55.32-.37.98-.38,1.51,0,.63-.22,1-.91,1.1-1.73.27-1.73.29-1.74,1.94,0,.88,0,1.77.02,2.65.02.52.36.74.85.78.84.07,1.15-.18,1.24-1.09.16-1.61.16-1.6,1.7-1.68,1.37-.07,1.37-.1,1.56-1.44.15-1.06.14-1.08,1.14-1.21,1.45-.19,1.44-.19,1.51-1.5.09-1.65.11-1.65,1.59-1.76.22-.02.44,0,.66-.01.78-.07.97-.25,1.02-.97.05-.82-.21-1.06-1.18-1.16-.63-.07-1.47.3-1.84-.34-.3-.52-.2-1.26-.27-1.91-.01-.11,0-.22-.03-.33-.12-.52-.51-.64-.86-.64Zm30.21-16.23c0-.77.03-1.55,0-2.32-.03-.63.28-1.43-.37-1.84-.42-.26-1.05-.2-1.58-.25-.4-.03-.6-.29-.66-.6-.08-.43-.06-.88-.08-1.32-.02-.54-.33-.77-.82-.8-.33-.02-.66-.02-.99,0-.49.02-.85.22-.85.77,0,1.32-.01,2.65.03,3.97.01.33.29.56.66.59.11.01.22.02.33.03.33.01.67,0,.99.04.71.11.8.32.78,1.87,0,1.06-.16,1.3-.93,1.4-.22.03-.44,0-.66.02-1.14.12-1.26.27-1.23,1.42.02,1.04.19,1.29,1.04,1.27,5.21-.11,4.24,1.01,4.35-4.26Zm-12.94,54.12v-.02c1.22,0,2.44.02,3.66-.02.31-.01.6-.24.63-.63.03-.33.04-.66.06-.99q.11-1.4,1.43-1.59c.22-.03.47.03.66-.06.29-.13.53-.31.56-.72.06-.93-.18-1.34-.96-1.36-1.11-.02-2.22-.02-3.33-.01-.73,0-.96.22-1.08.93-.09.53.16,1.23-.39,1.52-.44.23-1.05.2-1.58.22-.89.04-1.77.02-2.66.03-.53,0-.77.32-.82.83-.14,1.66.21,1.9,1.47,1.87.78-.02,1.55,0,2.33,0Zm36.3-29.11s0,0,0,0c0-.66,0-1.32,0-1.97,0-.48-.2-.86-.74-.87-2.19-.02-4.39-.01-6.58,0-.19,0-.45.1-.57.24-.47.56-.28,1.23-.19,1.86.05.35.36.54.69.55,1.43.03,2.85,0,4.28.05.7.02.95.19.98,1.01,0,.33,0,.66.07.98.1.53.51.7,1.29.63.55-.04.75-.38.77-.85.02-.55,0-1.1,0-1.64Zm-28.75,5.53c.04,3.37-.44,2.99,2.92,3.01.55,0,1.1,0,1.64-.03.2-.01.45-.09.57-.23.47-.56.25-1.25.2-1.87-.02-.29-.29-.56-.69-.55-1.37.03-2.04-.6-1.93-2,.02-.22,0-.45-.06-.65-.07-.19-.22-.48-.35-.49-.64-.04-1.3-.11-1.91.04-.48.12-.38.71-.4,1.14-.02.55,0,1.1,0,1.64Zm34.68,14.8s-.02,0-.02,0c0-.76,0-1.53,0-2.29,0-.54-.33-.74-.82-.79-1.37-.13-1.71.1-1.72,1.22-.02,1.31,0,2.62.01,3.93,0,.54.36.73.84.78,1.33.16,1.69-.1,1.72-1.22.01-.55,0-1.09,0-1.64Zm-46.58-12.07c0-.33,0-.66,0-.99,0-.11,0-.22,0-.33-.03-.88-.27-1.1-1.2-1.12-.22,0-.44,0-.66.02-.48.04-.84.23-.84.78,0,1.32-.02,2.64.03,3.96.01.31.28.56.66.59,1.81.12,2.05.05,2.02-1.59,0-.44,0-.88,0-1.32Zm33.86-17.04c-.27,0-.49,0-.71,0-.87.04-1.1.28-1.11,1.2,0,.22-.02.44,0,.65.07.62.61,1.18,1.25,1.29.58.11,1.46-.24,1.73-.67.28-.47.27-1.84,0-2.17-.33-.4-.8-.24-1.16-.3Zm-20.51-29.27c-1.31-.01-1.47.16-1.43,1.55,0,.3.09.65.27.88.28.36,1.76.41,2.12.07.54-.52.34-1.22.26-1.84-.1-.75-.74-.61-1.21-.66Zm-23.51,23.26c.53-.02,1.21.13,1.36-.55.13-.61.31-1.34-.17-1.87-.5-.54-1.23-.31-1.85-.24-.51.06-.6.52-.62.98-.06,1.41.12,1.66,1.28,1.68Zm54.17,9.75c-.1,1.17.17,1.6,1.03,1.63,1.06.05,1.45-.16,1.51-.79.12-1.26-.1-1.72-.84-1.79-1.24-.11-1.64.11-1.71.94Zm-58.09,8.55c0,.3,0,.52,0,.74.04.77.24.98.94,1.02.82.05,1.12-.25,1.13-1.17,0-.22,0-.44-.02-.66-.05-.65-.38-.91-1.09-.87-.71.05-.93.28-.97.92Zm23.32-28.89c.01.23.01.34.02.45.05.68.35.96,1.04.95.69,0,1.03-.28,1.05-.94.02-.44.03-.9-.09-1.32-.08-.29-.4-.47-.78-.47-.46,0-.92,0-1.13.46-.13.29-.09.65-.12.87Zm-1.82-7.28c.88-.02,1.22-.25,1.26-.82.03-.42.15-.93-.32-1.15-.69-.32-1.44-.37-2.11.06-.44.29-.25.78-.23,1.19.02.33.23.59.58.65.32.05.64.05.82.06Z"/>
  <path class="cls-2" d="m412.8,51.06c0,3.1,0,6.2,0,9.31,0,.77-.23,1-.97,1.01-6.1,0-12.2,0-18.3,0-.55,0-.76-.34-.8-.83,0-.11-.03-.22-.03-.33,0-6.09,0-12.19,0-18.28,0-.96.42-1.2,1.16-1.2,5.88.01,11.75,0,17.63,0,1.15,0,1.3.16,1.31,1.36.01,2.99,0,5.98,0,8.97h0Zm-10.37,7.06s0,.05,0,.07c2.43-.07,4.86-.15,7.29-.22.79-2.48.22-5.02.35-7.53.09-1.77.03-3.55.01-5.32,0-.78-.25-1.09-.9-1.09-4.22-.02-8.44-.02-12.65-.02-.69,0-1,.32-1.01,1.01-.01,3.99-.01,7.99,0,11.98,0,.86.28,1.11,1.25,1.12,1.89.02,3.77,0,5.66,0Z"/>
  <path class="cls-2" d="m328.72,50.81c0-2.99,0-5.98,0-8.98,0-.85.28-1.1,1.23-1.11,5.88,0,11.76,0,17.63,0,.94,0,1.25.27,1.25,1.11,0,6.09,0,12.19,0,18.28,0,1.01-.22,1.26-1.08,1.26-5.99.01-11.98.01-17.97,0-.87,0-1.06-.22-1.06-1.26-.01-3.1,0-6.21,0-9.31Zm9.86,7.28s0,.02,0,.03c2,0,4,.01,6,0,1.18-.01,1.42-.23,1.42-1.29,0-3.88,0-7.77,0-11.65,0-.88-.28-1.16-1.2-1.17-4.11-.01-8.22,0-12.33,0-.74,0-1.04.28-1.04.95,0,4.11,0,8.21,0,12.32,0,.53.31.81.82.81,2.11.01,4.22,0,6.33,0Z"/>
  <path class="cls-2" d="m338.77,125.35c-3.21,0-6.42,0-9.63-.01-.07,0-.2-.15-.21-.24-.48-3.18-.14-6.38-.2-9.57-.06-3.21-.02-6.42,0-9.63,0-.86.31-1.12,1.23-1.12,5.76,0,11.52.02,17.29-.01,1.34,0,1.59.27,1.59,1.46,0,3.88,0,7.75,0,11.63,0,1.88-.03,3.76,0,5.65.03,2.09-.23,1.93-2.09,1.93-2.66,0-5.32,0-7.98,0,0-.03,0-.05,0-.08Zm7.23-9.85h0c0-2.11,0-4.21,0-6.32,0-.9-.24-1.13-1.22-1.13-4.11-.01-8.21,0-12.32,0-.75,0-1.03.26-1.04.96-.01,4.21-.01,8.42,0,12.64,0,.69.3.96,1.04.96,4.11.01,8.21.02,12.32,0,.97,0,1.21-.24,1.21-1.13.01-2,0-3.99,0-5.99Z"/>
  <path class="cls-2" d="m392.69,64.1c.55,0,1.11-.01,1.66,0,.54.02,1.19-.15,1.49.42.19.35.14.85.15,1.28.02.71.42.93,1.05.94.33,0,.71-.05.98.09,1.06.52.51,1.52.61,2.32.06.49-.2.84-.72.91-.33.04-.66.06-.99.07-.89,0-1.77.02-2.66,0-.64-.02-1.43.23-1.82-.43-.25-.43-.19-1.05-.24-1.58-.05-.55-.39-.73-.87-.76-.33-.02-.67,0-.99-.05-.69-.09-.88-.33-.9-1.09-.01-.33-.01-.66,0-.99.02-.73.3-1.06.92-1.08.77-.02,1.55,0,2.32,0v-.02Z"/>
  <path class="cls-2" d="m382.34,122.64c1.89,0,3.77.03,5.66-.01,1.49-.04,1.57.41,1.49,1.85-.02.48-.19.85-.73.91-.22.02-.44.03-.66.03-3.99,0-7.99,0-11.98,0-1.18,0-1.33-.18-1.35-1.34-.02-1.18.17-1.43,1.25-1.44,2.11-.02,4.22,0,6.32,0Z"/>
  <path class="cls-2" d="m355.05,119.38c.33,0,.66,0,.99,0,1.99.03,2,.04,1.95,2.02-.03,1.12-.12,1.2-1.37,1.32-.53.05-1.11-.18-1.57.22-.47.42-.24,1.02-.33,1.54-.12.71-.34.92-1.05.93-.44,0-.88.02-1.31-.06-.45-.08-.79-.33-.78-.88.01-1.42,0-2.85,0-4.27,0-.56.37-.77.83-.79.88-.03,1.75-.01,2.63-.01v-.03Z"/>
  <path class="cls-2" d="m363.42,121.43c-.03-.49-.02-.82,0-1.14.04-.64.33-.88,1.08-.9.33-.01.66-.01.99,0,1.02.03,1.15.15,1.22,1.11.02.22,0,.44,0,.66.03,1.31.06,1.3,1.49,1.49,1.01.14,1.16.28,1.17,1.16,0,.44-.01.88-.04,1.31-.03.54-.39.73-.87.74-.44.02-.88.01-1.32.01-.69,0-.95-.4-.96-1.04,0-.22-.02-.44-.02-.66-.02-.64-.31-.97-.99-1.01-.52-.03-1.21.22-1.51-.33-.24-.44-.22-1.04-.25-1.41Z"/>
  <path class="cls-2" d="m334.1,96.01c.44,0,.88-.01,1.32.03.63.05,1.46-.29,1.82.38.41.77.27,1.7.05,2.55-.04.15-.31.33-.5.35-.54.06-1.1.07-1.65.07-.67,0-1,.31-.99.98,0,.22.01.44-.02.66-.11.81-.27.98-.98,1-.55.01-1.1,0-1.64-.07-.19-.02-.42-.17-.52-.33-.54-.85.03-2.5.94-2.75.21-.06.44,0,.65-.04q1.47-.22,1.51-1.5c.01-.44,0-.88,0-1.32h0Z"/>
  <path class="cls-2" d="m409.17,84.68c.09,0,.53,0,.95.09.18.04.46.23.48.37.09.73.35,1.52-.25,2.16-.22.23-.51.46-.81.53-.42.09-.87.05-1.3.01-.78-.07-1.31-.67-1.39-1.5-.11-1.28.16-1.63,1.31-1.66.22,0,.43,0,1,0Z"/>
  <path class="cls-2" d="m407.42,122.66c.33,0,.66-.01,1-.02,2.47-.06,2.34.17,2.23,2.43-.03.52-.35.77-.85.79-.33.01-.66.02-1,.02-1.18-.01-1.44-.21-1.47-1.24-.02-.66.06-1.32.1-1.98,0,0,0,0,0,0Z"/>
  <path class="cls-2" d="m412.8,92.01c0,.22,0,.44,0,.66-.04,1.29-.42,1.38-2.05,1.2-.18-.02-.48-.23-.49-.36-.04-.98-.03-1.95-.02-2.93,0-.08.14-.16.21-.24.22-.22,1.58-.36,1.87-.11.22.19.37.51.44.81.07.31.02.65.02.98h.02Z"/>
  <path class="cls-2" d="m404.09,70.04c-.64.02-1.29.05-1.93.03-.18,0-.42-.12-.53-.27-.37-.46-.34-2.24.02-2.76.3-.42.78-.29,1.19-.29,1,0,1.25.19,1.27,1.01.02.75-.01,1.51-.02,2.26h0Z"/>
  <path class="cls-2" d="m412.78,97.91c0,.22,0,.44,0,.66,0,.54-.32.77-.83.8-1.48.09-1.93-.09-1.83-1.52.02-.22,0-.44,0-.67.03-.9.25-1.11,1.21-1.16,1.15-.06,1.42.17,1.46,1.21,0,.22,0,.44,0,.67h-.02Z"/>
  <path class="cls-2" d="m217.48,210.93c0,12.2,0,24.41,0,36.61,0,.89,0,1.77-.03,2.66-.02.46-.25.75-.7,1-5.06,2.86-10.12,5.74-15.15,8.67-6.82,3.98-13.72,7.83-20.54,11.83-5.01,2.94-10.06,5.84-15.12,8.7-3.25,1.83-6.44,3.76-9.68,5.62-2.47,1.42-4.97,2.81-7.44,4.23-.56.32-.99.2-1.52-.11-4.83-2.83-9.66-5.65-14.51-8.45-2.28-1.31-4.6-2.55-6.88-3.86-3.9-2.24-7.79-4.52-11.68-6.77-2.09-1.21-4.19-2.4-6.28-3.61-3.8-2.2-7.58-4.43-11.38-6.62-3.42-1.97-6.87-3.89-10.3-5.84-1.15-.65-2.27-1.34-3.41-2.01-1.32-.77-2.64-1.54-3.96-2.3-.02-1.55-.07-3.1-.07-4.65,0-24.19,0-48.37,0-72.56,0-3.16-.43-2.49,2.36-4.08,5.24-2.99,10.53-5.9,15.68-9.06,2.06-1.26,4.19-2.4,6.28-3.6,3.61-2.08,7.22-4.16,10.84-6.24,2.19-1.26,4.38-2.52,6.56-3.78,3.61-2.08,7.22-4.17,10.83-6.26,1.52-.88,3.05-1.74,4.57-2.61,3.62-2.07,7.23-4.15,10.85-6.22.38-.22.81-.35,1.19-.58.33-.2.56-.1.86.08,5.41,3.15,10.82,6.28,16.23,9.43,3.32,1.93,6.6,3.93,9.94,5.83,3.81,2.18,7.67,4.27,11.47,6.45,3.43,1.97,6.81,4.02,10.22,6.01,1.99,1.16,4.01,2.28,6.01,3.42,4.57,2.61,9.14,5.23,13.71,7.85.73.42,1.06,1.01,1.05,1.9-.04,3.22-.02,6.43-.02,9.65,0,9.76,0,19.53,0,29.29Zm-44.37-8.41c3.33,0,6.66,0,9.99,0,.55,0,1.11.01,1.66-.04.52-.05,1.31-.8,1.35-1.32.13-1.98.3-3.99-.32-5.92-1.19-3.71-2.88-7.13-5.81-9.82-.98-.9-1.89-1.88-2.87-2.78-.57-.52-1.2-.96-1.84-1.39-2.84-1.91-5.91-3.32-9.16-4.37-3.13-1.01-6.34-1.63-9.56-2.24-7.16-.06-14.36-.79-21.41,1.14-2.66.17-5.08,1.12-7.58,2.01-3.74,1.34-6.8,3.6-9.66,6.16-2.91,2.59-4.97,5.86-6.3,9.53-1.12,3.09-2.04,6.24-2.06,9.57-.02,5.22.02,10.43-.02,15.65-.01,1.56.27,3.05.67,4.54.69,2.53,1.35,5.1,2.67,7.37,2.35,4.03,5.32,7.54,9.38,10.02,1.69,1.03,3.43,1.9,5.23,2.72,2.63,1.2,5.41,1.75,8.15,2.45,1.67.43,3.39.83,5.19.8,5.41-.08,10.83.46,16.21-.53,1.52-.28,3.13-.04,4.64-.36,1.59-.33,3.09-1.05,4.64-1.59.31-.11.63-.18.95-.25,1.73-.38,3.16-1.46,4.8-2.05.6-.22,1.09-.75,1.67-1.05,3.01-1.56,5.39-3.89,7.51-6.44,1.89-2.26,3.45-4.74,4.3-7.68.64-2.19.68-4.34.57-6.53-.03-.7-.84-1.4-1.58-1.46-.44-.04-.89-.03-1.33-.03-6.89,0-13.77.08-20.65-.05-1.96-.04-3.12.84-4.16,2.21-.26.34-.4.78-.62,1.16-1.69,3.06-4.25,4.67-7.78,4.68-1.22,0-2.44,0-3.66,0-1.69,0-3.23-.52-4.7-1.32-2.66-1.45-4.05-3.75-4.11-6.69-.11-5.32-.04-10.65-.03-15.98,0-.55,0-1.12.16-1.64,1.1-3.8,4.76-6.66,8.23-6.43,1.66.11,3.33.01,4.99.04.54.01,1.12.05,1.62.24,2.22.83,4.14,2.04,5.21,4.3.37.79.81,1.54,1.46,2.19.83.83,1.71,1.25,2.93,1.23,3.66-.07,7.33-.02,10.99-.02Zm-85.61,11.87c0-9.09,0-18.19,0-27.28,0-1-.02-1.99-.06-2.99-.02-.5-.32-.8-.82-.87-1.57-.24-1.9.33-1.88,1.5,0,.44,0,.89,0,1.33,0,19.41,0,38.82,0,58.22,0,.55.03,1.11,0,1.66-.04.75.32,1.28.87,1.69.43.33.9.63,1.37.9,2.65,1.55,5.3,3.1,7.95,4.64,1.33.78,2.64,1.58,3.98,2.33,2.39,1.35,4.85,2.57,7.17,4.02,5.96,3.72,12.16,7,18.14,10.68,2.34,1.44,4.76,2.72,7.11,4.13,2.25,1.35,4.57,2.59,6.77,4.04.37.24.76.48,1.17.61.54.17,1.07.1,1.54-.33.83-.76.83-1.9-.13-2.53-1.28-.84-2.63-1.58-3.96-2.35-3.51-2.05-7.02-4.09-10.53-6.13-4.46-2.59-8.91-5.18-13.37-7.77-2.37-1.38-4.76-2.73-7.13-4.11-4.75-2.75-9.5-5.51-14.24-8.26-1.04-.61-2.09-1.21-3.11-1.85-.59-.38-.9-.92-.84-1.68.06-.77.01-1.55.01-2.33,0-9.09,0-18.19,0-27.28Z"/>
  <path class="cls-2" d="m524.03,210.91c0-12.32,0-24.64,0-36.96,0-.78.02-1.55,0-2.33-.02-.63.28-1.07.77-1.37,1.12-.7,2.26-1.36,3.4-2.03,3.79-2.21,7.58-4.44,11.39-6.63,3.61-2.08,7.24-4.14,10.87-6.21,3.43-1.95,6.88-3.89,10.31-5.85,2.19-1.25,4.36-2.55,6.54-3.82,3.89-2.27,7.76-4.57,11.66-6.81,3.42-1.97,6.87-3.9,10.31-5.84.48-.27.97-.52,1.44-.8.76-.45,1.5-1.28,2.25-1.28.88,0,1.82.61,2.64,1.11,5.64,3.42,11.39,6.63,17.1,9.92,4.85,2.8,9.58,5.8,14.49,8.49,5.11,2.79,10.06,5.84,15.14,8.68,3.35,1.87,6.62,3.9,9.95,5.82,2.19,1.26,4.41,2.45,6.62,3.67.48.26.98.49,1.46.77q2.3,1.36,2.31,4.15c0,24.75,0,49.5,0,74.25,0,2.64.02,2.69-2.36,4.11-3.39,2.02-6.84,3.95-10.26,5.94-3.51,2.04-7.01,4.1-10.53,6.14-1.9,1.1-3.84,2.13-5.73,3.24-5.6,3.26-11.18,6.56-16.79,9.8-5.13,2.96-10.31,5.85-15.46,8.79-2.48,1.41-4.95,2.84-7.4,4.31-.77.46-1.38.39-2.13-.07-2.24-1.38-4.53-2.7-6.81-4.02-3.7-2.15-7.41-4.29-11.11-6.44-3.14-1.81-6.28-3.61-9.41-5.43-3.32-1.93-6.62-3.9-9.94-5.83-1.9-1.1-3.83-2.14-5.73-3.24-3.99-2.32-7.94-4.7-11.94-6.99-4.09-2.34-8.2-4.63-12.33-6.91-.46-.25-.66-.55-.68-1.01-.03-.89-.02-1.78-.02-2.66,0-12.21,0-24.42,0-36.63Zm104.76-.65c0-10.54,0-21.08,0-31.62,0-.89-.02-1.77-.02-2.66,0-.73-.3-1.18-.99-1.54-.61-.32-1.16-.57-1.86-.57-5.55.01-11.1.02-16.65,0-1.68,0-3,.7-4.01,1.97-.89,1.12-1.68,2.31-2.51,3.47-2.43,3.39-4.85,6.8-7.3,10.18-2.65,3.65-5.34,7.27-8,10.92-1.3,1.78-2.43,3.68-4.01,5.24-.12.12-.37.13-.56.14-.05,0-.15-.18-.15-.28-.03-.88-.07-1.76-.07-2.65,0-7.99,0-15.97,0-23.96,0-.78-.03-1.55,0-2.33.03-.6-.18-1.08-.55-1.51-.59-.7-1.25-1.19-2.26-1.18-6.44.02-12.88-.01-19.32.01-1.96,0-3.05,1.13-3.13,3.07-.03.66,0,1.33,0,2,0,20.86,0,41.71,0,62.57,0,.67-.02,1.33,0,2,.08,1.95,1.16,3.02,3.14,3.03,4.89.02,9.77,0,14.66,0q4.22,0,7.06-3.24c.29-.33.61-.65.88-1,2.53-3.32,5.03-6.67,7.59-9.98,3.24-4.17,6.52-8.32,9.79-12.46.95-1.21,1.96-2.38,2.94-3.56.07-.08.19-.14.29-.15.05,0,.17.11.17.18.05.55.12,1.09.12,1.64,0,7.88,0,15.75,0,23.63,0,.78.03,1.55,0,2.33-.03.74.34,1.24.78,1.76.64.76,1.45.87,2.39.87,6.11-.03,12.21-.01,18.32-.02.44,0,.9.04,1.33-.03,1.05-.19,1.88-1.21,1.91-2.31.02-.78,0-1.55,0-2.33,0-10.54,0-21.08,0-31.62Zm27.33-4.02c0-9.43,0-18.86,0-28.29,0-.78-.04-1.56,0-2.33.06-1.14-.45-1.81-1.45-2.35-2.5-1.38-4.94-2.87-7.4-4.31-3.13-1.82-6.26-3.64-9.39-5.46-3.71-2.15-7.42-4.28-11.12-6.43-4.18-2.42-8.34-4.86-12.52-7.29-3.8-2.21-7.6-4.42-11.4-6.62-.28-.16-.56-.39-.86-.46-.64-.14-1.3-.22-1.91.22-.62.45-.8,1.21-.3,1.72.46.47.94.96,1.49,1.29,3.67,2.19,7.36,4.35,11.07,6.49,3.42,1.97,6.88,3.88,10.29,5.85,3.32,1.92,6.6,3.92,9.92,5.84,5.03,2.9,10.1,5.74,15.14,8.65,1.71.99,3.34,2.13,5.04,3.15.44.27.63.57.63,1.04,0,.89,0,1.77,0,2.66,0,18.08,0,36.17,0,54.25,0,.89-.01,1.78,0,2.66,0,.33.07.65.14.97.09.4.85.97,1.25.96.4,0,1.22-.57,1.25-.95.07-.77.12-1.54.12-2.31,0-9.65,0-19.3,0-28.96Z"/>
  <path class="cls-2" d="m153.4,338.59c0-12.32,0-24.64,0-36.96,0-.78.02-1.55,0-2.33,0-.51.29-.85.66-1.09.92-.6,1.85-1.18,2.81-1.72,5.75-3.23,11.42-6.57,17.1-9.91,5.11-3.01,10.31-5.84,15.46-8.78,1.62-.93,3.11-2.1,4.79-2.9,3.97-1.88,7.56-4.43,11.43-6.48,3.39-1.8,6.65-3.85,9.98-5.78,2.09-1.21,4.19-2.4,6.26-3.64.45-.27.73-.24,1.16,0,2.29,1.3,4.62,2.53,6.91,3.84,3.81,2.18,7.6,4.4,11.39,6.62,3.41,2,6.8,4.03,10.22,6.02,1.99,1.16,4.02,2.26,6.01,3.42,3.8,2.2,7.58,4.43,11.39,6.62,3.52,2.03,7.06,4.03,10.59,6.03,3.34,1.89,6.69,3.77,10.03,5.67.67.38,1.26.9,1.93,1.28.46.27.52.66.52,1.11,0,.67,0,1.33,0,2,0,24.64,0,49.28,0,73.92,0,.67-.01,1.33,0,2,.01.63-.33,1.07-.8,1.36-1.97,1.2-3.95,2.37-5.95,3.52-3.91,2.24-7.84,4.43-11.74,6.68-3.23,1.87-6.41,3.82-9.64,5.69-3.51,2.04-7.08,3.99-10.58,6.04-4.92,2.89-9.93,5.63-14.81,8.61-3.74,2.29-7.64,4.31-11.47,6.47-1.24.7-2.46,1.45-3.68,2.19-.64.39-1.22.32-1.85-.06-3.69-2.17-7.43-4.26-11.1-6.46-6.59-3.96-13.38-7.58-19.94-11.59-3.74-2.29-7.66-4.29-11.47-6.48-3.43-1.97-6.81-4.02-10.23-6.01-2.18-1.27-4.39-2.49-6.58-3.75-2.76-1.58-5.53-3.16-8.27-4.77-.24-.14-.45-.51-.48-.78-.07-.88-.06-1.77-.06-2.66,0-12.32,0-24.64,0-36.96h0Zm8.1,2.87c0-9.09,0-18.19,0-27.28,0-.89,0-1.77-.03-2.66-.03-.79-.43-1.1-1.32-1.11-.92-.01-1.34.29-1.38,1.04-.03.77-.03,1.55-.03,2.33,0,19.18,0,38.37,0,57.55,0,.55.03,1.11,0,1.66-.06.86.29,1.51.97,1.98.54.37,1.11.71,1.67,1.04,2.26,1.34,4.52,2.69,6.8,4,3.42,1.97,6.86,3.89,10.28,5.87,3.42,1.98,6.81,3.98,10.21,5.99,3.96,2.34,7.9,4.72,11.88,7.05,3.5,2.04,7.07,3.98,10.54,6.07,1.01.61,2,.88,3.12.83.45-.02.94-.14,1.1-.58.19-.53.16-1.09-.29-1.54-.54-.56-1.14-.98-1.84-1.36-2.23-1.18-4.38-2.5-6.56-3.76-3.7-2.15-7.39-4.3-11.09-6.44-2.66-1.54-5.33-3.05-7.99-4.58-4.75-2.74-9.49-5.51-14.25-8.24-1.81-1.04-3.65-2.01-5.45-3.07-1.7-1-3.34-2.13-5.06-3.1-.87-.49-1.37-1.05-1.28-2.08.05-.55,0-1.11,0-1.66,0-9.31,0-18.63,0-27.94Z"/>
  <path class="cls-2" d="m588.12,83.06c0,12.43,0,24.86,0,37.29,0,.67-.02,1.33,0,2,.02.63-.33,1.05-.82,1.34-1.32.79-2.66,1.54-3.99,2.3-4.1,2.33-8.22,4.65-12.25,7.12-3.27,2.01-6.72,3.72-10.02,5.69-6.6,3.94-13.38,7.56-19.94,11.59-3.74,2.3-7.65,4.3-11.47,6.47-2.86,1.63-5.69,3.32-8.53,4.99-.66.39-1.34,1.17-1.96,1.12-.91-.07-1.83-.64-2.66-1.13-3.23-1.87-6.4-3.84-9.69-5.61-2.32-1.25-4.55-2.66-6.82-3.99-3.79-2.22-7.58-4.44-11.38-6.63-3.42-1.97-6.89-3.87-10.31-5.84-4.94-2.86-9.86-5.76-14.8-8.62-2.28-1.32-4.61-2.55-6.89-3.87-2.18-1.27-4.32-2.63-6.5-3.91-.45-.26-.62-.58-.62-1.04,0-.67,0-1.33,0-2,0-24.75.03-49.49-.05-74.24,0-2.19.79-3.33,2.63-4.39,6.57-3.77,13.21-7.41,19.68-11.37,3.74-2.29,7.66-4.29,11.47-6.47,3.43-1.97,6.81-4.02,10.22-6.01,1.99-1.16,4.01-2.27,6.01-3.42,3.8-2.2,7.59-4.43,11.39-6.62,2.38-1.37,4.8-2.66,7.17-4.03.78-.45,1.39-.34,2.14.11,3.48,2.09,6.99,4.15,10.5,6.18,3.42,1.98,6.86,3.92,10.28,5.89,2.19,1.26,4.37,2.54,6.55,3.81,3.79,2.21,7.58,4.44,11.38,6.63,2.19,1.26,4.41,2.45,6.6,3.71,3.52,2.03,7.01,4.1,10.53,6.13,2.28,1.32,4.59,2.59,6.88,3.88.38.22.77.42,1.15.65,1.31.79,2.62,1.59,3.92,2.39.06,1.54.17,3.08.17,4.62.01,11.76,0,23.53,0,35.29Zm-6.09-4.68c0-6.88,0-13.76,0-20.64,0-3.11-.07-6.22.03-9.32.04-1.29-.5-2.13-1.46-2.78-1-.67-2.05-1.27-3.1-1.87-2-1.15-4.02-2.26-6.01-3.42-3.32-1.93-6.61-3.91-9.93-5.84-3.51-2.03-7.06-3.99-10.57-6.04-3.51-2.04-6.99-4.14-10.47-6.22-3.86-2.3-7.88-4.33-11.59-6.88-.68-.47-1.38-.65-2.17-.67-1.1-.03-1.54.54-1.39,1.7.1.76.58,1.21,1.14,1.54,1.98,1.16,4,2.25,6,3.37,2.39,1.34,4.83,2.61,7.14,4.06,4.28,2.69,8.76,5.02,13.09,7.61,3.48,2.08,7.04,4.05,10.55,6.08,3.8,2.2,7.59,4.41,11.38,6.62,1.14.66,2.27,1.33,3.39,2.03.48.31.76.78.73,1.4-.03.66,0,1.33,0,2,0,10.54,0,21.08,0,31.62,0,8.1,0,16.2,0,24.3,0,.78,0,1.55.06,2.33.04.51.86,1.17,1.42,1.22.68.07,1.66-.61,1.71-1.27.06-.77.04-1.55.04-2.33,0-9.54,0-19.08,0-28.63Z"/>
  <path class="cls-1" d="m445.61,177.9c10.54,0,21.09,0,31.63,0,.89,0,1.78,0,2.66.02.49,0,.85.21.87.76.02.55.03,1.11.03,1.66,0,2.11.09,4.22-.02,6.32-.12,2.17.51,4.38-.36,6.51-2.1.04-4.19.1-6.29.12-2.11.02-4.22,0-6.33,0-2.89,0-5.77-.02-8.66.01-1.69.02-2.43.76-3.09,2.41-.51,1.28-.55,2.56-.55,3.88,0,13.97,0,27.94,0,41.92,0,3.38.3,2.95-3.06,2.96-5.33.02-10.65,0-15.98,0-.75,0-1.05-.26-1.07-.93-.03-.89-.02-1.77-.02-2.66,0-13.75,0-27.5,0-41.25,0-1.2.13-2.39-.5-3.56-.29-.54-.18-1.34-.78-1.75-.81-.55-1.65-1.09-2.71-1.04-.66.03-1.33,0-2,0-5.44,0-10.88,0-16.31,0-.78,0-1.55,0-2.33-.04-.35-.02-.6-.27-.63-.63-.04-.55-.04-1.11-.04-1.66,0-3.55,0-7.1,0-10.65,0-2.57-.25-2.42,2.59-2.42,4.88,0,9.77,0,14.65,0,6.1,0,12.21,0,18.31,0Z"/>
  <path class="cls-1" d="m332.7,210.51c0,2.77,0,5.55,0,8.32,0,1.32-.06,2.61-.52,3.9-.4,1.11-.68,2.3-.97,3.45-.36,1.44-.99,2.86-1.85,4.17-1.95,2.98-4.37,5.49-7.16,7.65-.77.59-1.71.97-2.59,1.4-3.04,1.51-6.14,2.85-9.59,3.1-1,.07-1.79.81-2.86.72-.97-.08-1.95-.03-2.91.46-.54.27-1.31.1-1.97.11-3.44,0-6.89.15-10.33-.05-2.82-.17-5.68-.39-8.41-1.27-.94-.3-1.86-.67-2.88-.63-.22,0-.47.03-.66-.06-3.93-1.69-7.88-3.27-10.97-6.48-2.25-2.34-3.98-4.95-5.5-7.77-.65-1.2-.76-2.52-1.12-3.77-.54-1.88-.97-3.8-.93-5.82.09-4.55.03-9.1.03-13.65,0-5.4,1.36-10.35,4.47-14.85,2-2.89,4.52-5.13,7.51-6.83,2.57-1.46,6.45-3.14,11.02-4.03,6.33-1.23,7.64-1.44,13.4-1.33.67.01,1.33.04,2,.04,4.92.04,5.94.17,11.66,1.71,5.4,1.45,8.21,2.84,11.06,4.83,3.04,2.12,5.54,4.76,7.37,7.95,1.08,1.89,1.49,4.08,2.14,6.15.6,1.94.58,3.91.58,5.89,0,2.22,0,4.44,0,6.66h0Zm-49.83-.33c0,2.66.06,5.32-.02,7.98-.06,2.16.64,4.16,1.5,5.99.7,1.5,1.68,3.12,3.54,3.69.21.06.44.12.6.26,1.56,1.42,3.49,1.78,5.49,1.82,2.22.04,4.44-.04,6.65,0,1.25.03,2.36-.51,3.51-.79.81-.2,1.45-.97,2.25-1.31,2.33-1.01,3.15-3.21,4.28-5.19-.02-1.66.77-3.16.73-4.87-.12-4.87-.04-9.75-.04-14.63,0-.55,0-1.11-.03-1.66-.21-2.74-1.62-4.94-3.17-7.08-2.28-1.52-4.52-3.14-7.43-3.18-2.22-.04-4.43-.01-6.65-.02-1.22,0-2.37.33-3.53.66-1.85.54-3.21,1.83-4.76,2.83-1.72,2.46-3.06,5.03-2.93,8.18.1,2.43.02,4.87.02,7.31Z"/>
  <path class="cls-1" d="m374.73,84.73c.66,0,1.33-.02,1.99,0,.96.04,1.56-.06,1.82-1.43.17-.92.38-1.33,1.37-1.37,1.27-.05,1.27-.14,1.47-1.53.14-.97.27-1.11,1.21-1.12,1.11,0,2.21,0,3.32.02.5,0,.83.26.83.79.02,2.1.02,4.21.04,6.31,0,.7.28.98,1.01.98,2.22.02,4.43,0,6.65.03.75,0,.95.21,1.01.97.03.44.02.88.03,1.33.02.71.44.94,1.08.93.22,0,.45,0,.66.02.74.11.89.3.91,1.07.04,1.38,0,1.43-1.36,1.64-.22.03-.44.02-.66.07-.35.08-.54.29-.62.66-.13.62.25,1.52-.47,1.79-.68.26-1.52.11-2.29.14,0-.55.03-1.1,0-1.65-.05-.76-.22-.93-.99-1-.44-.03-.88,0-1.32-.03-.7-.06-.85-.24-.92-1.06-.03-.33.02-.66-.02-.99-.09-1.02-.35-1.22-1.51-1.19-.95.02-1.18.23-1.21,1.13-.01.33-.01.66,0,.99.03,1.11.22,1.42,1.56,1.66.83.15,1.14.46,1.12,1.25-.02.68.38.98,1.02.96.77-.02,1.53-.07,2.3-.1-.08.98-.16,1.96-.24,2.94-1,.7-2.14.24-3.21.34-.55.05-1.11,0-1.66-.01-.53-.01-.78-.31-.8-.82-.02-.55-.04-1.11-.07-1.66-.03-.56-.41-.72-.89-.75-.11,0-.22,0-.33-.02q-1.32-.16-1.52-1.49c-.15-1-.29-1.14-1.2-1.17-.33-.01-.67-.01-1,0-.68.03-.9.24-.99,1.03-.03.22,0,.45-.02.66-.12.8-.25.91-1.03.96-1.52.08-1.67-.05-1.68-1.63-.01-1.99,0-3.99-.01-5.98,0-.74-.24-.99-.95-1.04-.44-.03-.89,0-1.33-.03-.77-.06-.94-.24-.99-1.02-.04-.55-.03-1.11-.04-1.66l-.07.07Zm7.95-.05c-.27,0-.38,0-.49,0-1.18.03-1.38.34-1.35,1.66.02.8.51,1.18,1.08,1.48.44.23,1.46-.11,1.8-.5.58-.67.32-1.45.25-2.18-.01-.14-.29-.33-.48-.38-.31-.08-.65-.06-.82-.08Z"/>
  <path class="cls-1" d="m363.47,96.05c0-.11,0-.22-.02-.33-.05-.66.08-1.4-.18-1.95-.33-.68-1.19-.34-1.82-.43-.54-.07-.73-.39-.76-.87-.01-.22-.02-.44-.02-.66,0-1.06-.51-1.55-1.56-1.73-1.12-.19-1.11-.28-1.12-1.2,0-1.22,0-1.23,1.53-1.48.95-.16,1.52-1.28,1.09-2.21-.08-.18-.29-.35-.48-.41-.31-.09-.66-.06-.98-.11-.99-.14-1.12-.28-1.16-1.19-.05-1.15,0-1.23,1.13-1.53,1.24-.33,1.51-.63,1.54-1.73.02-.88.01-1.77,0-2.65-.02-1.38-.02-1.38-1.43-1.61-1.4-.23-1.68-.54-1.7-1.88-.02-.99.2-1.28,1.04-1.29,1.33-.01,2.66,0,3.98.02.55,0,.77.35.79.84.03.66.03,1.33.03,1.99,0,2.65,0,5.31,0,7.96,0,.88.26,1.11,1.2,1.13.89.02,1.77.03,2.66,0,1.63-.06,1.65.38,1.57,1.75-.03.48-.23.83-.79.85-.22,0-.44,0-.66.03-1.05.16-1.18.27-1.19,1.16-.01,1.99,0,3.98,0,5.97-.01,1.53-.03,1.53-1.77,1.54-.33,0-.66-.03-.99-.04l.07.07Z"/>
  <path class="cls-1" d="m372.06,101.98c.01.44.01.88.04,1.33.1,1.63.43,1.97,1.93,2,.55.01,1.11-.03,1.66.01.74.06,1.68-.35,2.15.4.31.49.15,1.27.22,1.91.07.63.39.89,1.12.91.44.01.88,0,1.33,0,.52,0,.83-.27.84-.79.03-1.99.03-3.98.04-5.97,0-.44-.04-.9.07-1.32.07-.27.24-.6.68-.59,1.33.03,2.65-.02,3.98.03.53.02.63.51.66.96.03.47-.1.86-.58,1.05-.1.04-.22,0-.33.02-.74.1-1.69-.31-2.14.44-.3.5-.18,1.27-.2,1.91-.03.88-.02,1.77,0,2.65.02.88.21,1.06,1.22,1.14.33.03.67-.01,1,.01.75.06,1.04.3,1.04.96,0,1.66-.03,3.32-.05,4.97,0,0,.07-.07.07-.07-.55,0-1.1,0-1.65-.02-.84-.04-1-.18-1.06-.92-.05-.55-.02-1.1-.07-1.65-.03-.35-.28-.61-.63-.62-.99-.04-1.98-.09-2.97-.04-.74.03-1.68-.38-2.15.36-.31.48-.17,1.26-.23,1.91-.07.76-.26.95-1.02.97-.44.01-.88,0-1.32-.02-.5-.03-.8-.28-.82-.81-.02-.55-.03-1.1-.06-1.65-.03-.55-.41-.66-.87-.77-1.13-.27-1.13-.29-1.28-1.38-.15-1.13-.2-1.2-1.08-1.26-.44-.03-.88-.01-1.32-.03-.49-.02-.84-.21-.86-.76-.02-.55-.02-1.1-.06-1.65-.03-.5-.3-.79-.82-.81-.22,0-.44,0-.66-.03-.99-.13-1.14-.29-1.15-1.18-.02-1.35.14-1.53,1.45-1.54,1.32-.01,2.64,0,3.97,0l-.07-.07Z"/>
  <path class="cls-1" d="m368.83,71.86c0,2,0,3.99,0,5.99,0,.62-.39.91-1.09.89-.76-.02-1-.23-1.01-.97-.02-1.89-.01-3.77-.02-5.66,0-.44-.01-.89-.03-1.33-.02-.37-.25-.63-.59-.67-.66-.07-1.33-.07-1.99-.07-3.55,0-7.11,0-10.66,0-1.19,0-1.33-.17-1.34-1.33,0-1.2.14-1.31,1.28-1.41,1.3-.11,1.36-.22,1.37-1.31.02-2.11,0-4.22.01-6.33,0-.97.42-1.39,1.38-1.54.85-.13,1.32.2,1.33,1.01.02,1.66,0,3.33,0,4.99,0,.78,0,1.55.03,2.33.02.5.27.83.8.84,1.44.01,2.89.01,4.33,0,.56,0,.72-.4.77-.87.04-.33.03-.66.06-1,.04-.55.41-.73.89-.73,1.22,0,2.44,0,3.66,0,.54,0,.78.34.79.84.02,1,.02,2,.03,3,0,1.11,0,2.22,0,3.33h-.02Z"/>
  <path class="cls-1" d="m401.47,122.62c-.56,0-1.11.03-1.67.02-.83-.03-1.05-.2-1.1-.89-.04-.44,0-.89-.04-1.33-.06-.77-.28-1.01-.98-1.03-.89-.02-1.78-.02-2.66-.01-2.48.02-2.24.03-2.26-2.42,0-.44,0-.89,0-1.33.03-1.56.18-1.7,1.72-1.61.73.04.87.18.98,1.01.04.33,0,.67.06.99.1.53.54.67.99.64.73-.06,1.59.33,2.1-.54.1-.17.03-.44.06-.66q.17-1.28,1.57-1.45c1.08-.13,1.17-.21,1.23-1.12.02-.33-.01-.67.01-1,.07-.95.26-1.12,1.21-1.13,1.07-.01,1.26.13,1.35.99.01.11,0,.22,0,.33q.15,1.79,1.77,1.92c.22.02.44,0,.66.03.66.07.81.3.82,1.16.01,1.21-.08,1.32-1.26,1.41-.33.02-.67.02-1,.01-.68,0-.99.35-.99,1.01,0,.11,0,.22,0,.33q-.15,1.24-1.27,1.42c-1.32.21-1.34.21-1.38,1.32-.02.66,0,1.33,0,2l.07-.07Z"/>
  <path class="cls-1" d="m398.21,106.61c-.3,1.34.36,2.69-.42,3.92-1.2.06-2.4.21-3.6.15-1.51-.08-3.07.41-4.52-.34-.06-1.42-.2-2.84-.14-4.26.05-1.29-.41-2.63.32-3.86,1.2-.05,2.41-.2,3.61-.14,1.51.08,3.06-.39,4.53.33.08,1.42.15,2.85.23,4.21Zm-4.03,1.46v.02c.22,0,.44.01.66,0,.89-.05,1.15-.32,1.16-1.2,0-.22.02-.44,0-.66-.11-1.08-.69-1.48-2.11-1.46-.96.01-1.15.25-1.18,1.5,0,.33,0,.66.02.99.02.52.3.79.81.81.22.01.44,0,.66,0Z"/>
  <path class="cls-1" d="m350.47,72.79c.77,0,1.54.01,2.32,0,1.82-.03,1.93.07,1.92,1.75,0,1.34.07,1.34,1.48,1.5,1.26.15,1.27.15,1.29,1.36.01.77,0,1.54,0,2.31,0,.33,0,.66-.03.99-.03.36-.27.65-.59.66-1.32.04-2.64.03-3.97.02-.55,0-.74-.36-.77-.85,0-.11,0-.22-.02-.33q-.18-1.29-1.55-1.46c-1.1-.14-1.16-.18-1.26-1.08-.21-1.92-.22-1.91-2.09-2.16-.31-.04-.64-.11-.89-.27-.38-.24-.39-1.84-.04-2.15.15-.13.37-.26.56-.27,1.21-.02,2.43-.01,3.64-.01v-.02Z"/>
  <path class="cls-1" d="m374.8,84.66c-.33,0-.66.03-.99.01-.86-.05-1.08-.22-1.13-.85-.03-.44,0-.88-.03-1.32-.05-.81-.22-1-.93-1.06-.55-.04-1.11,0-1.65-.06-.52-.06-.66-.46-.68-.94-.02-.71.21-1.07.83-1.14.33-.04.67,0,.99-.04.92-.13,1.3-.53,1.45-1.47.05-.32.05-.66.04-.99-.02-.41.3-.72.55-.7,1.38.11,1.74-.58,1.61-1.79-.06-.55-.03-1.1-.04-1.65l-.07.07c1.13,0,2.27,0,3.4,0l-.07-.07c0,.77-.03,1.54-.02,2.31.02.75.21.95.94,1.04.33.04.66,0,.99.05.66.08.86.34.88,1.09,0,.22,0,.44-.01.66-.01.49-.2.8-.73.9-.63.11-1.43-.25-1.85.37-.27.41-.2,1.04-.26,1.58-.04.36-.24.63-.58.67-.65.08-1.32.06-1.98.13-.34.03-.61.26-.63.63-.05.88-.07,1.76-.1,2.64,0,0,.07-.07.07-.07Z"/>
  <path class="cls-1" d="m382.29,55.37c-1.11,0-2.22,0-3.33,0-.51,0-.8-.28-.81-.81,0-.33,0-.67-.04-1-.09-.73-.28-.89-1.05-.94-.44-.03-.89-.01-1.33-.03-.5-.02-.84-.26-.85-.79-.02-1-.02-1.99-.03-2.99-.01-2.1-.08-2.09,2.3-2.01.47.02.85.19.87.76.01.55.03,1.11.07,1.66.04.52.36.76.88.76,1,0,2,0,3,.02,1.37.02,1.37.02,1.56,1.45.15,1.1.18,1.14,1.15,1.21.44.03.89.02,1.33.04.55.02.76.36.78.85.01.33.01.66,0,1-.02.5-.26.82-.8.83-.11,0-.22.02-.33.02-1.11,0-2.22,0-3.33,0,0,0,0-.02,0-.03Z"/>
  <path class="cls-1" d="m344.56,76.05c.35,0,.74.12.86.64.02.11.02.22.03.33.07.64-.03,1.39.27,1.91.37.65,1.21.28,1.84.34.97.1,1.23.34,1.18,1.16-.05.72-.23.91-1.02.97-.22.02-.44,0-.66.01-1.48.11-1.51.11-1.59,1.76-.07,1.31-.06,1.31-1.51,1.5-1,.13-.99.14-1.14,1.21-.19,1.34-.19,1.37-1.56,1.44-1.54.08-1.54.06-1.7,1.68-.09.91-.4,1.16-1.24,1.09-.5-.04-.84-.27-.85-.78-.03-.88-.03-1.77-.02-2.65.01-1.64.01-1.67,1.74-1.94.69-.11.91-.47.91-1.1,0-.53-.17-1.19.38-1.51.34-.2.85-.1,1.29-.16,1.19-.17,1.59-.56,1.61-1.65.03-1.11,0-2.21.02-3.32.01-.67.34-.94,1.17-.93Z"/>
  <path class="cls-1" d="m374.76,59.83c-.11,5.28.86,4.15-4.35,4.26-.85.02-1.01-.23-1.04-1.27-.03-1.16.1-1.3,1.23-1.42.22-.02.44,0,.66-.02.76-.1.92-.34.93-1.4.01-1.55-.07-1.76-.78-1.87-.33-.05-.66-.03-.99-.04-.11,0-.22-.02-.33-.03-.37-.03-.65-.26-.66-.59-.04-1.32-.03-2.65-.03-3.97,0-.55.36-.75.85-.77.33-.01.66-.01.99,0,.5.03.81.26.82.8.01.44,0,.89.08,1.32.06.32.26.57.66.6.54.04,1.17-.01,1.58.25.65.41.33,1.2.37,1.84.04.77,0,1.55,0,2.32Z"/>
  <path class="cls-1" d="m354.73,87.32c-.02.66-.04,1.32-.06,1.97-.02.54-.38.73-.85.79-.22.03-.44,0-.66.04-.99.12-1.06.22-1.13,1.21-.03.44,0,.88-.04,1.32-.03.35-.25.63-.6.64-1.54.04-3.07.05-4.61.04-.52,0-.72-.38-.74-.87,0-.22-.02-.44-.01-.66.02-.89.17-1.04,1.16-1.16,1.61-.19,1.62-.19,1.65-1.68.01-.55-.02-1.1-.03-1.65l-.07.07c2.02,0,4.05,0,6.07,0,0,0-.07-.07-.07-.07Z"/>
  <path class="cls-1" d="m372.13,102.05c.02-.55.08-1.1.06-1.65-.02-.78-.21-.99-.9-1.08-.33-.04-.66,0-.99-.05-.69-.09-.91-.34-.92-1.06,0-.44,0-.88.05-1.32.06-.5.36-.77.88-.76,1.21,0,2.43,0,3.64,0,.56,0,.73.39.79.85.04.33,0,.67.05.99.16.97.48,1.27,1.5,1.41.22.03.44,0,.66.02.94.11,1.08.27,1.09,1.23,0,1.04-.17,1.29-1.01,1.3-1.65.03-3.31.03-4.96.05l.07.07Z"/>
  <path class="cls-1" d="m378.13,72.74c0-1.43-.01-2.87,0-4.3,0-.89.23-1.1,1.21-1.12,1.1-.01,2.21,0,3.31.02.51,0,.82.28.82.8,0,2.21.02,4.41-.02,6.62,0,.49-.39.71-.89.74-.72.04-1.07-.17-1.15-.81-.06-.44-.03-.88-.09-1.32-.04-.35-.27-.61-.63-.63-.88-.05-1.76-.06-2.65-.08l.07.07Z"/>
  <path class="cls-1" d="m361.82,113.94c-.78,0-1.55-.02-2.33,0-1.26.03-1.61-.21-1.47-1.87.04-.5.28-.82.82-.83.89-.01,1.77,0,2.66-.03.54-.02,1.14.01,1.58-.22.55-.29.3-.99.39-1.52.12-.71.35-.92,1.08-.93,1.11-.01,2.22-.01,3.33.01.78.02,1.02.43.96,1.36-.03.41-.27.59-.56.72-.19.09-.44.03-.66.06q-1.33.19-1.43,1.59c-.02.33-.04.66-.06.99-.03.39-.32.62-.63.63-1.22.04-2.44.02-3.66.02v.02Z"/>
  <path class="cls-1" d="m398.12,84.83c0,.55.02,1.1,0,1.64-.02.48-.22.81-.77.85-.78.06-1.19-.11-1.29-.63-.06-.32-.06-.65-.07-.98-.02-.82-.27-.99-.98-1.01-1.42-.05-2.85-.02-4.28-.05-.34,0-.64-.2-.69-.55-.09-.63-.27-1.3.19-1.86.12-.14.37-.24.57-.24,2.19-.02,4.39-.02,6.58,0,.54,0,.73.39.74.87.01.66,0,1.31,0,1.97,0,0,0,0,0,0Z"/>
  <path class="cls-1" d="m369.37,90.36c0-.55-.01-1.1,0-1.64.01-.42-.08-1.02.4-1.14.6-.15,1.27-.08,1.91-.04.13,0,.28.3.35.49.07.2.08.43.06.65-.11,1.4.56,2.04,1.93,2,.4-.01.66.26.69.55.05.63.27,1.31-.2,1.87-.12.14-.37.22-.57.23-.55.04-1.1.04-1.64.03-3.36-.02-2.87.35-2.92-3.01Z"/>
  <path class="cls-1" d="m363.47,99.3c-1.09,0-2.17-.02-3.26,0-2.27.04-2.33,0-2.15-2.4.03-.47.33-.77.85-.77,1.52-.02,3.04-.05,4.56-.07,0,0-.07-.07-.07-.07v3.39s.07-.07.07-.07Z"/>
  <path class="cls-1" d="m404.05,105.15c0,.55,0,1.09,0,1.64-.02,1.12-.39,1.38-1.72,1.22-.47-.06-.83-.25-.84-.78-.01-1.31-.03-2.62-.01-3.93.01-1.13.36-1.35,1.72-1.22.49.05.82.25.82.79,0,.76,0,1.53,0,2.29,0,0,.02,0,.02,0Z"/>
  <path class="cls-1" d="m357.48,93.09c0,.44,0,.88,0,1.32.03,1.64-.2,1.7-2.02,1.59-.38-.02-.65-.27-.66-.59-.04-1.32-.03-2.64-.03-3.96,0-.55.36-.74.84-.78.22-.02.44-.03.66-.02.93.01,1.17.24,1.2,1.12,0,.11,0,.22,0,.33,0,.33,0,.66,0,.99Z"/>
  <path class="cls-1" d="m374.8,72.67c-.33,0-.65.03-.98,0-.93-.06-1.15-.28-1.17-1.14-.01-1.09,0-2.17.01-3.26.01-.69.27-.92.99-.96.67-.03,1.08.27,1.08.86,0,1.52-.01,3.04-.02,4.56l.07-.07Z"/>
  <path class="cls-1" d="m391.33,76.04c.36.06.83-.1,1.16.3.27.33.28,1.71,0,2.17-.26.44-1.15.78-1.73.67-.64-.12-1.18-.67-1.25-1.29-.02-.22-.01-.44,0-.65.02-.92.24-1.16,1.11-1.2.22,0,.44,0,.71,0Z"/>
  <path class="cls-1" d="m348.81,84.73c.01-.55,0-1.1.03-1.65.05-.9.26-1.09,1.22-1.13.22,0,.44,0,.66,0,1.11.02,1.3.22,1.3,1.37,0,1.16-.16,1.32-1.31,1.36-.33,0-.66,0-.99,0-.33,0-.66,0-.99,0l.07.07Z"/>
  <path class="cls-1" d="m363.39,101.98c-.01.66-.02,1.32-.04,1.98-.02.55-.38.74-.86.78-.33.02-.66.01-.99,0-.52-.02-.78-.31-.81-.82-.11-1.78.12-1.96,1.77-1.87.33.02.66,0,.99,0l-.07-.07Z"/>
  <path class="cls-1" d="m370.82,46.78c.47.04,1.12-.09,1.21.66.08.62.27,1.32-.26,1.84-.36.35-1.83.3-2.12-.07-.18-.23-.26-.58-.27-.88-.04-1.39.13-1.57,1.43-1.55Z"/>
  <path class="cls-1" d="m347.31,70.04c-1.16-.02-1.34-.27-1.28-1.68.02-.46.1-.92.62-.98.62-.07,1.35-.3,1.85.24.49.53.31,1.26.17,1.87-.15.68-.83.53-1.36.55Z"/>
  <path class="cls-1" d="m354.8,87.4c-.02-.54-.06-1.08-.05-1.62.02-.73.25-.98.92-1.02.32-.02.65,0,.97,0,.52,0,.77.28.81.78.1,1.43,0,1.9-1.42,1.81-.43-.03-.86-.02-1.3-.02,0,0,.07.07.07.07Z"/>
  <path class="cls-1" d="m348.8,87.32c-.43,0-.87,0-1.3.02-1.45.09-1.55-.4-1.45-1.8.04-.49.28-.79.8-.79.65,0,1.3-.01,1.95-.02l-.07-.07c0,.91,0,1.82,0,2.74,0,0,.07-.07.07-.07Z"/>
  <path class="cls-1" d="m363.46,102.05c0-.92,0-1.83,0-2.75l-.07.07c.43,0,.86.04,1.28.01,1.41-.1,1.6.41,1.45,1.76-.05.47-.29.77-.81.78-.64.01-1.28.03-1.93.05l.07.07Z"/>
  <path class="cls-1" d="m401.48,79.79c.07-.84.46-1.06,1.71-.94.74.07.96.53.84,1.79-.06.64-.45.84-1.51.79-.86-.04-1.13-.47-1.03-1.63Z"/>
  <path class="cls-1" d="m386.72,114.04c.66,0,1.33,0,1.99.01.57.02.69.44.72.9.01.22.02.44,0,.66-.04.77-.54,1.13-1.34,1-.61-.1-1.04-.46-1.18-1.01-.14-.52-.09-1.09-.12-1.64l-.07.07Z"/>
  <path class="cls-1" d="m343.38,88.33c.04-.64.26-.87.97-.92.7-.05,1.03.21,1.09.87.02.22.02.44.02.66-.01.91-.31,1.22-1.13,1.17-.7-.05-.9-.26-.94-1.02-.01-.22,0-.44,0-.74Z"/>
  <path class="cls-1" d="m366.7,59.44c.02-.21-.02-.58.12-.87.21-.45.68-.46,1.13-.46.38,0,.7.18.78.47.12.41.1.88.09,1.32-.02.66-.36.94-1.05.94-.68,0-.99-.28-1.04-.95,0-.11-.01-.22-.02-.45Z"/>
  <path class="cls-1" d="m364.88,52.16c-.18-.01-.51,0-.82-.06-.35-.06-.56-.31-.58-.65-.02-.41-.22-.91.23-1.19.67-.44,1.42-.38,2.11-.06.47.22.35.73.32,1.15-.04.57-.38.8-1.26.82Z"/>
  <path class="cls-1" d="m402.42,58.12c-1.89,0-3.77.01-5.66,0-.97,0-1.24-.26-1.25-1.12,0-3.99,0-7.99,0-11.98,0-.69.32-1.01,1.01-1.01,4.22,0,8.44,0,12.65.02.65,0,.89.31.9,1.09.01,1.77.08,3.55-.01,5.32-.13,2.51.44,5.05-.35,7.53-2.43.07-4.86.15-7.29.22,0-.02,0-.05,0-.07Zm.34-2.58s0-.06,0-.08c.44,0,.89,0,1.33,0,3.85-.04,3.32.48,3.28-3.36-.02-1.73.45-3.51-.31-5.2-1.63-.39-3.29-.14-4.94-.17-1.21-.02-2.41.09-3.62.15-.75,1.23-.34,2.58-.33,3.86,0,1.51-.4,3.07.31,4.54,1.42.09,2.85.18,4.27.27Z"/>
  <path class="cls-1" d="m338.58,58.09c-2.11,0-4.22,0-6.33,0-.51,0-.82-.28-.82-.81,0-4.11-.01-8.21,0-12.32,0-.67.3-.95,1.04-.95,4.11,0,8.22-.01,12.33,0,.92,0,1.19.29,1.2,1.17,0,3.88,0,7.77,0,11.65,0,1.06-.24,1.28-1.42,1.29-2,.02-4,0-6,0,0,0,0-.02,0-.03Zm.26-11.36s0-.02,0-.03c-.11,0-.22,0-.33,0-1.4.14-2.85-.32-4.21.33-.42,1.29-.14,2.62-.19,3.93-.05,1.22,0,2.44.02,3.66,0,.54.33.79.83.8,1.89.02,3.77.03,5.66.03,2.94,0,2.78.25,2.76-2.6,0-1.77-.01-3.55-.03-5.32,0-.56-.38-.78-.85-.79-1.22-.03-2.44,0-3.66,0Z"/>
  <path class="cls-1" d="m346,115.5c0,2,0,3.99,0,5.99,0,.9-.24,1.13-1.21,1.13-4.11,0-8.21,0-12.32,0-.74,0-1.04-.27-1.04-.96-.01-4.21-.01-8.42,0-12.64,0-.7.29-.96,1.04-.96,4.11-.01,8.21-.02,12.32,0,.98,0,1.21.23,1.22,1.13.01,2.11,0,4.21,0,6.32h0Zm-7.44,4.42s0-.02,0-.03c1.33,0,2.66,0,3.99,0,.54,0,.8-.34.8-.83.01-2.54,0-5.09,0-7.63,0-.37-.26-.58-.6-.66-.21-.05-.44-.06-.66-.06-2.53.05-5.07.1-7.6.15-.83,2.58-.19,5.23-.36,7.84-.06.98.21,1.2,1.12,1.22,1.11.02,2.22,0,3.32,0Z"/>
  <path class="cls-1" d="m173.11,202.52c-3.66,0-7.33-.04-10.99.02-1.22.02-2.1-.4-2.93-1.23-.64-.64-1.09-1.4-1.46-2.19-1.06-2.26-2.99-3.46-5.21-4.3-.5-.19-1.08-.23-1.62-.24-1.66-.03-3.34.07-4.99-.04-3.47-.23-7.13,2.63-8.23,6.43-.15.52-.16,1.09-.16,1.64-.01,5.33-.09,10.65.03,15.98.06,2.94,1.45,5.24,4.11,6.69,1.47.8,3.01,1.32,4.7,1.32,1.22,0,2.44,0,3.66,0,3.53,0,6.09-1.62,7.78-4.68.21-.38.35-.82.62-1.16,1.04-1.36,2.2-2.24,4.16-2.21,6.88.13,13.77.05,20.65.05.44,0,.89,0,1.33.03.74.07,1.55.76,1.58,1.46.1,2.2.06,4.35-.57,6.53-.85,2.94-2.41,5.42-4.3,7.68-2.13,2.54-4.5,4.88-7.51,6.44-.58.3-1.07.83-1.67,1.05-1.64.59-3.07,1.68-4.8,2.05-.32.07-.64.14-.95.25-1.54.54-3.05,1.26-4.64,1.59-1.5.32-3.12.08-4.64.36-5.39.99-10.81.45-16.21.53-1.8.03-3.52-.37-5.19-.8-2.74-.7-5.52-1.25-8.15-2.45-1.8-.82-3.54-1.69-5.23-2.72-4.07-2.48-7.03-5.98-9.38-10.02-1.32-2.27-1.98-4.84-2.67-7.37-.4-1.48-.68-2.98-.67-4.54.04-5.21,0-10.43.02-15.65.01-3.33.94-6.47,2.06-9.57,1.33-3.68,3.39-6.94,6.3-9.53,2.87-2.55,5.93-4.82,9.66-6.16,2.49-.89,4.92-1.84,7.58-2.01,7.05-1.93,14.25-1.2,21.41-1.14,3.22.61,6.43,1.23,9.56,2.24,3.26,1.05,6.33,2.46,9.16,4.37.64.43,1.27.88,1.84,1.39.98.9,1.89,1.88,2.87,2.78,2.93,2.69,4.62,6.11,5.81,9.82.62,1.93.45,3.94.32,5.92-.03.53-.82,1.27-1.35,1.32-.55.05-1.11.04-1.66.04-3.33,0-6.66,0-9.99,0Zm-.64-3.31h0c2.89.01,5.78.01,8.66,0,.55,0,1.12.02,1.66-.06.33-.05.57-.34.47-.72-.11-.42-.34-.81-.45-1.23-.98-3.92-2.73-7.4-5.82-10.11-.5-.44-.99-.9-1.43-1.4-1.49-1.71-3.66-2.42-5.42-3.73-1.46-.19-2.59-1.18-3.94-1.61-1.45-.46-2.98-.7-4.37-1.29-.86-.36-1.71-.52-2.57-.49-1.25.04-2.43-.2-3.51-.76-.73-.38-1.47-.41-2.24-.42-3.11-.02-6.22-.05-9.33-.06-1.66,0-3.3.07-4.82.89-.37.2-.85.32-1.26.28-2.73-.27-5.07,1.28-7.68,1.59-3.86,1.66-7.57,3.61-10.58,6.58-1.38,1.37-2.71,2.87-3.52,4.69-.93,2.08-2.49,3.95-2.29,6.44.02.2-.14.41-.21.61-.7,2.21-1.06,4.45-1.01,6.79.08,3.88.02,7.77.03,11.65,0,1.21-.18,2.45.54,3.54-.23,1.27.74,2.3.7,3.53-.04,1.15.44,2.13.89,3.14,1.49,3.38,3.7,6.19,6.48,8.6,2.85,2.47,5.79,4.24,9.63,5.47.83.27,1.66.54,2.51.73,1.17.26,2.3.86,3.54.67,1.27-.2,2.26.78,3.53.73.95-.04,1.87.54,2.9.51,2.66-.06,5.33,0,8-.02.66,0,1.31-.22,1.93-.28,1.86-.19,3.61-1.01,5.49-.91,1.37.07,2.59-.48,3.86-.76,1.27-.28,2.49-.79,3.71-1.26,1.42-.55,2.91-1.02,4.21-1.81,2.35-1.43,4.55-3.04,6.55-4.99,2.54-2.46,4.35-5.31,5.14-8.66.91-3.88,1.61-3.15-2.05-3.19-5.11-.06-10.22-.01-15.33-.01-.56,0-1.11.04-1.67,0-1.39-.11-2.35.38-2.79,1.77-.1.31-.33.57-.5.85-.78,1.23-1.73,2.34-2.93,3.13-1.17.76-2.23,1.9-3.85,1.66-2.21,1.05-4.58.45-6.87.62-1.46.11-2.83-.33-4.2-.72-4.31-1.24-8.3-6.04-8.13-10.84.18-5.21.1-10.43.01-15.65-.04-2.43.72-4.52,2.08-6.43,2.11-2.94,5.12-4.51,8.62-4.95,2.19-.27,4.45-.24,6.65,0,2.64.28,5.2,1.01,6.98,3.24.96,1.21,1.97,2.39,2.81,3.68.41.63.77.97,1.53.96,3.22-.02,6.44-.01,9.66-.01Z"/>
  <path class="cls-1" d="m87.5,214.4c0,9.09,0,18.19,0,27.28,0,.78.05,1.56-.01,2.33-.06.76.25,1.31.84,1.68,1.02.65,2.07,1.25,3.11,1.85,4.75,2.76,9.49,5.51,14.24,8.26,2.37,1.37,4.76,2.73,7.13,4.11,4.46,2.59,8.92,5.18,13.37,7.77,3.51,2.04,7.02,4.09,10.53,6.13,1.32.77,2.67,1.51,3.96,2.35.96.63.96,1.77.13,2.53-.46.43-.99.49-1.54.33-.41-.13-.8-.37-1.17-.61-2.2-1.45-4.52-2.69-6.77-4.04-2.35-1.41-4.78-2.69-7.11-4.13-5.98-3.68-12.18-6.96-18.14-10.68-2.32-1.45-4.78-2.67-7.17-4.02-1.34-.76-2.65-1.56-3.98-2.33-2.65-1.55-5.3-3.09-7.95-4.64-.47-.28-.93-.57-1.37-.9-.55-.42-.91-.95-.87-1.69.03-.55,0-1.11,0-1.66,0-19.41,0-38.82,0-58.22,0-.44,0-.89,0-1.33-.02-1.18.31-1.75,1.88-1.5.5.08.8.37.82.87.04,1,.06,1.99.06,2.99,0,9.09,0,18.19,0,27.28Z"/>
  <path class="cls-1" d="m628.79,210.27c0,10.54,0,21.08,0,31.62,0,.78.01,1.55,0,2.33-.03,1.1-.86,2.13-1.91,2.31-.43.08-.89.03-1.33.03-6.11,0-12.21-.01-18.32.02-.93,0-1.74-.11-2.39-.87-.44-.52-.82-1.02-.78-1.76.04-.77,0-1.55,0-2.33,0-7.88,0-15.75,0-23.63,0-.55-.07-1.09-.12-1.64,0-.07-.12-.19-.17-.18-.1.01-.22.07-.29.15-.99,1.18-1.99,2.35-2.94,3.56-3.28,4.15-6.55,8.29-9.79,12.46-2.56,3.3-5.06,6.65-7.59,9.98-.27.35-.58.67-.88,1q-2.84,3.24-7.06,3.24c-4.89,0-9.77.01-14.66,0-1.98,0-3.05-1.08-3.14-3.03-.03-.66,0-1.33,0-2,0-20.86,0-41.71,0-62.57,0-.67-.02-1.33,0-2,.08-1.94,1.17-3.06,3.13-3.07,6.44-.02,12.88,0,19.32-.01,1.01,0,1.67.48,2.26,1.18.36.43.58.92.55,1.51-.04.77,0,1.55,0,2.33,0,7.99,0,15.97,0,23.96,0,.88.04,1.77.07,2.65,0,.1.11.28.15.28.19-.01.44-.02.56-.14,1.59-1.55,2.72-3.46,4.01-5.24,2.66-3.64,5.35-7.26,8-10.92,2.45-3.38,4.87-6.79,7.3-10.18.83-1.16,1.62-2.35,2.51-3.47,1.01-1.27,2.33-1.97,4.01-1.97,5.55.02,11.1.01,16.65,0,.7,0,1.25.25,1.86.57.69.36.99.82.99,1.54,0,.89.02,1.77.02,2.66,0,10.54,0,21.08,0,31.62Zm-3.33.21c0-9.88,0-19.76,0-29.64,0-.89,0-1.78-.02-2.66-.02-.7-.27-.95-1.03-.95-3.33-.01-6.67-.02-10,0-1.89,0-3.77.06-5.66.1-1.5,1.32-2.47,3.06-3.66,4.63-3.58,4.72-7.06,9.51-10.45,14.37-2.38,3.42-4.91,6.73-7.38,10.09-.59.8-1.21,1.57-1.78,2.37-.72,1.02-1.72,1.29-2.89,1.28-1.98-.02-3.14-1.05-3.22-2.98-.04-.89-.02-1.78-.02-2.66,0-8.66,0-17.32,0-25.97,0-.93-.26-1.21-1.13-1.22-5.44,0-10.89,0-16.33,0-.84,0-1.07.29-1.09,1.25-.01.55,0,1.11,0,1.66,0,20.09,0,40.18,0,60.27,0,.55.03,1.11,0,1.66-.06.92.39,1.17,1.18,1.17,4.89,0,9.78-.02,14.66.02.85,0,1.5-.23,2.02-.89,1.58-1.98,3.2-3.93,4.76-5.93,1.48-1.9,2.86-3.88,4.35-5.77,2.26-2.85,4.61-5.63,6.86-8.48,2.04-2.59,4-5.24,6.03-7.84.34-.43.78-.79,1.21-1.13,1.13-.9,2.84-.82,3.97.11,1.01.83,1.45,1.92,1.52,3.18.04.77,0,1.55,0,2.33,0,7.77,0,15.54,0,23.31,0,.77.25,1.07.9,1.08,5.44,0,10.89,0,16.33,0,.5,0,.83-.24.84-.78,0-.44.02-.89.02-1.33,0-10.21,0-20.42,0-30.64Z"/>
  <path class="cls-1" d="m656.12,206.24c0,9.65,0,19.3,0,28.96,0,.77-.05,1.54-.12,2.31-.04.38-.85.94-1.25.95-.4,0-1.16-.56-1.25-.96-.07-.32-.13-.65-.14-.97-.02-.89,0-1.77,0-2.66,0-18.08,0-36.17,0-54.25,0-.89,0-1.77,0-2.66,0-.47-.19-.78-.63-1.04-1.7-1.02-3.32-2.16-5.04-3.15-5.03-2.91-10.1-5.75-15.14-8.65-3.32-1.92-6.6-3.92-9.92-5.84-3.42-1.98-6.87-3.88-10.29-5.85-3.7-2.14-7.39-4.3-11.07-6.49-.56-.33-1.03-.82-1.49-1.29-.5-.51-.32-1.26.3-1.72.61-.45,1.26-.36,1.91-.22.31.06.58.29.86.46,3.8,2.21,7.6,4.41,11.4,6.62,4.17,2.43,8.34,4.87,12.52,7.29,3.7,2.15,7.42,4.28,11.12,6.43,3.13,1.81,6.27,3.63,9.39,5.46,2.47,1.44,4.9,2.93,7.4,4.31,1,.55,1.51,1.22,1.45,2.35-.04.77,0,1.55,0,2.33,0,9.43,0,18.86,0,28.29Z"/>
  <path class="cls-1" d="m161.49,341.46c0,9.31,0,18.63,0,27.94,0,.55.04,1.11,0,1.66-.09,1.03.41,1.59,1.28,2.08,1.72.97,3.35,2.1,5.06,3.1,1.8,1.06,3.64,2.03,5.45,3.07,4.75,2.74,9.5,5.5,14.25,8.24,2.66,1.54,5.33,3.05,7.99,4.58,3.7,2.14,7.39,4.29,11.09,6.44,2.18,1.27,4.34,2.58,6.56,3.76.7.37,1.3.8,1.84,1.36.44.46.48,1.02.29,1.54-.16.45-.64.57-1.1.58-1.12.04-2.11-.22-3.12-.83-3.47-2.1-7.04-4.03-10.54-6.07-3.98-2.32-7.92-4.7-11.88-7.05-3.4-2.01-6.8-4.02-10.21-5.99-3.42-1.97-6.86-3.9-10.28-5.87-2.28-1.31-4.54-2.66-6.8-4-.57-.33-1.13-.67-1.67-1.04-.68-.47-1.04-1.12-.97-1.98.04-.55,0-1.11,0-1.66,0-19.18,0-38.37,0-57.55,0-.78,0-1.55.03-2.33.03-.75.46-1.05,1.38-1.04.89.01,1.29.32,1.32,1.11.04.89.03,1.77.03,2.66,0,9.09,0,18.19,0,27.28Z"/>
  <path class="cls-1" d="m582.03,78.38c0,9.54,0,19.08,0,28.63,0,.78.02,1.56-.04,2.33-.05.65-1.03,1.34-1.71,1.27-.55-.06-1.38-.72-1.42-1.22-.06-.77-.06-1.55-.06-2.33,0-8.1,0-16.2,0-24.3,0-10.54,0-21.08,0-31.62,0-.67-.02-1.33,0-2,.02-.62-.25-1.09-.73-1.4-1.11-.7-2.25-1.37-3.39-2.03-3.79-2.21-7.58-4.42-11.38-6.62-3.51-2.03-7.07-4-10.55-6.08-4.33-2.59-8.81-4.92-13.09-7.61-2.32-1.46-4.76-2.72-7.14-4.06-2-1.13-4.02-2.22-6-3.37-.56-.33-1.05-.78-1.14-1.54-.15-1.16.29-1.73,1.39-1.7.79.02,1.49.2,2.17.67,3.71,2.55,7.73,4.58,11.59,6.88,3.49,2.08,6.96,4.18,10.47,6.22,3.51,2.04,7.06,4,10.57,6.04,3.32,1.92,6.61,3.9,9.93,5.84,1.99,1.16,4.01,2.27,6.01,3.42,1.05.6,2.1,1.2,3.1,1.87.96.65,1.5,1.48,1.46,2.78-.1,3.1-.03,6.21-.03,9.32,0,6.88,0,13.76,0,20.64Z"/>
  <path class="cls-2" d="m282.87,210.18c0-2.44.08-4.88-.02-7.31-.13-3.15,1.21-5.72,2.93-8.18,1.55-1.01,2.91-2.3,4.76-2.83,1.17-.34,2.31-.67,3.53-.66,2.22.01,4.43-.01,6.65.02,2.9.05,5.15,1.66,7.43,3.18,1.55,2.14,2.96,4.34,3.17,7.08.04.55.03,1.11.03,1.66,0,4.88-.08,9.75.04,14.63.04,1.71-.75,3.21-.73,4.87-1.12,1.98-1.94,4.18-4.28,5.19-.79.34-1.44,1.11-2.25,1.31-1.16.29-2.26.82-3.51.79-2.22-.05-4.44.04-6.65,0-2-.04-3.93-.4-5.49-1.82-.15-.14-.39-.2-.6-.26-1.86-.57-2.84-2.18-3.54-3.69-.86-1.84-1.56-3.84-1.5-5.99.08-2.66.02-5.32.02-7.98Zm24.64.4s-.02,0-.03,0c0-3.1.01-6.2-.01-9.31,0-.65,0-1.31-.35-1.93-1.64-2.9-4.07-4.41-7.41-4.75-1.54-.16-3.11.02-4.65-.07-1.27-.08-2.42.32-3.5.79-2.94,1.27-4.81,3.41-4.82,6.78-.02,5.65,0,11.3-.01,16.95,0,1.75.64,3.18,1.82,4.45,1.83,1.97,4.12,2.86,6.72,3.06,1.21.09,2.44-.03,3.66.02,2.47.11,4.37-1.26,6.38-2.36.19-.1.36-.28.47-.47.92-1.5,1.83-2.97,1.77-4.87-.09-2.77-.02-5.54-.02-8.31Z"/>
  <path class="cls-2" d="m392.77,96c-.77.04-1.53.09-2.3.1-.64.01-1.04-.28-1.02-.96.02-.79-.29-1.1-1.12-1.25-1.34-.24-1.52-.56-1.56-1.66-.01-.33,0-.66,0-.99.03-.9.26-1.1,1.21-1.13,1.16-.03,1.41.17,1.51,1.19.03.33-.01.66.02.99.07.81.22,1,.92,1.06.44.04.88,0,1.32.03.77.06.95.23.99,1,.03.55,0,1.1,0,1.65l.03-.03Z"/>
  <path class="cls-2" d="m382.68,84.68c.17.01.5,0,.82.08.19.05.47.23.48.38.07.74.33,1.52-.25,2.18-.34.39-1.36.73-1.8.5-.57-.31-1.06-.68-1.08-1.48-.03-1.32.17-1.63,1.35-1.66.11,0,.22,0,.49,0Z"/>
  <path class="cls-2" d="m394.18,108.07c-.22,0-.44,0-.66,0-.51-.03-.79-.29-.81-.81-.01-.33-.03-.66-.02-.99.03-1.25.22-1.48,1.18-1.5,1.42-.02,2,.38,2.11,1.46.02.22,0,.44,0,.66,0,.88-.26,1.15-1.16,1.2-.22.01-.44,0-.66,0v-.02Z"/>
  <path class="cls-2" d="m402.76,55.54c-1.42-.09-2.85-.18-4.27-.27-.7-1.47-.3-3.03-.31-4.54,0-1.28-.43-2.63.33-3.86,1.21-.05,2.42-.17,3.62-.15,1.65.03,3.3-.22,4.94.17.75,1.69.29,3.47.31,5.2.04,3.84.57,3.32-3.28,3.36-.44,0-.89,0-1.33,0,0,.03,0,.06,0,.08Z"/>
  <path class="cls-2" d="m338.84,46.73c1.22,0,2.44-.02,3.66,0,.48.01.85.23.85.79.01,1.77.02,3.55.03,5.32.02,2.86.18,2.6-2.76,2.6-1.89,0-3.77,0-5.66-.03-.5,0-.83-.26-.83-.8-.01-1.22-.06-2.44-.02-3.66.05-1.31-.24-2.64.19-3.93,1.36-.65,2.81-.19,4.21-.33.11-.01.22,0,.33,0,0,0,0,.02,0,.03Z"/>
  <path class="cls-2" d="m338.55,119.91c-1.11,0-2.22.01-3.32,0-.9-.01-1.18-.24-1.12-1.22.17-2.61-.48-5.26.36-7.84,2.53-.05,5.07-.11,7.6-.15.22,0,.45,0,.66.06.34.08.6.29.6.66.01,2.54.02,5.09,0,7.63,0,.49-.26.83-.8.83-1.33,0-2.66,0-3.99,0,0,0,0,.02,0,.03Z"/>
  <path class="cls-2" d="m172.47,199.22c-3.22,0-6.44-.01-9.66.01-.76,0-1.12-.33-1.53-.96-.84-1.29-1.85-2.47-2.81-3.68-1.78-2.24-4.34-2.96-6.98-3.24-2.19-.23-4.46-.27-6.65,0-3.5.44-6.51,2-8.62,4.95-1.37,1.91-2.12,4-2.08,6.43.09,5.21.17,10.44-.01,15.65-.17,4.79,3.81,9.6,8.13,10.84,1.37.39,2.74.83,4.2.72,2.29-.17,4.66.43,6.87-.62,1.62.25,2.69-.89,3.85-1.66,1.21-.79,2.16-1.9,2.93-3.13.18-.28.41-.55.5-.85.44-1.39,1.4-1.88,2.79-1.77.55.04,1.11,0,1.67,0,5.11,0,10.22-.04,15.33.01,3.65.04,2.95-.69,2.05,3.19-.78,3.35-2.6,6.2-5.14,8.66-2,1.94-4.2,3.56-6.55,4.99-1.29.78-2.78,1.25-4.21,1.81-1.22.47-2.44.99-3.71,1.26-1.28.28-2.49.83-3.86.76-1.88-.09-3.63.72-5.49.91-.62.07-1.28.28-1.93.28-2.67.01-5.33-.03-8,.02-1.03.02-1.94-.55-2.9-.51-1.27.05-2.26-.92-3.53-.73-1.24.19-2.37-.41-3.54-.67-.85-.19-1.68-.46-2.51-.73-3.84-1.23-6.78-2.99-9.63-5.47-2.79-2.42-5-5.23-6.48-8.6-.44-1.01-.93-1.99-.89-3.14.04-1.22-.93-2.26-.7-3.53-.73-1.1-.54-2.34-.54-3.54,0-3.88.06-7.77-.03-11.65-.05-2.34.31-4.58,1.01-6.79.07-.21.22-.42.21-.61-.19-2.49,1.37-4.36,2.29-6.44.81-1.82,2.14-3.32,3.52-4.69,3.01-2.98,6.72-4.92,10.58-6.58,2.6-.31,4.95-1.86,7.68-1.59.41.04.89-.08,1.26-.28,1.52-.82,3.16-.9,4.82-.89,3.11.01,6.22.04,9.33.06.77,0,1.51.03,2.24.42,1.08.56,2.26.8,3.51.76.86-.03,1.71.13,2.57.49,1.39.58,2.92.83,4.37,1.29,1.35.43,2.48,1.42,3.94,1.61,1.76,1.31,3.93,2.02,5.42,3.73.44.5.93.96,1.43,1.4,3.09,2.71,4.84,6.18,5.82,10.11.1.42.33.81.45,1.23.1.37-.14.67-.47.72-.54.08-1.11.06-1.66.06-2.89,0-5.78,0-8.66,0h0Z"/>
  <path class="cls-2" d="m625.46,210.48c0,10.21,0,20.42,0,30.64,0,.44-.01.89-.02,1.33-.01.55-.34.78-.84.78-5.44,0-10.89,0-16.33,0-.65,0-.9-.3-.9-1.08,0-7.77,0-15.54,0-23.31,0-.78.03-1.56,0-2.33-.07-1.26-.51-2.35-1.52-3.18-1.13-.93-2.84-1.01-3.97-.11-.43.34-.88.7-1.21,1.13-2.02,2.6-3.98,5.26-6.03,7.84-2.26,2.85-4.61,5.63-6.86,8.48-1.49,1.89-2.87,3.87-4.35,5.77-1.56,2-3.18,3.95-4.76,5.93-.53.66-1.17.9-2.02.89-4.89-.03-9.78-.02-14.66-.02-.79,0-1.24-.26-1.18-1.17.04-.55,0-1.11,0-1.66,0-20.09,0-40.18,0-60.27,0-.55,0-1.11,0-1.66.02-.96.25-1.25,1.09-1.25,5.44,0,10.89,0,16.33,0,.87,0,1.13.29,1.13,1.22,0,8.66,0,17.32,0,25.97,0,.89-.02,1.78.02,2.66.08,1.93,1.24,2.97,3.22,2.98,1.17,0,2.18-.26,2.89-1.28.57-.81,1.19-1.58,1.78-2.37,2.47-3.36,5-6.67,7.38-10.09,3.39-4.86,6.88-9.65,10.45-14.37,1.19-1.57,2.15-3.31,3.66-4.63,1.89-.03,3.77-.09,5.66-.1,3.33-.01,6.67,0,10,0,.75,0,1.01.25,1.03.95.02.89.02,1.78.02,2.66,0,9.88,0,19.76,0,29.64Z"/>
  <path class="cls-1" d="m307.51,210.58c0,2.77-.07,5.54.02,8.31.06,1.9-.85,3.37-1.77,4.87-.11.18-.28.36-.47.47-2.01,1.1-3.91,2.47-6.38,2.36-1.22-.06-2.44.07-3.66-.02-2.6-.2-4.9-1.09-6.72-3.06-1.18-1.27-1.83-2.7-1.82-4.45.02-5.65,0-11.3.01-16.95.01-3.37,1.88-5.52,4.82-6.78,1.08-.47,2.24-.87,3.5-.79,1.55.09,3.12-.08,4.65.07,3.34.34,5.77,1.84,7.41,4.75.35.62.34,1.28.35,1.93.02,3.1.01,6.2.01,9.31.01,0,.02,0,.03,0Z"/>
</svg>