<svg width="899" height="825" viewBox="0 0 899 825" fill="none" xmlns="http://www.w3.org/2000/svg">
<path d="M474.651 401.961C487.888 409.608 500.915 417.082 513.931 424.579C527.981 432.671 542.032 440.763 556.06 448.892C558.654 450.397 559.858 452.484 559.85 455.778C559.725 495.396 559.736 535.015 559.828 574.631C559.835 578.016 558.628 580.022 555.736 581.67C533.52 594.326 511.359 607.081 489.202 619.843C476.943 626.901 464.704 633.985 452.512 641.154C450.227 642.497 448.258 642.446 446.043 641.154C435.602 635.082 425.125 629.08 414.674 623.03C398.144 613.469 381.628 603.872 365.086 594.326C357.586 589.998 350.042 585.744 342.502 581.49C339.944 580.048 338.675 578.104 338.679 574.991C338.752 535.129 338.76 495.264 338.668 455.402C338.66 452.256 339.956 450.309 342.451 448.878C354.926 441.713 367.43 434.596 379.898 427.416C394.497 419.003 409.07 410.547 423.65 402.108C430.804 397.968 437.998 393.902 445.089 389.663C448.052 387.893 450.613 387.981 453.576 389.769C460.442 393.917 467.471 397.803 474.651 401.961Z" fill="#121013"/>
<path d="M388.175 219.799C379.582 214.947 371.206 210.263 362.878 205.494C355.997 201.552 349.17 197.507 342.318 193.514C339.923 192.119 338.675 190.252 338.682 187.276C338.749 147.299 338.756 107.322 338.671 67.3448C338.668 64.3404 339.948 62.4706 342.3 61.1105C350.208 56.5392 358.161 52.0415 366.08 47.4838C376.241 41.6337 386.386 35.7538 396.539 29.8853C412.768 20.5054 428.99 11.1148 445.229 1.75413C447.986 0.16478 450.676 0.228812 453.532 1.88864C471.236 12.1823 488.999 22.3734 506.733 32.6159C522.465 41.7011 538.183 50.8106 553.907 59.9035C554.537 60.2682 555.225 60.5361 555.847 60.9144C558.367 62.4511 559.861 64.2886 559.85 67.6657C559.722 107.397 559.733 147.129 559.832 186.861C559.839 190.284 558.507 192.21 555.648 193.844C537.152 204.415 518.734 215.123 500.279 225.763C484.337 234.953 468.366 244.086 452.453 253.319C450.304 254.564 448.409 254.651 446.304 253.431C436.07 247.497 425.821 241.597 415.58 235.675C406.52 230.434 397.47 225.179 388.175 219.799Z" fill="#121013"/>
<path d="M451.335 353.768C451.335 322.87 451.394 292.341 451.258 261.812C451.239 258.214 452.601 256.243 455.574 254.556C469.341 246.747 483.012 238.775 496.728 230.876C511.183 222.551 525.656 214.257 540.104 205.918C545.705 202.686 551.31 199.454 556.808 196.055C560.024 194.065 562.868 193.838 566.287 195.873C579.796 203.918 593.438 211.749 607.043 219.633C622.094 228.354 637.157 237.052 652.219 245.747C657.4 248.736 662.589 251.711 667.804 254.642C670.899 256.383 672.496 258.554 672.477 262.511C672.312 301.868 672.334 341.227 672.455 380.581C672.466 384.058 671.053 386.056 668.319 387.624C656.164 394.59 644.016 401.571 631.865 408.549C617.789 416.63 603.702 424.689 589.644 432.803C581.74 437.367 573.846 441.948 566.037 446.662C562.953 448.521 560.215 448.359 557.176 446.592C541.793 437.654 526.341 428.829 510.94 419.923C493.732 409.969 476.554 399.97 459.361 389.994C457.992 389.203 456.616 388.419 455.217 387.679C452.52 386.251 451.166 384.319 451.254 380.985C451.49 372.043 451.335 363.086 451.335 353.768ZM565.904 377.438C570.195 377.438 574.486 377.497 578.773 377.412C581.717 377.357 583.223 375.844 583.473 372.9C583.568 371.804 583.513 370.696 583.513 369.592C583.517 348.02 583.517 326.445 583.517 304.871C583.517 303.563 583.517 302.255 583.517 300.565C585.254 300.565 586.571 300.565 587.889 300.565C597.203 300.564 606.521 300.594 615.835 300.55C620.394 300.529 622.076 298.829 622.091 294.363C622.116 287.008 622.105 279.654 622.094 272.299C622.087 267.155 620.711 265.782 615.566 265.737C615.198 265.734 614.83 265.737 614.466 265.737C579.896 265.737 545.33 265.737 510.763 265.737C509.906 265.737 509.045 265.693 508.191 265.752C504.975 265.971 503.153 267.645 503.116 270.848C503.028 279.059 503.021 287.274 503.127 295.485C503.164 298.441 505.004 300.183 507.959 300.517C508.927 300.627 509.917 300.563 510.9 300.563C519.967 300.566 529.038 300.556 538.109 300.574C539.276 300.577 540.439 300.715 541.815 300.803C541.815 302.51 541.815 303.841 541.815 305.172C541.815 327.359 541.889 349.547 541.738 371.73C541.712 375.355 543.847 377.684 547.519 377.511C553.392 377.235 559.284 377.438 565.904 377.438Z" fill="#121013"/>
<path d="M444.685 256.104C446.735 257.654 447.195 259.52 447.191 261.749C447.151 301.364 447.14 340.98 447.202 380.595C447.21 383.97 445.752 386.005 442.956 387.613C429.303 395.462 415.724 403.437 402.075 411.29C389.64 418.448 377.128 425.48 364.682 432.623C356.66 437.23 348.637 441.845 340.733 446.655C337.605 448.557 334.83 448.359 331.845 446.614C318.038 438.559 304.231 430.5 290.387 422.499C277.319 414.948 264.207 407.474 251.123 399.948C243.848 395.764 236.606 391.525 229.317 387.366C226.742 385.898 225.572 383.922 225.578 380.842C225.649 341.105 225.662 301.366 225.558 261.628C225.549 258.26 227.117 256.442 229.698 254.952C239.104 249.522 248.494 244.064 257.907 238.647C271.648 230.741 285.407 222.871 299.149 214.969C310.531 208.422 321.924 201.889 333.255 195.254C335.253 194.085 336.894 193.833 338.981 195.046C346.676 199.52 354.477 203.804 362.191 208.248C372.344 214.101 382.438 220.058 392.58 225.933C406.387 233.932 420.221 241.892 434.035 249.876C437.517 251.887 440.979 253.924 444.685 256.104ZM360.509 267.635C359.317 267.363 358.132 267.073 356.936 266.823C346.908 264.726 336.81 264.335 326.62 265.409C317.273 266.395 308.338 268.685 299.999 273.111C288.333 279.3 280.752 288.686 278.809 301.84C276.943 314.481 276.829 327.299 278.817 339.917C281.245 355.336 290.548 365.673 304.797 371.66C310.707 374.144 316.945 375.517 323.289 376.157C337.77 377.618 352.199 377.53 366.198 372.941C382.28 367.667 392.981 356.973 395.734 340.053C397.894 326.747 397.887 313.172 395.403 299.828C393.496 289.606 387.763 281.672 379.115 275.867C373.566 272.144 367.516 269.551 360.509 267.635Z" fill="#121013"/>
<path d="M282.68 421.738C295.873 429.381 308.834 436.888 321.81 444.373C324.555 445.956 327.381 447.391 330.108 448.999C332.979 450.696 334.682 452.771 334.668 456.635C334.502 496.007 334.528 535.387 334.631 574.759C334.642 578.45 333.258 580.544 330.127 582.318C312.831 592.107 295.616 602.043 278.4 611.975C261.528 621.709 244.667 631.472 227.845 641.297C225.1 642.898 222.577 642.788 219.954 641.272C209.915 635.472 199.881 629.665 189.84 623.869C177.04 616.483 164.234 609.109 151.432 601.726C139.832 595.04 128.235 588.346 116.632 581.663C114.443 580.401 113.435 578.723 113.44 576.011C113.524 535.773 113.539 495.54 113.421 455.307C113.412 452.12 114.995 450.673 117.316 449.345C125.677 444.55 134.036 439.755 142.383 434.941C156.56 426.761 170.723 418.554 184.903 410.381C193.44 405.461 202 400.585 210.545 395.68C213.608 393.921 216.747 392.276 219.689 390.329C222.624 388.389 225.29 388.581 228.231 390.288C246.282 400.758 264.372 411.165 282.68 421.738ZM186.83 415.529C164.127 428.634 141.425 441.735 118.809 454.784C118.809 495.555 118.809 536.016 118.809 576.607C153.86 596.843 188.873 617.057 223.934 637.297C259.117 616.984 294.132 596.766 329.166 576.541C329.166 535.917 329.166 495.459 329.166 454.858C294.026 434.57 258.922 414.3 223.929 394.097C211.491 401.281 199.391 408.265 186.83 415.529Z" fill="#121013"/>
<path d="M683.362 389.269C676.54 385.46 676.54 385.464 676.54 377.732C676.54 339.111 676.595 300.485 676.444 261.862C676.429 258.215 677.835 256.306 680.731 254.645C701.442 242.756 722.105 230.785 742.787 218.848C756.315 211.04 769.887 203.307 783.348 195.391C786.079 193.786 788.364 194.03 790.866 195.52C795.989 198.571 801.111 201.622 806.278 204.597C817.348 210.971 828.45 217.282 839.523 223.648C848.524 228.821 857.504 234.032 866.49 239.234C875.359 244.371 884.169 249.612 893.115 254.613C896.342 256.418 897.7 258.613 897.689 262.452C897.553 301.689 897.557 340.925 897.682 380.165C897.697 384.018 896.276 386.06 892.997 387.911C879.33 395.624 865.843 403.654 852.263 411.518C840.233 418.485 828.163 425.377 816.115 432.314C808.291 436.818 800.478 441.337 792.658 445.849C791.816 446.335 790.955 446.791 790.104 447.269C787.889 448.51 785.773 448.407 783.55 447.115C774.718 441.97 765.842 436.903 756.981 431.81C740.627 422.411 724.266 413.027 707.923 403.614C700.721 399.47 693.556 395.264 686.093 390.723C684.996 389.998 684.179 389.633 683.362 389.269ZM892.357 346.04C892.357 317.501 892.357 288.962 892.357 260.577C891.165 259.845 890.348 259.313 889.501 258.825C856.282 239.647 823.04 220.504 789.88 201.231C787.569 199.889 786.016 200.175 783.918 201.389C750.942 220.495 717.925 239.534 684.919 258.591C683.87 259.197 682.84 259.834 681.857 260.423C681.857 301.097 681.857 341.547 681.857 382.148C716.887 402.377 751.888 422.588 786.999 442.861C822.187 422.544 857.283 402.281 892.357 382.03C892.357 370.063 892.357 358.42 892.357 346.04Z" fill="#121013"/>
<path d="M748.17 212.426C728.99 223.516 709.806 234.603 690.63 245.698C686.611 248.021 682.534 250.251 678.626 252.744C675.579 254.687 672.811 254.653 669.742 252.827C662.095 248.276 654.371 243.851 646.661 239.396C629.693 229.586 612.721 219.781 595.741 209.988C586.122 204.44 576.48 198.922 566.853 193.386C564.424 191.99 563.372 190.042 563.376 187.086C563.46 147.345 563.468 107.605 563.368 67.8644C563.357 64.5925 564.627 62.5505 567.251 61.0373C574.213 57.0275 581.179 53.0311 588.138 49.0191C601.471 41.3323 614.796 33.6389 628.125 25.9481C641.951 17.9713 655.788 10.0089 669.599 2.00503C672.333 0.420239 675.064 -0.0759357 677.905 1.56637C691.719 9.55002 705.523 17.5551 719.33 25.5492C739.614 37.2921 759.877 49.0747 780.212 60.7285C783.414 62.5634 784.856 64.7162 784.842 68.5894C784.705 107.594 784.705 146.598 784.834 185.602C784.845 189.813 783.712 192.699 779.675 194.243C778.553 194.674 777.563 195.455 776.076 196.189C774.873 196.813 774.103 197.324 773.331 197.834C765.963 202.029 758.596 206.224 750.794 210.612C749.628 211.345 748.899 211.886 748.17 212.426ZM568.686 145.112C568.686 158.112 568.785 171.114 568.616 184.112C568.575 187.081 569.54 188.673 572.105 190.142C602.196 207.389 632.217 224.761 662.261 242.097C666.176 244.357 670.099 246.602 673.96 248.819C674.721 248.451 675.288 248.22 675.814 247.917C709.575 228.442 743.32 208.945 777.114 189.527C779.167 188.347 779.554 186.887 779.554 184.748C779.502 146.483 779.487 108.217 779.583 69.9521C779.59 67.351 778.678 66.0373 776.525 64.8001C743.162 45.6199 709.84 26.3614 676.506 7.12858C675.682 6.65265 674.81 6.26209 674.022 5.86465C673.202 6.30184 672.547 6.62781 671.91 6.9939C638.47 26.2881 605.048 45.6107 571.564 64.8269C569.311 66.119 568.627 67.5612 568.634 70.0529C568.723 94.827 568.686 119.602 568.686 145.112Z" fill="#121013"/>
<path d="M107.957 447.295C90.2952 437.127 72.909 427.063 55.5004 417.042C43.0432 409.87 30.5555 402.749 18.084 395.602C13.318 392.872 8.53255 390.171 3.80707 387.37C1.59428 386.06 0.335722 384.268 0.341242 381.397C0.418522 341.3 0.437288 301.203 0.314008 261.106C0.303704 257.733 2.13708 256.223 4.48234 254.85C10.0458 251.594 15.6898 248.477 21.2731 245.255C36.0704 236.717 50.8481 228.145 65.6421 219.602C73.677 214.963 81.7395 210.371 89.7704 205.725C95.566 202.372 101.401 199.079 107.078 195.535C109.967 193.731 112.436 193.979 115.215 195.643C123.354 200.514 131.537 205.312 139.758 210.043C154.131 218.314 168.567 226.479 182.938 234.754C194.565 241.449 206.129 248.253 217.739 254.979C220.51 256.585 221.8 258.679 221.79 262.103C221.679 301.463 221.683 340.826 221.777 380.183C221.786 383.981 220.395 386.156 217.07 388.003C205.676 394.329 194.466 400.986 183.177 407.5C168.933 415.717 154.674 423.909 140.433 432.13C132.19 436.892 123.973 441.694 115.74 446.471C113.373 447.844 110.98 449.087 107.957 447.295ZM58.7693 412.685C76.164 422.735 93.5586 432.781 110.929 442.817C112.404 442 113.7 441.312 114.971 440.579C147.657 421.708 180.322 402.8 213.061 384.025C215.653 382.538 216.524 380.923 216.517 377.982C216.416 340.215 216.45 302.446 216.45 264.679C216.45 263.943 216.4 263.204 216.457 262.472C216.565 261.078 216.002 260.138 214.744 259.532C213.973 259.162 213.263 258.667 212.52 258.237C179.836 239.365 147.134 220.523 114.499 201.566C111.968 200.096 110.128 200.042 107.566 201.53C74.7243 220.62 41.8285 239.617 8.88289 258.527C6.43716 259.931 5.52672 261.386 5.53482 264.247C5.64154 302.259 5.64411 340.273 5.52194 378.284C5.51274 381.199 6.524 382.627 8.92152 383.992C25.4223 393.398 41.8432 402.94 58.7693 412.685Z" fill="#121013"/>
<path d="M565.536 377.438C559.284 377.438 553.392 377.235 547.519 377.511C543.846 377.684 541.712 375.355 541.738 371.73C541.892 349.547 541.815 327.359 541.815 305.172C541.815 303.841 541.815 302.51 541.815 300.803C540.439 300.715 539.276 300.577 538.109 300.574C529.038 300.556 519.967 300.566 510.899 300.563C509.917 300.563 508.927 300.627 507.959 300.517C505.004 300.183 503.164 298.441 503.127 295.485C503.02 287.274 503.028 279.059 503.12 270.848C503.153 267.645 504.974 265.971 508.191 265.752C509.044 265.693 509.906 265.737 510.763 265.737C545.329 265.737 579.895 265.737 614.465 265.737C614.83 265.737 615.198 265.734 615.566 265.737C620.71 265.782 622.087 267.155 622.094 272.299C622.105 279.654 622.116 287.008 622.09 294.363C622.076 298.829 620.394 300.529 615.834 300.55C606.52 300.594 597.203 300.564 587.888 300.565C586.571 300.565 585.254 300.565 583.517 300.565C583.517 302.255 583.517 303.563 583.517 304.871C583.517 326.445 583.517 348.02 583.513 369.592C583.513 370.696 583.568 371.804 583.472 372.9C583.222 375.844 581.717 377.357 578.773 377.412C574.486 377.497 570.195 377.438 565.536 377.438Z" fill="#FFB30F"/>
<path d="M360.803 267.704C367.516 269.551 373.565 272.144 379.115 275.867C387.763 281.672 393.496 289.606 395.403 299.828C397.887 313.172 397.894 326.747 395.734 340.053C392.981 356.973 382.28 367.667 366.198 372.941C352.199 377.53 337.77 377.618 323.289 376.157C316.945 375.517 310.707 374.144 304.797 371.66C290.548 365.673 281.245 355.336 278.816 339.917C276.829 327.299 276.943 314.481 278.809 301.84C280.752 288.686 288.333 279.3 299.999 273.111C308.337 268.685 317.273 266.395 326.62 265.409C336.81 264.335 346.908 264.726 356.936 266.823C358.132 267.073 359.317 267.363 360.803 267.704ZM338.948 345.51C339.669 345.389 340.39 345.26 341.115 345.142C349.149 343.832 352.291 341.098 352.865 333.094C353.469 324.699 353.351 316.235 353.178 307.809C353.075 302.955 350.201 299.587 345.697 297.861C340.118 295.722 334.436 295.734 328.842 297.851C323.985 299.689 321.376 303.362 321.291 308.514C321.151 316.832 321.159 325.155 321.291 333.474C321.372 338.492 323.896 342.242 328.64 343.843C331.698 344.877 335.069 344.991 338.948 345.51Z" fill="#FFB30F"/>
<path d="M187.06 415.393C199.391 408.265 211.49 401.281 223.929 394.097C258.922 414.3 294.026 434.57 329.166 454.858C329.166 495.459 329.166 535.917 329.166 576.541C294.132 596.766 259.117 616.984 223.934 637.297C188.873 617.057 153.859 596.843 118.809 576.607C118.809 536.016 118.809 495.555 118.809 454.784C141.424 441.735 164.127 428.634 187.06 415.393ZM126.903 493.976C126.903 517.771 126.984 541.569 126.816 565.364C126.791 568.938 128.001 570.936 131.019 572.621C140.745 578.057 150.356 583.702 159.991 589.299C175.878 598.529 191.747 607.787 207.628 617.024C210.222 618.533 211.732 618.61 212.566 617.341C213.527 615.876 212.796 614.573 209.967 612.921C198.017 605.944 186.062 598.97 174.094 592.022C160.96 584.397 147.853 576.721 134.628 569.254C131.992 567.767 131.227 566.041 131.237 563.138C131.339 534.684 131.301 506.227 131.29 477.769C131.29 476.551 131.416 475.234 131.006 474.145C130.738 473.431 129.64 472.709 128.849 472.628C128.286 472.569 127.369 473.464 127.061 474.141C126.732 474.862 126.909 475.823 126.908 476.68C126.899 482.2 126.903 487.72 126.903 493.976Z" fill="#FFB30F"/>
<path d="M892.357 346.408C892.357 358.42 892.357 370.063 892.357 382.03C857.283 402.282 822.187 422.544 786.998 442.861C751.888 422.588 716.887 402.377 681.854 382.148C681.854 341.547 681.854 301.097 681.854 260.423C682.84 259.834 683.87 259.197 684.919 258.591C717.925 239.534 750.942 220.495 783.918 201.389C786.016 200.175 787.569 199.889 789.88 201.231C823.04 220.504 856.282 239.647 889.501 258.825C890.348 259.313 891.165 259.845 892.357 260.577C892.357 288.962 892.357 317.501 892.357 346.408ZM785.733 295.387C784.154 297.573 782.575 299.759 780.996 301.943C779.344 304.228 777.787 306.593 776.006 308.772C774.398 310.739 773.5 313.37 770.737 314.906C770.737 313.128 770.737 311.789 770.737 310.451C770.737 297.205 770.751 283.96 770.729 270.714C770.726 266.75 769.559 265.175 766.03 265.126C756.587 264.998 747.14 265.012 737.701 265.114C734.599 265.147 733.005 266.848 732.678 269.896C732.575 270.866 732.649 271.856 732.649 272.837C732.645 296.508 732.645 320.178 732.645 343.847C732.645 352.432 732.615 361.018 732.66 369.603C732.682 374.218 734.271 375.767 738.82 375.778C745.933 375.789 753.058 375.546 760.157 375.863C764.723 376.069 767.693 374.302 770.398 370.777C780.4 357.746 790.62 344.877 800.765 331.957C801.402 331.146 802.131 330.407 803.419 328.957C803.419 331.056 803.419 332.233 803.419 333.411C803.419 345.554 803.4 357.695 803.426 369.835C803.437 374.49 804.71 375.767 809.281 375.774C817.988 375.797 826.698 375.789 835.405 375.778C840.2 375.771 841.29 374.715 841.293 369.993C841.301 337.002 841.304 304.01 841.29 271.018C841.29 266.346 840.094 265.104 835.416 265.067C827.935 265.009 820.453 265.098 812.972 265.033C809.215 264.999 806.536 266.492 804.346 269.616C798.366 278.15 792.162 286.525 785.733 295.387ZM825.3 237.864C841.514 247.247 857.68 256.72 873.986 265.937C877.28 267.798 878.461 269.868 878.439 273.68C878.262 301.758 878.34 329.837 878.347 357.915C878.347 359.019 878.277 360.138 878.454 361.216C878.638 362.354 879.223 363.343 880.61 363.277C881.902 363.211 882.609 362.434 882.693 361.161C882.759 360.182 882.734 359.2 882.734 358.221C882.734 328.914 882.734 299.61 882.734 270.305C882.734 269.569 882.708 268.832 882.737 268.098C882.793 266.612 882.193 265.498 880.927 264.726C879.885 264.089 878.862 263.414 877.802 262.8C863.715 254.63 849.621 246.476 835.538 238.303C824.31 231.787 813.097 225.248 801.869 218.731C801.137 218.304 800.342 217.694 799.573 217.684C798.723 217.674 797.486 218.035 797.126 218.65C796.758 219.273 796.997 220.573 797.45 221.265C797.943 222.021 798.947 222.474 799.786 222.965C808.133 227.846 816.49 232.707 825.3 237.864Z" fill="#FFB30F"/>
<path d="M568.686 144.744C568.686 119.602 568.723 94.8271 568.635 70.0529C568.628 67.5612 569.312 66.119 571.564 64.827C605.048 45.6108 638.47 26.2882 671.91 6.99397C672.547 6.62788 673.202 6.30187 674.023 5.86469C674.81 6.26213 675.682 6.65268 676.507 7.12862C709.84 26.3614 743.163 45.6199 776.525 64.8001C778.678 66.0373 779.591 67.3511 779.583 69.9521C779.488 108.217 779.503 146.483 779.554 184.748C779.554 186.887 779.168 188.347 777.114 189.527C743.321 208.945 709.575 228.442 675.815 247.917C675.289 248.22 674.722 248.451 673.96 248.819C670.1 246.602 666.177 244.357 662.261 242.097C632.218 224.761 602.196 207.389 572.105 190.142C569.54 188.673 568.576 187.081 568.616 184.112C568.786 171.114 568.686 158.112 568.686 144.744ZM707.386 34.9612C701.247 31.3993 695.109 27.8305 688.96 24.2844C688.227 23.8612 687.422 23.2857 686.649 23.2823C685.802 23.279 684.551 23.636 684.216 24.2436C683.859 24.8916 684.11 26.1866 684.57 26.8873C685.063 27.6387 686.082 28.0763 686.917 28.5661C694.951 33.2607 702.988 37.9471 711.036 42.6167C727.979 52.4482 744.892 62.3352 761.916 72.0247C764.657 73.5854 765.541 75.365 765.53 78.4194C765.427 106.742 765.467 135.065 765.474 163.388C765.474 164.612 765.324 165.909 765.68 167.033C765.92 167.787 766.928 168.774 767.605 168.782C768.319 168.791 769.423 167.897 769.684 167.16C770.071 166.057 769.909 164.746 769.909 163.523C769.92 134.342 769.916 105.161 769.916 75.9796C769.916 75.3665 769.887 74.7519 769.92 74.1407C770.026 72.2256 769.224 70.8725 767.55 69.9366C764.451 68.203 761.371 66.4307 758.306 64.6419C741.488 54.8365 724.678 45.0216 707.386 34.9612Z" fill="#FFB30F"/>
<path d="M58.529 412.563C41.8428 402.94 25.4219 393.398 8.92113 383.992C6.52361 382.627 5.51235 381.199 5.52155 378.284C5.64372 340.273 5.64115 302.259 5.53443 264.246C5.52633 261.386 6.43677 259.931 8.8825 258.527C41.8281 239.617 74.724 220.62 107.566 201.53C110.127 200.041 111.967 200.096 114.499 201.566C147.133 220.523 179.835 239.365 212.52 258.237C213.263 258.666 213.973 259.162 214.743 259.532C216.002 260.138 216.565 261.078 216.457 262.472C216.4 263.204 216.45 263.943 216.45 264.679C216.45 302.446 216.416 340.215 216.516 377.982C216.524 380.923 215.653 382.538 213.061 384.025C180.322 402.8 147.657 421.708 114.971 440.579C113.7 441.312 112.403 442 110.929 442.817C93.5582 432.781 76.1636 422.735 58.529 412.563ZM106.532 345.264C98.8493 343.63 95.0972 339.81 95.0048 333.168C94.8922 325.079 94.9643 316.986 94.9809 308.895C94.9919 303.492 97.6798 299.85 102.579 297.843C107.395 295.87 112.426 295.745 117.345 297.163C119.474 297.776 121.497 299.189 123.215 300.652C124.565 301.801 125.44 303.544 126.406 305.098C127.808 307.355 129.651 308.606 132.42 308.591C143.209 308.535 153.998 308.602 164.786 308.547C168.174 308.53 169.062 307.476 169.018 304.028C168.946 298.468 167.155 293.434 164.146 288.837C158.737 280.569 151.252 274.896 142.112 271.23C130.369 266.52 118.139 265.528 105.658 265.966C95.8843 266.31 86.3726 267.884 77.5171 272.143C61.3207 279.932 52.8357 292.836 52.5869 310.915C52.4872 318.147 52.446 325.386 52.6406 332.614C52.899 342.205 55.8868 350.853 62.1579 358.276C68.3807 365.64 76.2865 370.295 85.4681 372.878C101.635 377.43 117.912 377.338 134.124 373.346C142.762 371.219 150.795 367.579 157.338 361.268C163.685 355.144 168.37 348.138 168.956 339.011C169.256 334.339 168.293 333.301 163.661 333.291C153.609 333.27 143.555 333.362 133.504 333.242C130.045 333.2 127.667 334.456 126.043 337.497C123.043 343.114 118.244 345.76 111.917 345.668C110.328 345.643 108.74 345.492 106.532 345.264ZM14.3771 341.624C14.3771 351.921 14.4787 362.217 14.3127 372.51C14.2649 375.48 15.1731 377.452 17.8462 378.652C18.4005 378.902 18.8972 379.278 19.4264 379.583C29.167 385.236 38.9142 390.873 48.6486 396.537C61.5573 404.044 74.4531 411.573 87.3626 419.077C90.5358 420.924 93.7289 422.735 96.9379 424.52C98.1464 425.189 99.4072 425.156 100.131 423.85C100.799 422.643 100.455 421.447 99.3211 420.604C98.6362 420.096 97.8818 419.68 97.1429 419.25C89.2151 414.628 81.2913 409.998 73.3531 405.395C56.3081 395.51 39.2855 385.589 22.1739 375.819C19.5869 374.343 18.7497 372.639 18.7611 369.71C18.8711 341.521 18.827 313.331 18.827 285.141C18.827 284.283 18.8513 283.424 18.8218 282.567C18.7361 280.061 18.0144 278.956 16.5108 279.164C14.6193 279.426 14.2995 280.811 14.372 282.426C14.4051 283.159 14.3764 283.896 14.3764 284.631C14.3767 303.384 14.3767 322.136 14.3771 341.624Z" fill="#FFB30F"/>
<path d="M338.624 345.514C335.069 344.991 331.698 344.877 328.64 343.843C323.897 342.242 321.372 338.492 321.291 333.474C321.159 325.155 321.151 316.832 321.291 308.514C321.376 303.362 323.985 299.689 328.842 297.851C334.436 295.734 340.118 295.722 345.697 297.861C350.201 299.587 353.075 302.955 353.178 307.809C353.351 316.235 353.469 324.699 352.865 333.094C352.291 341.098 349.149 343.832 341.115 345.142C340.39 345.26 339.669 345.389 338.624 345.514Z" fill="#121013"/>
<path d="M126.904 493.608C126.904 487.72 126.9 482.2 126.908 476.68C126.909 475.822 126.733 474.862 127.061 474.141C127.37 473.464 128.287 472.569 128.85 472.628C129.64 472.709 130.738 473.43 131.006 474.144C131.416 475.234 131.29 476.551 131.29 477.769C131.302 506.227 131.339 534.684 131.238 563.138C131.228 566.041 131.993 567.767 134.628 569.254C147.853 576.721 160.96 584.397 174.094 592.022C186.062 598.97 198.017 605.944 209.968 612.921C212.796 614.573 213.527 615.876 212.567 617.341C211.733 618.61 210.222 618.533 207.629 617.024C191.748 607.787 175.878 598.528 159.992 589.299C150.356 583.702 140.746 578.057 131.019 572.621C128.001 570.936 126.791 568.938 126.816 565.364C126.984 541.569 126.904 517.771 126.904 493.608Z" fill="#121013"/>
<path d="M785.891 295.175C792.161 286.525 798.366 278.15 804.346 269.617C806.536 266.492 809.215 264.999 812.972 265.033C820.453 265.098 827.935 265.009 835.416 265.067C840.094 265.104 841.289 266.346 841.289 271.018C841.304 304.01 841.301 337.002 841.293 369.993C841.29 374.715 840.2 375.771 835.405 375.778C826.698 375.789 817.988 375.797 809.281 375.774C804.71 375.767 803.437 374.49 803.426 369.835C803.4 357.695 803.419 345.554 803.419 333.411C803.419 332.233 803.419 331.056 803.419 328.957C802.131 330.407 801.402 331.146 800.765 331.957C790.62 344.877 780.4 357.746 770.398 370.777C767.693 374.302 764.723 376.069 760.157 375.863C753.058 375.546 745.933 375.789 738.82 375.778C734.271 375.767 732.682 374.218 732.66 369.603C732.615 361.018 732.645 352.432 732.645 343.847C732.645 320.178 732.645 296.508 732.649 272.837C732.649 271.856 732.575 270.866 732.678 269.896C733.005 266.848 734.599 265.147 737.701 265.114C747.14 265.012 756.587 264.998 766.03 265.126C769.559 265.175 770.726 266.75 770.729 270.714C770.748 283.96 770.737 297.205 770.737 310.451C770.737 311.789 770.737 313.128 770.737 314.906C773.5 313.37 774.398 310.739 776.006 308.772C777.787 306.593 779.344 304.228 780.996 301.943C782.575 299.758 784.154 297.573 785.891 295.175Z" fill="#121013"/>
<path d="M825.071 237.719C816.49 232.707 808.132 227.846 799.786 222.965C798.947 222.474 797.943 222.021 797.449 221.265C796.997 220.573 796.758 219.272 797.126 218.65C797.486 218.035 798.723 217.674 799.573 217.684C800.342 217.694 801.137 218.304 801.869 218.731C813.097 225.248 824.31 231.787 835.537 238.303C849.621 246.476 863.715 254.63 877.802 262.8C878.862 263.414 879.885 264.089 880.927 264.726C882.192 265.498 882.792 266.612 882.737 268.098C882.708 268.832 882.733 269.569 882.733 270.305C882.733 299.609 882.733 328.914 882.733 358.221C882.733 359.2 882.759 360.182 882.693 361.161C882.612 362.434 881.902 363.211 880.61 363.277C879.223 363.343 878.638 362.353 878.454 361.216C878.277 360.138 878.347 359.019 878.347 357.915C878.339 329.837 878.262 301.758 878.439 273.68C878.461 269.868 877.28 267.798 873.986 265.937C857.68 256.72 841.514 247.247 825.071 237.719Z" fill="#121013"/>
<path d="M707.625 35.0855C724.678 45.0215 741.488 54.8365 758.306 64.6418C761.371 66.4307 764.451 68.203 767.55 69.9366C769.224 70.8724 770.03 72.2256 769.92 74.1407C769.887 74.7519 769.916 75.3665 769.916 75.9795C769.916 105.161 769.92 134.342 769.909 163.523C769.909 164.746 770.071 166.057 769.684 167.16C769.423 167.897 768.319 168.791 767.605 168.782C766.928 168.774 765.92 167.787 765.68 167.033C765.323 165.909 765.474 164.612 765.474 163.388C765.467 135.065 765.426 106.742 765.529 78.4194C765.54 75.365 764.657 73.5853 761.916 72.0247C744.892 62.3352 727.979 52.4482 711.036 42.6167C702.988 37.9471 694.951 33.2606 686.917 28.5661C686.082 28.0762 685.063 27.6387 684.569 26.8872C684.109 26.1866 683.859 24.8916 684.216 24.2435C684.551 23.636 685.802 23.279 686.649 23.2823C687.421 23.2856 688.227 23.8612 688.96 24.2844C695.109 27.8304 701.247 31.3993 707.625 35.0855Z" fill="#121013"/>
<path d="M106.843 345.333C108.741 345.492 110.328 345.643 111.917 345.668C118.244 345.76 123.043 343.114 126.043 337.497C127.667 334.456 130.045 333.2 133.504 333.242C143.555 333.362 153.609 333.27 163.662 333.291C168.293 333.301 169.256 334.339 168.956 339.011C168.37 348.138 163.685 355.144 157.339 361.268C150.795 367.579 142.762 371.219 134.124 373.346C117.912 377.338 101.636 377.43 85.4682 372.878C76.2866 370.295 68.3808 365.64 62.1579 358.276C55.8869 350.853 52.8991 342.205 52.6407 332.614C52.4461 325.386 52.4873 318.147 52.587 310.916C52.8358 292.836 61.3207 279.932 77.5172 272.143C86.3727 267.884 95.8844 266.31 105.658 265.967C118.139 265.528 130.369 266.52 142.112 271.23C151.252 274.896 158.737 280.57 164.147 288.837C167.155 293.434 168.946 298.468 169.018 304.028C169.062 307.476 168.174 308.531 164.786 308.547C153.998 308.602 143.209 308.535 132.421 308.591C129.651 308.606 127.808 307.355 126.406 305.098C125.44 303.544 124.565 301.801 123.215 300.652C121.497 299.189 119.474 297.776 117.345 297.163C112.426 295.745 107.395 295.87 102.579 297.843C97.6799 299.85 94.992 303.492 94.981 308.895C94.9644 316.986 94.8923 325.079 95.0049 333.168C95.0973 339.81 98.8494 343.63 106.843 345.333Z" fill="#121013"/>
<path d="M14.3772 341.256C14.3772 322.136 14.3769 303.384 14.3765 284.632C14.3765 283.896 14.4052 283.16 14.3721 282.426C14.2996 280.811 14.6194 279.427 16.5109 279.165C18.0145 278.956 18.7366 280.061 18.8219 282.567C18.8514 283.424 18.8271 284.283 18.8271 285.141C18.8271 313.331 18.8712 341.521 18.7612 369.71C18.7498 372.639 19.587 374.343 22.174 375.819C39.2857 385.589 56.3082 395.51 73.3533 405.395C81.2914 409.998 89.2152 414.628 97.143 419.25C97.8819 419.68 98.6363 420.096 99.3212 420.604C100.455 421.447 100.799 422.643 100.131 423.85C99.4077 425.156 98.1465 425.189 96.938 424.52C93.7291 422.735 90.5363 420.924 87.3627 419.077C74.4532 411.573 61.5574 404.044 48.6487 396.537C38.9144 390.873 29.1671 385.236 19.4265 379.583C18.8974 379.278 18.4006 378.902 17.8464 378.652C15.1732 377.453 14.265 375.48 14.3128 372.51C14.4788 362.217 14.3772 351.921 14.3772 341.256Z" fill="#121013"/>
<path d="M22.7 791V734.6H3.8V721H57.3V734.6H38.5V791H22.7ZM69.9266 791V721H98.5266C101.993 721 105.16 721.433 108.027 722.3C110.96 723.167 113.46 724.367 115.527 725.9C117.593 727.367 119.193 729.167 120.327 731.3C121.527 733.433 122.127 735.8 122.127 738.4V739.1C122.127 742.233 121.427 745 120.027 747.4C118.627 749.733 116.393 751.833 113.327 753.7C117.26 755.3 120.227 757.6 122.227 760.6C124.293 763.6 125.327 767.033 125.327 770.9V771.8C125.327 774.667 124.76 777.3 123.627 779.7C122.493 782.033 120.86 784.067 118.727 785.8C116.66 787.467 114.16 788.767 111.227 789.7C108.293 790.567 104.993 791 101.327 791H69.9266ZM84.8266 777.8H100.327C101.793 777.8 103.127 777.633 104.327 777.3C105.527 776.9 106.527 776.367 107.327 775.7C108.127 774.967 108.76 774.133 109.227 773.2C109.693 772.2 109.927 771.1 109.927 769.9V769.3C109.927 768.1 109.693 767 109.227 766C108.76 764.933 108.093 764.033 107.227 763.3C106.36 762.567 105.327 762.033 104.127 761.7C102.927 761.3 101.593 761.1 100.127 761.1H84.8266V777.8ZM84.8266 750H97.8266C100.627 750 102.827 749.3 104.427 747.9C106.093 746.433 106.927 744.5 106.927 742.1V741.4C106.927 739.133 106.127 737.367 104.527 736.1C102.993 734.767 100.827 734.1 98.0266 734.1H84.8266V750ZM139.919 791V721H155.519V791H139.919ZM173.778 791V721H189.078V767.3H189.778L216.078 721H233.578V791H218.078V741.3H217.278L189.378 791H173.778ZM185.978 702.5H197.978C197.978 704.1 198.511 705.367 199.578 706.3C200.711 707.233 202.145 707.7 203.878 707.7C205.545 707.7 206.911 707.233 207.978 706.3C209.045 705.3 209.578 704.033 209.578 702.5H221.578C221.578 704.7 221.145 706.7 220.278 708.5C219.411 710.233 218.178 711.767 216.578 713.1C215.045 714.367 213.178 715.367 210.978 716.1C208.778 716.767 206.345 717.1 203.678 717.1C201.011 717.1 198.578 716.767 196.378 716.1C194.245 715.367 192.378 714.367 190.778 713.1C189.245 711.767 188.045 710.233 187.178 708.5C186.378 706.7 185.978 704.7 185.978 702.5ZM280.657 791V721H302.657L317.357 761.6H318.357L333.057 721H355.057V791H339.857V739.8H338.957L323.557 781.7H312.057L296.657 739.8H295.857V791H280.657ZM373.598 791V721H389.198V791H373.598ZM407.555 791V721H423.155V748.7H449.555V721H465.255V791H449.555V762.3H423.155V791H407.555ZM483.798 791V721H499.398V791H483.798ZM577.738 792.3C572.605 792.3 567.872 791.4 563.538 789.6C559.272 787.8 555.572 785.3 552.438 782.1C549.372 778.9 546.972 775.1 545.238 770.7C543.505 766.233 542.638 761.433 542.638 756.3V755.8C542.638 750.6 543.505 745.8 545.238 741.4C546.972 737 549.372 733.233 552.438 730.1C555.572 726.9 559.272 724.4 563.538 722.6C567.805 720.733 572.505 719.8 577.638 719.8C580.638 719.8 583.505 720.167 586.238 720.9C588.972 721.567 591.538 722.533 593.938 723.8C596.338 725.067 598.572 726.667 600.638 728.6C602.705 730.467 604.572 732.6 606.238 735L594.738 743.6C592.672 740.333 590.338 737.9 587.738 736.3C585.138 734.633 582.072 733.8 578.538 733.8H578.438C575.438 733.8 572.738 734.333 570.338 735.4C567.938 736.467 565.872 737.967 564.138 739.9C562.472 741.833 561.172 744.167 560.238 746.9C559.305 749.567 558.838 752.533 558.838 755.8V756.3C558.838 759.5 559.305 762.467 560.238 765.2C561.172 767.867 562.472 770.167 564.138 772.1C565.805 773.967 567.838 775.433 570.238 776.5C572.638 777.567 575.305 778.1 578.238 778.1H578.338C580.138 778.1 581.838 777.9 583.438 777.5C585.038 777.1 586.538 776.5 587.938 775.7C589.405 774.833 590.705 773.833 591.838 772.7C593.038 771.5 594.105 770.1 595.038 768.5L606.338 777.2C604.872 779.533 603.138 781.633 601.138 783.5C599.138 785.3 596.905 786.867 594.438 788.2C592.038 789.533 589.438 790.533 586.638 791.2C583.838 791.933 580.905 792.3 577.838 792.3H577.738ZM618.97 791V721H634.57V750.2H635.47L658.67 721H676.47L648.97 753.2L678.27 791H659.57L635.37 758.2H634.57V791H618.97ZM690.055 792.3C688.721 792.3 687.421 792.167 686.155 791.9C684.955 791.7 683.755 791.367 682.555 790.9V777.8C683.421 778.067 684.188 778.267 684.855 778.4C685.588 778.533 686.355 778.6 687.155 778.6C688.955 778.6 690.388 778.033 691.455 776.9C692.588 775.767 693.455 774.033 694.055 771.7C694.655 769.3 695.055 766.3 695.255 762.7C695.521 759.033 695.688 754.7 695.755 749.7L696.555 721H744.655V791H729.055V734.6H711.355L710.955 749.1C710.821 756.3 710.488 762.6 709.955 768C709.488 773.4 708.521 777.9 707.055 781.5C705.655 785.1 703.588 787.8 700.855 789.6C698.188 791.4 694.588 792.3 690.055 792.3ZM754.855 791L779.155 721H799.155L823.255 791H806.655L801.855 776.4H776.355L771.555 791H754.855ZM779.755 763.9H798.355L789.555 737.2H788.555L779.755 763.9ZM827.338 804.5V778H833.538C834.472 776.467 835.272 774.3 835.938 771.5C836.672 768.633 837.238 765.133 837.638 761C838.105 756.8 838.438 752 838.638 746.6C838.838 741.133 838.938 734.967 838.938 728.1V721H888.338V778H896.638V804.5H881.838V791H842.138V804.5H827.338ZM873.038 778V733.8H853.938V734.5C853.805 739.767 853.605 744.633 853.338 749.1C853.072 753.5 852.672 757.5 852.138 761.1C851.672 764.633 851.072 767.833 850.338 770.7C849.605 773.5 848.805 775.933 847.938 778H873.038Z" fill="#121013"/>
<path d="M667.034 452H662.724V456.31H667.034V452Z" fill="#121013"/>
<path d="M679.966 452H675.655V456.31H679.966V452Z" fill="#121013"/>
<path d="M684.276 452H679.966V456.31H684.276V452Z" fill="#121013"/>
<path d="M692.897 452H688.586V456.31H692.897V452Z" fill="#121013"/>
<path d="M697.207 452H692.897V456.31H697.207V452Z" fill="#121013"/>
<path d="M701.517 452H697.207V456.31H701.517V452Z" fill="#121013"/>
<path d="M654.103 456.31H649.793V460.621H654.103V456.31Z" fill="#121013"/>
<path d="M662.724 456.31L658.414 456.31V460.621H662.724L662.724 456.31Z" fill="#121013"/>
<path d="M667.034 456.31H662.724L662.724 460.621H667.034V456.31Z" fill="#121013"/>
<path d="M688.586 456.31H684.276L684.276 460.621H688.586L688.586 456.31Z" fill="#121013"/>
<path d="M697.207 456.31H692.897V460.621H697.207V456.31Z" fill="#121013"/>
<path d="M649.793 460.621L645.483 460.621V464.931H649.793L649.793 460.621Z" fill="#121013"/>
<path d="M654.103 460.621H649.793L649.793 464.931H654.103V460.621Z" fill="#121013"/>
<path d="M675.655 460.621H671.345V464.931H675.655V460.621Z" fill="#121013"/>
<path d="M684.276 460.621L679.966 460.621V464.931H684.276L684.276 460.621Z" fill="#121013"/>
<path d="M692.897 460.621H688.586L688.586 464.931H692.897V460.621Z" fill="#121013"/>
<path d="M697.207 460.621H692.897V464.931H697.207V460.621Z" fill="#121013"/>
<path d="M649.793 464.931H645.483V469.241H649.793V464.931Z" fill="#121013"/>
<path d="M662.724 464.931H658.414V469.241H662.724V464.931Z" fill="#121013"/>
<path d="M667.034 464.931H662.724V469.241H667.034V464.931Z" fill="#121013"/>
<path d="M684.276 464.931H679.966V469.241H684.276V464.931Z" fill="#121013"/>
<path d="M688.586 464.931H684.276V469.241H688.586L688.586 464.931Z" fill="#121013"/>
<path d="M692.897 464.931H688.586L688.586 469.241H692.897V464.931Z" fill="#121013"/>
<path d="M649.793 469.241H645.483V473.552H649.793V469.241Z" fill="#121013"/>
<path d="M654.103 469.241L649.793 469.241V473.552H654.103V469.241Z" fill="#121013"/>
<path d="M662.724 469.241H658.414V473.552H662.724V469.241Z" fill="#121013"/>
<path d="M671.345 469.241L667.034 469.241L667.034 473.552H671.345V469.241Z" fill="#121013"/>
<path d="M675.655 469.241H671.345V473.552H675.655V469.241Z" fill="#121013"/>
<path d="M679.966 469.241L675.655 469.241V473.552H679.966L679.966 469.241Z" fill="#121013"/>
<path d="M701.517 469.241H697.207V473.552H701.517V469.241Z" fill="#121013"/>
<path d="M649.793 473.552H645.483V477.862H649.793V473.552Z" fill="#121013"/>
<path d="M654.103 473.552H649.793V477.862H654.103V473.552Z" fill="#121013"/>
<path d="M662.724 473.552H658.414V477.862H662.724V473.552Z" fill="#121013"/>
<path d="M671.345 473.552H667.034V477.862H671.345V473.552Z" fill="#121013"/>
<path d="M675.655 473.552H671.345V477.862H675.655V473.552Z" fill="#121013"/>
<path d="M679.966 473.552H675.655V477.862H679.966V473.552Z" fill="#121013"/>
<path d="M684.276 473.552L679.966 473.552V477.862H684.276V473.552Z" fill="#121013"/>
<path d="M688.586 473.552H684.276V477.862H688.586V473.552Z" fill="#121013"/>
<path d="M649.793 477.862H645.483V482.172H649.793V477.862Z" fill="#121013"/>
<path d="M658.414 477.862H654.103L654.103 482.172H658.414V477.862Z" fill="#121013"/>
<path d="M667.034 477.862H662.724L662.724 482.172H667.034L667.034 477.862Z" fill="#121013"/>
<path d="M675.655 477.862H671.345V482.172H675.655V477.862Z" fill="#121013"/>
<path d="M684.276 477.862H679.966L679.966 482.172H684.276V477.862Z" fill="#121013"/>
<path d="M692.897 477.862H688.586L688.586 482.172H692.897V477.862Z" fill="#121013"/>
<path d="M701.517 477.862H697.207V482.172H701.517V477.862Z" fill="#121013"/>
<path d="M649.793 482.172H645.483V486.483H649.793V482.172Z" fill="#121013"/>
<path d="M671.345 482.172H667.034L667.034 486.483H671.345V482.172Z" fill="#121013"/>
<path d="M679.966 482.172H675.655V486.483H679.966L679.966 482.172Z" fill="#121013"/>
<path d="M688.586 482.172H684.276L684.276 486.483H688.586L688.586 482.172Z" fill="#121013"/>
<path d="M692.897 482.172H688.586L688.586 486.483H692.897V482.172Z" fill="#121013"/>
<path d="M697.207 482.172H692.897V486.483H697.207V482.172Z" fill="#121013"/>
<path d="M701.517 482.172H697.207V486.483H701.517V482.172Z" fill="#121013"/>
<path d="M615.31 486.483H611V490.793H615.31V486.483Z" fill="#121013"/>
<path d="M623.931 486.483H619.621V490.793H623.931V486.483Z" fill="#121013"/>
<path d="M628.241 486.483H623.931V490.793H628.241V486.483Z" fill="#121013"/>
<path d="M632.552 486.483H628.241V490.793H632.552V486.483Z" fill="#121013"/>
<path d="M636.862 486.483H632.552V490.793H636.862V486.483Z" fill="#121013"/>
<path d="M641.172 486.483H636.862V490.793H641.172V486.483Z" fill="#121013"/>
<path d="M654.103 486.483L649.793 486.483L649.793 490.793H654.103V486.483Z" fill="#121013"/>
<path d="M675.655 486.483H671.345V490.793H675.655V486.483Z" fill="#121013"/>
<path d="M679.966 486.483H675.655V490.793H679.966V486.483Z" fill="#121013"/>
<path d="M688.586 486.483H684.276V490.793H688.586V486.483Z" fill="#121013"/>
<path d="M701.517 486.483H697.207V490.793H701.517V486.483Z" fill="#121013"/>
<path d="M710.138 486.483H705.828V490.793H710.138V486.483Z" fill="#121013"/>
<path d="M714.448 486.483H710.138V490.793H714.448V486.483Z" fill="#121013"/>
<path d="M718.759 486.483H714.448V490.793H718.759V486.483Z" fill="#121013"/>
<path d="M723.069 486.483H718.759V490.793H723.069V486.483Z" fill="#121013"/>
<path d="M727.379 486.483H723.069V490.793H727.379V486.483Z" fill="#121013"/>
<path d="M632.552 490.793H628.241L628.241 495.103H632.552V490.793Z" fill="#121013"/>
<path d="M654.103 490.793H649.793V495.103H654.103V490.793Z" fill="#121013"/>
<path d="M667.034 490.793H662.724V495.103H667.034V490.793Z" fill="#121013"/>
<path d="M679.966 490.793H675.655V495.103H679.966V490.793Z" fill="#121013"/>
<path d="M684.276 490.793H679.966V495.103H684.276L684.276 490.793Z" fill="#121013"/>
<path d="M714.448 490.793H710.138V495.103H714.448V490.793Z" fill="#121013"/>
<path d="M723.069 490.793H718.759V495.103H723.069V490.793Z" fill="#121013"/>
<path d="M736 490.793H731.69V495.103H736V490.793Z" fill="#121013"/>
<path d="M619.621 495.103H615.31V499.414H619.621V495.103Z" fill="#121013"/>
<path d="M623.931 495.103H619.621V499.414H623.931V495.103Z" fill="#121013"/>
<path d="M632.552 495.103H628.241V499.414H632.552V495.103Z" fill="#121013"/>
<path d="M636.862 495.103L632.552 495.103V499.414H636.862V495.103Z" fill="#121013"/>
<path d="M641.172 495.103H636.862V499.414H641.172V495.103Z" fill="#121013"/>
<path d="M688.586 495.103L684.276 495.103L684.276 499.414H688.586V495.103Z" fill="#121013"/>
<path d="M723.069 495.103H718.759V499.414H723.069V495.103Z" fill="#121013"/>
<path d="M727.379 495.103L723.069 495.103V499.414H727.379V495.103Z" fill="#121013"/>
<path d="M736 495.103H731.69V499.414H736V495.103Z" fill="#121013"/>
<path d="M615.31 499.414H611V503.724H615.31L615.31 499.414Z" fill="#121013"/>
<path d="M619.621 499.414H615.31L615.31 503.724H619.621V499.414Z" fill="#121013"/>
<path d="M623.931 499.414H619.621V503.724H623.931V499.414Z" fill="#121013"/>
<path d="M628.241 499.414H623.931V503.724H628.241L628.241 499.414Z" fill="#121013"/>
<path d="M632.552 499.414H628.241L628.241 503.724H632.552V499.414Z" fill="#121013"/>
<path d="M645.483 499.414H641.172L641.172 503.724H645.483V499.414Z" fill="#121013"/>
<path d="M649.793 499.414H645.483V503.724H649.793V499.414Z" fill="#121013"/>
<path d="M675.655 499.414H671.345V503.724H675.655V499.414Z" fill="#121013"/>
<path d="M684.276 499.414H679.966V503.724H684.276L684.276 499.414Z" fill="#121013"/>
<path d="M688.586 499.414H684.276L684.276 503.724H688.586V499.414Z" fill="#121013"/>
<path d="M692.897 499.414H688.586V503.724H692.897V499.414Z" fill="#121013"/>
<path d="M697.207 499.414H692.897V503.724H697.207V499.414Z" fill="#121013"/>
<path d="M701.517 499.414H697.207V503.724H701.517V499.414Z" fill="#121013"/>
<path d="M705.828 499.414H701.517V503.724H705.828V499.414Z" fill="#121013"/>
<path d="M710.138 499.414H705.828V503.724H710.138V499.414Z" fill="#121013"/>
<path d="M714.448 499.414H710.138V503.724H714.448V499.414Z" fill="#121013"/>
<path d="M718.759 499.414H714.448V503.724H718.759V499.414Z" fill="#121013"/>
<path d="M723.069 499.414H718.759V503.724H723.069V499.414Z" fill="#121013"/>
<path d="M731.69 499.414H727.379V503.724H731.69V499.414Z" fill="#121013"/>
<path d="M736 499.414H731.69V503.724H736V499.414Z" fill="#121013"/>
<path d="M615.31 503.724H611V508.034H615.31V503.724Z" fill="#121013"/>
<path d="M619.621 503.724H615.31V508.034H619.621V503.724Z" fill="#121013"/>
<path d="M623.931 503.724H619.621V508.034H623.931V503.724Z" fill="#121013"/>
<path d="M628.241 503.724H623.931V508.034H628.241V503.724Z" fill="#121013"/>
<path d="M632.552 503.724H628.241V508.034H632.552V503.724Z" fill="#121013"/>
<path d="M641.172 503.724L636.862 503.724V508.034H641.172L641.172 503.724Z" fill="#121013"/>
<path d="M649.793 503.724H645.483L645.483 508.034H649.793V503.724Z" fill="#121013"/>
<path d="M654.103 503.724L649.793 503.724V508.034H654.103V503.724Z" fill="#121013"/>
<path d="M658.414 503.724H654.103V508.034H658.414V503.724Z" fill="#121013"/>
<path d="M662.724 503.724H658.414V508.034H662.724V503.724Z" fill="#121013"/>
<path d="M667.034 503.724H662.724V508.034H667.034V503.724Z" fill="#121013"/>
<path d="M684.276 503.724H679.966V508.034H684.276V503.724Z" fill="#121013"/>
<path d="M705.828 503.724H701.517L701.517 508.034H705.828V503.724Z" fill="#121013"/>
<path d="M710.138 503.724H705.828V508.034H710.138V503.724Z" fill="#121013"/>
<path d="M714.448 503.724H710.138V508.034H714.448V503.724Z" fill="#121013"/>
<path d="M718.759 503.724H714.448V508.034H718.759V503.724Z" fill="#121013"/>
<path d="M615.31 508.034H611V512.345H615.31V508.034Z" fill="#121013"/>
<path d="M623.931 508.034H619.621L619.621 512.345H623.931V508.034Z" fill="#121013"/>
<path d="M628.241 508.034H623.931V512.345H628.241V508.034Z" fill="#121013"/>
<path d="M645.483 508.034H641.172L641.172 512.345H645.483L645.483 508.034Z" fill="#121013"/>
<path d="M654.103 508.034H649.793L649.793 512.345H654.103V508.034Z" fill="#121013"/>
<path d="M662.724 508.034H658.414V512.345H662.724V508.034Z" fill="#121013"/>
<path d="M671.345 508.034L667.034 508.034L667.034 512.345H671.345V508.034Z" fill="#121013"/>
<path d="M675.655 508.034H671.345V512.345H675.655V508.034Z" fill="#121013"/>
<path d="M679.966 508.034L675.655 508.034V512.345H679.966L679.966 508.034Z" fill="#121013"/>
<path d="M701.517 508.034L697.207 508.034V512.345H701.517L701.517 508.034Z" fill="#121013"/>
<path d="M714.448 508.034H710.138V512.345H714.448V508.034Z" fill="#121013"/>
<path d="M723.069 508.034L718.759 508.034V512.345H723.069V508.034Z" fill="#121013"/>
<path d="M736 508.034H731.69V512.345H736V508.034Z" fill="#121013"/>
<path d="M628.241 512.345H623.931L623.931 516.655H628.241V512.345Z" fill="#121013"/>
<path d="M632.552 512.345H628.241V516.655H632.552V512.345Z" fill="#121013"/>
<path d="M636.862 512.345H632.552V516.655H636.862V512.345Z" fill="#121013"/>
<path d="M641.172 512.345H636.862V516.655H641.172L641.172 512.345Z" fill="#121013"/>
<path d="M649.793 512.345H645.483L645.483 516.655H649.793L649.793 512.345Z" fill="#121013"/>
<path d="M654.103 512.345H649.793L649.793 516.655H654.103V512.345Z" fill="#121013"/>
<path d="M658.414 512.345H654.103V516.655H658.414V512.345Z" fill="#121013"/>
<path d="M662.724 512.345H658.414V516.655H662.724V512.345Z" fill="#121013"/>
<path d="M667.034 512.345H662.724V516.655H667.034L667.034 512.345Z" fill="#121013"/>
<path d="M671.345 512.345H667.034L667.034 516.655H671.345V512.345Z" fill="#121013"/>
<path d="M675.655 512.345H671.345V516.655H675.655V512.345Z" fill="#121013"/>
<path d="M679.966 512.345H675.655V516.655H679.966V512.345Z" fill="#121013"/>
<path d="M684.276 512.345H679.966V516.655H684.276V512.345Z" fill="#121013"/>
<path d="M688.586 512.345H684.276V516.655H688.586V512.345Z" fill="#121013"/>
<path d="M692.897 512.345H688.586V516.655H692.897V512.345Z" fill="#121013"/>
<path d="M697.207 512.345H692.897V516.655H697.207V512.345Z" fill="#121013"/>
<path d="M723.069 512.345H718.759V516.655H723.069V512.345Z" fill="#121013"/>
<path d="M727.379 512.345H723.069V516.655H727.379V512.345Z" fill="#121013"/>
<path d="M731.69 512.345H727.379V516.655H731.69V512.345Z" fill="#121013"/>
<path d="M619.621 516.655H615.31V520.966H619.621V516.655Z" fill="#121013"/>
<path d="M623.931 516.655H619.621V520.966H623.931L623.931 516.655Z" fill="#121013"/>
<path d="M628.241 516.655H623.931L623.931 520.966H628.241V516.655Z" fill="#121013"/>
<path d="M649.793 516.655H645.483V520.966H649.793V516.655Z" fill="#121013"/>
<path d="M654.103 516.655H649.793V520.966H654.103V516.655Z" fill="#121013"/>
<path d="M667.034 516.655H662.724L662.724 520.966H667.034V516.655Z" fill="#121013"/>
<path d="M671.345 516.655H667.034V520.966H671.345V516.655Z" fill="#121013"/>
<path d="M679.966 516.655H675.655V520.966H679.966V516.655Z" fill="#121013"/>
<path d="M688.586 516.655H684.276L684.276 520.966H688.586V516.655Z" fill="#121013"/>
<path d="M692.897 516.655H688.586V520.966H692.897V516.655Z" fill="#121013"/>
<path d="M697.207 516.655H692.897V520.966H697.207V516.655Z" fill="#121013"/>
<path d="M701.517 516.655H697.207V520.966H701.517V516.655Z" fill="#121013"/>
<path d="M705.828 516.655H701.517V520.966H705.828V516.655Z" fill="#121013"/>
<path d="M710.138 516.655H705.828V520.966H710.138V516.655Z" fill="#121013"/>
<path d="M718.759 516.655H714.448V520.966H718.759V516.655Z" fill="#121013"/>
<path d="M727.379 516.655H723.069L723.069 520.966H727.379V516.655Z" fill="#121013"/>
<path d="M736 516.655H731.69V520.966H736V516.655Z" fill="#121013"/>
<path d="M619.621 520.966H615.31V525.276H619.621V520.966Z" fill="#121013"/>
<path d="M623.931 520.966H619.621V525.276H623.931V520.966Z" fill="#121013"/>
<path d="M632.552 520.966L628.241 520.966L628.241 525.276H632.552V520.966Z" fill="#121013"/>
<path d="M636.862 520.966H632.552V525.276H636.862V520.966Z" fill="#121013"/>
<path d="M641.172 520.966H636.862V525.276H641.172V520.966Z" fill="#121013"/>
<path d="M645.483 520.966L641.172 520.966V525.276H645.483L645.483 520.966Z" fill="#121013"/>
<path d="M649.793 520.966H645.483L645.483 525.276H649.793V520.966Z" fill="#121013"/>
<path d="M654.103 520.966H649.793V525.276H654.103V520.966Z" fill="#121013"/>
<path d="M662.724 520.966L658.414 520.966V525.276H662.724L662.724 520.966Z" fill="#121013"/>
<path d="M675.655 520.966H671.345V525.276H675.655V520.966Z" fill="#121013"/>
<path d="M679.966 520.966H675.655V525.276H679.966V520.966Z" fill="#121013"/>
<path d="M688.586 520.966H684.276V525.276H688.586V520.966Z" fill="#121013"/>
<path d="M701.517 520.966H697.207V525.276H701.517V520.966Z" fill="#121013"/>
<path d="M710.138 520.966H705.828V525.276H710.138V520.966Z" fill="#121013"/>
<path d="M714.448 520.966H710.138V525.276H714.448V520.966Z" fill="#121013"/>
<path d="M718.759 520.966H714.448V525.276H718.759V520.966Z" fill="#121013"/>
<path d="M723.069 520.966H718.759V525.276H723.069L723.069 520.966Z" fill="#121013"/>
<path d="M615.31 525.276L611 525.276V529.586H615.31L615.31 525.276Z" fill="#121013"/>
<path d="M623.931 525.276H619.621L619.621 529.586H623.931V525.276Z" fill="#121013"/>
<path d="M628.241 525.276H623.931V529.586H628.241L628.241 525.276Z" fill="#121013"/>
<path d="M645.483 525.276H641.172L641.172 529.586H645.483V525.276Z" fill="#121013"/>
<path d="M649.793 525.276H645.483V529.586H649.793V525.276Z" fill="#121013"/>
<path d="M662.724 525.276H658.414V529.586H662.724V525.276Z" fill="#121013"/>
<path d="M667.034 525.276L662.724 525.276V529.586H667.034V525.276Z" fill="#121013"/>
<path d="M679.966 525.276H675.655V529.586H679.966V525.276Z" fill="#121013"/>
<path d="M684.276 525.276H679.966V529.586H684.276L684.276 525.276Z" fill="#121013"/>
<path d="M692.897 525.276L688.586 525.276L688.586 529.586H692.897V525.276Z" fill="#121013"/>
<path d="M697.207 525.276L692.897 525.276V529.586H697.207V525.276Z" fill="#121013"/>
<path d="M705.828 525.276H701.517L701.517 529.586H705.828V525.276Z" fill="#121013"/>
<path d="M710.138 525.276H705.828V529.586H710.138V525.276Z" fill="#121013"/>
<path d="M736 525.276H731.69V529.586H736V525.276Z" fill="#121013"/>
<path d="M615.31 529.586H611V533.897H615.31V529.586Z" fill="#121013"/>
<path d="M628.241 529.586H623.931L623.931 533.897H628.241V529.586Z" fill="#121013"/>
<path d="M632.552 529.586L628.241 529.586V533.897H632.552V529.586Z" fill="#121013"/>
<path d="M641.172 529.586L636.862 529.586V533.897H641.172L641.172 529.586Z" fill="#121013"/>
<path d="M654.103 529.586L649.793 529.586L649.793 533.897H654.103V529.586Z" fill="#121013"/>
<path d="M667.034 529.586H662.724L662.724 533.897H667.034V529.586Z" fill="#121013"/>
<path d="M688.586 529.586H684.276L684.276 533.897H688.586L688.586 529.586Z" fill="#121013"/>
<path d="M697.207 529.586H692.897V533.897H697.207V529.586Z" fill="#121013"/>
<path d="M714.448 529.586L710.138 529.586V533.897H714.448V529.586Z" fill="#121013"/>
<path d="M727.379 529.586H723.069V533.897H727.379V529.586Z" fill="#121013"/>
<path d="M731.69 529.586L727.379 529.586V533.897H731.69V529.586Z" fill="#121013"/>
<path d="M736 529.586H731.69V533.897H736V529.586Z" fill="#121013"/>
<path d="M615.31 533.897H611V538.207H615.31V533.897Z" fill="#121013"/>
<path d="M623.931 533.897H619.621V538.207H623.931L623.931 533.897Z" fill="#121013"/>
<path d="M636.862 533.897H632.552L632.552 538.207H636.862V533.897Z" fill="#121013"/>
<path d="M645.483 533.897H641.172L641.172 538.207H645.483V533.897Z" fill="#121013"/>
<path d="M649.793 533.897H645.483V538.207H649.793L649.793 533.897Z" fill="#121013"/>
<path d="M658.414 533.897H654.103L654.103 538.207H658.414V533.897Z" fill="#121013"/>
<path d="M662.724 533.897H658.414V538.207H662.724L662.724 533.897Z" fill="#121013"/>
<path d="M675.655 533.897H671.345V538.207H675.655V533.897Z" fill="#121013"/>
<path d="M684.276 533.897H679.966V538.207H684.276L684.276 533.897Z" fill="#121013"/>
<path d="M697.207 533.897H692.897V538.207H697.207V533.897Z" fill="#121013"/>
<path d="M701.517 533.897H697.207V538.207H701.517V533.897Z" fill="#121013"/>
<path d="M705.828 533.897H701.517V538.207H705.828V533.897Z" fill="#121013"/>
<path d="M710.138 533.897H705.828V538.207H710.138V533.897Z" fill="#121013"/>
<path d="M714.448 533.897H710.138V538.207H714.448V533.897Z" fill="#121013"/>
<path d="M718.759 533.897H714.448V538.207H718.759V533.897Z" fill="#121013"/>
<path d="M723.069 533.897H718.759V538.207H723.069L723.069 533.897Z" fill="#121013"/>
<path d="M727.379 533.897H723.069L723.069 538.207H727.379V533.897Z" fill="#121013"/>
<path d="M615.31 538.207H611V542.517H615.31V538.207Z" fill="#121013"/>
<path d="M623.931 538.207H619.621V542.517H623.931V538.207Z" fill="#121013"/>
<path d="M628.241 538.207H623.931V542.517H628.241V538.207Z" fill="#121013"/>
<path d="M632.552 538.207H628.241V542.517H632.552L632.552 538.207Z" fill="#121013"/>
<path d="M641.172 538.207H636.862V542.517H641.172L641.172 538.207Z" fill="#121013"/>
<path d="M645.483 538.207H641.172L641.172 542.517H645.483V538.207Z" fill="#121013"/>
<path d="M649.793 538.207H645.483V542.517H649.793V538.207Z" fill="#121013"/>
<path d="M654.103 538.207H649.793V542.517H654.103L654.103 538.207Z" fill="#121013"/>
<path d="M684.276 538.207H679.966V542.517H684.276V538.207Z" fill="#121013"/>
<path d="M701.517 538.207H697.207V542.517H701.517V538.207Z" fill="#121013"/>
<path d="M705.828 538.207H701.517V542.517H705.828V538.207Z" fill="#121013"/>
<path d="M710.138 538.207H705.828V542.517H710.138V538.207Z" fill="#121013"/>
<path d="M714.448 538.207H710.138V542.517H714.448V538.207Z" fill="#121013"/>
<path d="M718.759 538.207H714.448V542.517H718.759V538.207Z" fill="#121013"/>
<path d="M723.069 538.207H718.759V542.517H723.069V538.207Z" fill="#121013"/>
<path d="M731.69 538.207H727.379V542.517H731.69V538.207Z" fill="#121013"/>
<path d="M649.793 542.517H645.483L645.483 546.828H649.793V542.517Z" fill="#121013"/>
<path d="M658.414 542.517L654.103 542.517L654.103 546.828H658.414V542.517Z" fill="#121013"/>
<path d="M667.034 542.517H662.724V546.828H667.034V542.517Z" fill="#121013"/>
<path d="M671.345 542.517H667.034V546.828H671.345V542.517Z" fill="#121013"/>
<path d="M675.655 542.517H671.345V546.828H675.655V542.517Z" fill="#121013"/>
<path d="M679.966 542.517L675.655 542.517V546.828H679.966L679.966 542.517Z" fill="#121013"/>
<path d="M697.207 542.517L692.897 542.517V546.828H697.207V542.517Z" fill="#121013"/>
<path d="M701.517 542.517H697.207V546.828H701.517V542.517Z" fill="#121013"/>
<path d="M718.759 542.517H714.448V546.828H718.759V542.517Z" fill="#121013"/>
<path d="M723.069 542.517H718.759V546.828H723.069V542.517Z" fill="#121013"/>
<path d="M731.69 542.517H727.379V546.828H731.69V542.517Z" fill="#121013"/>
<path d="M667.034 546.828H662.724V551.138H667.034V546.828Z" fill="#121013"/>
<path d="M671.345 546.828H667.034V551.138H671.345V546.828Z" fill="#121013"/>
<path d="M675.655 546.828H671.345V551.138H675.655V546.828Z" fill="#121013"/>
<path d="M679.966 546.828H675.655V551.138H679.966V546.828Z" fill="#121013"/>
<path d="M684.276 546.828H679.966V551.138H684.276V546.828Z" fill="#121013"/>
<path d="M688.586 546.828H684.276V551.138H688.586V546.828Z" fill="#121013"/>
<path d="M697.207 546.828H692.897V551.138H697.207V546.828Z" fill="#121013"/>
<path d="M701.517 546.828H697.207V551.138H701.517V546.828Z" fill="#121013"/>
<path d="M710.138 546.828H705.828V551.138H710.138V546.828Z" fill="#121013"/>
<path d="M718.759 546.828H714.448V551.138H718.759V546.828Z" fill="#121013"/>
<path d="M723.069 546.828H718.759V551.138H723.069V546.828Z" fill="#121013"/>
<path d="M727.379 546.828H723.069V551.138H727.379V546.828Z" fill="#121013"/>
<path d="M649.793 551.138H645.483V555.448H649.793V551.138Z" fill="#121013"/>
<path d="M654.103 551.138H649.793V555.448H654.103V551.138Z" fill="#121013"/>
<path d="M667.034 551.138H662.724V555.448H667.034V551.138Z" fill="#121013"/>
<path d="M671.345 551.138H667.034V555.448H671.345V551.138Z" fill="#121013"/>
<path d="M679.966 551.138H675.655V555.448H679.966V551.138Z" fill="#121013"/>
<path d="M692.897 551.138H688.586L688.586 555.448H692.897V551.138Z" fill="#121013"/>
<path d="M701.517 551.138H697.207V555.448H701.517V551.138Z" fill="#121013"/>
<path d="M718.759 551.138H714.448V555.448H718.759V551.138Z" fill="#121013"/>
<path d="M723.069 551.138H718.759V555.448H723.069V551.138Z" fill="#121013"/>
<path d="M731.69 551.138H727.379V555.448H731.69V551.138Z" fill="#121013"/>
<path d="M736 551.138H731.69V555.448H736V551.138Z" fill="#121013"/>
<path d="M649.793 555.448H645.483V559.759H649.793V555.448Z" fill="#121013"/>
<path d="M654.103 555.448H649.793V559.759H654.103V555.448Z" fill="#121013"/>
<path d="M658.414 555.448H654.103V559.759H658.414V555.448Z" fill="#121013"/>
<path d="M662.724 555.448H658.414V559.759H662.724L662.724 555.448Z" fill="#121013"/>
<path d="M667.034 555.448H662.724L662.724 559.759H667.034V555.448Z" fill="#121013"/>
<path d="M675.655 555.448H671.345V559.759H675.655V555.448Z" fill="#121013"/>
<path d="M679.966 555.448H675.655V559.759H679.966V555.448Z" fill="#121013"/>
<path d="M692.897 555.448H688.586V559.759H692.897V555.448Z" fill="#121013"/>
<path d="M701.517 555.448H697.207V559.759H701.517V555.448Z" fill="#121013"/>
<path d="M705.828 555.448H701.517V559.759H705.828V555.448Z" fill="#121013"/>
<path d="M710.138 555.448H705.828V559.759H710.138V555.448Z" fill="#121013"/>
<path d="M714.448 555.448H710.138V559.759H714.448V555.448Z" fill="#121013"/>
<path d="M718.759 555.448H714.448V559.759H718.759V555.448Z" fill="#121013"/>
<path d="M731.69 555.448H727.379V559.759H731.69V555.448Z" fill="#121013"/>
<path d="M736 555.448H731.69V559.759H736V555.448Z" fill="#121013"/>
<path d="M649.793 559.759H645.483V564.069H649.793V559.759Z" fill="#121013"/>
<path d="M654.103 559.759H649.793V564.069H654.103V559.759Z" fill="#121013"/>
<path d="M667.034 559.759H662.724L662.724 564.069H667.034V559.759Z" fill="#121013"/>
<path d="M671.345 559.759H667.034V564.069H671.345V559.759Z" fill="#121013"/>
<path d="M679.966 559.759H675.655V564.069H679.966V559.759Z" fill="#121013"/>
<path d="M684.276 559.759H679.966V564.069H684.276V559.759Z" fill="#121013"/>
<path d="M697.207 559.759H692.897V564.069H697.207V559.759Z" fill="#121013"/>
<path d="M701.517 559.759H697.207V564.069H701.517V559.759Z" fill="#121013"/>
<path d="M705.828 559.759H701.517V564.069H705.828V559.759Z" fill="#121013"/>
<path d="M710.138 559.759H705.828V564.069H710.138V559.759Z" fill="#121013"/>
<path d="M714.448 559.759H710.138V564.069H714.448V559.759Z" fill="#121013"/>
<path d="M718.759 559.759H714.448V564.069H718.759V559.759Z" fill="#121013"/>
<path d="M723.069 559.759H718.759V564.069H723.069V559.759Z" fill="#121013"/>
<path d="M649.793 564.069H645.483V568.379H649.793V564.069Z" fill="#121013"/>
<path d="M654.103 564.069H649.793V568.379H654.103V564.069Z" fill="#121013"/>
<path d="M658.414 564.069L654.103 564.069V568.379H658.414V564.069Z" fill="#121013"/>
<path d="M692.897 564.069L688.586 564.069V568.379H692.897V564.069Z" fill="#121013"/>
<path d="M697.207 564.069H692.897V568.379H697.207V564.069Z" fill="#121013"/>
<path d="M723.069 564.069H718.759V568.379H723.069V564.069Z" fill="#121013"/>
<path d="M727.379 564.069L723.069 564.069V568.379H727.379V564.069Z" fill="#121013"/>
<path d="M731.69 564.069H727.379V568.379H731.69V564.069Z" fill="#121013"/>
<path d="M662.724 568.379H658.414V572.69H662.724V568.379Z" fill="#121013"/>
<path d="M671.345 568.379H667.034V572.69H671.345V568.379Z" fill="#121013"/>
<path d="M675.655 568.379H671.345V572.69H675.655V568.379Z" fill="#121013"/>
<path d="M684.276 568.379H679.966V572.69H684.276V568.379Z" fill="#121013"/>
<path d="M692.897 568.379H688.586V572.69H692.897V568.379Z" fill="#121013"/>
<path d="M697.207 568.379H692.897V572.69H697.207V568.379Z" fill="#121013"/>
<path d="M705.828 568.379H701.517V572.69H705.828V568.379Z" fill="#121013"/>
<path d="M723.069 568.379H718.759V572.69H723.069V568.379Z" fill="#121013"/>
<path d="M736 568.379H731.69V572.69H736V568.379Z" fill="#121013"/>
<path d="M649.793 572.69H645.483V577H649.793V572.69Z" fill="#121013"/>
<path d="M654.103 572.69H649.793V577H654.103V572.69Z" fill="#121013"/>
<path d="M658.414 572.69H654.103V577H658.414V572.69Z" fill="#121013"/>
<path d="M662.724 572.69H658.414V577H662.724V572.69Z" fill="#121013"/>
<path d="M671.345 572.69H667.034V577H671.345V572.69Z" fill="#121013"/>
<path d="M692.897 572.69H688.586V577H692.897V572.69Z" fill="#121013"/>
<path d="M697.207 572.69H692.897V577H697.207V572.69Z" fill="#121013"/>
<path d="M701.517 572.69H697.207V577H701.517L701.517 572.69Z" fill="#121013"/>
<path d="M705.828 572.69H701.517L701.517 577H705.828V572.69Z" fill="#121013"/>
<path d="M710.138 572.69H705.828V577H710.138V572.69Z" fill="#121013"/>
<path d="M714.448 572.69H710.138V577H714.448V572.69Z" fill="#121013"/>
<path d="M718.759 572.69H714.448V577H718.759V572.69Z" fill="#121013"/>
<path d="M727.379 572.69H723.069L723.069 577H727.379V572.69Z" fill="#121013"/>
<path fill-rule="evenodd" clip-rule="evenodd" d="M611 452H641.172V482.172H611V452ZM615.31 456.31H636.862V477.862H615.31V456.31Z" fill="#121013"/>
<path fill-rule="evenodd" clip-rule="evenodd" d="M705.828 452H736V482.172H705.828V452ZM710.138 456.31H731.69V477.862H710.138V456.31Z" fill="#121013"/>
<path d="M632.552 460.621H619.621V473.552H632.552V460.621Z" fill="#121013"/>
<path d="M727.379 460.621H714.448V473.552H727.379V460.621Z" fill="#121013"/>
<path fill-rule="evenodd" clip-rule="evenodd" d="M611 546.828H641.172V577H611V546.828ZM615.31 551.138H636.862V572.69H615.31V551.138Z" fill="#121013"/>
<path d="M632.552 555.448H619.621V568.379H632.552V555.448Z" fill="#121013"/>
</svg>
