<svg width="899" height="825" viewBox="0 0 899 825" fill="none" xmlns="http://www.w3.org/2000/svg">
<path d="M474.651 401.961C487.888 409.608 500.915 417.082 513.931 424.579C527.981 432.671 542.032 440.763 556.06 448.892C558.654 450.397 559.858 452.484 559.85 455.778C559.725 495.396 559.736 535.015 559.828 574.631C559.835 578.016 558.628 580.022 555.736 581.67C533.52 594.326 511.359 607.081 489.202 619.843C476.943 626.901 464.704 633.985 452.512 641.154C450.227 642.497 448.258 642.446 446.043 641.154C435.602 635.082 425.125 629.08 414.674 623.03C398.144 613.469 381.628 603.872 365.086 594.326C357.586 589.998 350.042 585.744 342.502 581.49C339.944 580.048 338.675 578.104 338.679 574.991C338.752 535.129 338.76 495.264 338.668 455.402C338.66 452.256 339.956 450.309 342.451 448.878C354.926 441.713 367.43 434.596 379.898 427.416C394.497 419.003 409.07 410.547 423.65 402.108C430.804 397.968 437.998 393.902 445.089 389.663C448.052 387.893 450.613 387.981 453.576 389.769C460.442 393.917 467.471 397.803 474.651 401.961Z" fill="#121013"/>
<path d="M388.175 219.799C379.582 214.947 371.206 210.263 362.878 205.494C355.997 201.552 349.17 197.507 342.318 193.514C339.923 192.119 338.675 190.252 338.682 187.276C338.749 147.299 338.756 107.322 338.671 67.3448C338.668 64.3404 339.948 62.4706 342.3 61.1105C350.208 56.5392 358.161 52.0415 366.08 47.4838C376.241 41.6337 386.386 35.7538 396.539 29.8853C412.768 20.5054 428.99 11.1148 445.229 1.75413C447.986 0.16478 450.676 0.228812 453.532 1.88864C471.236 12.1823 488.999 22.3734 506.733 32.6159C522.465 41.7011 538.183 50.8106 553.907 59.9035C554.537 60.2682 555.225 60.5361 555.847 60.9144C558.367 62.4511 559.861 64.2886 559.85 67.6657C559.722 107.397 559.733 147.129 559.832 186.861C559.839 190.284 558.507 192.21 555.648 193.844C537.152 204.415 518.734 215.123 500.279 225.763C484.337 234.953 468.366 244.086 452.453 253.319C450.304 254.564 448.409 254.651 446.304 253.431C436.07 247.497 425.821 241.597 415.58 235.675C406.52 230.434 397.47 225.179 388.175 219.799Z" fill="#121013"/>
<path d="M451.335 353.768C451.335 322.87 451.394 292.341 451.258 261.812C451.239 258.214 452.601 256.243 455.574 254.556C469.341 246.747 483.012 238.775 496.728 230.876C511.183 222.551 525.656 214.257 540.104 205.918C545.705 202.686 551.31 199.454 556.808 196.055C560.024 194.065 562.868 193.838 566.287 195.873C579.796 203.918 593.438 211.749 607.043 219.633C622.094 228.354 637.157 237.052 652.219 245.747C657.4 248.736 662.589 251.711 667.804 254.642C670.899 256.383 672.496 258.554 672.477 262.511C672.312 301.868 672.334 341.227 672.455 380.581C672.466 384.058 671.053 386.056 668.319 387.624C656.164 394.59 644.016 401.571 631.865 408.549C617.789 416.63 603.702 424.689 589.644 432.803C581.74 437.367 573.846 441.948 566.037 446.662C562.953 448.521 560.215 448.359 557.176 446.592C541.793 437.654 526.341 428.829 510.94 419.923C493.732 409.969 476.554 399.97 459.361 389.994C457.992 389.203 456.616 388.419 455.217 387.679C452.52 386.251 451.166 384.319 451.254 380.985C451.49 372.043 451.335 363.086 451.335 353.768ZM565.904 377.438C570.195 377.438 574.486 377.497 578.773 377.412C581.717 377.357 583.223 375.844 583.473 372.9C583.568 371.804 583.513 370.696 583.513 369.592C583.517 348.02 583.517 326.445 583.517 304.871C583.517 303.563 583.517 302.255 583.517 300.565C585.254 300.565 586.571 300.565 587.889 300.565C597.203 300.564 606.521 300.594 615.835 300.55C620.394 300.529 622.076 298.829 622.091 294.363C622.116 287.008 622.105 279.654 622.094 272.299C622.087 267.155 620.711 265.782 615.566 265.737C615.198 265.734 614.83 265.737 614.466 265.737C579.896 265.737 545.33 265.737 510.763 265.737C509.906 265.737 509.045 265.693 508.191 265.752C504.975 265.971 503.153 267.645 503.116 270.848C503.028 279.059 503.021 287.274 503.127 295.485C503.164 298.441 505.004 300.183 507.959 300.517C508.927 300.627 509.917 300.563 510.9 300.563C519.967 300.566 529.038 300.556 538.109 300.574C539.276 300.577 540.439 300.715 541.815 300.803C541.815 302.51 541.815 303.841 541.815 305.172C541.815 327.359 541.889 349.547 541.738 371.73C541.712 375.355 543.847 377.684 547.519 377.511C553.392 377.235 559.284 377.438 565.904 377.438Z" fill="#121013"/>
<path d="M444.685 256.104C446.735 257.654 447.195 259.52 447.191 261.749C447.151 301.364 447.14 340.98 447.202 380.595C447.21 383.97 445.752 386.005 442.956 387.613C429.303 395.462 415.724 403.437 402.075 411.29C389.64 418.448 377.128 425.48 364.682 432.623C356.66 437.23 348.637 441.845 340.733 446.655C337.605 448.557 334.83 448.359 331.845 446.614C318.038 438.559 304.231 430.5 290.387 422.499C277.319 414.948 264.207 407.474 251.123 399.948C243.848 395.764 236.606 391.525 229.317 387.366C226.742 385.898 225.572 383.922 225.578 380.842C225.649 341.105 225.662 301.366 225.558 261.628C225.549 258.26 227.117 256.442 229.698 254.952C239.104 249.522 248.494 244.064 257.907 238.647C271.648 230.741 285.407 222.871 299.149 214.969C310.531 208.422 321.924 201.889 333.255 195.254C335.253 194.085 336.894 193.833 338.981 195.046C346.676 199.52 354.477 203.804 362.191 208.248C372.344 214.101 382.438 220.058 392.58 225.933C406.387 233.932 420.221 241.892 434.035 249.876C437.517 251.887 440.979 253.924 444.685 256.104ZM360.509 267.635C359.317 267.363 358.132 267.073 356.936 266.823C346.908 264.726 336.81 264.335 326.62 265.409C317.273 266.395 308.338 268.685 299.999 273.111C288.333 279.3 280.752 288.686 278.809 301.84C276.943 314.481 276.829 327.299 278.817 339.917C281.245 355.336 290.548 365.673 304.797 371.66C310.707 374.144 316.945 375.517 323.289 376.157C337.77 377.618 352.199 377.53 366.198 372.941C382.28 367.667 392.981 356.973 395.734 340.053C397.894 326.747 397.887 313.172 395.403 299.828C393.496 289.606 387.763 281.672 379.115 275.867C373.566 272.144 367.516 269.551 360.509 267.635Z" fill="#121013"/>
<path d="M282.68 421.738C295.873 429.381 308.834 436.888 321.81 444.373C324.555 445.956 327.381 447.391 330.108 448.999C332.979 450.696 334.682 452.771 334.668 456.635C334.502 496.007 334.528 535.387 334.631 574.759C334.642 578.45 333.258 580.544 330.127 582.318C312.831 592.107 295.616 602.043 278.4 611.975C261.528 621.709 244.667 631.472 227.845 641.297C225.1 642.898 222.577 642.788 219.954 641.272C209.915 635.472 199.881 629.665 189.84 623.869C177.04 616.483 164.234 609.109 151.432 601.726C139.832 595.04 128.235 588.346 116.632 581.663C114.443 580.401 113.435 578.723 113.44 576.011C113.524 535.773 113.539 495.54 113.421 455.307C113.412 452.12 114.995 450.673 117.316 449.345C125.677 444.55 134.036 439.755 142.383 434.941C156.56 426.761 170.723 418.554 184.903 410.381C193.44 405.461 202 400.585 210.545 395.68C213.608 393.921 216.747 392.276 219.689 390.329C222.624 388.389 225.29 388.581 228.231 390.288C246.282 400.758 264.372 411.165 282.68 421.738ZM186.83 415.529C164.127 428.634 141.425 441.735 118.809 454.784C118.809 495.555 118.809 536.016 118.809 576.607C153.86 596.843 188.873 617.057 223.934 637.297C259.117 616.984 294.132 596.766 329.166 576.541C329.166 535.917 329.166 495.459 329.166 454.858C294.026 434.57 258.922 414.3 223.929 394.097C211.491 401.281 199.391 408.265 186.83 415.529Z" fill="#121013"/>
<path d="M683.362 389.269C676.54 385.46 676.54 385.464 676.54 377.732C676.54 339.111 676.595 300.485 676.444 261.862C676.429 258.215 677.835 256.306 680.731 254.645C701.442 242.756 722.105 230.785 742.787 218.848C756.315 211.04 769.887 203.307 783.348 195.391C786.079 193.786 788.364 194.03 790.866 195.52C795.989 198.571 801.111 201.622 806.278 204.597C817.348 210.971 828.45 217.282 839.523 223.648C848.524 228.821 857.504 234.032 866.49 239.234C875.359 244.371 884.169 249.612 893.115 254.613C896.342 256.418 897.7 258.613 897.689 262.452C897.553 301.689 897.557 340.925 897.682 380.165C897.697 384.018 896.276 386.06 892.997 387.911C879.33 395.624 865.843 403.654 852.263 411.518C840.233 418.485 828.163 425.377 816.115 432.314C808.291 436.818 800.478 441.337 792.658 445.849C791.816 446.335 790.955 446.791 790.104 447.269C787.889 448.51 785.773 448.407 783.55 447.115C774.718 441.97 765.842 436.903 756.981 431.81C740.627 422.411 724.266 413.027 707.923 403.614C700.721 399.47 693.556 395.264 686.093 390.723C684.996 389.998 684.179 389.633 683.362 389.269ZM892.357 346.04C892.357 317.501 892.357 288.962 892.357 260.577C891.165 259.845 890.348 259.313 889.501 258.825C856.282 239.647 823.04 220.504 789.88 201.231C787.569 199.889 786.016 200.175 783.918 201.389C750.942 220.495 717.925 239.534 684.919 258.591C683.87 259.197 682.84 259.834 681.857 260.423C681.857 301.097 681.857 341.547 681.857 382.148C716.887 402.377 751.888 422.588 786.999 442.861C822.187 422.544 857.283 402.281 892.357 382.03C892.357 370.063 892.357 358.42 892.357 346.04Z" fill="#121013"/>
<path d="M748.17 212.426C728.99 223.516 709.806 234.603 690.63 245.698C686.611 248.021 682.534 250.251 678.626 252.744C675.579 254.687 672.811 254.653 669.742 252.827C662.095 248.276 654.371 243.851 646.661 239.396C629.693 229.586 612.721 219.781 595.741 209.988C586.122 204.44 576.48 198.922 566.853 193.386C564.424 191.99 563.372 190.042 563.376 187.086C563.46 147.345 563.468 107.605 563.368 67.8644C563.357 64.5925 564.627 62.5505 567.251 61.0373C574.213 57.0275 581.179 53.0311 588.138 49.0191C601.471 41.3323 614.796 33.6389 628.125 25.9481C641.951 17.9713 655.788 10.0089 669.599 2.00503C672.333 0.420239 675.064 -0.0759357 677.905 1.56637C691.719 9.55002 705.523 17.5551 719.33 25.5492C739.614 37.2921 759.877 49.0747 780.212 60.7285C783.414 62.5634 784.856 64.7162 784.842 68.5894C784.705 107.594 784.705 146.598 784.834 185.602C784.845 189.813 783.712 192.699 779.675 194.243C778.553 194.674 777.563 195.455 776.076 196.189C774.873 196.813 774.103 197.324 773.331 197.834C765.963 202.029 758.596 206.224 750.794 210.612C749.628 211.345 748.899 211.886 748.17 212.426ZM568.686 145.112C568.686 158.112 568.785 171.114 568.616 184.112C568.575 187.081 569.54 188.673 572.105 190.142C602.196 207.389 632.217 224.761 662.261 242.097C666.176 244.357 670.099 246.602 673.96 248.819C674.721 248.451 675.288 248.22 675.814 247.917C709.575 228.442 743.32 208.945 777.114 189.527C779.167 188.347 779.554 186.887 779.554 184.748C779.502 146.483 779.487 108.217 779.583 69.9521C779.59 67.351 778.678 66.0373 776.525 64.8001C743.162 45.6199 709.84 26.3614 676.506 7.12858C675.682 6.65265 674.81 6.26209 674.022 5.86465C673.202 6.30184 672.547 6.62781 671.91 6.9939C638.47 26.2881 605.048 45.6107 571.564 64.8269C569.311 66.119 568.627 67.5612 568.634 70.0529C568.723 94.827 568.686 119.602 568.686 145.112Z" fill="#121013"/>
<path d="M107.957 447.295C90.2952 437.127 72.909 427.063 55.5004 417.042C43.0432 409.87 30.5555 402.749 18.084 395.602C13.318 392.872 8.53255 390.171 3.80707 387.37C1.59428 386.06 0.335722 384.268 0.341242 381.397C0.418522 341.3 0.437288 301.203 0.314008 261.106C0.303704 257.733 2.13708 256.223 4.48234 254.85C10.0458 251.594 15.6898 248.477 21.2731 245.255C36.0704 236.717 50.8481 228.145 65.6421 219.602C73.677 214.963 81.7395 210.371 89.7704 205.725C95.566 202.372 101.401 199.079 107.078 195.535C109.967 193.731 112.436 193.979 115.215 195.643C123.354 200.514 131.537 205.312 139.758 210.043C154.131 218.314 168.567 226.479 182.938 234.754C194.565 241.449 206.129 248.253 217.739 254.979C220.51 256.585 221.8 258.679 221.79 262.103C221.679 301.463 221.683 340.826 221.777 380.183C221.786 383.981 220.395 386.156 217.07 388.003C205.676 394.329 194.466 400.986 183.177 407.5C168.933 415.717 154.674 423.909 140.433 432.13C132.19 436.892 123.973 441.694 115.74 446.471C113.373 447.844 110.98 449.087 107.957 447.295ZM58.7693 412.685C76.164 422.735 93.5586 432.781 110.929 442.817C112.404 442 113.7 441.312 114.971 440.579C147.657 421.708 180.322 402.8 213.061 384.025C215.653 382.538 216.524 380.923 216.517 377.982C216.416 340.215 216.45 302.446 216.45 264.679C216.45 263.943 216.4 263.204 216.457 262.472C216.565 261.078 216.002 260.138 214.744 259.532C213.973 259.162 213.263 258.667 212.52 258.237C179.836 239.365 147.134 220.523 114.499 201.566C111.968 200.096 110.128 200.042 107.566 201.53C74.7243 220.62 41.8285 239.617 8.88289 258.527C6.43716 259.931 5.52672 261.386 5.53482 264.247C5.64154 302.259 5.64411 340.273 5.52194 378.284C5.51274 381.199 6.524 382.627 8.92152 383.992C25.4223 393.398 41.8432 402.94 58.7693 412.685Z" fill="#121013"/>
<path d="M565.536 377.438C559.284 377.438 553.392 377.235 547.519 377.511C543.846 377.684 541.712 375.355 541.738 371.73C541.892 349.547 541.815 327.359 541.815 305.172C541.815 303.841 541.815 302.51 541.815 300.803C540.439 300.715 539.276 300.577 538.109 300.574C529.038 300.556 519.967 300.566 510.899 300.563C509.917 300.563 508.927 300.627 507.959 300.517C505.004 300.183 503.164 298.441 503.127 295.485C503.02 287.274 503.028 279.059 503.12 270.848C503.153 267.645 504.974 265.971 508.191 265.752C509.044 265.693 509.906 265.737 510.763 265.737C545.329 265.737 579.895 265.737 614.465 265.737C614.83 265.737 615.198 265.734 615.566 265.737C620.71 265.782 622.087 267.155 622.094 272.299C622.105 279.654 622.116 287.008 622.09 294.363C622.076 298.829 620.394 300.529 615.834 300.55C606.52 300.594 597.203 300.564 587.888 300.565C586.571 300.565 585.254 300.565 583.517 300.565C583.517 302.255 583.517 303.563 583.517 304.871C583.517 326.445 583.517 348.02 583.513 369.592C583.513 370.696 583.568 371.804 583.472 372.9C583.222 375.844 581.717 377.357 578.773 377.412C574.486 377.497 570.195 377.438 565.536 377.438Z" fill="#FFB30F"/>
<path d="M360.803 267.704C367.516 269.551 373.565 272.144 379.115 275.867C387.763 281.672 393.496 289.606 395.403 299.828C397.887 313.172 397.894 326.747 395.734 340.053C392.981 356.973 382.28 367.667 366.198 372.941C352.199 377.53 337.77 377.618 323.289 376.157C316.945 375.517 310.707 374.144 304.797 371.66C290.548 365.673 281.245 355.336 278.816 339.917C276.829 327.299 276.943 314.481 278.809 301.84C280.752 288.686 288.333 279.3 299.999 273.111C308.337 268.685 317.273 266.395 326.62 265.409C336.81 264.335 346.908 264.726 356.936 266.823C358.132 267.073 359.317 267.363 360.803 267.704ZM338.948 345.51C339.669 345.389 340.39 345.26 341.115 345.142C349.149 343.832 352.291 341.098 352.865 333.094C353.469 324.699 353.351 316.235 353.178 307.809C353.075 302.955 350.201 299.587 345.697 297.861C340.118 295.722 334.436 295.734 328.842 297.851C323.985 299.689 321.376 303.362 321.291 308.514C321.151 316.832 321.159 325.155 321.291 333.474C321.372 338.492 323.896 342.242 328.64 343.843C331.698 344.877 335.069 344.991 338.948 345.51Z" fill="#FFB30F"/>
<path d="M187.06 415.393C199.391 408.265 211.49 401.281 223.929 394.097C258.922 414.3 294.026 434.57 329.166 454.858C329.166 495.459 329.166 535.917 329.166 576.541C294.132 596.766 259.117 616.984 223.934 637.297C188.873 617.057 153.859 596.843 118.809 576.607C118.809 536.016 118.809 495.555 118.809 454.784C141.424 441.735 164.127 428.634 187.06 415.393ZM126.903 493.976C126.903 517.771 126.984 541.569 126.816 565.364C126.791 568.938 128.001 570.936 131.019 572.621C140.745 578.057 150.356 583.702 159.991 589.299C175.878 598.529 191.747 607.787 207.628 617.024C210.222 618.533 211.732 618.61 212.566 617.341C213.527 615.876 212.796 614.573 209.967 612.921C198.017 605.944 186.062 598.97 174.094 592.022C160.96 584.397 147.853 576.721 134.628 569.254C131.992 567.767 131.227 566.041 131.237 563.138C131.339 534.684 131.301 506.227 131.29 477.769C131.29 476.551 131.416 475.234 131.006 474.145C130.738 473.431 129.64 472.709 128.849 472.628C128.286 472.569 127.369 473.464 127.061 474.141C126.732 474.862 126.909 475.823 126.908 476.68C126.899 482.2 126.903 487.72 126.903 493.976Z" fill="#FFB30F"/>
<path d="M892.357 346.408C892.357 358.42 892.357 370.063 892.357 382.03C857.283 402.282 822.187 422.544 786.998 442.861C751.888 422.588 716.887 402.377 681.854 382.148C681.854 341.547 681.854 301.097 681.854 260.423C682.84 259.834 683.87 259.197 684.919 258.591C717.925 239.534 750.942 220.495 783.918 201.389C786.016 200.175 787.569 199.889 789.88 201.231C823.04 220.504 856.282 239.647 889.501 258.825C890.348 259.313 891.165 259.845 892.357 260.577C892.357 288.962 892.357 317.501 892.357 346.408ZM785.733 295.387C784.154 297.573 782.575 299.759 780.996 301.943C779.344 304.228 777.787 306.593 776.006 308.772C774.398 310.739 773.5 313.37 770.737 314.906C770.737 313.128 770.737 311.789 770.737 310.451C770.737 297.205 770.751 283.96 770.729 270.714C770.726 266.75 769.559 265.175 766.03 265.126C756.587 264.998 747.14 265.012 737.701 265.114C734.599 265.147 733.005 266.848 732.678 269.896C732.575 270.866 732.649 271.856 732.649 272.837C732.645 296.508 732.645 320.178 732.645 343.847C732.645 352.432 732.615 361.018 732.66 369.603C732.682 374.218 734.271 375.767 738.82 375.778C745.933 375.789 753.058 375.546 760.157 375.863C764.723 376.069 767.693 374.302 770.398 370.777C780.4 357.746 790.62 344.877 800.765 331.957C801.402 331.146 802.131 330.407 803.419 328.957C803.419 331.056 803.419 332.233 803.419 333.411C803.419 345.554 803.4 357.695 803.426 369.835C803.437 374.49 804.71 375.767 809.281 375.774C817.988 375.797 826.698 375.789 835.405 375.778C840.2 375.771 841.29 374.715 841.293 369.993C841.301 337.002 841.304 304.01 841.29 271.018C841.29 266.346 840.094 265.104 835.416 265.067C827.935 265.009 820.453 265.098 812.972 265.033C809.215 264.999 806.536 266.492 804.346 269.616C798.366 278.15 792.162 286.525 785.733 295.387ZM825.3 237.864C841.514 247.247 857.68 256.72 873.986 265.937C877.28 267.798 878.461 269.868 878.439 273.68C878.262 301.758 878.34 329.837 878.347 357.915C878.347 359.019 878.277 360.138 878.454 361.216C878.638 362.354 879.223 363.343 880.61 363.277C881.902 363.211 882.609 362.434 882.693 361.161C882.759 360.182 882.734 359.2 882.734 358.221C882.734 328.914 882.734 299.61 882.734 270.305C882.734 269.569 882.708 268.832 882.737 268.098C882.793 266.612 882.193 265.498 880.927 264.726C879.885 264.089 878.862 263.414 877.802 262.8C863.715 254.63 849.621 246.476 835.538 238.303C824.31 231.787 813.097 225.248 801.869 218.731C801.137 218.304 800.342 217.694 799.573 217.684C798.723 217.674 797.486 218.035 797.126 218.65C796.758 219.273 796.997 220.573 797.45 221.265C797.943 222.021 798.947 222.474 799.786 222.965C808.133 227.846 816.49 232.707 825.3 237.864Z" fill="#FFB30F"/>
<path d="M568.686 144.744C568.686 119.602 568.723 94.8271 568.635 70.0529C568.628 67.5612 569.312 66.119 571.564 64.827C605.048 45.6108 638.47 26.2882 671.91 6.99397C672.547 6.62788 673.202 6.30187 674.023 5.86469C674.81 6.26213 675.682 6.65268 676.507 7.12862C709.84 26.3614 743.163 45.6199 776.525 64.8001C778.678 66.0373 779.591 67.3511 779.583 69.9521C779.488 108.217 779.503 146.483 779.554 184.748C779.554 186.887 779.168 188.347 777.114 189.527C743.321 208.945 709.575 228.442 675.815 247.917C675.289 248.22 674.722 248.451 673.96 248.819C670.1 246.602 666.177 244.357 662.261 242.097C632.218 224.761 602.196 207.389 572.105 190.142C569.54 188.673 568.576 187.081 568.616 184.112C568.786 171.114 568.686 158.112 568.686 144.744ZM707.386 34.9612C701.247 31.3993 695.109 27.8305 688.96 24.2844C688.227 23.8612 687.422 23.2857 686.649 23.2823C685.802 23.279 684.551 23.636 684.216 24.2436C683.859 24.8916 684.11 26.1866 684.57 26.8873C685.063 27.6387 686.082 28.0763 686.917 28.5661C694.951 33.2607 702.988 37.9471 711.036 42.6167C727.979 52.4482 744.892 62.3352 761.916 72.0247C764.657 73.5854 765.541 75.365 765.53 78.4194C765.427 106.742 765.467 135.065 765.474 163.388C765.474 164.612 765.324 165.909 765.68 167.033C765.92 167.787 766.928 168.774 767.605 168.782C768.319 168.791 769.423 167.897 769.684 167.16C770.071 166.057 769.909 164.746 769.909 163.523C769.92 134.342 769.916 105.161 769.916 75.9796C769.916 75.3665 769.887 74.7519 769.92 74.1407C770.026 72.2256 769.224 70.8725 767.55 69.9366C764.451 68.203 761.371 66.4307 758.306 64.6419C741.488 54.8365 724.678 45.0216 707.386 34.9612Z" fill="#FFB30F"/>
<path d="M58.529 412.563C41.8428 402.94 25.4219 393.398 8.92113 383.992C6.52361 382.627 5.51235 381.199 5.52155 378.284C5.64372 340.273 5.64115 302.259 5.53443 264.246C5.52633 261.386 6.43677 259.931 8.8825 258.527C41.8281 239.617 74.724 220.62 107.566 201.53C110.127 200.041 111.967 200.096 114.499 201.566C147.133 220.523 179.835 239.365 212.52 258.237C213.263 258.666 213.973 259.162 214.743 259.532C216.002 260.138 216.565 261.078 216.457 262.472C216.4 263.204 216.45 263.943 216.45 264.679C216.45 302.446 216.416 340.215 216.516 377.982C216.524 380.923 215.653 382.538 213.061 384.025C180.322 402.8 147.657 421.708 114.971 440.579C113.7 441.312 112.403 442 110.929 442.817C93.5582 432.781 76.1636 422.735 58.529 412.563ZM106.532 345.264C98.8493 343.63 95.0972 339.81 95.0048 333.168C94.8922 325.079 94.9643 316.986 94.9809 308.895C94.9919 303.492 97.6798 299.85 102.579 297.843C107.395 295.87 112.426 295.745 117.345 297.163C119.474 297.776 121.497 299.189 123.215 300.652C124.565 301.801 125.44 303.544 126.406 305.098C127.808 307.355 129.651 308.606 132.42 308.591C143.209 308.535 153.998 308.602 164.786 308.547C168.174 308.53 169.062 307.476 169.018 304.028C168.946 298.468 167.155 293.434 164.146 288.837C158.737 280.569 151.252 274.896 142.112 271.23C130.369 266.52 118.139 265.528 105.658 265.966C95.8843 266.31 86.3726 267.884 77.5171 272.143C61.3207 279.932 52.8357 292.836 52.5869 310.915C52.4872 318.147 52.446 325.386 52.6406 332.614C52.899 342.205 55.8868 350.853 62.1579 358.276C68.3807 365.64 76.2865 370.295 85.4681 372.878C101.635 377.43 117.912 377.338 134.124 373.346C142.762 371.219 150.795 367.579 157.338 361.268C163.685 355.144 168.37 348.138 168.956 339.011C169.256 334.339 168.293 333.301 163.661 333.291C153.609 333.27 143.555 333.362 133.504 333.242C130.045 333.2 127.667 334.456 126.043 337.497C123.043 343.114 118.244 345.76 111.917 345.668C110.328 345.643 108.74 345.492 106.532 345.264ZM14.3771 341.624C14.3771 351.921 14.4787 362.217 14.3127 372.51C14.2649 375.48 15.1731 377.452 17.8462 378.652C18.4005 378.902 18.8972 379.278 19.4264 379.583C29.167 385.236 38.9142 390.873 48.6486 396.537C61.5573 404.044 74.4531 411.573 87.3626 419.077C90.5358 420.924 93.7289 422.735 96.9379 424.52C98.1464 425.189 99.4072 425.156 100.131 423.85C100.799 422.643 100.455 421.447 99.3211 420.604C98.6362 420.096 97.8818 419.68 97.1429 419.25C89.2151 414.628 81.2913 409.998 73.3531 405.395C56.3081 395.51 39.2855 385.589 22.1739 375.819C19.5869 374.343 18.7497 372.639 18.7611 369.71C18.8711 341.521 18.827 313.331 18.827 285.141C18.827 284.283 18.8513 283.424 18.8218 282.567C18.7361 280.061 18.0144 278.956 16.5108 279.164C14.6193 279.426 14.2995 280.811 14.372 282.426C14.4051 283.159 14.3764 283.896 14.3764 284.631C14.3767 303.384 14.3767 322.136 14.3771 341.624Z" fill="#FFB30F"/>
<path d="M338.624 345.514C335.069 344.991 331.698 344.877 328.64 343.843C323.897 342.242 321.372 338.492 321.291 333.474C321.159 325.155 321.151 316.832 321.291 308.514C321.376 303.362 323.985 299.689 328.842 297.851C334.436 295.734 340.118 295.722 345.697 297.861C350.201 299.587 353.075 302.955 353.178 307.809C353.351 316.235 353.469 324.699 352.865 333.094C352.291 341.098 349.149 343.832 341.115 345.142C340.39 345.26 339.669 345.389 338.624 345.514Z" fill="#121013"/>
<path d="M126.904 493.608C126.904 487.72 126.9 482.2 126.908 476.68C126.909 475.822 126.733 474.862 127.061 474.141C127.37 473.464 128.287 472.569 128.85 472.628C129.64 472.709 130.738 473.43 131.006 474.144C131.416 475.234 131.29 476.551 131.29 477.769C131.302 506.227 131.339 534.684 131.238 563.138C131.228 566.041 131.993 567.767 134.628 569.254C147.853 576.721 160.96 584.397 174.094 592.022C186.062 598.97 198.017 605.944 209.968 612.921C212.796 614.573 213.527 615.876 212.567 617.341C211.733 618.61 210.222 618.533 207.629 617.024C191.748 607.787 175.878 598.528 159.992 589.299C150.356 583.702 140.746 578.057 131.019 572.621C128.001 570.936 126.791 568.938 126.816 565.364C126.984 541.569 126.904 517.771 126.904 493.608Z" fill="#121013"/>
<path d="M785.891 295.175C792.161 286.525 798.366 278.15 804.346 269.617C806.536 266.492 809.215 264.999 812.972 265.033C820.453 265.098 827.935 265.009 835.416 265.067C840.094 265.104 841.289 266.346 841.289 271.018C841.304 304.01 841.301 337.002 841.293 369.993C841.29 374.715 840.2 375.771 835.405 375.778C826.698 375.789 817.988 375.797 809.281 375.774C804.71 375.767 803.437 374.49 803.426 369.835C803.4 357.695 803.419 345.554 803.419 333.411C803.419 332.233 803.419 331.056 803.419 328.957C802.131 330.407 801.402 331.146 800.765 331.957C790.62 344.877 780.4 357.746 770.398 370.777C767.693 374.302 764.723 376.069 760.157 375.863C753.058 375.546 745.933 375.789 738.82 375.778C734.271 375.767 732.682 374.218 732.66 369.603C732.615 361.018 732.645 352.432 732.645 343.847C732.645 320.178 732.645 296.508 732.649 272.837C732.649 271.856 732.575 270.866 732.678 269.896C733.005 266.848 734.599 265.147 737.701 265.114C747.14 265.012 756.587 264.998 766.03 265.126C769.559 265.175 770.726 266.75 770.729 270.714C770.748 283.96 770.737 297.205 770.737 310.451C770.737 311.789 770.737 313.128 770.737 314.906C773.5 313.37 774.398 310.739 776.006 308.772C777.787 306.593 779.344 304.228 780.996 301.943C782.575 299.758 784.154 297.573 785.891 295.175Z" fill="#121013"/>
<path d="M825.071 237.719C816.49 232.707 808.132 227.846 799.786 222.965C798.947 222.474 797.943 222.021 797.449 221.265C796.997 220.573 796.758 219.272 797.126 218.65C797.486 218.035 798.723 217.674 799.573 217.684C800.342 217.694 801.137 218.304 801.869 218.731C813.097 225.248 824.31 231.787 835.537 238.303C849.621 246.476 863.715 254.63 877.802 262.8C878.862 263.414 879.885 264.089 880.927 264.726C882.192 265.498 882.792 266.612 882.737 268.098C882.708 268.832 882.733 269.569 882.733 270.305C882.733 299.609 882.733 328.914 882.733 358.221C882.733 359.2 882.759 360.182 882.693 361.161C882.612 362.434 881.902 363.211 880.61 363.277C879.223 363.343 878.638 362.353 878.454 361.216C878.277 360.138 878.347 359.019 878.347 357.915C878.339 329.837 878.262 301.758 878.439 273.68C878.461 269.868 877.28 267.798 873.986 265.937C857.68 256.72 841.514 247.247 825.071 237.719Z" fill="#121013"/>
<path d="M707.625 35.0855C724.678 45.0215 741.488 54.8365 758.306 64.6418C761.371 66.4307 764.451 68.203 767.55 69.9366C769.224 70.8724 770.03 72.2256 769.92 74.1407C769.887 74.7519 769.916 75.3665 769.916 75.9795C769.916 105.161 769.92 134.342 769.909 163.523C769.909 164.746 770.071 166.057 769.684 167.16C769.423 167.897 768.319 168.791 767.605 168.782C766.928 168.774 765.92 167.787 765.68 167.033C765.323 165.909 765.474 164.612 765.474 163.388C765.467 135.065 765.426 106.742 765.529 78.4194C765.54 75.365 764.657 73.5853 761.916 72.0247C744.892 62.3352 727.979 52.4482 711.036 42.6167C702.988 37.9471 694.951 33.2606 686.917 28.5661C686.082 28.0762 685.063 27.6387 684.569 26.8872C684.109 26.1866 683.859 24.8916 684.216 24.2435C684.551 23.636 685.802 23.279 686.649 23.2823C687.421 23.2856 688.227 23.8612 688.96 24.2844C695.109 27.8304 701.247 31.3993 707.625 35.0855Z" fill="#121013"/>
<path d="M106.843 345.333C108.741 345.492 110.328 345.643 111.917 345.668C118.244 345.76 123.043 343.114 126.043 337.497C127.667 334.456 130.045 333.2 133.504 333.242C143.555 333.362 153.609 333.27 163.662 333.291C168.293 333.301 169.256 334.339 168.956 339.011C168.37 348.138 163.685 355.144 157.339 361.268C150.795 367.579 142.762 371.219 134.124 373.346C117.912 377.338 101.636 377.43 85.4682 372.878C76.2866 370.295 68.3808 365.64 62.1579 358.276C55.8869 350.853 52.8991 342.205 52.6407 332.614C52.4461 325.386 52.4873 318.147 52.587 310.916C52.8358 292.836 61.3207 279.932 77.5172 272.143C86.3727 267.884 95.8844 266.31 105.658 265.967C118.139 265.528 130.369 266.52 142.112 271.23C151.252 274.896 158.737 280.57 164.147 288.837C167.155 293.434 168.946 298.468 169.018 304.028C169.062 307.476 168.174 308.531 164.786 308.547C153.998 308.602 143.209 308.535 132.421 308.591C129.651 308.606 127.808 307.355 126.406 305.098C125.44 303.544 124.565 301.801 123.215 300.652C121.497 299.189 119.474 297.776 117.345 297.163C112.426 295.745 107.395 295.87 102.579 297.843C97.6799 299.85 94.992 303.492 94.981 308.895C94.9644 316.986 94.8923 325.079 95.0049 333.168C95.0973 339.81 98.8494 343.63 106.843 345.333Z" fill="#121013"/>
<path d="M14.3772 341.256C14.3772 322.136 14.3769 303.384 14.3765 284.632C14.3765 283.896 14.4052 283.16 14.3721 282.426C14.2996 280.811 14.6194 279.427 16.5109 279.165C18.0145 278.956 18.7366 280.061 18.8219 282.567C18.8514 283.424 18.8271 284.283 18.8271 285.141C18.8271 313.331 18.8712 341.521 18.7612 369.71C18.7498 372.639 19.587 374.343 22.174 375.819C39.2857 385.589 56.3082 395.51 73.3533 405.395C81.2914 409.998 89.2152 414.628 97.143 419.25C97.8819 419.68 98.6363 420.096 99.3212 420.604C100.455 421.447 100.799 422.643 100.131 423.85C99.4077 425.156 98.1465 425.189 96.938 424.52C93.7291 422.735 90.5363 420.924 87.3627 419.077C74.4532 411.573 61.5574 404.044 48.6487 396.537C38.9144 390.873 29.1671 385.236 19.4265 379.583C18.8974 379.278 18.4006 378.902 17.8464 378.652C15.1732 377.453 14.265 375.48 14.3128 372.51C14.4788 362.217 14.3772 351.921 14.3772 341.256Z" fill="#121013"/>
<path d="M22.7 791V734.6H3.8V721H57.3V734.6H38.5V791H22.7ZM69.9266 791V721H98.5266C101.993 721 105.16 721.433 108.027 722.3C110.96 723.167 113.46 724.367 115.527 725.9C117.593 727.367 119.193 729.167 120.327 731.3C121.527 733.433 122.127 735.8 122.127 738.4V739.1C122.127 742.233 121.427 745 120.027 747.4C118.627 749.733 116.393 751.833 113.327 753.7C117.26 755.3 120.227 757.6 122.227 760.6C124.293 763.6 125.327 767.033 125.327 770.9V771.8C125.327 774.667 124.76 777.3 123.627 779.7C122.493 782.033 120.86 784.067 118.727 785.8C116.66 787.467 114.16 788.767 111.227 789.7C108.293 790.567 104.993 791 101.327 791H69.9266ZM84.8266 777.8H100.327C101.793 777.8 103.127 777.633 104.327 777.3C105.527 776.9 106.527 776.367 107.327 775.7C108.127 774.967 108.76 774.133 109.227 773.2C109.693 772.2 109.927 771.1 109.927 769.9V769.3C109.927 768.1 109.693 767 109.227 766C108.76 764.933 108.093 764.033 107.227 763.3C106.36 762.567 105.327 762.033 104.127 761.7C102.927 761.3 101.593 761.1 100.127 761.1H84.8266V777.8ZM84.8266 750H97.8266C100.627 750 102.827 749.3 104.427 747.9C106.093 746.433 106.927 744.5 106.927 742.1V741.4C106.927 739.133 106.127 737.367 104.527 736.1C102.993 734.767 100.827 734.1 98.0266 734.1H84.8266V750ZM139.919 791V721H155.519V791H139.919ZM173.778 791V721H189.078V767.3H189.778L216.078 721H233.578V791H218.078V741.3H217.278L189.378 791H173.778ZM185.978 702.5H197.978C197.978 704.1 198.511 705.367 199.578 706.3C200.711 707.233 202.145 707.7 203.878 707.7C205.545 707.7 206.911 707.233 207.978 706.3C209.045 705.3 209.578 704.033 209.578 702.5H221.578C221.578 704.7 221.145 706.7 220.278 708.5C219.411 710.233 218.178 711.767 216.578 713.1C215.045 714.367 213.178 715.367 210.978 716.1C208.778 716.767 206.345 717.1 203.678 717.1C201.011 717.1 198.578 716.767 196.378 716.1C194.245 715.367 192.378 714.367 190.778 713.1C189.245 711.767 188.045 710.233 187.178 708.5C186.378 706.7 185.978 704.7 185.978 702.5ZM280.657 791V721H302.657L317.357 761.6H318.357L333.057 721H355.057V791H339.857V739.8H338.957L323.557 781.7H312.057L296.657 739.8H295.857V791H280.657ZM373.598 791V721H389.198V791H373.598ZM407.555 791V721H423.155V748.7H449.555V721H465.255V791H449.555V762.3H423.155V791H407.555ZM483.798 791V721H499.398V791H483.798ZM577.738 792.3C572.605 792.3 567.872 791.4 563.538 789.6C559.272 787.8 555.572 785.3 552.438 782.1C549.372 778.9 546.972 775.1 545.238 770.7C543.505 766.233 542.638 761.433 542.638 756.3V755.8C542.638 750.6 543.505 745.8 545.238 741.4C546.972 737 549.372 733.233 552.438 730.1C555.572 726.9 559.272 724.4 563.538 722.6C567.805 720.733 572.505 719.8 577.638 719.8C580.638 719.8 583.505 720.167 586.238 720.9C588.972 721.567 591.538 722.533 593.938 723.8C596.338 725.067 598.572 726.667 600.638 728.6C602.705 730.467 604.572 732.6 606.238 735L594.738 743.6C592.672 740.333 590.338 737.9 587.738 736.3C585.138 734.633 582.072 733.8 578.538 733.8H578.438C575.438 733.8 572.738 734.333 570.338 735.4C567.938 736.467 565.872 737.967 564.138 739.9C562.472 741.833 561.172 744.167 560.238 746.9C559.305 749.567 558.838 752.533 558.838 755.8V756.3C558.838 759.5 559.305 762.467 560.238 765.2C561.172 767.867 562.472 770.167 564.138 772.1C565.805 773.967 567.838 775.433 570.238 776.5C572.638 777.567 575.305 778.1 578.238 778.1H578.338C580.138 778.1 581.838 777.9 583.438 777.5C585.038 777.1 586.538 776.5 587.938 775.7C589.405 774.833 590.705 773.833 591.838 772.7C593.038 771.5 594.105 770.1 595.038 768.5L606.338 777.2C604.872 779.533 603.138 781.633 601.138 783.5C599.138 785.3 596.905 786.867 594.438 788.2C592.038 789.533 589.438 790.533 586.638 791.2C583.838 791.933 580.905 792.3 577.838 792.3H577.738ZM618.97 791V721H634.57V750.2H635.47L658.67 721H676.47L648.97 753.2L678.27 791H659.57L635.37 758.2H634.57V791H618.97ZM690.055 792.3C688.721 792.3 687.421 792.167 686.155 791.9C684.955 791.7 683.755 791.367 682.555 790.9V777.8C683.421 778.067 684.188 778.267 684.855 778.4C685.588 778.533 686.355 778.6 687.155 778.6C688.955 778.6 690.388 778.033 691.455 776.9C692.588 775.767 693.455 774.033 694.055 771.7C694.655 769.3 695.055 766.3 695.255 762.7C695.521 759.033 695.688 754.7 695.755 749.7L696.555 721H744.655V791H729.055V734.6H711.355L710.955 749.1C710.821 756.3 710.488 762.6 709.955 768C709.488 773.4 708.521 777.9 707.055 781.5C705.655 785.1 703.588 787.8 700.855 789.6C698.188 791.4 694.588 792.3 690.055 792.3ZM754.855 791L779.155 721H799.155L823.255 791H806.655L801.855 776.4H776.355L771.555 791H754.855ZM779.755 763.9H798.355L789.555 737.2H788.555L779.755 763.9ZM827.338 804.5V778H833.538C834.472 776.467 835.272 774.3 835.938 771.5C836.672 768.633 837.238 765.133 837.638 761C838.105 756.8 838.438 752 838.638 746.6C838.838 741.133 838.938 734.967 838.938 728.1V721H888.338V778H896.638V804.5H881.838V791H842.138V804.5H827.338ZM873.038 778V733.8H853.938V734.5C853.805 739.767 853.605 744.633 853.338 749.1C853.072 753.5 852.672 757.5 852.138 761.1C851.672 764.633 851.072 767.833 850.338 770.7C849.605 773.5 848.805 775.933 847.938 778H873.038Z" fill="#121013"/>
<path d="M621.916 533.608C619.744 533.608 617.571 533.608 615.122 533.608C615.122 526.589 615.122 519.672 615.122 512.369C620.146 512.369 625.253 512.369 630.52 512.369C630.52 511.137 630.52 510.292 630.52 509.359C629.261 509.174 628.166 509.014 626.926 508.832C626.84 507.582 626.762 506.463 626.666 505.077C625.408 504.897 624.109 504.711 622.68 504.506C622.535 503.305 622.403 502.202 622.243 500.872C621.28 500.78 620.317 500.687 618.963 500.556C618.963 503.36 618.963 505.95 618.963 508.807C617.534 508.95 616.445 509.059 615.088 509.195C615.088 504.725 615.088 500.445 615.088 495.874C617.356 495.874 619.61 495.874 622.138 495.874C622.254 494.676 622.345 493.735 622.476 492.387C619.852 492.387 617.494 492.387 615 492.387C615 490.669 615 489.331 615 487.753C617.567 487.753 620.134 487.753 622.887 487.753C623.044 488.813 623.189 489.795 623.366 490.989C624.539 491.109 625.753 491.233 627.381 491.399C627.381 493.983 627.381 496.553 627.381 499.199C628.788 499.37 629.789 499.492 631.126 499.654C631.284 500.941 631.445 502.255 631.638 503.825C632.571 503.908 633.55 503.995 634.811 504.107C634.811 501.692 634.811 499.458 634.811 496.987C633.718 496.846 632.505 496.69 631.004 496.496C631.004 494.881 631.004 493.25 631.004 491.281C633.415 491.281 635.782 491.281 638.256 491.281C638.473 490.013 638.638 489.044 638.849 487.811C640.477 487.811 641.996 487.811 643.724 487.811C643.92 488.805 644.111 489.774 644.349 490.984C645.274 491.046 646.247 491.111 647.642 491.204C647.642 487.053 647.642 483.121 647.642 479.099C649.026 478.919 650.026 478.789 651.239 478.631C651.369 477.631 651.508 476.566 651.67 475.326C654.532 475.326 657.246 475.326 660.357 475.326C660.357 479.282 660.357 483.236 660.357 487.344C661.715 487.344 662.683 487.344 663.857 487.344C663.857 482.035 663.857 476.826 663.857 471.301C661.253 471.301 658.768 471.301 656.155 471.301C655.916 469.947 655.726 468.875 655.521 467.716C654.291 467.63 653.172 467.55 651.744 467.449C651.588 466.205 651.438 465.012 651.313 464.019C650.043 463.463 648.393 463.255 647.814 462.358C647.069 461.204 647.185 459.498 648.345 458.067C649.259 458.014 650.248 457.958 651.287 457.898C651.42 456.713 651.544 455.605 651.695 454.261C654.483 454.261 657.182 454.261 660.149 454.261C660.149 455.621 660.149 457.025 660.149 458.615C659.016 458.779 657.929 458.935 656.682 459.115C656.682 461.589 656.682 463.956 656.682 466.596C659.016 466.596 661.341 466.596 664.043 466.596C664.043 462.496 664.043 458.424 664.043 454.191C665.85 454.191 667.292 454.191 669.095 454.191C669.095 456.86 669.095 459.422 669.095 462.142C670.207 462.142 670.961 462.142 671.885 462.142C672.024 460.98 672.17 459.76 672.371 458.084C674.417 458.028 676.437 457.953 678.458 457.925C680.401 457.898 682.345 457.919 684.554 457.919C684.68 456.794 684.801 455.708 684.978 454.125C690.531 453.91 696.067 454.04 701.822 454.031C701.822 455.747 701.822 457.062 701.822 458.728C699.266 458.728 696.788 458.728 694.036 458.728C693.935 459.991 693.859 460.931 693.774 461.994C694.438 462.113 694.867 462.225 695.302 462.263C698.3 462.523 698.31 462.518 698.358 465.513C698.382 466.999 698.362 468.485 698.362 470.187C699.492 470.396 700.553 470.592 701.816 470.826C701.816 475.075 701.816 479.265 701.816 483.834C700.632 483.933 699.44 484.033 697.967 484.156C697.77 482.623 697.603 481.316 697.396 479.703C696.343 479.647 695.271 479.59 694.025 479.524C693.844 481.092 693.691 482.412 693.518 483.912C692.198 483.912 690.996 483.912 689.607 483.912C689.469 482.567 689.343 481.344 689.175 479.716C688.187 479.663 687.134 479.605 685.915 479.539C685.915 482.286 685.915 484.743 685.915 487.52C689.084 487.52 692.169 487.493 695.253 487.527C698.22 487.56 698.321 487.666 698.355 490.664C698.387 493.413 698.362 496.162 698.362 499.366C702.399 499.366 706.343 499.366 710.637 499.366C710.637 502.498 710.637 505.197 710.637 508.133C711.81 508.201 712.632 508.248 713.54 508.301C713.691 506.838 713.816 505.621 713.956 504.271C715.327 504.135 716.556 504.013 718.078 503.862C718.202 502.591 718.329 501.287 718.473 499.81C719.603 499.602 720.682 499.403 721.87 499.183C721.87 498.483 721.87 497.833 721.87 496.996C720.766 496.813 719.684 496.634 718.359 496.414C718.359 494.791 718.359 493.263 718.359 491.362C719.738 491.296 720.933 491.239 722.404 491.17C722.6 492.664 722.773 493.973 722.978 495.531C725.414 495.531 727.877 495.531 730.617 495.531C730.683 494.619 730.752 493.675 730.844 492.394C727.984 492.544 725.012 492.384 726.428 488.569C727.177 486.551 729.425 487.773 731.227 487.611C731.508 488.771 731.764 489.831 732.047 491.001C732.917 491.125 733.798 491.25 734.911 491.408C734.911 497.237 734.911 503.008 734.911 508.888C733.592 508.888 732.403 508.888 730.88 508.888C730.88 506.1 730.88 503.519 730.88 500.791C729.58 500.791 728.614 500.791 727.199 500.791C727.199 504.768 727.199 508.721 727.199 512.754C725.547 512.939 724.324 513.077 722.936 513.232C722.816 514.378 722.701 515.489 722.565 516.791C721.48 516.997 720.41 517.201 719.215 517.428C719.215 518.239 719.215 519.004 719.215 519.964C720.227 520.13 721.283 520.303 722.46 520.496C722.633 521.838 722.79 523.054 722.973 524.469C724.212 524.601 725.429 524.73 726.61 524.856C728.416 530.233 726.761 530.421 722.944 530.164C722.897 530.927 722.85 531.69 722.79 532.672C724.239 532.841 725.565 532.995 727.188 533.185C727.188 535.59 727.188 537.952 727.188 540.458C728.724 540.711 730.012 540.922 731.435 541.156C731.589 542.553 731.723 543.775 731.882 545.225C732.786 545.344 733.742 545.469 734.918 545.623C734.918 547.288 734.918 548.822 734.918 550.641C732.445 550.641 730.094 550.641 727.548 550.641C727.484 551.671 727.436 552.433 727.363 553.603C729.945 553.603 732.403 553.603 735 553.603C735 555.443 735 556.883 735 558.438C733.895 558.62 732.916 558.78 731.843 558.956C731.843 559.869 731.843 560.644 731.843 561.556C732.868 561.747 733.85 561.929 734.989 562.141C734.989 563.615 734.989 565.058 734.989 566.838C732.545 566.838 730.178 566.838 727.573 566.838C727.499 568.103 727.443 569.052 727.384 570.049C728.886 570.341 730.177 570.592 731.559 570.861C731.559 572.357 731.559 573.577 731.559 575C729.874 575 728.319 575 726.603 575C726.35 573.89 726.107 572.824 725.842 571.661C723.735 571.661 721.69 571.661 719.394 571.661C719.207 572.656 719.008 573.713 718.769 574.979C717.192 574.979 715.663 574.979 713.963 574.979C713.819 573.855 713.693 572.87 713.523 571.537C711.93 571.537 710.349 571.556 708.769 571.533C705.823 571.492 705.691 571.359 705.471 568.48C705.437 568.04 705.406 567.599 705.357 566.928C702.887 566.928 700.497 566.928 697.888 566.928C697.744 565.517 697.62 564.312 697.469 562.838C696.182 562.691 694.873 562.541 693.393 562.372C693.186 561.212 692.993 560.127 692.766 558.852C692.025 558.816 691.269 558.78 690.194 558.728C690.194 561.351 690.194 563.834 690.194 566.786C687.785 566.843 685.666 566.914 683.546 566.938C681.372 566.964 679.197 566.944 676.591 566.944C676.591 562.786 676.591 558.842 676.591 554.735C675.286 554.735 674.409 554.735 673.148 554.735C673.148 557.121 673.148 559.584 673.148 561.937C670.363 562.72 655.973 562.865 651.704 562.216C651.704 559.491 651.704 556.727 651.704 553.863C653.092 553.703 654.203 553.575 655.606 553.414C655.664 552.297 655.744 551.193 655.772 550.089C655.8 548.96 655.778 547.83 655.778 546.35C653.055 546.35 650.578 546.35 647.801 546.35C647.682 545.042 647.565 544.057 647.508 543.068C647.419 541.504 648.159 540.727 649.758 540.749C651.59 540.775 653.423 540.755 655.486 540.755C655.571 539.996 655.654 539.261 655.78 538.142C653.127 538.142 650.659 538.142 647.854 538.142C647.674 536.529 647.53 535.24 647.374 533.842C643.635 533.842 639.886 533.842 635.994 533.842C635.994 534.967 635.994 535.927 635.994 537.235C638.635 537.235 641.109 537.235 643.824 537.235C643.824 538.868 643.824 540.155 643.824 541.69C639.492 541.69 635.311 541.69 630.92 541.69C630.92 538.856 630.92 536.158 630.92 533.197C632.106 533.055 633.305 532.912 634.787 532.735C634.787 530.4 634.787 528.087 634.787 525.594C633.758 525.594 632.786 525.594 631.845 525.594C630.779 527.15 632.656 530.344 629.086 530.221C627.256 530.158 626.975 529.64 626.567 525.669C625.397 525.521 624.183 525.367 622.638 525.172C622.638 522.708 622.638 520.243 622.638 517.516C621.389 517.346 620.437 517.217 619.234 517.053C619.234 521.112 619.234 524.946 619.234 528.927C620.441 529.009 621.557 529.086 622.908 529.178C622.991 530.121 623.068 530.989 622.962 532.221C622.492 532.926 622.204 533.267 621.916 533.608ZM703.011 521.271C701.332 521.201 699.652 521.13 697.545 521.042C697.545 516.887 697.545 513.068 697.545 509.279C694.834 509.279 692.571 509.279 690.34 509.279C690.114 510.545 689.919 511.634 689.71 512.801C688.316 512.956 687.097 513.091 685.994 513.213C685.845 514.571 685.715 515.759 685.581 516.981C683.971 517.099 682.737 517.189 681.363 517.289C681.363 518.336 681.363 519.255 681.363 520.175C685.777 520.117 685.927 520.242 685.92 524.31C685.916 526.826 685.826 529.341 685.814 531.856C685.812 532.158 686.055 532.462 686.265 532.952C687.229 532.888 688.195 532.823 689.104 532.763C689.335 531.422 689.521 530.342 689.695 529.33C691.137 529.33 692.324 529.33 693.462 529.33C693.699 530.678 693.89 531.761 694.074 532.806C695.524 532.945 696.752 533.063 698.127 533.195C698.268 534.536 698.395 535.748 698.541 537.134C700.898 537.134 703.139 537.134 705.397 537.134C705.397 535.951 705.397 534.898 705.397 533.881C703.993 533.684 702.788 533.515 701.636 533.353C701.397 532.116 701.208 531.142 701.055 530.353C699.849 530.16 698.866 530.003 697.884 529.846C697.884 528.04 697.884 526.499 697.884 524.91C699.321 524.91 700.526 524.91 701.863 524.91C701.978 526.313 702.078 527.531 702.187 528.863C703.547 528.995 704.768 529.114 706.145 529.248C706.439 530.487 706.717 531.655 707.023 532.942C708.01 532.895 708.881 532.854 709.839 532.809C710.021 531.541 710.176 530.454 710.35 529.243C711.481 529.128 712.469 529.028 713.526 528.922C713.526 527.684 713.526 526.616 713.526 525.591C712.315 525.408 711.326 525.259 710.272 525.1C710.137 523.844 710.018 522.739 709.86 521.271C707.745 521.271 705.709 521.271 703.011 521.271ZM693.055 545.202C692.333 541.59 694.09 540.215 697.634 540.61C697.576 539.66 697.536 539.013 697.488 538.224C695.006 538.224 692.669 538.224 690.005 538.224C690.005 542.382 690.005 546.338 690.005 550.18C685.702 551.483 685.212 551.135 684.368 546.195C681.967 546.195 679.496 546.195 676.883 546.195C676.65 544.655 676.469 543.454 676.263 542.092C674.006 542.092 671.77 542.092 669.423 542.092C669.369 543.232 669.323 544.204 669.285 545.024C670.56 545.456 672.088 545.52 672.678 546.295C673.317 547.136 673.083 548.639 673.245 549.974C674.663 550.123 675.984 550.262 677.4 550.411C677.585 551.531 677.744 552.494 677.897 553.422C679.002 553.596 679.877 553.733 680.884 553.891C681.017 555.209 681.14 556.422 681.275 557.769C682.433 557.769 683.502 557.769 684.571 557.769C684.752 556.364 684.908 555.158 685.068 553.912C688.05 553.912 690.827 553.912 693.564 553.912C693.722 555.409 693.848 556.615 693.997 558.026C695.343 557.919 696.418 557.834 697.471 557.75C697.471 555.305 697.471 553.177 697.471 551.078C695.964 550.864 694.646 550.677 693.055 550.451C693.055 548.756 693.055 547.291 693.055 545.202ZM660.19 520.624C659.04 520.979 657.89 521.333 656.506 521.76C656.579 522.66 656.656 523.609 656.728 524.501C658.034 524.67 659.036 524.8 660.142 524.944C660.334 526.353 660.511 527.659 660.681 528.905C662.118 529.046 663.332 529.166 664.482 529.279C664.724 530.662 664.914 531.749 665.093 532.772C666.174 532.772 667.044 532.772 668.186 532.772C668.186 528.73 668.186 524.862 668.186 520.807C669.56 520.426 670.721 520.105 672.088 519.726C672.005 518.92 671.921 518.093 671.813 517.04C669.182 517.04 666.803 517.04 664.04 517.04C664.04 511.479 664.04 506.16 664.04 500.847C661.296 500.847 658.956 500.847 656.484 500.847C656.544 501.975 656.591 502.852 656.642 503.803C657.925 503.995 659.016 504.159 660.191 504.335C660.191 507.189 660.191 509.88 660.191 512.719C658.921 512.916 657.834 513.085 656.691 513.262C656.691 514.369 656.691 515.34 656.691 516.435C657.961 516.578 659.051 516.7 660.37 516.848C660.37 518.054 660.37 519.063 660.19 520.624ZM664.754 490.094C664.814 491.435 664.363 492.339 662.839 492.336C662.264 492.335 661.69 492.345 661.115 492.347C655.458 492.362 655.777 492.725 655.802 487.222C655.813 484.731 655.804 482.24 655.804 479.526C654.42 479.59 653.458 479.634 652.332 479.685C652.332 483.115 652.374 486.305 652.319 489.494C652.276 491.964 652.221 491.955 649.585 492.378C649.289 492.426 649.02 492.638 648.647 492.818C648.716 493.749 648.781 494.627 648.874 495.881C655.621 495.881 662.232 495.881 669.157 495.881C669.157 500.196 669.157 504.139 669.157 508.349C670.325 508.26 671.148 508.198 671.927 508.138C671.927 501.485 671.927 495.114 671.927 488.468C669.793 488.468 667.86 488.411 665.934 488.515C665.533 488.536 665.164 489.153 664.754 490.094ZM719.022 557.349C718.593 557.778 718.229 558.443 717.719 558.586C716.781 558.848 715.756 558.803 714.724 558.89C714.497 560.219 714.315 561.29 714.141 562.307C712.695 562.307 711.507 562.307 710.359 562.307C710.128 560.968 709.942 559.885 709.721 558.606C708.572 558.722 707.62 558.819 706.876 558.894C706.876 561.456 706.876 563.675 706.876 566.206C709.504 566.206 711.852 566.206 714.199 566.206C714.385 567.748 714.532 568.959 714.704 570.385C715.956 570.315 717.042 570.254 718.16 570.191C718.329 568.734 718.468 567.533 718.619 566.23C719.79 566.097 720.772 565.986 721.796 565.87C721.981 564.558 722.15 563.358 722.322 562.134C723.687 561.949 724.887 561.787 726.214 561.607C726.137 560.562 726.073 559.707 726.012 558.885C724.551 558.683 723.358 558.517 722.196 558.356C722.064 557.011 721.955 555.908 721.852 554.858C719.76 554.091 718.834 554.667 719.022 557.349ZM655.785 510.552C655.785 508.655 655.785 506.757 655.785 504.903C654.087 504.763 652.877 504.662 651.649 504.561C651.504 502.98 651.393 501.769 651.303 500.788C647.352 500.788 643.61 500.788 639.635 500.788C639.772 502.009 639.879 502.964 639.978 503.855C641.473 504.033 642.681 504.177 643.88 504.32C644.032 505.755 644.161 506.976 644.288 508.175C645.775 508.366 647.095 508.536 648.427 508.707C648.627 510.034 648.789 511.106 648.969 512.302C650.924 512.302 652.64 512.384 654.34 512.251C654.839 512.212 655.29 511.564 655.785 510.552ZM684.54 511.964C684.73 510.875 684.921 509.786 685.12 508.646C686.615 508.462 687.922 508.3 689.39 508.119C689.317 506.914 689.257 505.938 689.199 504.983C687.657 504.783 686.343 504.613 684.965 504.434C684.831 503.082 684.723 501.986 684.61 500.848C683.378 500.848 682.307 500.848 681.24 500.848C681.119 502.183 681.018 503.292 680.903 504.564C679.783 504.682 678.799 504.785 677.884 504.881C677.622 506.231 677.782 507.861 677.065 508.481C676.187 509.241 674.574 509.154 673.139 509.464C673.139 510.3 673.139 511.15 673.139 512.113C674.613 512.264 675.941 512.401 677.424 512.553C677.566 513.968 677.696 515.267 677.82 516.508C681.94 517.275 679.471 513.472 681.049 512.411C681.966 512.366 682.991 512.315 684.54 511.964ZM702.099 542.606C702.099 546.219 702.099 549.831 702.099 553.472C706.112 553.472 709.734 553.472 713.553 553.472C713.553 549.619 713.553 545.925 713.553 542.102C709.772 542.102 706.143 542.102 702.099 542.606ZM627.494 520.996C627.494 522.118 627.494 523.241 627.494 524.73C628.757 524.59 629.673 524.488 630.558 524.39C630.709 522.902 630.821 521.785 630.963 520.384C632.339 520.275 633.624 520.174 634.928 520.072C635.061 518.933 635.177 517.943 635.309 516.814C636.432 516.683 637.394 516.57 638.369 516.456C638.524 515.07 638.659 513.856 638.806 512.544C640.287 512.396 641.615 512.263 643.121 512.113C643.073 511.097 643.033 510.244 642.989 509.315C641.563 509.144 640.343 508.998 638.926 508.829C638.708 507.469 638.5 506.177 638.269 504.735C637.362 504.851 636.64 504.943 635.626 505.073C635.626 507.765 635.626 510.229 635.626 512.835C634.098 512.948 632.885 513.037 631.641 513.129C631.458 514.524 631.3 515.722 631.15 516.866C629.868 517.086 628.789 517.271 627.494 517.493C627.494 518.586 627.494 519.484 627.494 520.996ZM691.125 467.578C689.11 467.526 687.095 467.474 685.011 467.42C684.846 465.953 684.723 464.855 684.591 463.673C683.426 463.673 682.364 463.673 681.1 463.673C681.1 465.478 681.086 467.063 681.108 468.647C681.115 469.198 681.209 469.747 681.258 470.246C682.732 470.536 684.416 470.393 685.232 471.164C686.007 471.895 685.875 473.583 686.164 474.961C689.874 474.961 693.606 474.961 697.456 474.961C697.456 473.701 697.456 472.626 697.456 471.457C695.963 471.284 694.651 471.132 693.671 471.018C692.401 469.923 694.119 467.736 691.125 467.578ZM680.421 481.136C680.421 479.446 680.421 477.756 680.421 476.131C678.971 475.87 677.88 475.673 676.741 475.468C676.553 473.987 676.388 472.681 676.197 471.175C674.999 471.296 674.04 471.393 673.122 471.485C673.122 474.026 673.122 476.282 673.122 478.651C674.5 478.766 675.727 478.868 676.902 478.967C678.441 483.137 678.076 483.658 673.157 484.426C673.157 485.383 673.157 486.342 673.157 487.368C675.575 487.368 677.814 487.368 680.421 487.368C680.421 485.398 680.421 483.595 680.421 481.136ZM663.585 557.986C665.053 557.986 666.522 557.986 667.964 557.986C668.197 556.436 668.379 555.227 668.569 553.96C669.818 553.729 670.897 553.529 672.109 553.305C672.021 552.364 671.952 551.626 671.889 550.962C669.414 550.962 667.176 550.962 664.973 550.962C664.745 552.184 664.545 553.259 664.286 554.648C661.6 554.648 659.126 554.648 656.641 554.648C656.641 555.888 656.641 556.762 656.641 557.986C658.83 557.986 660.874 557.986 663.585 557.986ZM690.083 502.425C690.194 504.84 691.609 503.973 692.859 503.754C692.859 499.899 692.859 496.278 692.859 492.56C690.438 492.56 688.202 492.56 685.942 492.56C685.942 494.873 685.942 496.994 685.942 499.144C687.44 499.96 690.464 498.378 690.083 502.425ZM651.443 522.317C651.231 521.99 651.028 521.386 650.804 521.379C648.671 521.307 646.534 521.336 644.314 521.336C644.125 522.726 643.962 523.915 643.779 525.254C642.409 525.35 641.204 525.434 639.936 525.523C639.936 526.767 639.936 527.816 639.936 528.861C642.621 528.861 645.07 528.861 647.498 528.861C647.572 527.452 647.636 526.245 647.705 524.946C648.823 524.837 649.599 524.761 650.375 524.685C651.519 524.573 651.45 523.735 651.443 522.317ZM712.811 520.298C713.073 520.184 713.563 520.075 713.565 519.956C713.611 517.716 713.599 515.476 713.599 513.012C709.584 513.09 705.861 512.898 701.946 513.132C702.084 514.551 702.178 515.52 702.289 516.662C705.133 516.662 707.741 516.662 710.526 516.662C710.645 517.715 710.62 518.637 710.9 519.454C711.024 519.812 711.77 519.958 712.811 520.298ZM682.86 540.769C685.189 541.071 684.832 539.723 684.541 538.185C683.189 538.056 681.98 537.941 680.633 537.812C680.489 536.411 680.365 535.203 680.23 533.886C677.741 533.886 675.411 533.886 673.135 533.886C673.135 535.101 673.135 536.086 673.135 537.174C674.495 537.268 675.722 537.353 677.08 537.447C677.401 538.558 677.703 539.603 678.04 540.768C679.475 540.768 680.84 540.768 682.86 540.769ZM673.035 526.489C673.035 527.25 673.035 528.012 673.035 528.821C675.613 528.821 677.933 528.821 680.431 528.821C680.359 527.581 680.303 526.599 680.249 525.668C678.949 525.436 677.866 525.242 676.758 525.044C676.564 523.665 676.397 522.475 676.211 521.156C675.049 521.296 674.092 521.412 673.036 521.539C673.036 523.129 673.036 524.483 673.035 526.489ZM659.588 533.667C658.615 533.745 657.642 533.823 656.439 533.92C656.564 535.204 656.657 536.154 656.753 537.142C659.258 537.142 661.482 537.142 663.827 537.142C663.827 535.922 663.827 534.887 663.827 533.667C662.475 533.667 661.352 533.667 659.588 533.667ZM655.234 532.88C656.395 530.502 655.659 528.072 655.649 525.38C654.37 525.466 653.331 525.535 652.452 525.594C652.452 528.232 652.452 530.466 652.452 532.834C653.293 532.884 653.956 532.924 655.234 532.88ZM719.192 549.602C720.075 550.464 720.968 550.317 721.841 549.741C721.841 547.146 721.841 544.664 721.841 541.956C720.81 542.051 719.985 542.127 719.071 542.211C719.071 544.64 719.071 546.81 719.192 549.602ZM677.634 497.564C677.997 499.562 677.997 499.562 680.191 498.881C680.191 496.744 680.191 494.644 680.191 492.383C679.223 492.47 678.503 492.534 677.634 492.612C677.634 494.206 677.634 495.554 677.634 497.564ZM662.252 545.382C664.129 544.991 664.129 544.991 663.671 542.076C662.705 542.076 661.724 542.076 660.055 542.076C661.069 543.271 659.22 544.918 662.252 545.382ZM673.119 466.345C674.128 466.544 675.138 466.742 676.306 466.972C676.306 465.567 676.306 464.618 676.306 463.622C675.148 463.622 674.184 463.622 673.013 463.622C673.013 464.456 673.013 465.108 673.119 466.345ZM644.587 516.529C645.563 516.529 646.539 516.529 647.702 516.529C647.573 515.235 647.47 514.189 647.348 512.961C646.179 513.059 645.222 513.14 644.145 513.231C644.145 514.331 644.145 515.207 644.587 516.529ZM639.709 494.697C640.409 496.748 641.795 495.545 643.193 495.627C643.1 494.424 643.029 493.486 642.927 492.164C641.53 492.736 639.573 491.366 639.709 494.697ZM704.456 508.406C706.688 507.686 705.02 506.139 705.523 504.93C704.228 504.93 703.274 504.93 702.008 504.93C702.306 506.448 700.956 508.379 704.456 508.406ZM667.065 538.016C666.134 538.11 664.863 537.602 664.78 539.234C664.753 539.764 664.857 540.3 664.907 540.903C666.092 540.834 667.061 540.777 668.424 540.697C668.116 539.678 667.876 538.884 667.065 538.016ZM700.68 558.789C699.825 558.731 698.727 558.196 698.445 559.528C698.296 560.227 698.545 561.011 698.627 561.887C699.62 561.807 700.371 561.747 701.306 561.672C701.233 560.714 701.175 559.946 700.68 558.789ZM671.995 480.053C671.121 479.257 670.24 479.311 669.249 480.052C669.305 480.963 669.362 481.888 669.413 482.723C671.579 483.316 672.398 482.595 671.995 480.053ZM668.205 469.373C668.22 466.389 666.311 467.893 664.906 467.733C664.846 468.425 664.772 468.856 664.785 469.285C664.794 469.598 664.919 469.907 665.086 470.611C666.141 470.396 667.139 470.193 668.205 469.373ZM635.79 523.576C636.224 525.271 637.292 524.706 638.533 524.452C638.478 523.327 638.431 522.381 638.386 521.474C636.807 521.124 635.647 521.077 635.79 523.576ZM653.377 517.163C651.408 517.5 652.735 518.887 652.089 519.945C653.508 519.945 654.48 519.945 655.62 519.945C655.798 518.48 656.35 517.032 653.377 517.163ZM639.707 518.941C640.269 521.201 641.753 519.734 643.13 520.062C643.032 518.893 642.965 518.082 642.882 517.086C641.608 517.489 640.074 516.238 639.707 518.941ZM719.041 510.715C719.091 513.04 720.557 512.219 721.874 512.134C721.874 511.101 721.874 510.262 721.874 509.235C720.708 509.203 719.566 508.467 719.041 510.715Z" fill="black"/>
<path d="M735 477.837C735 479.981 735 481.786 735 483.736C733.85 483.845 733.071 483.982 732.291 483.984C724.304 484 716.317 484.01 708.331 483.986C705.372 483.977 705.045 483.712 705.029 480.914C704.982 472.882 704.999 464.85 705.031 456.818C705.035 455.934 705.296 455.05 705.464 454C715.306 454 724.95 454 735 454C735 461.961 735 469.729 735 477.837ZM730.559 477.374C730.562 474.279 730.635 471.183 730.55 468.091C730.466 465.05 730.958 461.968 730.214 458.934C723.502 458.934 717 458.934 710.541 458.934C710.541 465.678 710.541 472.145 710.541 478.749C716.881 478.749 722.996 478.765 729.111 478.719C729.574 478.715 730.035 478.275 730.559 477.374Z" fill="black"/>
<path d="M644 466.073C644 472.004 644 477.592 644 483.081C641.363 484.006 624.287 484.298 615.619 483.656C614.906 481.28 614.755 457.895 615.452 454C624.812 454 634.196 454 644 454C644 458.03 644 461.88 644 466.073ZM629.862 478.548C632.866 478.548 635.87 478.548 638.987 478.548C638.987 474.9 639.007 471.72 638.981 468.54C638.955 465.286 639.101 462.02 638.883 458.843C632.121 458.843 625.812 458.843 619.402 458.843C619.402 465.593 619.402 472.125 619.402 478.548C622.827 478.548 626.004 478.548 629.862 478.548Z" fill="black"/>
<path d="M644 574.077C643.554 574.596 643.165 574.956 642.773 574.958C634.492 574.996 626.21 574.994 617.929 575C617.026 575 616.124 575 615 575C615 565.272 615 555.754 615 546C624.409 546 633.892 546 643.444 546C643.46 546.015 643.548 546.088 643.628 546.169C643.706 546.248 643.841 546.334 643.842 546.417C643.92 555.529 643.987 564.64 644 574.077ZM621.536 570.262C627.257 570.262 632.977 570.262 638.799 570.262C638.799 563.528 638.799 557.182 638.799 550.844C632.084 550.844 625.593 550.844 618.929 550.844C618.929 556.946 618.961 562.801 618.906 568.656C618.892 570.124 619.693 570.325 621.536 570.262Z" fill="black"/>
<path d="M685.037 575C683.494 575 682.283 575 681 575C681 573.256 681 571.911 681 570.228C682.28 570.145 683.367 570.02 684.455 570.015C688.96 569.992 693.466 570.001 697.971 570.006C702.281 570.011 702.289 570.024 701.766 575C696.337 575 690.852 575 685.037 575Z" fill="black"/>
<path d="M710.493 489.014C710.588 489.986 710.621 490.652 710.662 491.486C711.756 491.62 712.744 491.741 714 491.895C714 493.55 714 495.165 714 497C711.384 497 708.783 497 705.776 497C705.541 495.814 705.292 494.558 704.998 493.076C704.065 492.967 702.838 492.823 701.222 492.633C701.155 491.313 701.089 490.011 701 488.258C704.272 488.145 707.353 487.431 710.493 489.014Z" fill="black"/>
<path d="M656.995 568.178C656.932 569.386 656.867 570.273 656.788 571.342C655.447 571.476 654.255 571.594 653.013 571.717C652.876 572.826 652.755 573.807 652.608 575C651.189 575 649.897 575 648.292 575C648.011 572.021 647.682 569.149 648.63 566.006C651.038 566.006 653.289 565.989 655.539 566.012C656.734 566.025 657.044 566.811 656.995 568.178Z" fill="black"/>
<path d="M622.329 534.304C622.428 533.715 622.727 533.391 623.186 533C624.715 533.151 626.083 533.37 627.719 533.632C627.805 534.219 627.969 534.928 627.995 535.641C628.023 536.387 627.919 537.137 627.863 538.05C626.53 538.181 625.263 538.306 623.743 538.456C623.573 539.432 623.397 540.443 623.229 541.411C618.352 542.723 617.357 541.995 618.343 537.678C619.512 537.569 620.761 537.452 622.378 537.3C622.428 536.399 622.479 535.484 622.329 534.304Z" fill="black"/>
<path d="M673 571.866C672.983 573.043 672.907 573.921 672.812 575C671.298 575 669.959 575 668.435 575C668.227 573.939 668.036 572.969 667.801 571.778C666.676 571.64 665.447 571.49 664 571.313C664 569.66 664 568.141 664 566.628C668.417 565.347 669.2 565.859 669.333 569.723C670.643 570.393 671.792 570.98 673 571.866Z" fill="black"/>
<path d="M730.998 517.891C731.01 518.943 730.964 519.773 730.922 520.536C726.312 521.595 725.441 520.977 726.288 517.273C727.837 517.113 729.441 516.499 730.998 517.891Z" fill="black"/>
<path d="M735 528.035C734.945 529.922 733.876 530.114 732.6 529.957C731.473 529.818 730.993 529.111 731 528.027C731.005 527.209 731.001 526.391 731.001 525.464C731.768 525.28 732.344 525.083 732.935 525.018C733.446 524.961 733.974 525.054 734.804 525.097C734.87 525.987 734.937 526.872 735 528.035Z" fill="black"/>
<path d="M733.304 533C734.103 533.35 734.86 533.658 734.91 534.041C735.069 535.283 734.969 536.553 734.969 538C733.311 538 731.961 538 730.644 538C729.485 533.693 729.624 533.402 733.304 533Z" fill="black"/>
<path d="M690.184 520.997C688.296 519.811 689.28 518.573 689.093 517.211C690.751 517.136 692.001 517.08 693.766 517C693.843 518.26 693.911 519.377 694 520.836C692.679 520.935 691.585 521.016 690.184 520.997Z" fill="black"/>
<path d="M709.326 545.07C712.087 546.46 710.55 548.445 710.761 550.194C708.884 551.132 706.951 551.428 705.664 550.11C704.925 549.353 704.88 547.603 705.155 546.433C705.612 544.494 707.524 545.092 709.326 545.07Z" fill="black"/>
<path d="M722.922 462.028C723.795 462.03 724.354 462.037 724.913 462.034C726.272 462.026 727 462.702 727 464.167C727 467.913 727 471.659 727 475.889C722.551 476.033 718.395 476.053 714 475.853C714 471.284 714 466.995 714 462.395C716.854 461.689 719.753 462.176 722.922 462.028Z" fill="black"/>
<path d="M635.748 475.802C631.535 476 627.574 476 623.651 476C622.865 473.515 622.765 466.57 623.491 463C627.55 463 631.669 463 636 463C636 467.329 636 471.467 635.748 475.802Z" fill="black"/>
<path d="M624.551 566.983C623.82 566.555 623.073 566.143 623.062 565.713C622.968 562.046 623.009 558.377 623.009 554.798C625.403 553.929 630.717 553.752 635.799 554.354C636.201 558.342 635.844 562.411 636 566.905C632.17 567.08 628.519 566.953 624.551 566.983Z" fill="black"/>
</svg>
