<svg width="96" height="96" viewBox="0 0 96 96" fill="none" xmlns="http://www.w3.org/2000/svg">
<path d="M21.22 72.93C20.93 73.45 20.64 73.97 20.34 74.47C18.88 76.93 17.14 81.6 15.99 81.46C11.48 80.9 6.92 79.27 2.93 77.05C1.78 76.41 1.71 72.25 2.4 70.11C7.31 54.92 12.43 39.79 17.82 24.76C18.46 22.99 20.95 21.61 22.87 20.61C27.58 18.17 32.61 17.14 34.79 10.63C36.52 5.45 43.12 5.98 48.08 5.98C53.04 5.98 59.37 5.49 61.39 10.66C63.38 15.76 66.48 18.24 71.03 19.51C76.29 20.98 78.63 24.38 80.19 29.41C84.19 42.27 88.71 54.97 93.03 67.73C95.82 75.97 95.23 77.15 86.86 79.87C85.91 80.18 84.91 80.39 84.02 80.83C80.4 82.62 78.08 81.85 77.03 77.71C76.61 76.04 75.65 74.51 74.11 73.07C74.11 76.32 74.18 79.57 74.09 82.81C73.95 87.71 71.91 89.9 67.09 89.94C54.41 90.03 41.72 90.03 29.04 89.94C24.2 89.9 22.17 87.72 22.04 82.82C21.95 79.57 22.02 76.33 22.02 73.08C21.75 73.03 21.49 72.97 21.22 72.92V72.93ZM45.89 82.06V26.27C42.83 25.12 39.65 24.6 37.35 22.89C34.19 20.54 31.71 21.04 28.28 22.22C22.98 24.04 20.25 27.27 18.94 32.57C17.67 37.71 15.66 42.68 14 47.72C11.52 55.25 9.04 62.78 6.6 70.22C14.54 74.5 14.57 74.45 17.61 67.05C20.2 60.74 23.09 54.56 22.2 47.41C22.08 46.45 23.27 45.32 23.86 44.27C24.56 45.37 25.45 46.41 25.89 47.61C26.22 48.49 25.96 49.59 25.96 50.59C25.96 59.59 26.1 68.58 25.89 77.58C25.81 81.14 27.1 82.28 30.54 82.12C35.51 81.9 40.49 82.06 45.89 82.06ZM50.33 26.72V82.06C55.64 82.06 60.62 81.9 65.59 82.12C69.02 82.27 70.33 81.15 70.25 77.59C70.05 68.27 70.08 58.93 70.28 49.61C70.32 47.82 71.58 46.06 72.27 44.29C72.86 46 74.06 47.76 73.94 49.42C73.33 58.42 78.41 65.45 81.35 73.69C84.42 72.56 86.96 71.63 89.7 70.62C85.3 57.36 80.5 44.92 77.19 32.09C75.24 24.55 69.63 23.21 64.11 20.92C63.37 20.61 62.18 20.96 61.35 21.34C57.78 23 54.26 24.8 50.34 26.73L50.33 26.72ZM56.72 13.12C56.72 12.47 56.71 11.82 56.7 11.17C50.86 9.37 45.08 9.11 39.37 11.25C39.38 11.87 39.39 12.49 39.41 13.11H56.72V13.12ZM45.46 22.57C46.08 17.63 44.4 16.68 36.67 16.61L36.04 17.86C39.09 19.39 42.14 20.91 45.46 22.57ZM60.08 17.9C59.81 17.42 59.54 16.93 59.27 16.45C52.9433 17.1367 50.1833 19.14 50.99 22.46C54.13 20.89 57.11 19.39 60.08 17.9Z" fill="black"/>
<path d="M39.97 60.2C38.44 64.6 37.09 68.68 35.57 72.69C35.38 73.18 33.85 73.73 33.62 73.52C33 72.95 32.24 71.83 32.43 71.2C33.6 67.25 34.96 63.35 36.41 59.49C36.63 58.92 37.87 58.18 38.27 58.35C39.01 58.68 39.48 59.63 39.97 60.2Z" fill="black"/>
<path d="M57.75 57.42C58.82 58.56 59.59 59.03 59.83 59.69C61.19 63.41 62.53 67.14 63.61 70.95C63.82 71.69 62.81 72.78 62.37 73.7C61.65 73.15 60.54 72.74 60.26 72.02C58.85 68.32 57.56 64.57 56.48 60.76C56.26 60 57.14 58.93 57.75 57.43V57.42Z" fill="black"/>
</svg>
