<svg width="100" height="100" viewBox="0 0 100 100" fill="none" xmlns="http://www.w3.org/2000/svg">
<path d="M8.05 42.06C8.05 31.92 8.14 21.78 7.99 11.64C7.95 8.87 8.74 7.98 11.58 8C28.87 8.12 46.16 8.06 63.45 8.06C65.07 8.06 67.29 7.61 67.65 9.7C68.08 12.25 67.87 14.94 67.62 17.54C67.53 18.43 66.19 17.97 65.42 18.01C63.95 18.09 63.83 16.97 64.01 16C64.77 12 62.47 11.96 59.46 11.99C45 12.11 30.53 12.14 16.07 11.97C12.86 11.93 11.93 12.72 11.97 16.02C12.15 33.48 12.11 50.93 11.99 68.39C11.97 71.09 12.51 72.28 15.47 72.03C18.61 71.76 21.78 71.92 24.94 72C26.24 72.03 28 71.27 28.08 73.86C28.16 76.33 26.63 75.97 25.16 75.97C20.5 75.97 15.84 75.81 11.2 76.03C8.36 76.16 7.99 74.87 8.02 72.5C8.11 62.36 8.06 52.22 8.06 42.08L8.05 42.06Z" fill="black"/>
<path d="M24.06 26.12C22.7 25.45 19.98 27.34 20.12 24C20.27 20.42 23.08 22.41 24.63 22.13C25.92 21.9 28.14 21.09 28.05 24.06C27.95 27.43 25.41 25.44 24.05 26.12H24.06Z" fill="#030303"/>
<path d="M23.82 38.13C22.44 37.54 20.1 39.11 20.1 36.15C20.1 32.48 22.93 34.33 24.47 34.13C25.72 33.97 28.02 32.91 28.04 35.89C28.07 39.68 25.12 37.23 23.82 38.13Z" fill="#030303"/>
<path d="M24.17 45.84C25.84 46.38 28.11 44.93 28.04 47.94C27.96 51.66 25.16 49.68 23.64 49.89C22.39 50.07 20.05 51 20.09 48.06C20.15 44.3 23.22 47.05 24.16 45.84H24.17Z" fill="#030303"/>
<path d="M23.93 62.06C22.35 61.62 19.76 63 20.11 59.72C20.44 56.6 22.9 58.23 24.37 58.08C25.85 57.93 28.34 56.96 28.04 60.25C27.73 63.55 25.16 61.24 23.93 62.06Z" fill="#030303"/>
<path fill-rule="evenodd" clip-rule="evenodd" d="M32.0354 48.2601C32.0277 51.1267 32.02 53.9934 32.02 56.86L32.03 56.87C32.03 59.8205 32.0371 62.771 32.0442 65.7214C32.0624 73.2603 32.0806 80.7977 31.98 88.33C31.94 91.05 32.63 92.04 35.53 92.02C53.01 91.89 70.48 91.91 87.96 92C91.04 92.02 92.01 90.79 92 87.84C91.92 67.36 91.9 46.89 92 26.42C92.01 23.24 91.03 21.97 87.71 21.99C70.4 22.1 53.09 22.12 35.78 21.96C32.61 21.93 31.91 22.93 31.96 25.9C32.0756 33.3534 32.0555 40.8067 32.0354 48.2601ZM36.0366 49.4404C36.0283 51.9574 36.02 54.4741 36.02 56.99C36.02 59.5096 36.0283 62.0284 36.0366 64.5466C36.0586 71.1836 36.0805 77.8168 35.95 84.45C35.9 87.28 36.7 88.05 39.52 88.02C54.5 87.88 69.47 87.88 84.45 88.02C87.28 88.04 88.04 87.27 88.02 84.45C87.89 66.14 87.89 47.83 88.02 29.53C88.03 26.71 87.27 25.93 84.45 25.96C69.47 26.1 54.5 26.1 39.52 25.96C36.7 25.94 35.9 26.71 35.95 29.53C36.0805 36.1641 36.0586 42.8034 36.0366 49.4404Z" fill="black"/>
<path d="M62.15 42.01C57.18 42.01 52.21 42.07 47.24 41.97C45.99 41.95 44.16 42.72 44.03 40.16C43.9 37.69 45.5 38.03 46.93 38.02C57.37 38 67.8 38.02 78.24 37.99C79.81 37.99 81.65 38.1 81.71 39.85C81.79 42.09 79.73 42 78.05 42C72.75 42 67.45 42 62.15 42V42.01Z" fill="black"/>
<path d="M62.99 61.98C68.13 61.98 73.26 62 78.4 61.97C79.98 61.97 81.72 62.15 81.73 63.97C81.74 65.82 79.98 65.99 78.41 65.98C67.81 65.96 57.21 65.97 46.6 65.96C45.27 65.96 44.02 66.07 44.02 63.99C44.02 61.91 45.25 62 46.59 62C52.06 61.99 57.52 62 62.99 61.98Z" fill="black"/>
<path d="M57.71 50.01C61.51 50.01 65.32 50.01 69.12 50.01C70.61 50.01 71.87 50.65 71.75 52.2C71.66 53.34 70.54 54 69.2 54C61.59 53.97 53.98 53.96 46.37 54C44.81 54 43.95 53.66 44.02 51.8C44.08 50.06 45.1 50.04 46.29 50.03C50.09 50.03 53.9 50.03 57.7 50.01H57.71Z" fill="#010101"/>
<path d="M58.08 73.97C61.55 73.97 65.03 73.99 68.5 73.97C70.08 73.96 71.74 74.22 71.74 76.06C71.74 77.52 70.3 78 68.83 77.99C61.39 77.96 53.94 77.96 46.5 77.97C45.09 77.97 43.98 77.92 44.02 75.9C44.06 73.78 45.41 74.02 46.67 74.01C50.47 73.98 54.28 74 58.08 73.99V73.97Z" fill="#010101"/>
</svg>
