<svg width="64" height="64" viewBox="0 0 64 64" fill="none" xmlns="http://www.w3.org/2000/svg">
<g clip-path="url(#clip0_1_530)">
<path d="M41 0.610001C39.1 1.5 37.07 1.03 35.13 0.980001C31.09 0.880001 27.03 1.53 23.02 0.610001C29.02 0.610001 35.01 0.610001 41.01 0.610001H41Z" fill="#1F1F1F"/>
<path fill-rule="evenodd" clip-rule="evenodd" d="M41 0.61C43.95 0.5 46.89 0.88 49.67 1.7C53.32 2.78 55.78 6.35 55.92 10.66C56.0262 13.877 56.0058 17.0998 55.9854 20.3196L55.9854 20.3211C55.9789 21.3444 55.9724 22.3675 55.97 23.39L55.97 23.4314C55.9697 24.3639 55.9696 24.8338 57.3 25.09C63.7282 26.3077 63.4738 27.6857 62.6093 32.3696C62.5579 32.6479 62.5044 32.9378 62.45 33.24C62.0543 35.4501 61.6686 37.6637 61.2829 39.8775C60.5186 44.2648 59.7541 48.6534 58.91 53.02C58.59 54.68 57.99 56.46 55.52 55.98C54.9328 55.8679 54.3738 56.0271 53.7952 56.1918C53.0828 56.3946 52.3408 56.6059 51.48 56.33C51.6165 57.3273 51.9645 58.1554 52.2959 58.9441L52.2959 58.9441L52.2959 58.9442C52.5228 59.4841 52.7418 60.0055 52.88 60.55C52.9303 60.7457 53.0666 60.9703 53.2082 61.2037C53.5732 61.8053 53.9738 62.4654 53.03 62.84C51.99 63.25 50.61 63.12 49.93 61.73C49.8149 61.4917 49.6779 61.2635 49.5412 61.0357C49.3451 60.7092 49.1496 60.3835 49.02 60.03C47.89 57.01 45.54 56.07 42.54 55.94C40.9307 55.8681 39.3489 56.0501 37.7659 56.2322C36.4865 56.3793 35.2062 56.5266 33.91 56.54C31.5432 56.5624 29.192 56.4063 26.8443 56.2505L26.8441 56.2505C24.996 56.1278 23.1499 56.0052 21.3 55.97C18.52 55.91 16.3 56.7 15.14 59.55C14.8844 60.1808 14.4662 60.7465 14.0461 61.3148C13.6937 61.7915 13.34 62.2699 13.08 62.79C12.639 63.6639 12.2379 63.4905 11.7081 63.2614L11.708 63.2614C11.5891 63.21 11.4638 63.1558 11.33 63.11C10.45 62.8 10.41 62.33 10.67 61.62C11.0607 60.5697 11.4554 59.5235 11.8595 58.4525L11.8598 58.4518L11.8614 58.4477C12.0877 57.8479 12.3169 57.2404 12.55 56.62C12.0712 56.5498 11.5934 56.4439 11.1205 56.3391C10.112 56.1156 9.12588 55.897 8.2 56.04C5.78 56.42 5.37 55 5.06 53.28C4.73148 51.4907 4.4236 49.6971 4.11568 47.9033C3.37385 43.5816 2.63175 39.2583 1.6 34.99C1.3588 33.9935 1.27876 32.9567 1.19876 31.9205C1.15273 31.3242 1.10671 30.7281 1.03 30.14C0.650001 27.16 1.81 26.22 4.83 25.55L5.15858 25.4777C8.00141 24.8538 8.02 24.8497 8.02 21.88C8.02 20.1303 8.025 18.3832 8.03 16.636L8.03 16.635C8.035 14.8875 8.04 13.14 8.04 11.39C8.04 4.84 12.55 0.97 18.15 1.04C18.8072 1.04801 19.4484 0.898646 20.0883 0.749569C21.0452 0.526647 21.9992 0.30438 23 0.61C29 0.9 34.99 0.9 40.99 0.61H41ZM46.49 4.45C51.39 4.87 52.55 7.62 52.91 12.03C53.1324 14.7892 53.0795 17.5676 53.0265 20.3486C53.0033 21.5691 52.98 22.79 52.98 24.01V24.0323C52.9801 24.9418 52.9801 25.6632 51.77 26.06C47.64 27.41 44.91 30.2 44 34.54C43.68 36.04 42.99 36.58 41.38 36.55C35.14 36.44 28.9 36.47 22.66 36.54C21.27 36.56 20.46 36.32 20.11 34.79C19.11 30.44 16.41 27.52 12.21 26.02C11.53 25.78 10.99 25.51 11.04 24.68C11.1353 22.808 11.0815 20.9306 11.0278 19.0533C10.9349 15.8061 10.842 12.559 11.52 9.34C12.18 6.23 13.89 4.76 17.03 4.44C17.977 4.21746 18.9396 4.25498 19.9021 4.2925C20.9723 4.33421 22.0422 4.37591 23.09 4.06H39.95C41.0738 4.36697 42.2166 4.32745 43.36 4.28789C44.4143 4.25143 45.469 4.21494 46.51 4.45H46.49ZM7.79829 50.3067L7.79829 50.3067C7.88819 50.9922 7.97809 51.6777 8.08 52.36L8.07 52.37C8.41914 52.8144 8.88792 52.7802 9.34143 52.7471C9.45945 52.7385 9.57643 52.73 9.69 52.73H54.27C54.3826 52.73 54.4976 52.7365 54.6134 52.743L54.6135 52.743C55.0737 52.7689 55.5465 52.7955 55.93 52.42C55.93 50.9129 56.2164 49.4437 56.5033 47.9725L56.5033 47.9724L56.5033 47.9722C56.6066 47.4424 56.71 46.9122 56.8 46.38C56.8266 46.2216 56.8618 46.0602 56.8971 45.8981L56.8972 45.8981C57.1005 44.965 57.3087 44.0097 55.92 43.49C48.94 40.88 41.73 39.37 34.29 39.01C29.68 38.79 25.09 39.16 20.55 40C16.17 40.81 11.91 42.08 7.75 43.67L7.71821 43.6822C7.13253 43.9063 6.65478 44.0891 6.92 45.15C7.34297 46.8347 7.57064 48.5708 7.79829 50.3067ZM58.48 28.92C58.6251 29.0241 58.8468 29.0048 59.0689 28.9855C59.5508 28.9436 60.0344 28.9015 59.74 30.12C59.1364 32.6267 58.7597 35.1889 58.3844 37.7422L58.3843 37.7424C58.2311 38.7846 58.0781 39.8252 57.91 40.86C56.9902 40.5712 56.0823 40.2765 55.1809 39.9839L55.1805 39.9838C53.2106 39.3443 51.2721 38.7151 49.31 38.18C47.61 37.72 46.8 37.31 47.36 35.13C48.29 31.48 49.78 29.61 53.47 28.91C55.14 28.65 56.81 28.65 58.48 28.91V28.92ZM16.8639 35.9527C15.8959 32.8331 14.9277 29.7134 11.03 28.93H11.04C9.36999 28.66 7.69999 28.67 6.02999 28.93C5.83144 28.9521 5.63548 28.9577 5.44949 28.9631C4.53951 28.9893 3.86824 29.0086 4.29999 30.91C5.03999 34.17 5.77999 37.48 6.16999 40.8C7.65481 40.4299 9.076 39.9326 10.4859 39.4392C12.2379 38.8261 13.9725 38.2191 15.79 37.87C16.41 37.75 17.33 37.44 17 36.39C16.9544 36.2444 16.9092 36.0985 16.8639 35.9527Z" fill="black"/>
<path d="M8.08 52.36C12.57 52.4 17.05 52.48 21.54 52.48C33.01 52.48 44.48 52.44 55.95 52.42C55.27 53.35 54.27 52.97 53.42 52.97C39.14 52.99 24.86 52.99 10.58 52.97C9.74 52.97 8.72 53.39 8.09 52.37L8.08 52.36Z" fill="#1F1F1F"/>
<path d="M46.49 4.45C44.3 4.39 42.07 4.99 39.93 4.06C42.11 4.21 44.35 3.56 46.49 4.45Z" fill="#232323"/>
<path d="M23.07 4.06C21.1 5.05 19.03 4.36 17.01 4.44C18.99 3.62 21.05 4.19 23.07 4.06Z" fill="#222222"/>
<path d="M11.03 28.93H6.02C7.69 28.25 9.36 28.25 11.03 28.93Z" fill="#232323"/>
<path d="M58.48 28.92C56.81 28.92 55.14 28.92 53.47 28.92C55.14 28.24 56.81 28.25 58.48 28.92Z" fill="#232323"/>
</g>
<defs>
<clipPath id="clip0_1_530">
<rect width="64" height="64" fill="white"/>
</clipPath>
</defs>
</svg>
