<svg width="100" height="100" viewBox="0 0 100 100" fill="none" xmlns="http://www.w3.org/2000/svg">
<path d="M46.01 12.05C57.15 12.05 68.29 12.05 79.43 12.05C85.73 12.05 89.92 17.96 87.96 23.9C87.43 25.5 86.55 25.1 85.85 24.35C85.11 23.54 84.1 22.37 84.21 21.48C84.98 15.21 80.75 16.02 76.92 16.03C55.31 16.05 33.69 16.11 12.08 15.97C8.87 15.95 7.94 16.72 7.98 20.02C8.17 34.65 8.15 49.28 7.99 63.91C7.96 67.04 8.6 68.11 11.99 68.06C26.45 67.85 40.92 67.97 55.38 67.97C56.54 67.97 57.72 67.87 58.87 68.02C60.17 68.18 60.87 69.07 60.97 70.39C61.11 72.3 59.71 71.95 58.62 71.95C41.83 71.96 25.03 71.98 8.24 71.93C5.5 71.93 4.05 70.4 4.05 67.56C4.06 50.6 4.05 33.64 4.06 16.68C4.06 12.14 7.45 12.08 10.59 12.07C22.39 12 34.2 12.04 46.01 12.04V12.05Z" fill="black"/>
<path d="M45.21 79.96C40.39 79.96 35.57 79.93 30.75 79.98C29.13 79.99 27.87 80.01 27.98 77.71C28.09 75.49 29.55 75.99 30.75 75.98C40.23 75.95 49.7 76.08 59.18 75.89C61.6 75.84 62.83 77.24 62.76 78.82C62.67 80.94 60.42 79.86 59.17 79.9C54.52 80.05 49.86 79.96 45.21 79.96Z" fill="black"/>
<path d="M42.01 32.13C45.91 36.18 48.87 39.24 51.81 42.33C52.34 42.89 53.26 43.39 52.85 44.36C52.45 45.34 51.43 45.09 50.72 44.97C47.92 44.49 48.29 46.14 49.15 47.53C50.1 49.08 50.79 51.12 49.27 51.74C47.6 52.43 47.3 49.87 47.12 48.73C46.81 46.66 45.49 46.43 44.47 47.29C41.75 49.62 41.95 47.92 41.98 45.83C42.04 41.74 42 37.65 42 32.11L42.01 32.13Z" fill="black"/>
<path fill-rule="evenodd" clip-rule="evenodd" d="M76.49 26.86C73.8231 30.4858 71.7349 34.1115 71.8496 38.7936C67.0692 35.8406 66.5488 36.2536 64.88 41.18C63.2735 45.9146 63.809 50.6548 64.3464 55.4111C64.8225 59.6257 65.3001 63.8529 64.29 68.1C63.8284 70.0387 64.6699 72.2427 65.5298 74.4949C66.0671 75.902 66.6116 77.328 66.85 78.72C66.8947 78.977 66.945 79.2347 66.995 79.4907C67.4819 81.9845 67.9368 84.3142 62.84 84.16C48.8635 83.7277 34.864 83.8188 20.8676 83.9099H20.8674H20.8673H20.8671H20.8654H20.8638H20.8621C16.4041 83.9389 11.9465 83.9679 7.49 83.98C7.22212 83.98 6.92561 83.9427 6.62212 83.9045C5.36209 83.746 3.98164 83.5723 4.03 85.99C4.07697 88.3384 5.40461 88.1499 6.62669 87.9764C6.96579 87.9283 7.29677 87.8813 7.59 87.89C10.595 87.9841 13.6052 87.9682 16.6169 87.9522C17.7645 87.9461 18.9122 87.94 20.06 87.94C24.4434 87.94 28.8264 87.9407 33.2093 87.9413C52.9335 87.9443 72.6534 87.9473 92.38 87.89C92.6567 87.89 92.9748 87.9461 93.305 88.0044C94.5147 88.2178 95.8879 88.4601 95.99 86.08C96.09 83.68 94.64 83.82 93.13 83.97C91.4307 84.1497 91.5527 83.5504 91.7256 82.7007C91.7837 82.4154 91.8475 82.1018 91.85 81.78C91.8794 79.2187 92.6183 76.7139 93.3574 74.2089C94.6324 69.8873 95.9076 65.5649 93.54 60.95C93.446 60.7557 93.5838 60.4513 93.7269 60.1354C93.812 59.9474 93.899 59.7554 93.94 59.58C95.68 52.3 95.28 45.03 93.99 37.73C93.62 35.63 92.46 34.48 90.69 35.11C87.32 36.31 86.41 35.03 85.81 31.92C85.44 29.98 84.17 28 82.79 26.52C80.81 24.39 78.79 23.73 76.49 26.86ZM79.66 65.98H84.64C89.1133 65.98 90.8467 68.09 89.84 72.31C89.7875 72.5293 89.626 72.7282 89.4669 72.924C89.2924 73.1388 89.1209 73.3498 89.1 73.58C89.0467 74.1681 89.0086 74.7957 88.9696 75.4392V75.4393V75.4393V75.4394C88.7745 78.6583 88.5551 82.2766 86.28 83.36C84.0719 84.409 81.3229 84.2504 78.538 84.0898C77.0222 84.0023 75.4957 83.9143 74.04 84.02C71.9127 84.1726 71.4962 82.5781 71.2106 81.4846L71.2106 81.4845C71.1968 81.4317 71.1833 81.3802 71.17 81.33C70.5147 78.804 70.0068 76.2404 69.4988 73.676C69.0998 71.6619 68.7007 69.6472 68.23 67.65C67.8017 65.8299 68.7572 65.909 69.6439 65.9824C69.8338 65.9981 70.0206 66.0135 70.19 66.01C72.4996 65.9587 74.8146 65.9665 77.131 65.9743H77.1316C77.9743 65.9772 78.8171 65.98 79.66 65.98ZM90.9567 50.59C90.9533 50.0954 90.95 49.6007 90.95 49.1061C90.95 48.6128 90.9581 48.1185 90.9662 47.6239C90.9851 46.4656 91.004 45.3054 90.92 44.15C90.9011 43.8726 90.9425 43.5706 90.9843 43.2654C91.0976 42.4373 91.2142 41.5857 90.14 41.14C88.87 40.62 87.96 41.42 87.15 42.28C82.34 47.38 77.83 52.64 77.9 60.25C77.9032 60.4335 77.7743 60.6159 77.6449 60.799C77.3654 61.1946 77.084 61.593 78.13 62.01C84.91 64.74 90.8 60.92 90.95 53.57C90.97 52.5767 90.9633 51.5833 90.9567 50.59ZM67.959 49.735L67.959 49.7345C67.9437 49.2361 67.9343 48.9273 67.99 48.63C68.1118 47.9933 68.0181 47.2198 67.9262 46.4616C67.7541 45.0405 67.5884 43.673 68.86 43.36C70.1225 43.0462 71.1395 44.5351 72.1318 45.988L72.1319 45.9881C72.4679 46.48 72.8011 46.9677 73.14 47.38C75.7289 50.5458 74.9895 53.7272 74.2596 56.868C73.9773 58.0825 73.6964 59.2909 73.61 60.49C73.46 62.56 71.25 62.37 70.12 60.42C68.28 57.24 67.35 53.83 67.98 50.91C67.98 50.4192 67.9684 50.0413 67.959 49.735ZM75.97 38.93V39.43C75.979 39.9809 75.9442 40.5925 75.9086 41.218C75.7865 43.3629 75.6551 45.6716 77.25 46.26C79.15 46.96 81.54 43.73 82.4 41.77C83.76 38.67 83.55 35.05 81.4 31.97C80.76 31.04 79.6 30.61 78.77 31.11C75.81 32.91 75.87 35.95 75.97 38.93Z" fill="black"/>
</svg>
