<svg width="100" height="100" viewBox="0 0 100 100" fill="none" xmlns="http://www.w3.org/2000/svg">
<path fill-rule="evenodd" clip-rule="evenodd" d="M55.53 8.11C26.73 15.08 6.06003 42.59 6.15 69.7399C6.14998 70.3466 6.14777 70.9533 6.14556 71.56C6.14111 72.78 6.13667 74 6.15 75.22C6.26 85.71 12.95 93.07 23.24 93.91C38.62 95.17 52.88 91.05 65.03 82.15C85.25 67.33 95.79 47.32 92.94 21.58C92.23 15.13 88.83 10.18 82.43 8.16C73.52 5.35 64.57 5.92 55.53 8.11ZM44.61 87.21C69.9 80.97 90 55.15 88.96 30.76H88.95C88.95 29.7676 88.9561 28.8382 88.9619 27.9503C88.9727 26.2885 88.9826 24.7721 88.95 23.26C88.8 16.82 84.38 11.93 78.16 11.01C68.86 9.63 60.06 11.19 51.05 13.89C27.39 20.98 7.65 48.5 10.12 75.25C10.69 81.48 13.64 87.94 21.17 89.18C29.31 90.51 36.76 89.15 44.61 87.21Z" fill="black"/>
<path d="M50.19 53.89C47.47 54.19 46.48 55.92 45.41 57.27C44.17 58.85 46.16 59.53 46.96 60.35C47.96 61.38 49.3 62.08 50.46 62.96C52.1 64.21 52.39 65.44 50.59 66.92C49.04 68.2 47.72 68.52 46.41 66.74C45.84 65.97 45.41 65.1 44.84 64.33C42.9 61.73 40.89 60.92 38.5 63.94C37.53 65.17 36.1 67.01 34.51 65.48C33.31 64.33 33.84 62.21 35.4 61.15C39.79 58.17 37.2 55.81 34.48 54.28C32.48 53.16 31.88 51.98 32.16 50.04C32.31 49.03 32.95 48.21 34.07 48.07C36.09 47.83 37.06 49.34 37.93 50.71C39.17 52.67 40.16 55.29 43.06 53.37C45.55 51.72 47.52 49.5 43.57 47.08C42.76 46.58 41.84 46.2 41.16 45.56C39.59 44.08 39.49 42.26 40.93 40.74C42.56 39.04 43.96 40.35 45.08 41.62C46.04 42.71 46.69 44.09 47.7 45.12C49.87 47.34 51.08 45.2 52.58 43.98C54.32 42.56 54.29 41.39 52.55 40.05C51.53 39.27 50.59 38.45 49.46 37.76C47.5 36.56 47.3 34.36 48.99 32.68C50.63 31.06 52.33 32.29 53.08 33.73C55.52 38.41 58.11 39.57 61.71 34.87C62.68 33.6 63.98 33.76 65.17 34.79C66.86 36.25 65.31 37.07 64.52 38C60.6 42.59 60.61 42.56 65.6 46.32C66.61 47.09 68.18 47.88 67.77 49.34C67.45 50.51 66.36 51.64 64.96 51.91C63.1 52.28 62.74 50.72 61.77 49.61C60.36 47.99 59.29 44.7 55.98 46.56C52.35 48.59 52.51 51.17 56.54 53.87C58.02 54.86 60.13 55.39 59.63 57.57C59.38 58.64 58.22 59.77 56.69 59.95C55.24 60.13 54.59 59.25 54.07 58.16C53.11 56.16 51.39 55.02 50.18 53.89H50.19Z" fill="#010101"/>
</svg>
