<svg width="100" height="100" viewBox="0 0 100 100" fill="none" xmlns="http://www.w3.org/2000/svg">
<g clip-path="url(#clip0_1_485)">
<path fill-rule="evenodd" clip-rule="evenodd" d="M32.03 0H63C66.3384 0.481664 69.2631 2.00471 72.1748 3.52104C72.7693 3.83061 73.3632 4.1399 73.96 4.44C77.65 6.29 86.04 17 86.95 21.09C87.5 23.57 88.48 25.78 89.59 28.04C91.29 31.49 92.32 35.2 92.02 39.13C91.93 40.3 91.87 41.45 92.19 42.6C93.94 49.02 93.93 55.41 91.84 61.77C91.47 62.88 91.39 64.0499 91.31 65.2199V65.22C91.2978 65.4229 91.2883 65.6273 91.2787 65.8323C91.2338 66.7996 91.1883 67.7806 90.85 68.68C90.5131 69.5763 90.1838 70.4766 89.8545 71.3771C87.5051 77.8004 85.1545 84.2271 80.05 89.2C79.8703 89.3722 79.8251 89.3875 79.8212 89.3685C79.802 89.4046 79.7679 89.4646 79.71 89.56C76.15 95.58 70.46 98.38 63.99 100.01H31C27.76 99.28 24.6 98.42 22.37 95.63C21.8448 94.9735 21.0428 94.6149 20.2476 94.2594L20.2475 94.2593C19.9526 94.1275 19.6586 93.9961 19.38 93.85C17.73 92.98 16.1 91.9 15.3 90.27C14.0878 87.8161 12.5042 85.6408 10.9205 83.4655L10.9201 83.465C10.3613 82.6974 9.80249 81.9298 9.26 81.15C8.5 80.06 7.69 78.83 7.61 77.54C7.41564 74.3542 6.14301 71.604 4.85414 68.8187L4.85398 68.8184C4.61768 68.3077 4.38084 67.7959 4.15 67.28C3 64.71 2.38 61.85 3.4 59C4.07 57.12 3.68 55.5 2.85 53.74C1.2 50.25 1.15 46.59 2.96 43.15C4.03 41.12 4.41 39.19 4.02 36.93C3.37 33.16 4.02 29.62 6.55 26.59C7.57 25.38 7.88 23.97 8.08 22.45C8.56 18.65 10.12 15.41 13.42 13.25C14.75 12.38 15.54 11.23 16.14 9.8C17.44 6.71 19.68 4.61 23.03 3.82C23.1393 3.79437 23.2509 3.76983 23.3636 3.74505L23.3637 3.74505C24.0864 3.58618 24.8529 3.4177 25.32 2.89C26.5974 1.43516 28.2878 1.01279 29.9802 0.589929C30.6725 0.416941 31.3652 0.243871 32.03 0ZM59.78 96C56.13 95.98 50.93 93.32 48.99 90.75C48.8712 90.5929 48.7536 90.4282 48.635 90.2619C48.1643 89.6025 47.6769 88.9195 47.03 88.6C43.35 86.82 41.09 83.91 40.05 80.06C39.8146 79.1843 39.2689 78.7165 38.7218 78.2474L38.62 78.16C36.01 75.89 35 74.04 35.02 70.74L35.02 70.737C35.04 68.7081 35.059 66.7794 33.05 65.55C32.1095 64.9779 32.0339 64.0956 31.9481 63.0945L31.94 63C31.9028 62.5656 31.9435 62.1263 31.9846 61.6838C32.0759 60.7001 32.1687 59.7001 31.41 58.7C31.1 58.29 32 56.62 32.75 55.63C33.29 54.92 33.19 53.86 32.48 52.96C30.8807 50.9407 30.9255 48.6018 30.9702 46.2646C30.9809 45.7082 30.9915 45.1519 30.98 44.6C30.97 43.91 30.98 43.26 31.63 42.87C33.2442 41.921 33.1199 40.4135 33.0014 38.9754L33.0014 38.9752C32.9863 38.7919 32.9713 38.6097 32.96 38.43C32.63 33.18 32.87 32.06 36.01 28.54C36.75 27.71 37.06 26.97 36.99 25.93C36.75 22.27 38.41 19.84 41.48 17.81C41.5979 17.7319 41.7193 17.6529 41.843 17.5725L41.8433 17.5723C43.3671 16.5811 45.2357 15.3656 45.06 12.85C45.02 12.27 46.09 11.03 46.49 11.1C48.4335 11.4061 49.4168 10.2602 50.3852 9.13166C50.6825 8.78531 50.9783 8.4406 51.3 8.14C52.5634 6.95088 54.011 6.16408 55.485 5.36291L55.4852 5.36283C55.7961 5.19383 56.1082 5.02419 56.42 4.85C58.41 3.73 60.17 3.74 61.87 4.51C62.2794 4.69583 62.7547 4.79245 63.2371 4.89049C64.5459 5.15648 65.9062 5.43295 66.14 7.53C66.28 8.74 67.9 9.23 69.42 9.03C72.42 8.64 74.3 10.85 74.79 13.02C75.31 15.33 76.77 16.67 78.23 17.52C79.5532 18.2907 80.2391 19.4104 80.919 20.5204C81.236 21.0378 81.5517 21.5531 81.93 22.03C82.4 22.62 83 23.44 82.13 24.74C81.25 26.06 82.55 28.06 83.58 28.92C84.9798 30.0846 85.3199 31.6381 85.6572 33.1782C85.9222 34.3887 86.1855 35.591 86.96 36.59C87.18 36.87 86.92 37.45 86.64 37.92C85.5 39.86 85.43 42.14 86.52 43.9C88 46.29 88.01 48.74 87.99 51.3C87.9867 51.7433 87.9956 52.1878 88.0044 52.6323V52.6325C88.0222 53.5213 88.04 54.4101 87.96 55.29C87.9361 55.5502 87.9727 55.8475 88.0098 56.1491V56.1492C88.128 57.1111 88.2518 58.1176 86.44 58.11C86.0267 58.11 86.0118 58.665 85.9993 59.1328C85.9969 59.2196 85.9947 59.3033 85.99 59.38C85.9689 59.7201 85.985 60.1009 86.0011 60.4833C86.0386 61.3714 86.0764 62.2676 85.65 62.68C84.8116 63.4832 85.2106 63.9324 85.6299 64.4043C85.9258 64.7374 86.2317 65.0818 86.12 65.57C85.69 67.47 84.44 70.6 82.57 73.06C82.5075 73.1425 82.443 73.2265 82.3774 73.3119L82.3762 73.3134C81.6233 74.2933 80.725 75.4626 81.01 76.86C81.4274 78.9158 80.4166 80.3662 79.4065 81.8156C78.7952 82.6928 78.1841 83.5696 77.89 84.58C77.7464 85.0736 77.2081 85.0437 76.745 85.0179L76.7448 85.0179C76.692 85.0149 76.6401 85.0121 76.59 85.01C74.56 84.93 73.35 86.51 73.1 87.89C72.4 91.73 69.73 92.61 66.59 92.97C65.68 93.07 65 93.31 64.51 94.01C63.22 95.84 61.46 96.37 59.76 96.02L59.78 96ZM41.9448 95.9976C43.4397 95.9988 45.0195 96 46.73 96L46.76 95.98C46.2708 95.3198 45.9057 94.7251 45.5729 94.1831C44.9329 93.1408 44.4127 92.2934 43.36 91.55C41.07 89.92 38.64 87.99 37.61 85.05C37.5145 84.7848 37.264 84.6234 37.0105 84.46C36.5472 84.1615 36.074 83.8566 36.52 82.9C36.9398 81.9914 36.4039 81.8963 35.7909 81.7875C35.3379 81.7071 34.8427 81.6192 34.66 81.19C33.9871 79.6119 33.2416 78.0666 32.496 76.5212C31.7014 74.8742 30.9068 73.2271 30.2 71.54C30.1191 71.3488 30.3087 71.1156 30.5276 70.8464C30.9038 70.3838 31.3665 69.8149 30.69 69.17C28.678 67.2592 28.3353 64.8 27.9928 62.3419C27.794 60.915 27.5952 59.4886 27.07 58.17C26.81 57.52 26.74 56.51 27.59 55.93C28.96 55 29.26 54.08 27.64 53.09C26.76 52.56 26.9 51.61 27.05 50.86C27.3071 49.5676 27.1598 48.2088 27.0125 46.8491C26.7357 44.2949 26.4585 41.7374 28.86 39.61C28.89 39.57 28.63 39.13 28.45 38.93C27.54 37.91 27.7 36.04 28.11 35.72C29.0955 34.9434 29.1229 33.9344 29.1509 32.902C29.1751 32.0068 29.1999 31.0941 29.85 30.3C30.1781 29.8977 30.3247 29.2863 30.4792 28.6417C30.7202 27.6361 30.9806 26.5497 31.98 26.05C33.3685 25.3585 33.2307 24.3226 33.0907 23.2709C32.9817 22.4518 32.8714 21.623 33.48 20.94C34.1804 20.1534 34.6998 19.2191 35.2203 18.283C36.2083 16.506 37.2 14.7225 39.44 13.93C40.21 13.66 41.24 12.9 41.01 11.69C40.8165 10.6985 41.3573 10.1618 41.9096 9.61387C42.0424 9.48207 42.1759 9.34961 42.3 9.21C43.71 7.62 45.35 6.46 47.46 5.97C47.96 5.85 48.11 5.27 48.01 4.76C47.9 4.24 47.61 3.98 46.99 3.98C42.83 4.01 38.66 4.04 34.5 3.98C33.7689 3.97478 33.2259 4.34866 32.6888 4.7185C32.1975 5.05683 31.7111 5.39178 31.09 5.43C30.3264 9.16515 27.6077 9.10007 24.8727 9.0346C24.6348 9.0289 24.3968 9.0232 24.16 9.02C24.1162 9.01931 24.0717 9.01847 24.0266 9.01762C23.4232 9.00623 22.7187 8.99294 22.3 9.3C22.2575 9.33176 22.2129 9.36462 22.1669 9.39855C21.4446 9.93101 20.3657 10.7263 21.24 11.61C22.75 13.13 21.76 13.94 20.72 14.77C20.2604 15.1371 19.8652 15.6028 19.4691 16.0694C18.4947 17.2174 17.5151 18.3715 15.56 18.08C15.16 18.02 14.13 19.13 14.22 19.35C14.5012 20.023 14.249 20.5834 13.9836 21.1732C13.6733 21.8629 13.3449 22.5928 13.83 23.59C14.91 25.82 13.46 28.29 11.53 29.96C9.01 32.15 8.04 33.9 9.34 36.7C10.81 39.89 9.71 42.17 7.96 44.58C6.47 46.63 6.62 50.89 8.18 52.69C10.56 55.44 10.76 56.81 8.6 59.83C7.67 61.12 7.63 62.78 8.18 63.48C8.67526 64.1168 8.88819 64.8575 9.10281 65.604C9.40388 66.6513 9.70827 67.7102 10.8 68.51C12.69 69.89 13.73 72.26 12.64 74.86C12.5944 74.9663 12.4936 75.0541 12.3939 75.1409C12.1654 75.3399 11.9435 75.5331 12.41 75.93C13.0006 76.4357 13.2656 77.1394 13.5366 77.859C13.9354 78.9183 14.3473 80.0122 15.83 80.56C17.6 81.21 19.04 83.21 19.77 85.28C21.2031 89.3305 21.2892 89.3499 24.2668 90.0203L24.31 90.03C26.26 90.47 28.14 90.9 29.09 93.24C29.92 95.29 32 96 34.24 96C36.7118 95.9935 39.1836 95.9955 41.9448 95.9976Z" fill="black"/>
<path fill-rule="evenodd" clip-rule="evenodd" d="M73.54 25.23C70.45 21.15 66.59 17.42 60.34 18.03H60.33C57.18 17.35 54.3 18.84 51.79 20.78C46.58 24.81 43.41 30.3 42.1 36.69C41.9794 37.2896 41.7593 37.8589 41.5385 38.4302C41.1369 39.4692 40.7329 40.5147 40.92 41.76C41.1708 43.4263 40.7475 45.0927 40.3187 46.7806C40.2688 46.9768 40.2189 47.1732 40.17 47.37C39.66 49.41 39.27 51.97 40.61 54.05C41.0061 54.6628 40.9889 55.2365 40.9716 55.8129C40.9657 56.0078 40.9599 56.2029 40.97 56.4C41.47 65.75 44.97 73.6 52.2 79.74C56.62 83.49 63.36 84.12 67.83 80.56C73.45 76.08 77.59 70.44 78.88 63.21C78.9934 62.5845 79.2245 61.9964 79.456 61.4077C79.8572 60.3869 80.2593 59.364 80.05 58.14C79.8178 56.7392 80.1579 55.3439 80.4988 53.9459C80.6129 53.4777 80.7272 53.0092 80.82 52.54L80.8208 52.5361C81.2406 50.4568 81.7491 47.9387 80.32 45.87C79.8945 45.2546 79.9424 44.6565 79.99 44.0625C80.005 43.8747 80.02 43.6874 80.02 43.5C79.98 36.65 77.53 30.52 73.54 25.23ZM76.594 53.7931C76.8231 52.157 77.0581 50.4789 77.35 48.76L77.36 48.74C77.6547 48.1556 77.2884 47.4189 76.8607 46.5587C76.4467 45.7261 75.9752 44.7778 75.99 43.74C76.1 37 73.18 31.23 69.39 26.03C66.75 22.42 60.82 20.78 56 22.87C52.43 24.42 50.74 27.19 49.02 30.17C48.25 31.5 47.6 32.91 47.02 34.34C46.705 35.125 46.4425 35.9325 46.18 36.74C45.9175 37.5475 45.655 38.355 45.34 39.14C44.8645 40.3363 44.93 41.5491 44.995 42.7539C45.0175 43.1705 45.04 43.5863 45.04 44C45.04 44.8948 44.7626 45.7021 44.4827 46.5169C44.2026 47.3321 43.92 48.1548 43.91 49.08C43.892 50.8381 44.2198 52.5538 44.5469 54.2662C44.9472 56.3619 45.3466 58.4526 45.11 60.61C45.889 62.1039 46.481 63.6687 47.0742 65.2365C48.0574 67.8351 49.0439 70.4423 50.89 72.75C54.58 77.36 55.4 78.22 61.46 78.02C61.7137 78.0116 61.9692 78.0106 62.2239 78.0097C63.7863 78.0039 65.32 77.9983 66.24 76.27C68.8095 75.5524 69.9025 73.5189 70.9889 71.4973C71.3105 70.899 71.6315 70.3018 71.99 69.74C75.0247 65.0002 75.7715 59.667 76.594 53.7931Z" fill="black"/>
</g>
<defs>
<clipPath id="clip0_1_485">
<rect width="100" height="100" fill="white"/>
</clipPath>
</defs>
</svg>
