<svg width="100" height="100" viewBox="0 0 100 100" fill="none" xmlns="http://www.w3.org/2000/svg">
<path fill-rule="evenodd" clip-rule="evenodd" d="M31.53 4.08001C34.0328 4.42578 36.6028 4.66311 39.205 4.90342C44.5048 5.39284 49.9384 5.89461 55.21 7.35001C58.57 8.28001 61.72 10.11 64.27 12.83C66.8016 15.5288 69.4367 18.1317 72.0732 20.7361L72.0733 20.7362C73.6963 22.3394 75.3197 23.9431 76.92 25.57C79.01 27.7 80.72 29.72 79.4 33.31C78.48 35.82 80.83 37.18 83.18 36.96C88.8836 36.4105 91.8902 40.0067 94.8496 43.5465L94.8498 43.5467C95.4446 44.2581 96.0375 44.9673 96.65 45.64C98.88 48.09 97.73 50.76 95.54 52.94C93.4224 55.0456 91.3083 57.1585 89.1936 59.272L89.1916 59.274L89.1914 59.2742C87.7817 60.6832 86.3716 62.0924 84.96 63.5C84.15 64.31 83.38 64.93 82.05 65.05C77.34 65.48 69.34 57.43 69.92 52.74L69.9205 52.7356C70.1204 51.1067 70.3483 49.2492 68.49 48.33C66.26 47.23 64.8 48.66 63.34 50.13C50.1931 63.3069 37.0263 76.4637 23.8594 89.6206L23.85 89.63C18 95.47 16.06 95.46 10.14 89.54C9.82662 89.2266 9.51213 88.9144 9.19764 88.6021C8.5688 87.9777 7.93996 87.3533 7.32 86.72C2.9 82.15 2.87 79.69 7.39 75.16C8.71676 73.8282 10.0433 72.4964 11.3698 71.1646L11.3699 71.1645C23.301 59.1857 35.2288 47.2102 47.27 35.34C50.5 32.16 51.13 29.48 48.2 25.58C43.1 18.78 36.92 13.4 29.72 9.01001C29.3777 8.8026 28.9448 8.63516 28.4998 8.46305C27.1642 7.94642 25.7199 7.38778 26.29 5.58001C26.8545 3.78786 28.8082 3.91476 30.8414 4.04683L30.8414 4.04683C31.0772 4.06215 31.3141 4.07754 31.55 4.09001L31.53 4.08001ZM38.21 8.93L38.2311 8.93131C39.3778 11.1364 40.5844 12.133 41.95 13.07C46.91 16.47 50.62 20.93 53.15 26.43C54.55 29.48 54.92 32.73 52.84 35.12C50.52 37.79 51.38 39.19 53.48 41.02C55.11 42.44 56.65 43.98 58.06 45.61C59.49 47.26 60.63 47.33 61.96 45.53C63.56 43.38 66.03 41.73 68.3 43.3C68.573 43.4888 68.8556 43.6779 69.1425 43.8697C71.6511 45.5473 74.4815 47.4402 73.97 51.29C73.3697 55.7792 76.567 57.9721 79.3534 59.8831L79.3538 59.8834C79.6769 60.105 79.9945 60.3228 80.3 60.54C82.3451 61.9937 83.6285 60.3144 84.8812 58.6754C85.3865 58.0143 85.8868 57.3598 86.43 56.92C88.0728 55.5923 89.5411 54.0507 91.0081 52.5106C91.4968 51.9976 91.9853 51.4847 92.48 50.98C92.5767 50.8823 92.6787 50.7839 92.7817 50.6846L92.7822 50.6841C93.6384 49.8587 94.5679 48.9626 93.14 47.74C92.4164 47.1197 91.7658 46.4073 91.1167 45.6964L91.1167 45.6964C89.1915 43.5879 87.2792 41.4936 83.51 41.86C79.49 42.26 74.07 37.13 75.18 34.18C76.4361 30.8364 74.8128 29.2767 73.0508 27.5839L73.0507 27.5837C72.8208 27.3628 72.5885 27.1397 72.36 26.91C71.5289 26.0757 70.6635 25.2673 69.798 24.4587L69.7978 24.4585C67.9766 22.7572 66.1548 21.0554 64.65 19.11C58.0045 10.5058 48.5728 9.57127 38.2311 8.93131L38.22 8.91L38.21 8.93ZM57.1649 50.4351C57.1666 50.4334 57.1683 50.4317 57.17 50.43V50.44C57.1683 50.4384 57.1666 50.4367 57.1649 50.4351ZM57.1649 50.4351C56.4603 49.753 55.7568 49.1033 55.066 48.4654C53.5916 47.104 52.1752 45.7961 50.93 44.34C48.57 41.6 46.82 41.48 44.15 44.23C37.0043 51.596 29.7292 58.838 22.4553 66.0787C19.8247 68.6973 17.1942 71.3158 14.57 73.94C10.8645 77.6455 9.0218 79.4882 9.06171 81.2891C9.10205 83.109 11.0647 84.8862 14.97 88.5C16.87 90.26 17.76 89.81 19.31 88.25C28.5419 78.9591 37.8227 69.7117 47.1645 60.4036C50.4901 57.09 53.8234 53.7687 57.1649 50.4351Z" fill="#010101"/>
</svg>
