<svg width="80" height="80" viewBox="0 0 80 80" fill="none" xmlns="http://www.w3.org/2000/svg">
<path fill-rule="evenodd" clip-rule="evenodd" d="M23.94 12.61C24.92 11.2 26.05 10.13 27.19 9.08C29.46 7 32.3 7.06 34.73 8.95C37.83 11.36 37.63 15.22 35.75 17.93C34.73 19.4 32.97 19.87 31.22 19.98C30.1943 20.042 29.1686 20.0281 28.0843 20.0134C27.5934 20.0068 27.0904 20 26.57 20C27.95 21.31 29.41 21.57 31.05 21.52C32.3819 21.4776 33.7161 21.4884 35.0494 21.4992H35.0495C36.5489 21.5114 38.0473 21.5235 39.54 21.46C40.86 21.4 41.8 21.78 42.53 22.79C43.0773 23.5425 43.7177 24.2234 44.3544 24.9004L44.3544 24.9004C45.0207 25.6087 45.6829 26.3128 46.23 27.09C46.774 27.8621 47.4238 28.5399 48.0722 29.2162L48.0723 29.2163C48.902 30.0817 49.7294 30.9447 50.33 32C51.61 34.25 53.88 34.89 56.17 34.94C59.48 35.01 62.58 35.95 65.56 37.1C68.14 38.1 70.43 39.83 72.23 42.04C72.74 42.67 73.03 43.41 73.02 44.31C72.97 49.81 72.97 55.3 73.02 60.8C73.03 61.86 72.63 62.17 71.72 61.99C70.9629 61.8323 70.2612 62.0339 69.558 62.2359C68.9237 62.4181 68.2882 62.6006 67.61 62.52C66.9653 62.445 66.8657 62.9434 66.7804 63.3703C66.7519 63.5128 66.725 63.6474 66.68 63.75C65.8 65.8 64.68 67.65 63.05 69.2C61.14 71.01 58.92 72.02 56.27 72C55.8592 71.996 55.4468 72.0033 55.0342 72.0106C53.3976 72.0397 51.7573 72.0688 50.2 71.39C47.05 70.02 45.01 67.52 43.54 64.52C43.34 64.11 43.13 63.62 43.02 63.16C42.9 62.65 42.68 62.48 42.2 62.49C41.033 62.49 39.8659 62.4911 38.6993 62.4922C36.367 62.4944 34.0363 62.4967 31.71 62.49C31.2664 62.49 31.1503 62.7228 30.9954 63.0333C30.9687 63.0868 30.9409 63.1427 30.91 63.2C30.7098 63.5844 30.5224 63.9767 30.3349 64.3692C29.82 65.4469 29.3043 66.5264 28.52 67.45C26.47 69.86 24.06 71.56 20.79 72.06C18.98 72.34 17.26 72.28 15.61 71.79C11.46 70.55 8.54 67.89 7.31 63.65L7.26222 63.4854C6.87652 62.1571 6.48 60.7916 6.48 59.38V22.9C6.48 21.54 6.51 21.51 7.83 21.5C9.06955 21.4927 10.3104 21.496 11.5517 21.4993H11.552H11.5523H11.5527C13.7257 21.5051 15.8999 21.5109 18.07 21.46C18.272 21.4548 18.5123 21.4919 18.7595 21.5301L18.7596 21.5301L18.7596 21.5301L18.7597 21.5301C19.4669 21.6393 20.2311 21.7572 20.32 20.92C20.3735 20.3913 19.8904 20.3884 19.3364 20.3851C18.9579 20.3829 18.5463 20.3805 18.25 20.21C17.7137 19.8989 17.0796 19.8611 16.4233 19.822H16.4233C15.8559 19.7881 15.2718 19.7533 14.72 19.54C12.29 18.6 10.69 16.65 10.44 14.15C10.3842 13.5781 10.5911 13.1132 10.7926 12.6603L10.7926 12.6603C10.8801 12.4638 10.9665 12.2697 11.03 12.07C11.76 9.73 13.5 8.14 15.82 7.59C18.42 6.98 20.41 8.45 21.92 10.41C22.53 11.2 23.15 11.89 23.91 12.62L23.94 12.61ZM24.86 24.5C26.127 24.5 27.3933 24.5028 28.6592 24.5057C32.1394 24.5135 35.617 24.5213 39.1 24.47C40.28 24.45 41.16 24.72 41.91 25.64C44.13 28.38 46.36 31.11 48.62 33.81C49.0722 34.347 49.5691 34.8456 50.0675 35.3457C50.4507 35.7303 50.8348 36.1157 51.2 36.52C51.5979 36.9612 52.0707 36.9758 52.5665 36.9911C52.6439 36.9935 52.7217 36.996 52.8 37C56.86 37.21 60.83 37.76 64.6 39.45C66.1312 40.1381 67.4463 41.0985 68.773 42.0673L68.9 42.16C70.08 43.02 70.64 44.12 70.57 45.76C70.4526 48.5147 70.4735 51.2743 70.4944 54.0353C70.5037 55.2733 70.5131 56.5117 70.51 57.75C70.51 59.165 70.4901 59.17 69.0651 59.5262L69.05 59.53C68.8722 59.5764 68.7064 59.6765 68.5433 59.775C68.4954 59.8039 68.4477 59.8327 68.4 59.86C67.95 60.1 67.67 60.03 67.52 59.48C66.9 57.2 65.79 55.16 64.55 53.15C62.92 50.5 60.57 48.8 57.66 48.06C53.2 46.92 48.12 48.99 45.55 52.87C44.49 54.46 43.48 56.11 42.99 58.03C42.62 59.48 42.46 59.49 40.93 59.49C39.7514 59.4943 38.5747 59.4931 37.3982 59.4918H37.398H37.3978H37.3977C35.8292 59.4902 34.2612 59.4886 32.69 59.5C31.73 59.5 31.24 59.23 30.98 58.18C30.29 55.38 28.98 52.89 26.78 50.9C24.7 49.01 22.35 48.08 19.51 47.94C15.92 47.76 13.04 49.14 10.41 51.34C10.3491 51.3903 10.2903 51.456 10.2309 51.5225C10.0657 51.7071 9.89528 51.8976 9.66 51.78C9.32 51.6 8.96 51.32 9.01 50.81C9.02333 50.6433 9.01889 50.4767 9.01445 50.31C9.01222 50.2267 9.01 50.1433 9.01 50.06V25.83C9.01 24.52 9.04 24.49 10.38 24.49C13.6 24.4833 16.82 24.4856 20.04 24.4878L20.0483 24.4878C21.6555 24.4889 23.2628 24.49 24.87 24.49L24.86 24.5ZM45.09 59.91C45.03 65.45 49.36 69.55 54.92 70L54.93 70.01C60.8 69.54 64.92 65.59 64.88 59.98C64.83 54.31 60.84 50.28 55.13 50.1C49.65 49.93 45.14 54.35 45.09 59.91ZM9 59.98C9.44 54.01 13.33 50.15 18.87 50.12C24.94 50.09 28.04 54.19 28.98 59.95C28.848 60.4034 28.7299 60.8601 28.6121 61.3158L28.612 61.316C28.1139 63.2423 27.6203 65.1512 26.1 66.72C24.1 68.78 21.71 69.99 18.98 69.94C13.35 69.83 9.12 65.11 9 59.99V59.98ZM16.45 10.04C15.07 10.29 13.53 12.6 13.5 14.13H13.49C13.46 16.37 14.5 17.47 16.71 17.49C18.3 17.51 19.88 17.52 21.46 17.49C22.1348 17.4713 22.2738 17.7776 22.5191 18.3183C22.5355 18.3545 22.5524 18.3917 22.57 18.43C22.7137 18.7486 22.7852 19.1092 22.857 19.4716C23.0151 20.2691 23.1749 21.0749 24.11 21.46C24.4748 20.9516 24.6322 20.3681 24.7896 19.7843C24.8954 19.3921 25.0012 18.9997 25.17 18.63C25.1803 18.6072 25.1906 18.5845 25.2008 18.5617C25.4781 17.9468 25.7367 17.3732 26.73 17.46C28.2459 17.5978 29.7871 17.5499 31.3149 17.5025C31.45 17.4983 31.5851 17.4941 31.72 17.49C33.3 17.45 34.39 16.23 34.51 14.64C34.62 13.12 33.87 11.94 33 10.89C32.08 9.77 30.66 9.87 29.2 10.43C28.09 10.85 27.53 11.87 27.36 12.58C26.76 15.03 25.16 15.22 23.17 15C22.9617 14.975 22.7533 14.9847 22.545 14.9944C22.5033 14.9964 22.4617 14.9983 22.42 15C21.65 15.04 21.13 14.69 21.02 13.92C20.8441 12.739 20.121 11.9439 19.3854 11.135C19.2428 10.9781 19.0997 10.8208 18.96 10.66C18.22 9.8 17.29 9.88 16.45 10.04Z" fill="black"/>
<path d="M54.94 64C52.47 64 51 62.54 51 60.1C51 57.44 52.41 56 55 56C57.53 56 59.01 57.44 59 59.88C58.98 62.53 57.53 64 54.94 64Z" fill="black"/>
<path d="M18.92 56C21.5 56.02 23.03 57.65 23 60.09C22.98 62.56 21.37 64.03 18.73 64.01C16.72 63.99 14.44 61.98 14.58 60.06C14.66 59.01 15.23 57.97 16.03 57.09C16.93 56.11 17.94 55.88 18.91 56.01L18.92 56Z" fill="black"/>
</svg>
